M48
; DRILL file {KiCad (5.99.0-3349-gc9824bbd9)} date Thursday, September 24, 2020 at 04:48:42 PM
; FORMAT={-:-/ absolute / inch / decimal}
; #@! TF.CreationDate,2020-09-24T16:48:42-07:00
; #@! TF.GenerationSoftware,Kicad,Pcbnew,(5.99.0-3349-gc9824bbd9)
; #@! TF.FileFunction,Plated,1,4,PTH
FMAT,2
INCH
T1C0.0138
T2C0.0394
%
G90
G05
T1
X0.5945Y-0.8386
X0.5945Y-0.9724
X0.5945Y-1.2323
X0.5945Y-1.3701
X0.5945Y-1.6299
X0.5945Y-1.7598
X0.8268Y-1.4724
X0.8268Y-1.7795
X0.9094Y-0.7008
X0.9606Y-0.5157
X1.1142Y-3.5925
X1.126Y-3.1634
X1.1339Y-1.8858
X1.1969Y-2.75
X1.2008Y-2.3051
X1.2142Y-3.7117
X1.2142Y-3.8495
X1.2276Y-3.2802
X1.2276Y-3.418
X1.2283Y-1.878
X1.252Y-1.7323
X1.252Y-3.5965
X1.2638Y-3.1634
X1.265Y-1.9154
X1.2657Y-1.4075
X1.2982Y-2.8678
X1.2982Y-3.0056
X1.2992Y-1.7795
X1.3015Y-2.4229
X1.3015Y-2.5607
X1.3071Y-0.748
X1.3268Y-1.8071
X1.3386Y-2.8209
X1.3406Y-2.3051
X1.352Y-3.7117
X1.352Y-3.8495
X1.3524Y-3.6339
X1.3634Y-1.6624
X1.3634Y-2.0955
X1.3654Y-1.5246
X1.3654Y-1.9577
X1.3654Y-3.2802
X1.3654Y-3.418
X1.3976Y-3.1634
X1.4016Y-1.8445
X1.4016Y-3.252
X1.4028Y-1.6624
X1.4028Y-2.0955
X1.4331Y-1.1024
X1.4399Y-2.8678
X1.4399Y-3.0056
X1.4432Y-2.4229
X1.4432Y-2.5607
X1.4528Y-0.7835
X1.4528Y-1.378
X1.4754Y-2.75
X1.4754Y-3.0039
X1.4764Y-2.3031
X1.4787Y-2.5591
X1.4898Y-3.7117
X1.4898Y-3.8495
X1.4961Y-1.2362
X1.498Y-0.9409
X1.498Y-1.1955
X1.5032Y-3.2802
X1.5032Y-3.418
X1.5236Y-3.5965
X1.5272Y-3.8495
X1.5394Y-1.4075
X1.5394Y-1.8406
X1.5394Y-3.1634
X1.5406Y-1.6624
X1.5406Y-2.0955
X1.5406Y-3.418
X1.5669Y-2.6102
X1.5787Y-1.252
X1.6102Y-2.75
X1.6151Y-3.003
X1.6161Y-2.3031
X1.6165Y-2.5591
X1.6358Y-1.1955
X1.6535Y-3.0424
X1.665Y-3.8495
X1.6654Y-3.5965
X1.6772Y-3.1634
X1.6784Y-3.418
X1.6981Y-1.5246
X1.6981Y-1.6624
X1.6981Y-1.9577
X1.6981Y-2.0955
X1.7323Y-2.9094
X1.7706Y-2.4213
X1.7706Y-2.5591
X1.7706Y-2.8632
X1.7706Y-2.9577
X1.7706Y-3.001
X1.7736Y-0.9409
X1.7736Y-1.1955
X1.7739Y-1.6378
X1.7739Y-2.0709
X1.8061Y-2.374
X1.8225Y-3.7117
X1.8225Y-3.8062
X1.8225Y-3.8495
X1.8346Y-1.4094
X1.8346Y-1.8425
X1.8359Y-3.2802
X1.8359Y-3.3747
X1.8359Y-3.418
X1.8661Y-2.2992
X1.872Y-2.9213
X1.874Y-1.5827
X1.874Y-2.0138
X1.9055Y-2.75
X1.9084Y-2.8632
X1.9291Y-0.9409
X1.9449Y-2.3406
X1.9579Y-1.5679
X1.9579Y-2.001
X1.9603Y-3.7117
X1.9606Y-3.5965
X1.9724Y-3.1634
X1.9737Y-3.2802
X1.9832Y-2.4213
X1.9894Y-1.6309
X1.9894Y-2.064
X1.9941Y-1.4094
X1.9941Y-1.8406
X2.0327Y-1.6033
X2.0327Y-2.0364
X2.0563Y-1.5561
X2.0563Y-1.9892
X2.0659Y-2.4213
X2.0669Y-2.75
X2.0689Y-0.9409
X2.0796Y-1.2334
X2.0937Y-1.6624
X2.1004Y-2.3425
X2.1043Y-1.1561
X2.1181Y-3.5965
X2.1299Y-3.1634
X2.1311Y-1.6624
X2.1311Y-2.0955
X2.1683Y-2.3898
X2.1784Y-1.6279
X2.1784Y-2.0609
X2.1981Y-1.5955
X2.1981Y-2.0285
X2.2037Y-2.5591
X2.2037Y-3.001
X2.2067Y-0.9409
X2.2067Y-1.1955
X2.2493Y-1.564
X2.2493Y-1.997
X2.2556Y-3.8495
X2.2689Y-3.418
X2.2864Y-3.0325
X2.2894Y-1.4075
X2.2894Y-1.8425
X2.2942Y-2.5945
X2.3218Y-2.5157
X2.3383Y-3.881
X2.3516Y-3.4495
X2.3622Y-2.7461
X2.389Y-3.2802
X2.3996Y-2.3386
X2.4131Y-3.5965
X2.4291Y-3.1634
X2.4372Y-2.8986
X2.4619Y-1.6191
X2.4619Y-2.0522
X2.4891Y-3.7471
X2.499Y-2.5591
X2.499Y-3.001
X2.5012Y-1.8199
X2.502Y-0.9409
X2.5024Y-3.3156
X2.5039Y-1.1955
X2.5465Y-1.8199
X2.5472Y-1.8799
X2.5509Y-3.8495
X2.5551Y-1.563
X2.5642Y-3.418
X2.5765Y-2.7057
X2.5846Y-1.6398
X2.6191Y-2.7057
X2.6193Y-1.7844
X2.6201Y-2.7638
X2.6417Y-3.5693
X2.6457Y-1.2205
X2.6565Y-2.7057
X2.6575Y-2.4547
X2.6575Y-3.2795
X2.6772Y-1.0262
X2.6843Y-3.5693
X2.687Y-3.626
X2.6929Y-2.8071
X2.7205Y-3.313
X2.7217Y-3.5693
X2.7571Y-1.7844
X2.7571Y-1.9222
X2.7598Y-0.9685
X2.7598Y-1.0577
X2.7942Y-2.8435
X2.7972Y-0.939
X2.7992Y-1.1916
X2.8297Y-2.6703
X2.8418Y-1.7411
X2.8595Y-3.7071
X2.8949Y-3.5338
X2.9055Y-1.2388
X2.9796Y-3.4709
X2.9891Y-2.7648
X3.017Y-1.8789
X3.0551Y-2.8031
X3.0728Y-0.9409
X3.0744Y-2.8622
X3.0748Y-1.1955
X3.0895Y-2.7648
X3.0906Y-2.5138
X3.1181Y-2.0827
X3.1181Y-2.2598
X3.1535Y-3.3563
X3.1548Y-1.7411
X3.1548Y-3.6086
X3.2106Y-0.9409
X3.2115Y-1.1955
X3.2273Y-2.627
X3.248Y-1.1522
X3.248Y-1.2642
X3.2748Y-1.7411
X3.2756Y-1.5354
X3.2926Y-3.4709
X3.311Y-1.626
X3.3142Y-1.875
X3.3858Y-2.5098
X3.3868Y-2.7608
X3.416Y-1.1955
X3.4205Y-1.9222
X3.4488Y-3.3524
X3.452Y-3.6047
X3.4931Y-2.8081
X3.5472Y-1.7992
X3.5886Y-1.628
X3.5898Y-1.8789
X3.6575Y-2.5098
X3.6624Y-2.7648
X3.7244Y-1.628
X3.7244Y-1.878
X3.7244Y-3.3563
X3.7276Y-3.6086
X3.7991Y-2.7648
X3.8356Y-2.7215
X3.8622Y-3.3524
X3.8634Y-1.6624
X3.8661Y-1.615
X3.8976Y-2.626
X3.8976Y-3.9055
X3.9008Y-3.5653
X3.9638Y-3.4709
X4.0Y-3.9055
X4.0984Y-3.9055
X4.2008Y-3.9055
X4.2992Y-3.9055
X4.3353Y-2.6266
X4.3353Y-3.4718
T2
X0.5512Y-0.5512
X0.6512Y-0.5512
X3.9Y-4.311
X4.0Y-4.311
X4.1Y-4.311
X4.2Y-4.311
X4.3Y-4.311
T0
M30
