%TF.GenerationSoftware,KiCad,Pcbnew,(5.99.0-3349-gc9824bbd9)*%
%TF.CreationDate,2020-09-24T16:48:39-07:00*%
%TF.ProjectId,Counter,436f756e-7465-4722-9e6b-696361645f70,rev?*%
%TF.SameCoordinates,Original*%
%TF.FileFunction,Copper,L3,Inr*%
%TF.FilePolarity,Positive*%
%FSLAX46Y46*%
G04 Gerber Fmt 4.6, Leading zero omitted, Abs format (unit mm)*
G04 Created by KiCad (PCBNEW (5.99.0-3349-gc9824bbd9)) date 2020-09-24 16:48:39*
%MOMM*%
%LPD*%
G01*
G04 APERTURE LIST*
%TA.AperFunction,ComponentPad*%
%ADD10O,1.700000X1.700000*%
%TD*%
%TA.AperFunction,ViaPad*%
%ADD11C,0.600000*%
%TD*%
G04 APERTURE END LIST*
D10*
%TO.N,+3V3*%
%TO.C,J1*%
X14000000Y-14000000D03*
%TO.N,GND*%
X16540000Y-14000000D03*
%TD*%
%TO.N,/CLK*%
%TO.C,J2*%
X109220000Y-109500000D03*
%TO.N,/B0*%
X106680000Y-109500000D03*
%TO.N,/B1*%
X104140000Y-109500000D03*
%TO.N,/B2*%
X101600000Y-109500000D03*
%TO.N,/B3*%
X99060000Y-109500000D03*
%TD*%
D11*
%TO.N,GND*%
X101600000Y-99200000D03*
X54131002Y-53225000D03*
X37473904Y-76300000D03*
X54131002Y-42225000D03*
X62531002Y-52125000D03*
X62531002Y-41125000D03*
X46291753Y-97777453D03*
X109200000Y-99200000D03*
X37558403Y-65000000D03*
X55973904Y-65000000D03*
X39131002Y-86816702D03*
X44973904Y-65000000D03*
X43131002Y-49725000D03*
X39131002Y-53225000D03*
X63473904Y-65000000D03*
X15100000Y-21300000D03*
X70973904Y-72225000D03*
X36900000Y-19900000D03*
X55973904Y-76225000D03*
X42631002Y-86816702D03*
X64791753Y-97777453D03*
X42291753Y-97777453D03*
X21000000Y-45200000D03*
X15100000Y-24700000D03*
X23100000Y-17800000D03*
X106700000Y-99200000D03*
X35631002Y-53225000D03*
X43131002Y-53225000D03*
X41023904Y-76275000D03*
X44973904Y-76225000D03*
X84181002Y-47625000D03*
X33200000Y-19000000D03*
X24400000Y-13100000D03*
X63473904Y-76225000D03*
X93023904Y-70225000D03*
X57631002Y-86816702D03*
X43131002Y-38725000D03*
X69131002Y-90659604D03*
X15100000Y-34800000D03*
X57291753Y-97777453D03*
X39131002Y-42225000D03*
X81973904Y-66725000D03*
X46631002Y-83316702D03*
X38791753Y-97777453D03*
X70031002Y-45325000D03*
X53450000Y-29365501D03*
X91181002Y-47725000D03*
X66531002Y-45325000D03*
X46291753Y-94277453D03*
X78473904Y-70225000D03*
X41058403Y-65000000D03*
X38050000Y-30365501D03*
X15100000Y-31300000D03*
X99081002Y-90559604D03*
X44973904Y-61500000D03*
X45050000Y-30365501D03*
X44973904Y-72725000D03*
X78100000Y-30365501D03*
X70031002Y-48825000D03*
X56050000Y-30365501D03*
X94600000Y-47700000D03*
X71100000Y-30265501D03*
X72631002Y-94159604D03*
X43131002Y-42225000D03*
X76631002Y-47725000D03*
X94681002Y-91659604D03*
X86023904Y-70125000D03*
X87681002Y-91559604D03*
X35631002Y-42225000D03*
X80131002Y-91659604D03*
X80131002Y-44225000D03*
X104100000Y-99200000D03*
X83631002Y-88159604D03*
X41550000Y-30365501D03*
X99000000Y-99200000D03*
X15100000Y-44700000D03*
X82500000Y-29265501D03*
X63600000Y-30365501D03*
X73531002Y-89759604D03*
X67473904Y-68725000D03*
X46631002Y-86816702D03*
X97423904Y-69125000D03*
X15100000Y-41400000D03*
X71873904Y-67825000D03*
X68000000Y-26065501D03*
X65131002Y-86816702D03*
%TO.N,/B0*%
X86765501Y-30365501D03*
X34681002Y-38725000D03*
X82500000Y-32110011D03*
X36900000Y-35000000D03*
X34631002Y-42225000D03*
%TO.N,/B1*%
X51631002Y-51725000D03*
X33058403Y-61542902D03*
X55831002Y-40525000D03*
X31181002Y-83316702D03*
X57131002Y-39725000D03*
X52231002Y-50525000D03*
X31181002Y-86816702D03*
X98131002Y-42225000D03*
X98200000Y-41020999D03*
X53181002Y-42225000D03*
X45056002Y-52600000D03*
X33058403Y-65042902D03*
X50531002Y-52425000D03*
X64900000Y-39700000D03*
%TO.N,/B2*%
X42000000Y-77277002D03*
X34681002Y-86816702D03*
X34681002Y-83316702D03*
X44000000Y-73900000D03*
%TO.N,/B3*%
X67500000Y-83300000D03*
X60681002Y-83316702D03*
%TO.N,/CLK*%
X70100000Y-26865501D03*
X83200000Y-39000000D03*
X83181002Y-44225000D03*
X100681002Y-88159604D03*
X70100000Y-24600000D03*
X110115510Y-88184490D03*
X110115510Y-66715510D03*
X99000000Y-66700000D03*
%TO.N,+3V3*%
X58150000Y-46800000D03*
X35600000Y-46850000D03*
X68250000Y-92100000D03*
X67500000Y-62350000D03*
X47600000Y-40200000D03*
X34000000Y-71650000D03*
X50100000Y-80350000D03*
X42300000Y-91350000D03*
X69100000Y-84150000D03*
X66550000Y-70200000D03*
X39100000Y-80350000D03*
X49800000Y-91350000D03*
X60000000Y-69750000D03*
X46600000Y-35800000D03*
X60950000Y-59400000D03*
X94600000Y-41350000D03*
X30400000Y-69850000D03*
X81550000Y-23900000D03*
X41050000Y-58500000D03*
X61700000Y-80350000D03*
X49000000Y-23900000D03*
X78050000Y-23900000D03*
X32131002Y-48650000D03*
X42600000Y-80350000D03*
X80100000Y-85250000D03*
X32100000Y-80350000D03*
X38700000Y-91350000D03*
X98100000Y-85150000D03*
X31800000Y-91350000D03*
X53800000Y-91350000D03*
X52550000Y-23900000D03*
X65650000Y-41650000D03*
X84100000Y-41300000D03*
X61291753Y-91350000D03*
X37473904Y-69850000D03*
X40900000Y-69850000D03*
X35500000Y-80350000D03*
X47600000Y-51150000D03*
X54100000Y-80350000D03*
X46600000Y-46800000D03*
X39100000Y-46750000D03*
X48400000Y-69850000D03*
X50650000Y-35800000D03*
X28300000Y-91250000D03*
X71050000Y-23850000D03*
X58150000Y-35750000D03*
X34050000Y-58550000D03*
X50650000Y-46750000D03*
X49400000Y-59450000D03*
X78500000Y-63850000D03*
X91150000Y-41350000D03*
X39100000Y-35750000D03*
X94600000Y-85250000D03*
X32150000Y-35750000D03*
X45050000Y-23900000D03*
X34350000Y-92300000D03*
X30500000Y-58550000D03*
X64700000Y-47750000D03*
X92900000Y-63750000D03*
X86000000Y-63750000D03*
X52500000Y-69850000D03*
X37500000Y-58500000D03*
X47550000Y-74200000D03*
X38050000Y-23900000D03*
X28600000Y-80350000D03*
X63550000Y-23900000D03*
X87600000Y-85150000D03*
X56050000Y-23900000D03*
X53350000Y-59500000D03*
%TO.N,/UP*%
X33000000Y-45200000D03*
X36658403Y-65042902D03*
X33700000Y-45900000D03*
X38000000Y-31400000D03*
X38181002Y-86816702D03*
X36658403Y-61542902D03*
X38181002Y-83316702D03*
X31800000Y-44000000D03*
X36400000Y-28000000D03*
%TO.N,/!B0*%
X73800000Y-31465501D03*
X31200000Y-47700000D03*
X40100000Y-31800000D03*
X81572998Y-30365501D03*
%TO.N,/DW*%
X34681002Y-49725000D03*
X28800000Y-47900000D03*
X36573904Y-72842902D03*
X36573904Y-76342902D03*
X37841753Y-97777453D03*
X34631002Y-53225000D03*
X37841753Y-94277453D03*
%TO.N,/!B1*%
X39800000Y-66300000D03*
X30841753Y-97777453D03*
X32973904Y-76342902D03*
X90100000Y-45700000D03*
X47400000Y-58400000D03*
X32973904Y-72842902D03*
X30841753Y-94277453D03*
X86881002Y-48825000D03*
%TO.N,/Q_7*%
X66523904Y-68725000D03*
X65442903Y-68725000D03*
%TO.N,/!B2*%
X35600000Y-82600000D03*
X88723904Y-71325000D03*
X34341753Y-94277453D03*
X78090500Y-72700000D03*
X34341753Y-97777453D03*
X96496902Y-70225000D03*
%TO.N,/Q_3*%
X45873904Y-60300000D03*
X55073904Y-60700000D03*
%TO.N,/XOR3/!A*%
X58273903Y-65899999D03*
X50373904Y-61500000D03*
%TO.N,/XOR3/!B*%
X52473904Y-61500000D03*
X58973904Y-63900000D03*
%TO.N,/XOR4/!A*%
X48473904Y-72725000D03*
X61904648Y-73624556D03*
%TO.N,/XOR4/!B*%
X44973904Y-75125000D03*
X58073904Y-77025000D03*
%TO.N,/XOR5/!A*%
X50131002Y-83316702D03*
X63561746Y-84216258D03*
%TO.N,/XOR5/!B*%
X59731002Y-87616702D03*
X46631002Y-85716702D03*
%TO.N,/XOR6/!A*%
X49791753Y-94277453D03*
X63222497Y-95177009D03*
%TO.N,/XOR6/!B*%
X59391753Y-98577453D03*
X46291753Y-96677453D03*
%TO.N,/RST*%
X72181002Y-44225000D03*
X67200000Y-31000000D03*
X21000000Y-37400000D03*
X75681002Y-88159604D03*
X79200000Y-57400000D03*
X79200000Y-52900000D03*
X52822861Y-31329010D03*
X77600000Y-71200000D03*
%TO.N,/Q_11*%
X68181002Y-90659604D03*
X67100001Y-90659604D03*
%TO.N,/Q_13*%
X75923904Y-70225000D03*
X68400000Y-71300000D03*
%TO.N,/Q_17*%
X64681002Y-46225000D03*
X63531002Y-46225000D03*
%TO.N,/XOR1/!B*%
X49731002Y-39825000D03*
X55331002Y-41347998D03*
%TO.N,/XOR2/!B*%
X55331002Y-52347998D03*
X49731002Y-50825000D03*
%TO.N,/Q*%
X45056002Y-41600000D03*
X51631002Y-40725000D03*
X52231002Y-39525000D03*
X50531002Y-41425000D03*
%TO.N,/Q_20*%
X55831002Y-51525000D03*
X57131002Y-50725000D03*
%TD*%
%TA.AperFunction,Conductor*%
%TO.N,+3V3*%
G36*
X111872501Y-111872500D02*
G01*
X12127500Y-111872500D01*
X12127500Y-109595826D01*
X98082687Y-109595826D01*
X98121917Y-109790385D01*
X98199467Y-109973082D01*
X98312169Y-110136454D01*
X98455420Y-110273827D01*
X98623368Y-110379589D01*
X98809152Y-110449421D01*
X99005183Y-110480469D01*
X99203457Y-110471465D01*
X99395862Y-110422779D01*
X99574554Y-110336396D01*
X99732225Y-110215847D01*
X99862436Y-110066057D01*
X99959868Y-109893143D01*
X100020541Y-109704169D01*
X100020542Y-109704167D01*
X100032311Y-109595826D01*
X100622687Y-109595826D01*
X100661917Y-109790385D01*
X100739467Y-109973082D01*
X100852169Y-110136454D01*
X100995420Y-110273827D01*
X101163368Y-110379589D01*
X101349152Y-110449421D01*
X101545183Y-110480469D01*
X101743457Y-110471465D01*
X101935862Y-110422779D01*
X102114554Y-110336396D01*
X102272225Y-110215847D01*
X102402436Y-110066057D01*
X102499868Y-109893143D01*
X102560541Y-109704169D01*
X102560542Y-109704167D01*
X102572311Y-109595826D01*
X103162687Y-109595826D01*
X103201917Y-109790385D01*
X103279467Y-109973082D01*
X103392169Y-110136454D01*
X103535420Y-110273827D01*
X103703368Y-110379589D01*
X103889152Y-110449421D01*
X104085183Y-110480469D01*
X104283457Y-110471465D01*
X104475862Y-110422779D01*
X104654554Y-110336396D01*
X104812225Y-110215847D01*
X104942436Y-110066057D01*
X105039868Y-109893143D01*
X105100541Y-109704169D01*
X105100542Y-109704167D01*
X105112311Y-109595826D01*
X105702687Y-109595826D01*
X105741917Y-109790385D01*
X105819467Y-109973082D01*
X105932169Y-110136454D01*
X106075420Y-110273827D01*
X106243368Y-110379589D01*
X106429152Y-110449421D01*
X106625183Y-110480469D01*
X106823457Y-110471465D01*
X107015862Y-110422779D01*
X107194554Y-110336396D01*
X107352225Y-110215847D01*
X107482436Y-110066057D01*
X107579868Y-109893143D01*
X107640541Y-109704169D01*
X107640542Y-109704167D01*
X107652311Y-109595826D01*
X108242687Y-109595826D01*
X108281917Y-109790385D01*
X108359467Y-109973082D01*
X108472169Y-110136454D01*
X108615420Y-110273827D01*
X108783368Y-110379589D01*
X108969152Y-110449421D01*
X109165183Y-110480469D01*
X109363457Y-110471465D01*
X109555862Y-110422779D01*
X109734554Y-110336396D01*
X109892225Y-110215847D01*
X110022436Y-110066057D01*
X110119868Y-109893143D01*
X110180541Y-109704169D01*
X110180542Y-109704167D01*
X110201975Y-109506864D01*
X110201976Y-109506856D01*
X110202000Y-109500000D01*
X110181943Y-109302541D01*
X110122591Y-109113149D01*
X110026369Y-108939559D01*
X110026366Y-108939555D01*
X109897210Y-108788866D01*
X109878870Y-108774640D01*
X109740381Y-108667217D01*
X109639107Y-108617384D01*
X109562297Y-108579588D01*
X109444288Y-108548850D01*
X109370232Y-108529560D01*
X109351425Y-108528574D01*
X109172030Y-108519171D01*
X108975789Y-108548850D01*
X108789519Y-108617384D01*
X108620838Y-108721971D01*
X108476629Y-108858342D01*
X108362793Y-109020919D01*
X108362791Y-109020922D01*
X108322881Y-109113149D01*
X108283966Y-109203075D01*
X108263187Y-109302541D01*
X108243379Y-109397353D01*
X108242687Y-109595826D01*
X107652311Y-109595826D01*
X107661975Y-109506864D01*
X107661976Y-109506856D01*
X107662000Y-109500000D01*
X107641943Y-109302541D01*
X107582591Y-109113149D01*
X107486369Y-108939559D01*
X107486366Y-108939555D01*
X107357210Y-108788866D01*
X107338870Y-108774640D01*
X107200381Y-108667217D01*
X107099107Y-108617384D01*
X107022297Y-108579588D01*
X106904288Y-108548850D01*
X106830232Y-108529560D01*
X106811425Y-108528574D01*
X106632030Y-108519171D01*
X106435789Y-108548850D01*
X106249519Y-108617384D01*
X106080838Y-108721971D01*
X105936629Y-108858342D01*
X105822793Y-109020919D01*
X105822791Y-109020922D01*
X105782881Y-109113149D01*
X105743966Y-109203075D01*
X105723187Y-109302541D01*
X105703379Y-109397353D01*
X105702687Y-109595826D01*
X105112311Y-109595826D01*
X105121975Y-109506864D01*
X105121976Y-109506856D01*
X105122000Y-109500000D01*
X105101943Y-109302541D01*
X105042591Y-109113149D01*
X104946369Y-108939559D01*
X104946366Y-108939555D01*
X104817210Y-108788866D01*
X104798870Y-108774640D01*
X104660381Y-108667217D01*
X104559107Y-108617384D01*
X104482297Y-108579588D01*
X104364288Y-108548850D01*
X104290232Y-108529560D01*
X104271425Y-108528574D01*
X104092030Y-108519171D01*
X103895789Y-108548850D01*
X103709519Y-108617384D01*
X103540838Y-108721971D01*
X103396629Y-108858342D01*
X103282793Y-109020919D01*
X103282791Y-109020922D01*
X103242881Y-109113149D01*
X103203966Y-109203075D01*
X103183187Y-109302541D01*
X103163379Y-109397353D01*
X103162687Y-109595826D01*
X102572311Y-109595826D01*
X102581975Y-109506864D01*
X102581976Y-109506856D01*
X102582000Y-109500000D01*
X102561943Y-109302541D01*
X102502591Y-109113149D01*
X102406369Y-108939559D01*
X102406366Y-108939555D01*
X102277210Y-108788866D01*
X102258870Y-108774640D01*
X102120381Y-108667217D01*
X102019107Y-108617384D01*
X101942297Y-108579588D01*
X101824288Y-108548850D01*
X101750232Y-108529560D01*
X101731425Y-108528574D01*
X101552030Y-108519171D01*
X101355789Y-108548850D01*
X101169519Y-108617384D01*
X101000838Y-108721971D01*
X100856629Y-108858342D01*
X100742793Y-109020919D01*
X100742791Y-109020922D01*
X100702881Y-109113149D01*
X100663966Y-109203075D01*
X100643187Y-109302541D01*
X100623379Y-109397353D01*
X100622687Y-109595826D01*
X100032311Y-109595826D01*
X100041975Y-109506864D01*
X100041976Y-109506856D01*
X100042000Y-109500000D01*
X100021943Y-109302541D01*
X99962591Y-109113149D01*
X99866369Y-108939559D01*
X99866366Y-108939555D01*
X99737210Y-108788866D01*
X99718870Y-108774640D01*
X99580381Y-108667217D01*
X99479107Y-108617384D01*
X99402297Y-108579588D01*
X99284288Y-108548850D01*
X99210232Y-108529560D01*
X99191425Y-108528574D01*
X99012030Y-108519171D01*
X98815789Y-108548850D01*
X98629519Y-108617384D01*
X98460838Y-108721971D01*
X98316629Y-108858342D01*
X98202793Y-109020919D01*
X98202791Y-109020922D01*
X98162881Y-109113149D01*
X98123966Y-109203075D01*
X98103187Y-109302541D01*
X98083379Y-109397353D01*
X98082687Y-109595826D01*
X12127500Y-109595826D01*
X12127500Y-99260940D01*
X98571815Y-99260940D01*
X98608662Y-99384150D01*
X98680110Y-99491078D01*
X98779840Y-99572271D01*
X98899035Y-99620550D01*
X99027157Y-99631647D01*
X99152878Y-99604580D01*
X99265082Y-99541742D01*
X99353850Y-99448690D01*
X99411332Y-99333650D01*
X99423434Y-99260940D01*
X101171815Y-99260940D01*
X101208662Y-99384150D01*
X101280110Y-99491078D01*
X101379840Y-99572271D01*
X101499035Y-99620550D01*
X101627157Y-99631647D01*
X101752878Y-99604580D01*
X101865082Y-99541742D01*
X101953850Y-99448690D01*
X102011332Y-99333650D01*
X102023434Y-99260940D01*
X103671815Y-99260940D01*
X103708662Y-99384150D01*
X103780110Y-99491078D01*
X103879840Y-99572271D01*
X103999035Y-99620550D01*
X104127157Y-99631647D01*
X104252878Y-99604580D01*
X104365082Y-99541742D01*
X104453850Y-99448690D01*
X104511332Y-99333650D01*
X104523434Y-99260940D01*
X106271815Y-99260940D01*
X106308662Y-99384150D01*
X106380110Y-99491078D01*
X106479840Y-99572271D01*
X106599035Y-99620550D01*
X106727157Y-99631647D01*
X106852878Y-99604580D01*
X106965082Y-99541742D01*
X107053850Y-99448690D01*
X107111332Y-99333650D01*
X107123434Y-99260940D01*
X108771815Y-99260940D01*
X108808662Y-99384150D01*
X108880110Y-99491078D01*
X108979840Y-99572271D01*
X109099035Y-99620550D01*
X109227157Y-99631647D01*
X109352878Y-99604580D01*
X109465082Y-99541742D01*
X109553850Y-99448690D01*
X109611332Y-99333650D01*
X109632447Y-99206793D01*
X109632500Y-99200000D01*
X109613380Y-99072828D01*
X109583079Y-99009726D01*
X109557713Y-98956899D01*
X109470419Y-98862466D01*
X109470417Y-98862464D01*
X109359214Y-98797872D01*
X109233934Y-98768833D01*
X109105652Y-98777916D01*
X108985713Y-98824317D01*
X108884721Y-98903932D01*
X108853073Y-98949724D01*
X108811603Y-99009726D01*
X108772825Y-99132342D01*
X108771815Y-99260940D01*
X107123434Y-99260940D01*
X107132447Y-99206793D01*
X107132500Y-99200000D01*
X107113380Y-99072828D01*
X107083079Y-99009726D01*
X107057713Y-98956899D01*
X106970419Y-98862466D01*
X106970417Y-98862464D01*
X106859214Y-98797872D01*
X106733934Y-98768833D01*
X106605652Y-98777916D01*
X106485713Y-98824317D01*
X106384721Y-98903932D01*
X106353073Y-98949724D01*
X106311603Y-99009726D01*
X106272825Y-99132342D01*
X106271815Y-99260940D01*
X104523434Y-99260940D01*
X104532447Y-99206793D01*
X104532500Y-99200000D01*
X104513380Y-99072828D01*
X104483079Y-99009726D01*
X104457713Y-98956899D01*
X104370419Y-98862466D01*
X104370417Y-98862464D01*
X104259214Y-98797872D01*
X104133934Y-98768833D01*
X104005652Y-98777916D01*
X103885713Y-98824317D01*
X103784721Y-98903932D01*
X103753073Y-98949724D01*
X103711603Y-99009726D01*
X103672825Y-99132342D01*
X103671815Y-99260940D01*
X102023434Y-99260940D01*
X102032447Y-99206793D01*
X102032500Y-99200000D01*
X102013380Y-99072828D01*
X101983079Y-99009726D01*
X101957713Y-98956899D01*
X101870419Y-98862466D01*
X101870417Y-98862464D01*
X101759214Y-98797872D01*
X101633934Y-98768833D01*
X101505652Y-98777916D01*
X101385713Y-98824317D01*
X101284721Y-98903932D01*
X101253073Y-98949724D01*
X101211603Y-99009726D01*
X101172825Y-99132342D01*
X101171815Y-99260940D01*
X99423434Y-99260940D01*
X99432447Y-99206793D01*
X99432500Y-99200000D01*
X99413380Y-99072828D01*
X99383079Y-99009726D01*
X99357713Y-98956899D01*
X99270419Y-98862466D01*
X99270417Y-98862464D01*
X99159214Y-98797872D01*
X99033934Y-98768833D01*
X98905652Y-98777916D01*
X98785713Y-98824317D01*
X98684721Y-98903932D01*
X98653073Y-98949724D01*
X98611603Y-99009726D01*
X98572825Y-99132342D01*
X98571815Y-99260940D01*
X12127500Y-99260940D01*
X12127500Y-98638393D01*
X58963568Y-98638393D01*
X59000415Y-98761603D01*
X59071863Y-98868531D01*
X59171593Y-98949724D01*
X59290788Y-98998003D01*
X59418910Y-99009100D01*
X59544631Y-98982033D01*
X59656835Y-98919195D01*
X59745603Y-98826143D01*
X59803085Y-98711103D01*
X59824200Y-98584246D01*
X59824253Y-98577453D01*
X59805133Y-98450281D01*
X59774832Y-98387179D01*
X59749466Y-98334352D01*
X59662172Y-98239919D01*
X59662170Y-98239917D01*
X59550967Y-98175325D01*
X59425687Y-98146286D01*
X59297405Y-98155369D01*
X59177466Y-98201770D01*
X59076474Y-98281385D01*
X59039867Y-98334352D01*
X59003356Y-98387179D01*
X58964578Y-98509795D01*
X58963568Y-98638393D01*
X12127500Y-98638393D01*
X12127500Y-97838393D01*
X30413568Y-97838393D01*
X30450415Y-97961603D01*
X30521863Y-98068531D01*
X30621593Y-98149724D01*
X30740788Y-98198003D01*
X30868910Y-98209100D01*
X30994631Y-98182033D01*
X31106835Y-98119195D01*
X31195603Y-98026143D01*
X31253085Y-97911104D01*
X31265187Y-97838393D01*
X33913568Y-97838393D01*
X33950415Y-97961603D01*
X34021863Y-98068531D01*
X34121593Y-98149724D01*
X34240788Y-98198003D01*
X34368910Y-98209100D01*
X34494631Y-98182033D01*
X34606835Y-98119195D01*
X34695603Y-98026143D01*
X34753085Y-97911104D01*
X34765187Y-97838393D01*
X37413568Y-97838393D01*
X37450415Y-97961603D01*
X37521863Y-98068531D01*
X37621593Y-98149724D01*
X37740788Y-98198003D01*
X37868910Y-98209100D01*
X37994631Y-98182033D01*
X38106835Y-98119195D01*
X38195603Y-98026143D01*
X38253085Y-97911103D01*
X38256092Y-97893037D01*
X38281406Y-97852448D01*
X38328006Y-97841647D01*
X38377623Y-97885390D01*
X38400415Y-97961603D01*
X38471863Y-98068531D01*
X38571593Y-98149724D01*
X38690788Y-98198003D01*
X38818910Y-98209100D01*
X38944631Y-98182033D01*
X39056835Y-98119195D01*
X39145603Y-98026143D01*
X39203085Y-97911103D01*
X39215187Y-97838393D01*
X41863568Y-97838393D01*
X41900415Y-97961603D01*
X41971863Y-98068531D01*
X42071593Y-98149724D01*
X42190788Y-98198003D01*
X42318910Y-98209100D01*
X42444631Y-98182033D01*
X42556835Y-98119195D01*
X42645603Y-98026143D01*
X42703085Y-97911103D01*
X42715187Y-97838393D01*
X45863568Y-97838393D01*
X45900415Y-97961603D01*
X45971863Y-98068531D01*
X46071593Y-98149724D01*
X46190788Y-98198003D01*
X46318910Y-98209100D01*
X46444631Y-98182033D01*
X46556835Y-98119195D01*
X46645603Y-98026143D01*
X46703085Y-97911103D01*
X46715187Y-97838393D01*
X56863568Y-97838393D01*
X56900415Y-97961603D01*
X56971863Y-98068531D01*
X57071593Y-98149724D01*
X57190788Y-98198003D01*
X57318910Y-98209100D01*
X57444631Y-98182033D01*
X57556835Y-98119195D01*
X57645603Y-98026143D01*
X57703085Y-97911103D01*
X57715187Y-97838393D01*
X64363568Y-97838393D01*
X64400415Y-97961603D01*
X64471863Y-98068531D01*
X64571593Y-98149724D01*
X64690788Y-98198003D01*
X64818910Y-98209100D01*
X64944631Y-98182033D01*
X65056835Y-98119195D01*
X65145603Y-98026143D01*
X65203085Y-97911103D01*
X65224200Y-97784246D01*
X65224253Y-97777453D01*
X65205133Y-97650281D01*
X65174832Y-97587179D01*
X65149466Y-97534352D01*
X65062172Y-97439919D01*
X65062170Y-97439917D01*
X64950967Y-97375325D01*
X64825687Y-97346286D01*
X64697405Y-97355369D01*
X64577466Y-97401770D01*
X64476474Y-97481385D01*
X64439867Y-97534352D01*
X64403356Y-97587179D01*
X64364578Y-97709795D01*
X64363568Y-97838393D01*
X57715187Y-97838393D01*
X57724200Y-97784246D01*
X57724253Y-97777453D01*
X57705133Y-97650281D01*
X57674832Y-97587179D01*
X57649466Y-97534352D01*
X57562172Y-97439919D01*
X57562170Y-97439917D01*
X57450967Y-97375325D01*
X57325687Y-97346286D01*
X57197405Y-97355369D01*
X57077466Y-97401770D01*
X56976474Y-97481385D01*
X56939867Y-97534352D01*
X56903356Y-97587179D01*
X56864578Y-97709795D01*
X56863568Y-97838393D01*
X46715187Y-97838393D01*
X46724200Y-97784246D01*
X46724253Y-97777453D01*
X46705133Y-97650281D01*
X46674832Y-97587179D01*
X46649466Y-97534352D01*
X46562172Y-97439919D01*
X46562170Y-97439917D01*
X46450967Y-97375325D01*
X46325687Y-97346286D01*
X46197405Y-97355369D01*
X46077466Y-97401770D01*
X45976474Y-97481385D01*
X45939867Y-97534352D01*
X45903356Y-97587179D01*
X45864578Y-97709795D01*
X45863568Y-97838393D01*
X42715187Y-97838393D01*
X42724200Y-97784246D01*
X42724253Y-97777453D01*
X42705133Y-97650281D01*
X42674832Y-97587179D01*
X42649466Y-97534352D01*
X42562172Y-97439919D01*
X42562170Y-97439917D01*
X42450967Y-97375325D01*
X42325687Y-97346286D01*
X42197405Y-97355369D01*
X42077466Y-97401770D01*
X41976474Y-97481385D01*
X41939867Y-97534352D01*
X41903356Y-97587179D01*
X41864578Y-97709795D01*
X41863568Y-97838393D01*
X39215187Y-97838393D01*
X39224200Y-97784246D01*
X39224253Y-97777453D01*
X39205133Y-97650281D01*
X39174832Y-97587179D01*
X39149466Y-97534352D01*
X39062172Y-97439919D01*
X39062170Y-97439917D01*
X38950967Y-97375325D01*
X38825687Y-97346286D01*
X38697405Y-97355369D01*
X38577466Y-97401770D01*
X38476474Y-97481385D01*
X38403356Y-97587179D01*
X38377769Y-97668084D01*
X38346989Y-97704701D01*
X38299332Y-97708829D01*
X38256373Y-97658529D01*
X38255133Y-97650282D01*
X38199466Y-97534352D01*
X38112172Y-97439919D01*
X38112170Y-97439917D01*
X38000967Y-97375325D01*
X37875687Y-97346286D01*
X37747405Y-97355369D01*
X37627466Y-97401770D01*
X37526474Y-97481385D01*
X37489867Y-97534352D01*
X37453356Y-97587179D01*
X37414578Y-97709795D01*
X37413568Y-97838393D01*
X34765187Y-97838393D01*
X34774200Y-97784245D01*
X34774253Y-97777452D01*
X34755133Y-97650282D01*
X34699466Y-97534352D01*
X34612172Y-97439919D01*
X34612170Y-97439917D01*
X34500967Y-97375325D01*
X34375687Y-97346286D01*
X34247405Y-97355369D01*
X34127466Y-97401770D01*
X34026474Y-97481385D01*
X33989867Y-97534352D01*
X33953356Y-97587179D01*
X33914578Y-97709795D01*
X33913568Y-97838393D01*
X31265187Y-97838393D01*
X31274200Y-97784245D01*
X31274253Y-97777452D01*
X31255133Y-97650282D01*
X31199466Y-97534352D01*
X31112172Y-97439919D01*
X31112170Y-97439917D01*
X31000967Y-97375325D01*
X30875687Y-97346286D01*
X30747405Y-97355369D01*
X30627466Y-97401770D01*
X30526474Y-97481385D01*
X30489867Y-97534352D01*
X30453356Y-97587179D01*
X30414578Y-97709795D01*
X30413568Y-97838393D01*
X12127500Y-97838393D01*
X12127500Y-96738393D01*
X45863568Y-96738393D01*
X45900415Y-96861603D01*
X45971863Y-96968531D01*
X46071593Y-97049724D01*
X46190788Y-97098003D01*
X46318910Y-97109100D01*
X46444631Y-97082033D01*
X46556835Y-97019195D01*
X46645603Y-96926143D01*
X46703085Y-96811104D01*
X46724200Y-96684245D01*
X46724253Y-96677452D01*
X46705133Y-96550282D01*
X46649466Y-96434352D01*
X46562172Y-96339919D01*
X46562170Y-96339917D01*
X46450967Y-96275325D01*
X46325687Y-96246286D01*
X46197405Y-96255369D01*
X46077466Y-96301770D01*
X45976474Y-96381385D01*
X45939867Y-96434352D01*
X45903356Y-96487179D01*
X45864578Y-96609795D01*
X45863568Y-96738393D01*
X12127500Y-96738393D01*
X12127500Y-95237949D01*
X62794312Y-95237949D01*
X62831159Y-95361159D01*
X62902607Y-95468087D01*
X63002337Y-95549280D01*
X63121532Y-95597559D01*
X63249654Y-95608656D01*
X63375375Y-95581589D01*
X63487579Y-95518751D01*
X63576347Y-95425699D01*
X63633829Y-95310659D01*
X63654944Y-95183802D01*
X63654997Y-95177009D01*
X63635877Y-95049837D01*
X63605576Y-94986735D01*
X63580210Y-94933908D01*
X63492916Y-94839475D01*
X63492914Y-94839473D01*
X63381711Y-94774881D01*
X63256431Y-94745842D01*
X63128149Y-94754925D01*
X63008210Y-94801326D01*
X62907218Y-94880941D01*
X62870611Y-94933908D01*
X62834100Y-94986735D01*
X62795322Y-95109351D01*
X62794312Y-95237949D01*
X12127500Y-95237949D01*
X12127500Y-94338393D01*
X30413568Y-94338393D01*
X30450415Y-94461603D01*
X30521863Y-94568531D01*
X30621593Y-94649724D01*
X30740788Y-94698003D01*
X30868910Y-94709100D01*
X30994631Y-94682033D01*
X31106835Y-94619195D01*
X31195603Y-94526143D01*
X31253085Y-94411103D01*
X31265187Y-94338393D01*
X33913568Y-94338393D01*
X33950415Y-94461603D01*
X34021863Y-94568531D01*
X34121593Y-94649724D01*
X34240788Y-94698003D01*
X34368910Y-94709100D01*
X34494631Y-94682033D01*
X34606835Y-94619195D01*
X34695603Y-94526143D01*
X34753085Y-94411103D01*
X34765187Y-94338393D01*
X37413568Y-94338393D01*
X37450415Y-94461603D01*
X37521863Y-94568531D01*
X37621593Y-94649724D01*
X37740788Y-94698003D01*
X37868910Y-94709100D01*
X37994631Y-94682033D01*
X38106835Y-94619195D01*
X38195603Y-94526143D01*
X38253085Y-94411103D01*
X38265187Y-94338393D01*
X45863568Y-94338393D01*
X45900415Y-94461603D01*
X45971863Y-94568531D01*
X46071593Y-94649724D01*
X46190788Y-94698003D01*
X46318910Y-94709100D01*
X46444631Y-94682033D01*
X46556835Y-94619195D01*
X46645603Y-94526143D01*
X46703085Y-94411103D01*
X46715187Y-94338393D01*
X49363568Y-94338393D01*
X49400415Y-94461603D01*
X49471863Y-94568531D01*
X49571593Y-94649724D01*
X49690788Y-94698003D01*
X49818910Y-94709100D01*
X49944631Y-94682033D01*
X50056835Y-94619195D01*
X50145603Y-94526143D01*
X50203085Y-94411104D01*
X50224200Y-94284245D01*
X50224253Y-94277452D01*
X50215698Y-94220544D01*
X72202817Y-94220544D01*
X72239664Y-94343754D01*
X72311112Y-94450682D01*
X72410842Y-94531875D01*
X72530037Y-94580154D01*
X72658159Y-94591251D01*
X72783880Y-94564184D01*
X72896084Y-94501346D01*
X72984852Y-94408294D01*
X73017101Y-94343754D01*
X73042334Y-94293255D01*
X73054437Y-94220542D01*
X73063449Y-94166397D01*
X73063502Y-94159604D01*
X73062101Y-94150282D01*
X73044382Y-94032433D01*
X72988715Y-93916503D01*
X72901421Y-93822070D01*
X72901419Y-93822068D01*
X72790216Y-93757476D01*
X72664936Y-93728437D01*
X72536654Y-93737520D01*
X72416715Y-93783921D01*
X72315723Y-93863536D01*
X72262932Y-93939919D01*
X72242605Y-93969330D01*
X72203827Y-94091946D01*
X72202817Y-94220544D01*
X50215698Y-94220544D01*
X50206535Y-94159604D01*
X50205133Y-94150281D01*
X50174832Y-94087179D01*
X50149466Y-94034352D01*
X50062172Y-93939919D01*
X50062170Y-93939917D01*
X49950967Y-93875325D01*
X49825687Y-93846286D01*
X49697405Y-93855369D01*
X49577466Y-93901770D01*
X49476474Y-93981385D01*
X49441194Y-94032432D01*
X49403356Y-94087179D01*
X49364578Y-94209795D01*
X49363568Y-94338393D01*
X46715187Y-94338393D01*
X46724200Y-94284246D01*
X46724253Y-94277453D01*
X46705133Y-94150281D01*
X46674832Y-94087179D01*
X46649466Y-94034352D01*
X46562172Y-93939919D01*
X46562170Y-93939917D01*
X46450967Y-93875325D01*
X46325687Y-93846286D01*
X46197405Y-93855369D01*
X46077466Y-93901770D01*
X45976474Y-93981385D01*
X45941194Y-94032432D01*
X45903356Y-94087179D01*
X45864578Y-94209795D01*
X45863568Y-94338393D01*
X38265187Y-94338393D01*
X38274200Y-94284246D01*
X38274253Y-94277453D01*
X38255133Y-94150281D01*
X38224832Y-94087179D01*
X38199466Y-94034352D01*
X38112172Y-93939919D01*
X38112170Y-93939917D01*
X38000967Y-93875325D01*
X37875687Y-93846286D01*
X37747405Y-93855369D01*
X37627466Y-93901770D01*
X37526474Y-93981385D01*
X37491194Y-94032432D01*
X37453356Y-94087179D01*
X37414578Y-94209795D01*
X37413568Y-94338393D01*
X34765187Y-94338393D01*
X34774200Y-94284246D01*
X34774253Y-94277453D01*
X34755133Y-94150281D01*
X34724832Y-94087179D01*
X34699466Y-94034352D01*
X34612172Y-93939919D01*
X34612170Y-93939917D01*
X34500967Y-93875325D01*
X34375687Y-93846286D01*
X34247405Y-93855369D01*
X34127466Y-93901770D01*
X34026474Y-93981385D01*
X33991194Y-94032432D01*
X33953356Y-94087179D01*
X33914578Y-94209795D01*
X33913568Y-94338393D01*
X31265187Y-94338393D01*
X31274200Y-94284246D01*
X31274253Y-94277453D01*
X31255133Y-94150281D01*
X31224832Y-94087179D01*
X31199466Y-94034352D01*
X31112172Y-93939919D01*
X31112170Y-93939917D01*
X31000967Y-93875325D01*
X30875687Y-93846286D01*
X30747405Y-93855369D01*
X30627466Y-93901770D01*
X30526474Y-93981385D01*
X30491194Y-94032432D01*
X30453356Y-94087179D01*
X30414578Y-94209795D01*
X30413568Y-94338393D01*
X12127500Y-94338393D01*
X12127500Y-91720544D01*
X79702817Y-91720544D01*
X79739664Y-91843754D01*
X79811112Y-91950682D01*
X79910842Y-92031875D01*
X80030037Y-92080154D01*
X80158159Y-92091251D01*
X80283880Y-92064184D01*
X80396084Y-92001346D01*
X80484852Y-91908294D01*
X80542334Y-91793255D01*
X80554437Y-91720542D01*
X80563449Y-91666397D01*
X80563502Y-91659604D01*
X80557630Y-91620544D01*
X87252817Y-91620544D01*
X87289664Y-91743754D01*
X87361112Y-91850682D01*
X87460842Y-91931875D01*
X87580037Y-91980154D01*
X87708159Y-91991251D01*
X87833880Y-91964184D01*
X87946084Y-91901346D01*
X88034852Y-91808294D01*
X88078698Y-91720544D01*
X94252817Y-91720544D01*
X94289664Y-91843754D01*
X94361112Y-91950682D01*
X94460842Y-92031875D01*
X94580037Y-92080154D01*
X94708159Y-92091251D01*
X94833880Y-92064184D01*
X94946084Y-92001346D01*
X95034852Y-91908294D01*
X95092334Y-91793254D01*
X95113449Y-91666397D01*
X95113502Y-91659604D01*
X95094382Y-91532432D01*
X95064081Y-91469330D01*
X95038715Y-91416503D01*
X94951421Y-91322070D01*
X94951419Y-91322068D01*
X94840216Y-91257476D01*
X94714936Y-91228437D01*
X94586654Y-91237520D01*
X94466715Y-91283921D01*
X94365723Y-91363536D01*
X94361719Y-91369330D01*
X94292605Y-91469330D01*
X94253827Y-91591946D01*
X94252817Y-91720544D01*
X88078698Y-91720544D01*
X88092334Y-91693255D01*
X88113449Y-91566396D01*
X88113502Y-91559603D01*
X88103330Y-91491946D01*
X88094382Y-91432432D01*
X88064081Y-91369330D01*
X88038715Y-91316503D01*
X87951421Y-91222070D01*
X87951419Y-91222068D01*
X87840216Y-91157476D01*
X87714936Y-91128437D01*
X87586654Y-91137520D01*
X87466715Y-91183921D01*
X87365723Y-91263536D01*
X87325268Y-91322070D01*
X87292605Y-91369330D01*
X87253827Y-91491946D01*
X87252817Y-91620544D01*
X80557630Y-91620544D01*
X80544382Y-91532432D01*
X80514081Y-91469330D01*
X80488715Y-91416503D01*
X80401421Y-91322070D01*
X80401419Y-91322068D01*
X80290216Y-91257476D01*
X80164936Y-91228437D01*
X80036654Y-91237520D01*
X79916715Y-91283921D01*
X79815723Y-91363536D01*
X79811719Y-91369330D01*
X79742605Y-91469330D01*
X79703827Y-91591946D01*
X79702817Y-91720544D01*
X12127500Y-91720544D01*
X12127500Y-90720544D01*
X66671816Y-90720544D01*
X66708663Y-90843754D01*
X66780111Y-90950682D01*
X66879841Y-91031875D01*
X66999036Y-91080154D01*
X67127158Y-91091251D01*
X67252879Y-91064184D01*
X67365083Y-91001346D01*
X67453851Y-90908294D01*
X67511333Y-90793254D01*
X67523435Y-90720544D01*
X67752817Y-90720544D01*
X67789664Y-90843754D01*
X67861112Y-90950682D01*
X67960842Y-91031875D01*
X68080037Y-91080154D01*
X68208159Y-91091251D01*
X68333880Y-91064184D01*
X68446084Y-91001346D01*
X68534852Y-90908294D01*
X68592334Y-90793255D01*
X68595341Y-90775188D01*
X68620655Y-90734599D01*
X68667255Y-90723798D01*
X68716872Y-90767541D01*
X68739664Y-90843754D01*
X68811112Y-90950682D01*
X68910842Y-91031875D01*
X69030037Y-91080154D01*
X69158159Y-91091251D01*
X69283880Y-91064184D01*
X69396084Y-91001346D01*
X69484852Y-90908294D01*
X69542334Y-90793255D01*
X69554437Y-90720542D01*
X69563449Y-90666397D01*
X69563502Y-90659604D01*
X69557630Y-90620544D01*
X98652817Y-90620544D01*
X98689664Y-90743754D01*
X98761112Y-90850682D01*
X98860842Y-90931875D01*
X98980037Y-90980154D01*
X99108159Y-90991251D01*
X99233880Y-90964184D01*
X99346084Y-90901346D01*
X99434852Y-90808294D01*
X99492334Y-90693255D01*
X99513449Y-90566396D01*
X99513502Y-90559603D01*
X99503330Y-90491946D01*
X99494382Y-90432432D01*
X99464081Y-90369330D01*
X99438715Y-90316503D01*
X99351421Y-90222070D01*
X99351419Y-90222068D01*
X99240216Y-90157476D01*
X99114936Y-90128437D01*
X98986654Y-90137520D01*
X98866715Y-90183921D01*
X98765723Y-90263536D01*
X98725268Y-90322070D01*
X98692605Y-90369330D01*
X98653827Y-90491946D01*
X98652817Y-90620544D01*
X69557630Y-90620544D01*
X69544382Y-90532432D01*
X69514081Y-90469330D01*
X69488715Y-90416503D01*
X69401421Y-90322070D01*
X69401419Y-90322068D01*
X69290216Y-90257476D01*
X69164936Y-90228437D01*
X69036654Y-90237520D01*
X68916715Y-90283921D01*
X68815723Y-90363536D01*
X68742605Y-90469330D01*
X68717018Y-90550235D01*
X68686238Y-90586852D01*
X68638581Y-90590980D01*
X68595622Y-90540680D01*
X68594382Y-90532433D01*
X68538715Y-90416503D01*
X68451421Y-90322070D01*
X68451419Y-90322068D01*
X68340216Y-90257476D01*
X68214936Y-90228437D01*
X68086654Y-90237520D01*
X67966715Y-90283921D01*
X67865723Y-90363536D01*
X67861719Y-90369330D01*
X67792605Y-90469330D01*
X67753827Y-90591946D01*
X67752817Y-90720544D01*
X67523435Y-90720544D01*
X67532448Y-90666397D01*
X67532501Y-90659604D01*
X67513381Y-90532432D01*
X67483080Y-90469330D01*
X67457714Y-90416503D01*
X67370420Y-90322070D01*
X67370418Y-90322068D01*
X67259215Y-90257476D01*
X67133935Y-90228437D01*
X67005653Y-90237520D01*
X66885714Y-90283921D01*
X66784722Y-90363536D01*
X66780718Y-90369330D01*
X66711604Y-90469330D01*
X66672826Y-90591946D01*
X66671816Y-90720544D01*
X12127500Y-90720544D01*
X12127500Y-89820544D01*
X73102817Y-89820544D01*
X73139664Y-89943754D01*
X73211112Y-90050682D01*
X73310842Y-90131875D01*
X73430037Y-90180154D01*
X73558159Y-90191251D01*
X73683880Y-90164184D01*
X73796084Y-90101346D01*
X73884852Y-90008294D01*
X73942334Y-89893255D01*
X73963449Y-89766396D01*
X73963502Y-89759603D01*
X73944382Y-89632433D01*
X73888715Y-89516503D01*
X73801421Y-89422070D01*
X73801419Y-89422068D01*
X73690216Y-89357476D01*
X73564936Y-89328437D01*
X73436654Y-89337520D01*
X73316715Y-89383921D01*
X73215723Y-89463536D01*
X73179116Y-89516503D01*
X73142605Y-89569330D01*
X73103827Y-89691946D01*
X73102817Y-89820544D01*
X12127500Y-89820544D01*
X12127500Y-88220544D01*
X75252817Y-88220544D01*
X75289664Y-88343754D01*
X75361112Y-88450682D01*
X75460842Y-88531875D01*
X75580037Y-88580154D01*
X75708159Y-88591251D01*
X75833880Y-88564184D01*
X75946084Y-88501346D01*
X76034852Y-88408294D01*
X76092334Y-88293255D01*
X76104436Y-88220544D01*
X83202817Y-88220544D01*
X83239664Y-88343754D01*
X83311112Y-88450682D01*
X83410842Y-88531875D01*
X83530037Y-88580154D01*
X83658159Y-88591251D01*
X83783880Y-88564184D01*
X83896084Y-88501346D01*
X83984852Y-88408294D01*
X84042334Y-88293255D01*
X84054436Y-88220544D01*
X100252817Y-88220544D01*
X100289664Y-88343754D01*
X100361112Y-88450682D01*
X100460842Y-88531875D01*
X100580037Y-88580154D01*
X100708159Y-88591251D01*
X100833880Y-88564184D01*
X100946084Y-88501346D01*
X101034852Y-88408294D01*
X101092334Y-88293255D01*
X101100294Y-88245430D01*
X109687325Y-88245430D01*
X109724172Y-88368640D01*
X109795620Y-88475568D01*
X109895350Y-88556761D01*
X110014545Y-88605040D01*
X110142667Y-88616137D01*
X110268388Y-88589070D01*
X110380592Y-88526232D01*
X110469360Y-88433180D01*
X110526842Y-88318141D01*
X110538945Y-88245428D01*
X110547957Y-88191283D01*
X110548010Y-88184490D01*
X110544269Y-88159604D01*
X110528890Y-88057319D01*
X110473223Y-87941389D01*
X110385929Y-87846956D01*
X110385927Y-87846954D01*
X110274724Y-87782362D01*
X110149444Y-87753323D01*
X110021162Y-87762406D01*
X109901223Y-87808807D01*
X109800231Y-87888422D01*
X109744313Y-87969330D01*
X109727113Y-87994216D01*
X109688335Y-88116832D01*
X109687325Y-88245430D01*
X101100294Y-88245430D01*
X101113449Y-88166396D01*
X101113502Y-88159603D01*
X101098124Y-88057319D01*
X101094382Y-88032432D01*
X101058854Y-87958444D01*
X101038715Y-87916503D01*
X100951421Y-87822070D01*
X100951419Y-87822068D01*
X100840216Y-87757476D01*
X100714936Y-87728437D01*
X100586654Y-87737520D01*
X100466715Y-87783921D01*
X100365723Y-87863536D01*
X100329116Y-87916503D01*
X100292605Y-87969330D01*
X100253827Y-88091946D01*
X100252817Y-88220544D01*
X84054436Y-88220544D01*
X84063449Y-88166396D01*
X84063502Y-88159603D01*
X84048124Y-88057319D01*
X84044382Y-88032432D01*
X84008854Y-87958444D01*
X83988715Y-87916503D01*
X83901421Y-87822070D01*
X83901419Y-87822068D01*
X83790216Y-87757476D01*
X83664936Y-87728437D01*
X83536654Y-87737520D01*
X83416715Y-87783921D01*
X83315723Y-87863536D01*
X83279116Y-87916503D01*
X83242605Y-87969330D01*
X83203827Y-88091946D01*
X83202817Y-88220544D01*
X76104436Y-88220544D01*
X76113449Y-88166396D01*
X76113502Y-88159603D01*
X76098124Y-88057319D01*
X76094382Y-88032432D01*
X76058854Y-87958444D01*
X76038715Y-87916503D01*
X75951421Y-87822070D01*
X75951419Y-87822068D01*
X75840216Y-87757476D01*
X75714936Y-87728437D01*
X75586654Y-87737520D01*
X75466715Y-87783921D01*
X75365723Y-87863536D01*
X75329116Y-87916503D01*
X75292605Y-87969330D01*
X75253827Y-88091946D01*
X75252817Y-88220544D01*
X12127500Y-88220544D01*
X12127500Y-87677642D01*
X59302817Y-87677642D01*
X59339664Y-87800852D01*
X59411112Y-87907780D01*
X59510842Y-87988973D01*
X59630037Y-88037252D01*
X59758159Y-88048349D01*
X59883880Y-88021282D01*
X59996084Y-87958444D01*
X60084852Y-87865392D01*
X60136311Y-87762406D01*
X60142334Y-87750353D01*
X60163449Y-87623494D01*
X60163502Y-87616701D01*
X60144382Y-87489531D01*
X60088715Y-87373601D01*
X60001421Y-87279168D01*
X60001419Y-87279166D01*
X59890216Y-87214574D01*
X59764936Y-87185535D01*
X59636654Y-87194618D01*
X59516715Y-87241019D01*
X59415723Y-87320634D01*
X59379116Y-87373601D01*
X59342605Y-87426428D01*
X59303827Y-87549044D01*
X59302817Y-87677642D01*
X12127500Y-87677642D01*
X12127500Y-86877642D01*
X30752817Y-86877642D01*
X30789664Y-87000852D01*
X30861112Y-87107780D01*
X30960842Y-87188973D01*
X31080037Y-87237252D01*
X31208159Y-87248349D01*
X31333880Y-87221282D01*
X31446084Y-87158444D01*
X31534852Y-87065392D01*
X31592334Y-86950352D01*
X31604436Y-86877642D01*
X34252817Y-86877642D01*
X34289664Y-87000852D01*
X34361112Y-87107780D01*
X34460842Y-87188973D01*
X34580037Y-87237252D01*
X34708159Y-87248349D01*
X34833880Y-87221282D01*
X34946084Y-87158444D01*
X35034852Y-87065392D01*
X35092334Y-86950353D01*
X35104436Y-86877642D01*
X37752817Y-86877642D01*
X37789664Y-87000852D01*
X37861112Y-87107780D01*
X37960842Y-87188973D01*
X38080037Y-87237252D01*
X38208159Y-87248349D01*
X38333880Y-87221282D01*
X38446084Y-87158444D01*
X38534852Y-87065392D01*
X38592334Y-86950353D01*
X38595341Y-86932286D01*
X38620655Y-86891697D01*
X38667255Y-86880896D01*
X38716872Y-86924639D01*
X38739664Y-87000852D01*
X38811112Y-87107780D01*
X38910842Y-87188973D01*
X39030037Y-87237252D01*
X39158159Y-87248349D01*
X39283880Y-87221282D01*
X39396084Y-87158444D01*
X39484852Y-87065392D01*
X39542334Y-86950353D01*
X39554436Y-86877642D01*
X42202817Y-86877642D01*
X42239664Y-87000852D01*
X42311112Y-87107780D01*
X42410842Y-87188973D01*
X42530037Y-87237252D01*
X42658159Y-87248349D01*
X42783880Y-87221282D01*
X42896084Y-87158444D01*
X42984852Y-87065392D01*
X43042334Y-86950353D01*
X43054436Y-86877642D01*
X46202817Y-86877642D01*
X46239664Y-87000852D01*
X46311112Y-87107780D01*
X46410842Y-87188973D01*
X46530037Y-87237252D01*
X46658159Y-87248349D01*
X46783880Y-87221282D01*
X46896084Y-87158444D01*
X46984852Y-87065392D01*
X47042334Y-86950353D01*
X47054436Y-86877642D01*
X57202817Y-86877642D01*
X57239664Y-87000852D01*
X57311112Y-87107780D01*
X57410842Y-87188973D01*
X57530037Y-87237252D01*
X57658159Y-87248349D01*
X57783880Y-87221282D01*
X57896084Y-87158444D01*
X57984852Y-87065392D01*
X58042334Y-86950353D01*
X58054436Y-86877642D01*
X64702817Y-86877642D01*
X64739664Y-87000852D01*
X64811112Y-87107780D01*
X64910842Y-87188973D01*
X65030037Y-87237252D01*
X65158159Y-87248349D01*
X65283880Y-87221282D01*
X65396084Y-87158444D01*
X65484852Y-87065392D01*
X65542334Y-86950353D01*
X65563449Y-86823494D01*
X65563502Y-86816701D01*
X65544382Y-86689531D01*
X65488715Y-86573601D01*
X65401421Y-86479168D01*
X65401419Y-86479166D01*
X65290216Y-86414574D01*
X65164936Y-86385535D01*
X65036654Y-86394618D01*
X64916715Y-86441019D01*
X64815723Y-86520634D01*
X64779116Y-86573601D01*
X64742605Y-86626428D01*
X64703827Y-86749044D01*
X64702817Y-86877642D01*
X58054436Y-86877642D01*
X58063449Y-86823494D01*
X58063502Y-86816701D01*
X58044382Y-86689531D01*
X57988715Y-86573601D01*
X57901421Y-86479168D01*
X57901419Y-86479166D01*
X57790216Y-86414574D01*
X57664936Y-86385535D01*
X57536654Y-86394618D01*
X57416715Y-86441019D01*
X57315723Y-86520634D01*
X57279116Y-86573601D01*
X57242605Y-86626428D01*
X57203827Y-86749044D01*
X57202817Y-86877642D01*
X47054436Y-86877642D01*
X47063449Y-86823494D01*
X47063502Y-86816701D01*
X47044382Y-86689531D01*
X46988715Y-86573601D01*
X46901421Y-86479168D01*
X46901419Y-86479166D01*
X46790216Y-86414574D01*
X46664936Y-86385535D01*
X46536654Y-86394618D01*
X46416715Y-86441019D01*
X46315723Y-86520634D01*
X46279116Y-86573601D01*
X46242605Y-86626428D01*
X46203827Y-86749044D01*
X46202817Y-86877642D01*
X43054436Y-86877642D01*
X43063449Y-86823494D01*
X43063502Y-86816701D01*
X43044382Y-86689531D01*
X42988715Y-86573601D01*
X42901421Y-86479168D01*
X42901419Y-86479166D01*
X42790216Y-86414574D01*
X42664936Y-86385535D01*
X42536654Y-86394618D01*
X42416715Y-86441019D01*
X42315723Y-86520634D01*
X42279116Y-86573601D01*
X42242605Y-86626428D01*
X42203827Y-86749044D01*
X42202817Y-86877642D01*
X39554436Y-86877642D01*
X39563449Y-86823494D01*
X39563502Y-86816701D01*
X39544382Y-86689531D01*
X39488715Y-86573601D01*
X39401421Y-86479168D01*
X39401419Y-86479166D01*
X39290216Y-86414574D01*
X39164936Y-86385535D01*
X39036654Y-86394618D01*
X38916715Y-86441019D01*
X38815723Y-86520634D01*
X38742605Y-86626428D01*
X38717018Y-86707333D01*
X38686238Y-86743950D01*
X38638581Y-86748078D01*
X38595622Y-86697778D01*
X38594382Y-86689531D01*
X38538715Y-86573601D01*
X38451421Y-86479168D01*
X38451419Y-86479166D01*
X38340216Y-86414574D01*
X38214936Y-86385535D01*
X38086654Y-86394618D01*
X37966715Y-86441019D01*
X37865723Y-86520634D01*
X37829116Y-86573601D01*
X37792605Y-86626428D01*
X37753827Y-86749044D01*
X37752817Y-86877642D01*
X35104436Y-86877642D01*
X35113449Y-86823494D01*
X35113502Y-86816701D01*
X35094382Y-86689531D01*
X35038715Y-86573601D01*
X34951421Y-86479168D01*
X34951419Y-86479166D01*
X34840216Y-86414574D01*
X34714936Y-86385535D01*
X34586654Y-86394618D01*
X34466715Y-86441019D01*
X34365723Y-86520634D01*
X34329116Y-86573601D01*
X34292605Y-86626428D01*
X34253827Y-86749044D01*
X34252817Y-86877642D01*
X31604436Y-86877642D01*
X31613449Y-86823495D01*
X31613502Y-86816702D01*
X31594382Y-86689530D01*
X31564081Y-86626428D01*
X31538715Y-86573601D01*
X31451421Y-86479168D01*
X31451419Y-86479166D01*
X31340216Y-86414574D01*
X31214936Y-86385535D01*
X31086654Y-86394618D01*
X30966715Y-86441019D01*
X30865723Y-86520634D01*
X30829116Y-86573601D01*
X30792605Y-86626428D01*
X30753827Y-86749044D01*
X30752817Y-86877642D01*
X12127500Y-86877642D01*
X12127500Y-85777642D01*
X46202817Y-85777642D01*
X46239664Y-85900852D01*
X46311112Y-86007780D01*
X46410842Y-86088973D01*
X46530037Y-86137252D01*
X46658159Y-86148349D01*
X46783880Y-86121282D01*
X46896084Y-86058444D01*
X46984852Y-85965392D01*
X47042334Y-85850352D01*
X47063449Y-85723495D01*
X47063502Y-85716702D01*
X47044382Y-85589530D01*
X47014081Y-85526428D01*
X46988715Y-85473601D01*
X46901421Y-85379168D01*
X46901419Y-85379166D01*
X46790216Y-85314574D01*
X46664936Y-85285535D01*
X46536654Y-85294618D01*
X46416715Y-85341019D01*
X46315723Y-85420634D01*
X46279116Y-85473601D01*
X46242605Y-85526428D01*
X46203827Y-85649044D01*
X46202817Y-85777642D01*
X12127500Y-85777642D01*
X12127500Y-84277198D01*
X63133561Y-84277198D01*
X63170408Y-84400408D01*
X63241856Y-84507336D01*
X63341586Y-84588529D01*
X63460781Y-84636808D01*
X63588903Y-84647905D01*
X63714624Y-84620838D01*
X63826828Y-84558000D01*
X63915596Y-84464948D01*
X63973078Y-84349908D01*
X63994193Y-84223051D01*
X63994246Y-84216258D01*
X63975126Y-84089086D01*
X63944825Y-84025984D01*
X63919459Y-83973157D01*
X63832165Y-83878724D01*
X63832163Y-83878722D01*
X63720960Y-83814130D01*
X63595680Y-83785091D01*
X63467398Y-83794174D01*
X63347459Y-83840575D01*
X63246467Y-83920190D01*
X63209860Y-83973157D01*
X63173349Y-84025984D01*
X63134571Y-84148600D01*
X63133561Y-84277198D01*
X12127500Y-84277198D01*
X12127500Y-83377642D01*
X30752817Y-83377642D01*
X30789664Y-83500852D01*
X30861112Y-83607780D01*
X30960842Y-83688973D01*
X31080037Y-83737252D01*
X31208159Y-83748349D01*
X31333880Y-83721282D01*
X31446084Y-83658444D01*
X31534852Y-83565392D01*
X31592334Y-83450353D01*
X31604436Y-83377642D01*
X34252817Y-83377642D01*
X34289664Y-83500852D01*
X34361112Y-83607780D01*
X34460842Y-83688973D01*
X34580037Y-83737252D01*
X34708159Y-83748349D01*
X34833880Y-83721282D01*
X34946084Y-83658444D01*
X35034852Y-83565392D01*
X35092334Y-83450353D01*
X35104436Y-83377642D01*
X37752817Y-83377642D01*
X37789664Y-83500852D01*
X37861112Y-83607780D01*
X37960842Y-83688973D01*
X38080037Y-83737252D01*
X38208159Y-83748349D01*
X38333880Y-83721282D01*
X38446084Y-83658444D01*
X38534852Y-83565392D01*
X38592334Y-83450353D01*
X38604436Y-83377642D01*
X46202817Y-83377642D01*
X46239664Y-83500852D01*
X46311112Y-83607780D01*
X46410842Y-83688973D01*
X46530037Y-83737252D01*
X46658159Y-83748349D01*
X46783880Y-83721282D01*
X46896084Y-83658444D01*
X46984852Y-83565392D01*
X47042334Y-83450353D01*
X47054436Y-83377642D01*
X49702817Y-83377642D01*
X49739664Y-83500852D01*
X49811112Y-83607780D01*
X49910842Y-83688973D01*
X50030037Y-83737252D01*
X50158159Y-83748349D01*
X50283880Y-83721282D01*
X50396084Y-83658444D01*
X50484852Y-83565392D01*
X50542334Y-83450353D01*
X50554436Y-83377642D01*
X60252817Y-83377642D01*
X60289664Y-83500852D01*
X60361112Y-83607780D01*
X60460842Y-83688973D01*
X60580037Y-83737252D01*
X60708159Y-83748349D01*
X60833880Y-83721282D01*
X60946084Y-83658444D01*
X61034852Y-83565392D01*
X61092334Y-83450353D01*
X61107216Y-83360940D01*
X67071815Y-83360940D01*
X67108662Y-83484150D01*
X67180110Y-83591078D01*
X67279840Y-83672271D01*
X67399035Y-83720550D01*
X67527157Y-83731647D01*
X67652878Y-83704580D01*
X67765082Y-83641742D01*
X67853850Y-83548690D01*
X67911332Y-83433650D01*
X67932447Y-83306793D01*
X67932500Y-83300000D01*
X67913380Y-83172828D01*
X67883079Y-83109726D01*
X67857713Y-83056899D01*
X67770419Y-82962466D01*
X67770417Y-82962464D01*
X67659214Y-82897872D01*
X67533934Y-82868833D01*
X67405652Y-82877916D01*
X67285713Y-82924317D01*
X67184721Y-83003932D01*
X67111603Y-83109726D01*
X67072825Y-83232342D01*
X67071815Y-83360940D01*
X61107216Y-83360940D01*
X61113449Y-83323494D01*
X61113502Y-83316701D01*
X61094382Y-83189531D01*
X61038715Y-83073601D01*
X60951421Y-82979168D01*
X60951419Y-82979166D01*
X60840216Y-82914574D01*
X60714936Y-82885535D01*
X60586654Y-82894618D01*
X60466715Y-82941019D01*
X60365723Y-83020634D01*
X60358112Y-83031647D01*
X60292605Y-83126428D01*
X60253827Y-83249044D01*
X60252817Y-83377642D01*
X50554436Y-83377642D01*
X50563449Y-83323494D01*
X50563502Y-83316701D01*
X50544382Y-83189531D01*
X50488715Y-83073601D01*
X50401421Y-82979168D01*
X50401419Y-82979166D01*
X50290216Y-82914574D01*
X50164936Y-82885535D01*
X50036654Y-82894618D01*
X49916715Y-82941019D01*
X49815723Y-83020634D01*
X49808112Y-83031647D01*
X49742605Y-83126428D01*
X49703827Y-83249044D01*
X49702817Y-83377642D01*
X47054436Y-83377642D01*
X47063449Y-83323494D01*
X47063502Y-83316701D01*
X47044382Y-83189531D01*
X46988715Y-83073601D01*
X46901421Y-82979168D01*
X46901419Y-82979166D01*
X46790216Y-82914574D01*
X46664936Y-82885535D01*
X46536654Y-82894618D01*
X46416715Y-82941019D01*
X46315723Y-83020634D01*
X46308112Y-83031647D01*
X46242605Y-83126428D01*
X46203827Y-83249044D01*
X46202817Y-83377642D01*
X38604436Y-83377642D01*
X38613449Y-83323494D01*
X38613502Y-83316701D01*
X38594382Y-83189531D01*
X38538715Y-83073601D01*
X38451421Y-82979168D01*
X38451419Y-82979166D01*
X38340216Y-82914574D01*
X38214936Y-82885535D01*
X38086654Y-82894618D01*
X37966715Y-82941019D01*
X37865723Y-83020634D01*
X37858112Y-83031647D01*
X37792605Y-83126428D01*
X37753827Y-83249044D01*
X37752817Y-83377642D01*
X35104436Y-83377642D01*
X35113449Y-83323494D01*
X35113502Y-83316701D01*
X35094382Y-83189531D01*
X35038715Y-83073601D01*
X34951421Y-82979168D01*
X34951419Y-82979166D01*
X34840216Y-82914574D01*
X34714936Y-82885535D01*
X34586654Y-82894618D01*
X34466715Y-82941019D01*
X34365723Y-83020634D01*
X34358112Y-83031647D01*
X34292605Y-83126428D01*
X34253827Y-83249044D01*
X34252817Y-83377642D01*
X31604436Y-83377642D01*
X31613449Y-83323494D01*
X31613502Y-83316701D01*
X31594382Y-83189531D01*
X31538715Y-83073601D01*
X31451421Y-82979168D01*
X31451419Y-82979166D01*
X31340216Y-82914574D01*
X31214936Y-82885535D01*
X31086654Y-82894618D01*
X30966715Y-82941019D01*
X30865723Y-83020634D01*
X30858112Y-83031647D01*
X30792605Y-83126428D01*
X30753827Y-83249044D01*
X30752817Y-83377642D01*
X12127500Y-83377642D01*
X12127500Y-82660940D01*
X35171815Y-82660940D01*
X35208662Y-82784150D01*
X35280110Y-82891078D01*
X35379840Y-82972271D01*
X35499035Y-83020550D01*
X35627157Y-83031647D01*
X35752878Y-83004580D01*
X35865082Y-82941742D01*
X35953850Y-82848690D01*
X36011332Y-82733650D01*
X36032447Y-82606793D01*
X36032500Y-82600000D01*
X36013380Y-82472828D01*
X35983079Y-82409726D01*
X35957713Y-82356899D01*
X35870419Y-82262466D01*
X35870417Y-82262464D01*
X35759214Y-82197872D01*
X35633934Y-82168833D01*
X35505652Y-82177916D01*
X35385713Y-82224317D01*
X35284721Y-82303932D01*
X35248114Y-82356899D01*
X35211603Y-82409726D01*
X35172825Y-82532342D01*
X35171815Y-82660940D01*
X12127500Y-82660940D01*
X12127500Y-77337942D01*
X41571815Y-77337942D01*
X41608662Y-77461152D01*
X41680110Y-77568080D01*
X41779840Y-77649273D01*
X41899035Y-77697552D01*
X42027157Y-77708649D01*
X42152878Y-77681582D01*
X42265082Y-77618744D01*
X42353850Y-77525692D01*
X42393895Y-77445550D01*
X42411332Y-77410653D01*
X42432447Y-77283794D01*
X42432500Y-77277001D01*
X42413380Y-77149831D01*
X42382701Y-77085940D01*
X57645719Y-77085940D01*
X57682566Y-77209150D01*
X57754014Y-77316078D01*
X57853744Y-77397271D01*
X57972939Y-77445550D01*
X58101061Y-77456647D01*
X58226782Y-77429580D01*
X58338986Y-77366742D01*
X58427754Y-77273690D01*
X58485236Y-77158651D01*
X58506351Y-77031792D01*
X58506404Y-77024999D01*
X58487284Y-76897829D01*
X58431617Y-76781899D01*
X58344323Y-76687466D01*
X58344321Y-76687464D01*
X58233118Y-76622872D01*
X58107838Y-76593833D01*
X57979556Y-76602916D01*
X57859617Y-76649317D01*
X57758625Y-76728932D01*
X57722018Y-76781899D01*
X57685507Y-76834726D01*
X57646729Y-76957342D01*
X57645719Y-77085940D01*
X42382701Y-77085940D01*
X42357713Y-77033901D01*
X42270419Y-76939468D01*
X42270417Y-76939466D01*
X42159214Y-76874874D01*
X42033934Y-76845835D01*
X41905652Y-76854918D01*
X41785713Y-76901319D01*
X41684721Y-76980934D01*
X41649571Y-77031793D01*
X41611603Y-77086728D01*
X41572825Y-77209344D01*
X41571815Y-77337942D01*
X12127500Y-77337942D01*
X12127500Y-76403842D01*
X32545719Y-76403842D01*
X32582566Y-76527052D01*
X32654014Y-76633980D01*
X32753744Y-76715173D01*
X32872939Y-76763452D01*
X33001061Y-76774549D01*
X33126782Y-76747482D01*
X33238986Y-76684644D01*
X33327754Y-76591592D01*
X33385236Y-76476553D01*
X33397338Y-76403842D01*
X36145719Y-76403842D01*
X36182566Y-76527052D01*
X36254014Y-76633980D01*
X36353744Y-76715173D01*
X36472939Y-76763452D01*
X36601061Y-76774549D01*
X36726782Y-76747482D01*
X36838986Y-76684644D01*
X36927754Y-76591592D01*
X37024707Y-76397558D01*
X37082565Y-76484148D01*
X37082566Y-76484150D01*
X37154014Y-76591078D01*
X37253744Y-76672271D01*
X37372939Y-76720550D01*
X37501061Y-76731647D01*
X37626782Y-76704580D01*
X37738986Y-76641742D01*
X37827754Y-76548690D01*
X37885236Y-76433651D01*
X37900341Y-76342901D01*
X37901499Y-76335940D01*
X40595719Y-76335940D01*
X40632566Y-76459150D01*
X40704014Y-76566078D01*
X40803744Y-76647271D01*
X40922939Y-76695550D01*
X41051061Y-76706647D01*
X41176782Y-76679580D01*
X41288986Y-76616742D01*
X41377754Y-76523690D01*
X41435236Y-76408651D01*
X41455660Y-76285940D01*
X44545719Y-76285940D01*
X44582566Y-76409150D01*
X44654014Y-76516078D01*
X44753744Y-76597271D01*
X44872939Y-76645550D01*
X45001061Y-76656647D01*
X45126782Y-76629580D01*
X45238986Y-76566742D01*
X45327754Y-76473690D01*
X45385236Y-76358651D01*
X45397337Y-76285940D01*
X55545719Y-76285940D01*
X55582566Y-76409150D01*
X55654014Y-76516078D01*
X55753744Y-76597271D01*
X55872939Y-76645550D01*
X56001061Y-76656647D01*
X56126782Y-76629580D01*
X56238986Y-76566742D01*
X56327754Y-76473690D01*
X56385236Y-76358651D01*
X56397337Y-76285940D01*
X63045719Y-76285940D01*
X63082566Y-76409150D01*
X63154014Y-76516078D01*
X63253744Y-76597271D01*
X63372939Y-76645550D01*
X63501061Y-76656647D01*
X63626782Y-76629580D01*
X63738986Y-76566742D01*
X63827754Y-76473690D01*
X63885236Y-76358651D01*
X63899159Y-76274999D01*
X63906351Y-76231793D01*
X63906404Y-76225000D01*
X63905011Y-76215731D01*
X63895523Y-76152628D01*
X63887284Y-76097828D01*
X63842197Y-76003933D01*
X63831617Y-75981899D01*
X63744323Y-75887466D01*
X63744321Y-75887464D01*
X63633118Y-75822872D01*
X63507838Y-75793833D01*
X63379556Y-75802916D01*
X63259617Y-75849317D01*
X63158625Y-75928932D01*
X63087461Y-76031899D01*
X63085507Y-76034726D01*
X63046729Y-76157342D01*
X63045719Y-76285940D01*
X56397337Y-76285940D01*
X56399159Y-76274999D01*
X56406351Y-76231793D01*
X56406404Y-76225000D01*
X56405011Y-76215731D01*
X56395523Y-76152628D01*
X56387284Y-76097828D01*
X56342197Y-76003933D01*
X56331617Y-75981899D01*
X56244323Y-75887466D01*
X56244321Y-75887464D01*
X56133118Y-75822872D01*
X56007838Y-75793833D01*
X55879556Y-75802916D01*
X55759617Y-75849317D01*
X55658625Y-75928932D01*
X55587461Y-76031899D01*
X55585507Y-76034726D01*
X55546729Y-76157342D01*
X55545719Y-76285940D01*
X45397337Y-76285940D01*
X45399159Y-76274999D01*
X45406351Y-76231793D01*
X45406404Y-76225000D01*
X45405011Y-76215731D01*
X45395523Y-76152628D01*
X45387284Y-76097828D01*
X45342197Y-76003933D01*
X45331617Y-75981899D01*
X45244323Y-75887466D01*
X45244321Y-75887464D01*
X45133118Y-75822872D01*
X45007838Y-75793833D01*
X44879556Y-75802916D01*
X44759617Y-75849317D01*
X44658625Y-75928932D01*
X44587461Y-76031899D01*
X44585507Y-76034726D01*
X44546729Y-76157342D01*
X44545719Y-76285940D01*
X41455660Y-76285940D01*
X41456351Y-76281792D01*
X41456404Y-76274999D01*
X41443203Y-76187198D01*
X41437284Y-76147828D01*
X41413275Y-76097829D01*
X41381617Y-76031899D01*
X41294323Y-75937466D01*
X41294321Y-75937464D01*
X41183118Y-75872872D01*
X41057838Y-75843833D01*
X40929556Y-75852916D01*
X40809617Y-75899317D01*
X40708625Y-75978932D01*
X40672018Y-76031899D01*
X40635507Y-76084726D01*
X40596729Y-76207342D01*
X40595719Y-76335940D01*
X37901499Y-76335940D01*
X37906351Y-76306793D01*
X37906404Y-76300000D01*
X37903667Y-76281792D01*
X37887284Y-76172829D01*
X37879848Y-76157342D01*
X37856983Y-76109726D01*
X37831617Y-76056899D01*
X37744323Y-75962466D01*
X37744321Y-75962464D01*
X37633118Y-75897872D01*
X37507838Y-75868833D01*
X37379556Y-75877916D01*
X37259617Y-75924317D01*
X37158625Y-76003932D01*
X37085506Y-76109726D01*
X37073892Y-76146452D01*
X37043113Y-76183070D01*
X36995456Y-76187198D01*
X36957960Y-76154661D01*
X36931617Y-76099801D01*
X36844323Y-76005368D01*
X36844321Y-76005366D01*
X36733118Y-75940774D01*
X36607838Y-75911735D01*
X36479556Y-75920818D01*
X36359617Y-75967219D01*
X36258625Y-76046834D01*
X36223381Y-76097829D01*
X36185507Y-76152628D01*
X36146729Y-76275244D01*
X36145719Y-76403842D01*
X33397338Y-76403842D01*
X33406351Y-76349694D01*
X33406404Y-76342901D01*
X33396195Y-76274999D01*
X33387284Y-76215730D01*
X33359247Y-76157342D01*
X33331617Y-76099801D01*
X33244323Y-76005368D01*
X33244321Y-76005366D01*
X33133118Y-75940774D01*
X33007838Y-75911735D01*
X32879556Y-75920818D01*
X32759617Y-75967219D01*
X32658625Y-76046834D01*
X32623381Y-76097829D01*
X32585507Y-76152628D01*
X32546729Y-76275244D01*
X32545719Y-76403842D01*
X12127500Y-76403842D01*
X12127500Y-75185940D01*
X44545719Y-75185940D01*
X44582566Y-75309150D01*
X44654014Y-75416078D01*
X44753744Y-75497271D01*
X44872939Y-75545550D01*
X45001061Y-75556647D01*
X45126782Y-75529580D01*
X45238986Y-75466742D01*
X45327754Y-75373690D01*
X45385236Y-75258651D01*
X45406351Y-75131792D01*
X45406404Y-75124999D01*
X45387284Y-74997829D01*
X45331617Y-74881899D01*
X45244323Y-74787466D01*
X45244321Y-74787464D01*
X45133118Y-74722872D01*
X45007838Y-74693833D01*
X44879556Y-74702916D01*
X44759617Y-74749317D01*
X44658625Y-74828932D01*
X44622018Y-74881899D01*
X44585507Y-74934726D01*
X44546729Y-75057342D01*
X44545719Y-75185940D01*
X12127500Y-75185940D01*
X12127500Y-73960940D01*
X43571815Y-73960940D01*
X43608662Y-74084150D01*
X43680110Y-74191078D01*
X43779840Y-74272271D01*
X43899035Y-74320550D01*
X44027157Y-74331647D01*
X44152878Y-74304580D01*
X44265082Y-74241742D01*
X44353850Y-74148690D01*
X44411332Y-74033651D01*
X44432447Y-73906792D01*
X44432500Y-73899999D01*
X44413380Y-73772829D01*
X44406359Y-73758206D01*
X44383079Y-73709726D01*
X44371445Y-73685496D01*
X61476463Y-73685496D01*
X61513310Y-73808706D01*
X61584758Y-73915634D01*
X61684488Y-73996827D01*
X61803683Y-74045106D01*
X61931805Y-74056203D01*
X62057526Y-74029136D01*
X62169730Y-73966298D01*
X62258498Y-73873246D01*
X62315980Y-73758207D01*
X62337095Y-73631348D01*
X62337148Y-73624555D01*
X62318028Y-73497385D01*
X62308680Y-73477916D01*
X62287727Y-73434282D01*
X62262361Y-73381455D01*
X62175067Y-73287022D01*
X62175065Y-73287020D01*
X62063862Y-73222428D01*
X61938582Y-73193389D01*
X61810300Y-73202472D01*
X61690361Y-73248873D01*
X61589369Y-73328488D01*
X61552762Y-73381455D01*
X61516251Y-73434282D01*
X61477473Y-73556898D01*
X61476463Y-73685496D01*
X44371445Y-73685496D01*
X44357713Y-73656899D01*
X44270419Y-73562466D01*
X44270417Y-73562464D01*
X44159214Y-73497872D01*
X44033934Y-73468833D01*
X43905652Y-73477916D01*
X43785713Y-73524317D01*
X43684721Y-73603932D01*
X43648114Y-73656899D01*
X43611603Y-73709726D01*
X43572825Y-73832342D01*
X43571815Y-73960940D01*
X12127500Y-73960940D01*
X12127500Y-72903842D01*
X32545719Y-72903842D01*
X32582566Y-73027052D01*
X32654014Y-73133980D01*
X32753744Y-73215173D01*
X32872939Y-73263452D01*
X33001061Y-73274549D01*
X33126782Y-73247482D01*
X33238986Y-73184644D01*
X33327754Y-73091592D01*
X33385236Y-72976553D01*
X33397338Y-72903842D01*
X36145719Y-72903842D01*
X36182566Y-73027052D01*
X36254014Y-73133980D01*
X36353744Y-73215173D01*
X36472939Y-73263452D01*
X36601061Y-73274549D01*
X36726782Y-73247482D01*
X36838986Y-73184644D01*
X36927754Y-73091592D01*
X36985236Y-72976553D01*
X37006351Y-72849694D01*
X37006404Y-72842901D01*
X36997841Y-72785940D01*
X44545719Y-72785940D01*
X44582566Y-72909150D01*
X44654014Y-73016078D01*
X44753744Y-73097271D01*
X44872939Y-73145550D01*
X45001061Y-73156647D01*
X45126782Y-73129580D01*
X45238986Y-73066742D01*
X45327754Y-72973690D01*
X45385236Y-72858651D01*
X45397338Y-72785940D01*
X48045719Y-72785940D01*
X48082566Y-72909150D01*
X48154014Y-73016078D01*
X48253744Y-73097271D01*
X48372939Y-73145550D01*
X48501061Y-73156647D01*
X48626782Y-73129580D01*
X48738986Y-73066742D01*
X48827754Y-72973690D01*
X48885236Y-72858651D01*
X48899119Y-72775244D01*
X48901499Y-72760940D01*
X77662315Y-72760940D01*
X77699162Y-72884150D01*
X77770610Y-72991078D01*
X77870340Y-73072271D01*
X77989535Y-73120550D01*
X78117657Y-73131647D01*
X78243378Y-73104580D01*
X78355582Y-73041742D01*
X78444350Y-72948690D01*
X78501832Y-72833651D01*
X78522947Y-72706792D01*
X78523000Y-72699999D01*
X78503880Y-72572829D01*
X78500958Y-72566742D01*
X78473579Y-72509726D01*
X78448213Y-72456899D01*
X78360919Y-72362466D01*
X78360917Y-72362464D01*
X78249714Y-72297872D01*
X78124434Y-72268833D01*
X77996152Y-72277916D01*
X77876213Y-72324317D01*
X77775221Y-72403932D01*
X77738614Y-72456899D01*
X77702103Y-72509726D01*
X77663325Y-72632342D01*
X77662315Y-72760940D01*
X48901499Y-72760940D01*
X48906351Y-72731793D01*
X48906404Y-72725000D01*
X48905011Y-72715731D01*
X48892058Y-72629580D01*
X48887284Y-72597828D01*
X48856983Y-72534726D01*
X48831617Y-72481899D01*
X48744323Y-72387466D01*
X48744321Y-72387464D01*
X48633118Y-72322872D01*
X48507838Y-72293833D01*
X48379556Y-72302916D01*
X48259617Y-72349317D01*
X48158625Y-72428932D01*
X48098395Y-72516078D01*
X48085507Y-72534726D01*
X48046729Y-72657342D01*
X48045719Y-72785940D01*
X45397338Y-72785940D01*
X45399119Y-72775244D01*
X45406351Y-72731793D01*
X45406404Y-72725000D01*
X45405011Y-72715731D01*
X45392058Y-72629580D01*
X45387284Y-72597828D01*
X45356983Y-72534726D01*
X45331617Y-72481899D01*
X45244323Y-72387466D01*
X45244321Y-72387464D01*
X45133118Y-72322872D01*
X45007838Y-72293833D01*
X44879556Y-72302916D01*
X44759617Y-72349317D01*
X44658625Y-72428932D01*
X44598395Y-72516078D01*
X44585507Y-72534726D01*
X44546729Y-72657342D01*
X44545719Y-72785940D01*
X36997841Y-72785940D01*
X36988678Y-72725000D01*
X36987284Y-72715730D01*
X36956983Y-72652628D01*
X36931617Y-72599801D01*
X36844323Y-72505368D01*
X36844321Y-72505366D01*
X36733118Y-72440774D01*
X36607838Y-72411735D01*
X36479556Y-72420818D01*
X36359617Y-72467219D01*
X36258625Y-72546834D01*
X36190399Y-72645550D01*
X36185507Y-72652628D01*
X36146729Y-72775244D01*
X36145719Y-72903842D01*
X33397338Y-72903842D01*
X33406351Y-72849694D01*
X33406404Y-72842901D01*
X33388678Y-72725000D01*
X33387284Y-72715730D01*
X33356983Y-72652628D01*
X33331617Y-72599801D01*
X33244323Y-72505368D01*
X33244321Y-72505366D01*
X33133118Y-72440774D01*
X33007838Y-72411735D01*
X32879556Y-72420818D01*
X32759617Y-72467219D01*
X32658625Y-72546834D01*
X32590399Y-72645550D01*
X32585507Y-72652628D01*
X32546729Y-72775244D01*
X32545719Y-72903842D01*
X12127500Y-72903842D01*
X12127500Y-72285940D01*
X70545719Y-72285940D01*
X70582566Y-72409150D01*
X70654014Y-72516078D01*
X70753744Y-72597271D01*
X70872939Y-72645550D01*
X71001061Y-72656647D01*
X71126782Y-72629580D01*
X71238986Y-72566742D01*
X71327754Y-72473690D01*
X71385236Y-72358651D01*
X71406351Y-72231792D01*
X71406404Y-72224999D01*
X71387284Y-72097829D01*
X71331617Y-71981899D01*
X71244323Y-71887466D01*
X71244321Y-71887464D01*
X71133118Y-71822872D01*
X71007838Y-71793833D01*
X70879556Y-71802916D01*
X70759617Y-71849317D01*
X70658625Y-71928932D01*
X70622018Y-71981899D01*
X70585507Y-72034726D01*
X70546729Y-72157342D01*
X70545719Y-72285940D01*
X12127500Y-72285940D01*
X12127500Y-71360940D01*
X67971815Y-71360940D01*
X68008662Y-71484150D01*
X68080110Y-71591078D01*
X68179840Y-71672271D01*
X68299035Y-71720550D01*
X68427157Y-71731647D01*
X68552878Y-71704580D01*
X68665082Y-71641742D01*
X68753850Y-71548690D01*
X68811332Y-71433651D01*
X68823435Y-71360938D01*
X68832447Y-71306793D01*
X68832500Y-71300000D01*
X68826628Y-71260940D01*
X77171815Y-71260940D01*
X77208662Y-71384150D01*
X77280110Y-71491078D01*
X77379840Y-71572271D01*
X77499035Y-71620550D01*
X77627157Y-71631647D01*
X77752878Y-71604580D01*
X77865082Y-71541742D01*
X77953850Y-71448690D01*
X77985204Y-71385940D01*
X88295719Y-71385940D01*
X88332566Y-71509150D01*
X88404014Y-71616078D01*
X88503744Y-71697271D01*
X88622939Y-71745550D01*
X88751061Y-71756647D01*
X88876782Y-71729580D01*
X88988986Y-71666742D01*
X89077754Y-71573690D01*
X89135236Y-71458651D01*
X89147636Y-71384150D01*
X89156351Y-71331793D01*
X89156404Y-71325000D01*
X89153667Y-71306792D01*
X89138632Y-71206792D01*
X89137284Y-71197828D01*
X89106983Y-71134726D01*
X89081617Y-71081899D01*
X88994323Y-70987466D01*
X88994321Y-70987464D01*
X88883118Y-70922872D01*
X88757838Y-70893833D01*
X88629556Y-70902916D01*
X88509617Y-70949317D01*
X88408625Y-71028932D01*
X88337155Y-71132342D01*
X88335507Y-71134726D01*
X88296729Y-71257342D01*
X88295719Y-71385940D01*
X77985204Y-71385940D01*
X78011332Y-71333651D01*
X78032447Y-71206792D01*
X78032500Y-71199999D01*
X78022328Y-71132342D01*
X78013380Y-71072828D01*
X77983079Y-71009726D01*
X77957713Y-70956899D01*
X77870419Y-70862466D01*
X77870417Y-70862464D01*
X77759214Y-70797872D01*
X77633934Y-70768833D01*
X77505652Y-70777916D01*
X77385713Y-70824317D01*
X77284721Y-70903932D01*
X77244266Y-70962466D01*
X77211603Y-71009726D01*
X77172825Y-71132342D01*
X77171815Y-71260940D01*
X68826628Y-71260940D01*
X68826087Y-71257342D01*
X68822328Y-71232342D01*
X68813380Y-71172828D01*
X68769717Y-71081899D01*
X68757713Y-71056899D01*
X68670419Y-70962466D01*
X68670417Y-70962464D01*
X68559214Y-70897872D01*
X68433934Y-70868833D01*
X68305652Y-70877916D01*
X68185713Y-70924317D01*
X68084721Y-71003932D01*
X68080717Y-71009726D01*
X68011603Y-71109726D01*
X67972825Y-71232342D01*
X67971815Y-71360940D01*
X12127500Y-71360940D01*
X12127500Y-70285940D01*
X75495719Y-70285940D01*
X75532566Y-70409150D01*
X75604014Y-70516078D01*
X75703744Y-70597271D01*
X75822939Y-70645550D01*
X75951061Y-70656647D01*
X76076782Y-70629580D01*
X76188986Y-70566742D01*
X76277754Y-70473690D01*
X76335236Y-70358650D01*
X76347338Y-70285940D01*
X78045719Y-70285940D01*
X78082566Y-70409150D01*
X78154014Y-70516078D01*
X78253744Y-70597271D01*
X78372939Y-70645550D01*
X78501061Y-70656647D01*
X78626782Y-70629580D01*
X78738986Y-70566742D01*
X78827754Y-70473690D01*
X78885236Y-70358650D01*
X78906351Y-70231793D01*
X78906404Y-70225000D01*
X78900532Y-70185940D01*
X85595719Y-70185940D01*
X85632566Y-70309150D01*
X85704014Y-70416078D01*
X85803744Y-70497271D01*
X85922939Y-70545550D01*
X86051061Y-70556647D01*
X86176782Y-70529580D01*
X86288986Y-70466742D01*
X86377754Y-70373690D01*
X86421600Y-70285940D01*
X92595719Y-70285940D01*
X92632566Y-70409150D01*
X92704014Y-70516078D01*
X92803744Y-70597271D01*
X92922939Y-70645550D01*
X93051061Y-70656647D01*
X93176782Y-70629580D01*
X93288986Y-70566742D01*
X93377754Y-70473690D01*
X93435236Y-70358650D01*
X93447338Y-70285940D01*
X96068717Y-70285940D01*
X96105564Y-70409150D01*
X96177012Y-70516078D01*
X96276742Y-70597271D01*
X96395937Y-70645550D01*
X96524059Y-70656647D01*
X96649780Y-70629580D01*
X96761984Y-70566742D01*
X96850752Y-70473690D01*
X96908234Y-70358650D01*
X96929349Y-70231793D01*
X96929402Y-70225000D01*
X96910282Y-70097828D01*
X96879981Y-70034726D01*
X96854615Y-69981899D01*
X96767321Y-69887466D01*
X96767319Y-69887464D01*
X96656116Y-69822872D01*
X96530836Y-69793833D01*
X96402554Y-69802916D01*
X96282615Y-69849317D01*
X96181623Y-69928932D01*
X96177619Y-69934726D01*
X96108505Y-70034726D01*
X96069727Y-70157342D01*
X96068717Y-70285940D01*
X93447338Y-70285940D01*
X93456351Y-70231793D01*
X93456404Y-70225000D01*
X93437284Y-70097828D01*
X93406983Y-70034726D01*
X93381617Y-69981899D01*
X93294323Y-69887466D01*
X93294321Y-69887464D01*
X93183118Y-69822872D01*
X93057838Y-69793833D01*
X92929556Y-69802916D01*
X92809617Y-69849317D01*
X92708625Y-69928932D01*
X92704621Y-69934726D01*
X92635507Y-70034726D01*
X92596729Y-70157342D01*
X92595719Y-70285940D01*
X86421600Y-70285940D01*
X86435236Y-70258650D01*
X86439707Y-70231792D01*
X86456351Y-70131792D01*
X86456404Y-70124999D01*
X86446232Y-70057342D01*
X86437284Y-69997828D01*
X86406983Y-69934726D01*
X86381617Y-69881899D01*
X86294323Y-69787466D01*
X86294321Y-69787464D01*
X86183118Y-69722872D01*
X86057838Y-69693833D01*
X85929556Y-69702916D01*
X85809617Y-69749317D01*
X85708625Y-69828932D01*
X85668170Y-69887466D01*
X85635507Y-69934726D01*
X85596729Y-70057342D01*
X85595719Y-70185940D01*
X78900532Y-70185940D01*
X78887284Y-70097828D01*
X78856983Y-70034726D01*
X78831617Y-69981899D01*
X78744323Y-69887466D01*
X78744321Y-69887464D01*
X78633118Y-69822872D01*
X78507838Y-69793833D01*
X78379556Y-69802916D01*
X78259617Y-69849317D01*
X78158625Y-69928932D01*
X78154621Y-69934726D01*
X78085507Y-70034726D01*
X78046729Y-70157342D01*
X78045719Y-70285940D01*
X76347338Y-70285940D01*
X76356351Y-70231793D01*
X76356404Y-70225000D01*
X76337284Y-70097828D01*
X76306983Y-70034726D01*
X76281617Y-69981899D01*
X76194323Y-69887466D01*
X76194321Y-69887464D01*
X76083118Y-69822872D01*
X75957838Y-69793833D01*
X75829556Y-69802916D01*
X75709617Y-69849317D01*
X75608625Y-69928932D01*
X75604621Y-69934726D01*
X75535507Y-70034726D01*
X75496729Y-70157342D01*
X75495719Y-70285940D01*
X12127500Y-70285940D01*
X12127500Y-69185940D01*
X96995719Y-69185940D01*
X97032566Y-69309150D01*
X97104014Y-69416078D01*
X97203744Y-69497271D01*
X97322939Y-69545550D01*
X97451061Y-69556647D01*
X97576782Y-69529580D01*
X97688986Y-69466742D01*
X97777754Y-69373690D01*
X97835236Y-69258651D01*
X97856351Y-69131792D01*
X97856404Y-69124999D01*
X97837284Y-68997829D01*
X97781617Y-68881899D01*
X97694323Y-68787466D01*
X97694321Y-68787464D01*
X97583118Y-68722872D01*
X97457838Y-68693833D01*
X97329556Y-68702916D01*
X97209617Y-68749317D01*
X97108625Y-68828932D01*
X97053183Y-68909151D01*
X97035507Y-68934726D01*
X96996729Y-69057342D01*
X96995719Y-69185940D01*
X12127500Y-69185940D01*
X12127500Y-68785940D01*
X65014718Y-68785940D01*
X65051565Y-68909150D01*
X65123013Y-69016078D01*
X65222743Y-69097271D01*
X65341938Y-69145550D01*
X65470060Y-69156647D01*
X65595781Y-69129580D01*
X65707985Y-69066742D01*
X65796753Y-68973690D01*
X65854235Y-68858651D01*
X65866337Y-68785940D01*
X66095719Y-68785940D01*
X66132566Y-68909150D01*
X66204014Y-69016078D01*
X66303744Y-69097271D01*
X66422939Y-69145550D01*
X66551061Y-69156647D01*
X66676782Y-69129580D01*
X66788986Y-69066742D01*
X66877754Y-68973690D01*
X66935236Y-68858651D01*
X66938243Y-68840584D01*
X66963557Y-68799995D01*
X67010157Y-68789194D01*
X67059774Y-68832937D01*
X67082566Y-68909150D01*
X67154014Y-69016078D01*
X67253744Y-69097271D01*
X67372939Y-69145550D01*
X67501061Y-69156647D01*
X67626782Y-69129580D01*
X67738986Y-69066742D01*
X67827754Y-68973690D01*
X67885236Y-68858651D01*
X67906351Y-68731792D01*
X67906404Y-68724999D01*
X67887284Y-68597829D01*
X67831617Y-68481899D01*
X67744323Y-68387466D01*
X67744321Y-68387464D01*
X67633118Y-68322872D01*
X67507838Y-68293833D01*
X67379556Y-68302916D01*
X67259617Y-68349317D01*
X67158625Y-68428932D01*
X67085507Y-68534726D01*
X67059920Y-68615631D01*
X67029140Y-68652248D01*
X66981483Y-68656376D01*
X66938524Y-68606076D01*
X66937284Y-68597829D01*
X66881617Y-68481899D01*
X66794323Y-68387466D01*
X66794321Y-68387464D01*
X66683118Y-68322872D01*
X66557838Y-68293833D01*
X66429556Y-68302916D01*
X66309617Y-68349317D01*
X66208625Y-68428932D01*
X66172018Y-68481899D01*
X66135507Y-68534726D01*
X66096729Y-68657342D01*
X66095719Y-68785940D01*
X65866337Y-68785940D01*
X65875350Y-68731792D01*
X65875403Y-68724999D01*
X65856283Y-68597829D01*
X65800616Y-68481899D01*
X65713322Y-68387466D01*
X65713320Y-68387464D01*
X65602117Y-68322872D01*
X65476837Y-68293833D01*
X65348555Y-68302916D01*
X65228616Y-68349317D01*
X65127624Y-68428932D01*
X65091017Y-68481899D01*
X65054506Y-68534726D01*
X65015728Y-68657342D01*
X65014718Y-68785940D01*
X12127500Y-68785940D01*
X12127500Y-67885940D01*
X71445719Y-67885940D01*
X71482566Y-68009150D01*
X71554014Y-68116078D01*
X71653744Y-68197271D01*
X71772939Y-68245550D01*
X71901061Y-68256647D01*
X72026782Y-68229580D01*
X72138986Y-68166742D01*
X72227754Y-68073690D01*
X72285236Y-67958650D01*
X72306351Y-67831793D01*
X72306404Y-67825000D01*
X72287284Y-67697828D01*
X72256983Y-67634726D01*
X72231617Y-67581899D01*
X72144323Y-67487466D01*
X72144321Y-67487464D01*
X72033118Y-67422872D01*
X71907838Y-67393833D01*
X71779556Y-67402916D01*
X71659617Y-67449317D01*
X71558625Y-67528932D01*
X71522018Y-67581899D01*
X71485507Y-67634726D01*
X71446729Y-67757342D01*
X71445719Y-67885940D01*
X12127500Y-67885940D01*
X12127500Y-66785940D01*
X81545719Y-66785940D01*
X81582566Y-66909150D01*
X81654014Y-67016078D01*
X81753744Y-67097271D01*
X81872939Y-67145550D01*
X82001061Y-67156647D01*
X82126782Y-67129580D01*
X82238986Y-67066742D01*
X82327754Y-66973690D01*
X82372494Y-66884151D01*
X82385236Y-66858651D01*
X82398918Y-66776448D01*
X82401499Y-66760940D01*
X98571815Y-66760940D01*
X98608662Y-66884150D01*
X98680110Y-66991078D01*
X98779840Y-67072271D01*
X98899035Y-67120550D01*
X99027157Y-67131647D01*
X99152878Y-67104580D01*
X99265082Y-67041742D01*
X99353850Y-66948690D01*
X99411332Y-66833651D01*
X99420852Y-66776450D01*
X109687325Y-66776450D01*
X109724172Y-66899660D01*
X109795620Y-67006588D01*
X109895350Y-67087781D01*
X110014545Y-67136060D01*
X110142667Y-67147157D01*
X110268388Y-67120090D01*
X110380592Y-67057252D01*
X110469360Y-66964200D01*
X110477110Y-66948690D01*
X110526842Y-66849161D01*
X110546377Y-66731793D01*
X110547957Y-66722303D01*
X110548010Y-66715510D01*
X110546700Y-66706793D01*
X110528890Y-66588339D01*
X110521443Y-66572829D01*
X110498589Y-66525236D01*
X110473223Y-66472409D01*
X110385929Y-66377976D01*
X110385927Y-66377974D01*
X110274724Y-66313382D01*
X110149444Y-66284343D01*
X110021162Y-66293426D01*
X109901223Y-66339827D01*
X109800231Y-66419442D01*
X109737833Y-66509726D01*
X109727113Y-66525236D01*
X109688335Y-66647852D01*
X109687325Y-66776450D01*
X99420852Y-66776450D01*
X99429865Y-66722303D01*
X99432447Y-66706793D01*
X99432500Y-66700000D01*
X99426087Y-66657342D01*
X99413380Y-66572829D01*
X99357713Y-66456899D01*
X99270419Y-66362466D01*
X99270417Y-66362464D01*
X99159214Y-66297872D01*
X99033934Y-66268833D01*
X98905652Y-66277916D01*
X98785713Y-66324317D01*
X98684721Y-66403932D01*
X98629279Y-66484151D01*
X98611603Y-66509726D01*
X98572825Y-66632342D01*
X98571815Y-66760940D01*
X82401499Y-66760940D01*
X82406351Y-66731793D01*
X82406404Y-66725000D01*
X82405999Y-66722302D01*
X82387284Y-66597829D01*
X82384043Y-66591078D01*
X82369225Y-66560220D01*
X82331617Y-66481899D01*
X82244323Y-66387466D01*
X82244321Y-66387464D01*
X82133118Y-66322872D01*
X82007838Y-66293833D01*
X81879556Y-66302916D01*
X81759617Y-66349317D01*
X81658625Y-66428932D01*
X81592066Y-66525236D01*
X81585507Y-66534726D01*
X81546729Y-66657342D01*
X81545719Y-66785940D01*
X12127500Y-66785940D01*
X12127500Y-66360940D01*
X39371815Y-66360940D01*
X39408662Y-66484150D01*
X39480110Y-66591078D01*
X39579840Y-66672271D01*
X39699035Y-66720550D01*
X39827157Y-66731647D01*
X39952878Y-66704580D01*
X40065082Y-66641742D01*
X40153850Y-66548690D01*
X40186099Y-66484150D01*
X40211332Y-66433651D01*
X40232447Y-66306792D01*
X40232500Y-66299999D01*
X40213380Y-66172829D01*
X40157713Y-66056899D01*
X40070419Y-65962466D01*
X40070417Y-65962464D01*
X40067792Y-65960939D01*
X57845718Y-65960939D01*
X57882565Y-66084149D01*
X57954013Y-66191077D01*
X58053743Y-66272270D01*
X58172938Y-66320549D01*
X58301060Y-66331646D01*
X58426781Y-66304579D01*
X58538985Y-66241741D01*
X58627753Y-66148689D01*
X58685235Y-66033649D01*
X58706350Y-65906792D01*
X58706403Y-65899999D01*
X58687283Y-65772827D01*
X58656982Y-65709725D01*
X58631616Y-65656898D01*
X58544322Y-65562465D01*
X58544320Y-65562463D01*
X58433117Y-65497871D01*
X58307837Y-65468832D01*
X58179555Y-65477915D01*
X58059616Y-65524316D01*
X57958624Y-65603931D01*
X57922017Y-65656898D01*
X57885506Y-65709725D01*
X57846728Y-65832341D01*
X57845718Y-65960939D01*
X40067792Y-65960939D01*
X39959214Y-65897872D01*
X39833934Y-65868833D01*
X39705652Y-65877916D01*
X39585713Y-65924317D01*
X39484721Y-66003932D01*
X39411603Y-66109726D01*
X39372825Y-66232342D01*
X39371815Y-66360940D01*
X12127500Y-66360940D01*
X12127500Y-65103842D01*
X32630218Y-65103842D01*
X32667065Y-65227052D01*
X32738513Y-65333980D01*
X32838243Y-65415173D01*
X32957438Y-65463452D01*
X33085560Y-65474549D01*
X33211281Y-65447482D01*
X33323485Y-65384644D01*
X33412253Y-65291592D01*
X33469735Y-65176552D01*
X33481837Y-65103842D01*
X36230218Y-65103842D01*
X36267065Y-65227052D01*
X36338513Y-65333980D01*
X36438243Y-65415173D01*
X36557438Y-65463452D01*
X36685560Y-65474549D01*
X36811281Y-65447482D01*
X36923485Y-65384644D01*
X37012253Y-65291592D01*
X37069735Y-65176552D01*
X37109206Y-65097558D01*
X37167064Y-65184148D01*
X37167065Y-65184150D01*
X37238513Y-65291078D01*
X37338243Y-65372271D01*
X37457438Y-65420550D01*
X37585560Y-65431647D01*
X37711281Y-65404580D01*
X37823485Y-65341742D01*
X37912253Y-65248690D01*
X37969735Y-65133650D01*
X37974697Y-65103842D01*
X37981837Y-65060940D01*
X40630218Y-65060940D01*
X40667065Y-65184150D01*
X40738513Y-65291078D01*
X40838243Y-65372271D01*
X40957438Y-65420550D01*
X41085560Y-65431647D01*
X41211281Y-65404580D01*
X41323485Y-65341742D01*
X41412253Y-65248690D01*
X41469735Y-65133650D01*
X41474697Y-65103842D01*
X41481837Y-65060940D01*
X44545719Y-65060940D01*
X44582566Y-65184150D01*
X44654014Y-65291078D01*
X44753744Y-65372271D01*
X44872939Y-65420550D01*
X45001061Y-65431647D01*
X45126782Y-65404580D01*
X45238986Y-65341742D01*
X45327754Y-65248690D01*
X45385236Y-65133650D01*
X45390198Y-65103842D01*
X45397338Y-65060940D01*
X55545719Y-65060940D01*
X55582566Y-65184150D01*
X55654014Y-65291078D01*
X55753744Y-65372271D01*
X55872939Y-65420550D01*
X56001061Y-65431647D01*
X56126782Y-65404580D01*
X56238986Y-65341742D01*
X56327754Y-65248690D01*
X56385236Y-65133650D01*
X56390198Y-65103842D01*
X56397338Y-65060940D01*
X63045719Y-65060940D01*
X63082566Y-65184150D01*
X63154014Y-65291078D01*
X63253744Y-65372271D01*
X63372939Y-65420550D01*
X63501061Y-65431647D01*
X63626782Y-65404580D01*
X63738986Y-65341742D01*
X63827754Y-65248690D01*
X63885236Y-65133650D01*
X63890198Y-65103842D01*
X63906351Y-65006792D01*
X63906404Y-64999999D01*
X63887284Y-64872829D01*
X63831617Y-64756899D01*
X63744323Y-64662466D01*
X63744321Y-64662464D01*
X63633118Y-64597872D01*
X63507838Y-64568833D01*
X63379556Y-64577916D01*
X63259617Y-64624317D01*
X63158625Y-64703932D01*
X63122018Y-64756899D01*
X63085507Y-64809726D01*
X63046729Y-64932342D01*
X63045719Y-65060940D01*
X56397338Y-65060940D01*
X56406351Y-65006792D01*
X56406404Y-64999999D01*
X56387284Y-64872829D01*
X56331617Y-64756899D01*
X56244323Y-64662466D01*
X56244321Y-64662464D01*
X56133118Y-64597872D01*
X56007838Y-64568833D01*
X55879556Y-64577916D01*
X55759617Y-64624317D01*
X55658625Y-64703932D01*
X55622018Y-64756899D01*
X55585507Y-64809726D01*
X55546729Y-64932342D01*
X55545719Y-65060940D01*
X45397338Y-65060940D01*
X45406351Y-65006792D01*
X45406404Y-64999999D01*
X45387284Y-64872829D01*
X45331617Y-64756899D01*
X45244323Y-64662466D01*
X45244321Y-64662464D01*
X45133118Y-64597872D01*
X45007838Y-64568833D01*
X44879556Y-64577916D01*
X44759617Y-64624317D01*
X44658625Y-64703932D01*
X44622018Y-64756899D01*
X44585507Y-64809726D01*
X44546729Y-64932342D01*
X44545719Y-65060940D01*
X41481837Y-65060940D01*
X41490850Y-65006792D01*
X41490903Y-64999999D01*
X41471783Y-64872829D01*
X41416116Y-64756899D01*
X41328822Y-64662466D01*
X41328820Y-64662464D01*
X41217617Y-64597872D01*
X41092337Y-64568833D01*
X40964055Y-64577916D01*
X40844116Y-64624317D01*
X40743124Y-64703932D01*
X40706517Y-64756899D01*
X40670006Y-64809726D01*
X40631228Y-64932342D01*
X40630218Y-65060940D01*
X37981837Y-65060940D01*
X37990850Y-65006792D01*
X37990903Y-64999999D01*
X37971783Y-64872829D01*
X37916116Y-64756899D01*
X37828822Y-64662466D01*
X37828820Y-64662464D01*
X37717617Y-64597872D01*
X37592337Y-64568833D01*
X37464055Y-64577916D01*
X37344116Y-64624317D01*
X37243124Y-64703932D01*
X37170005Y-64809726D01*
X37158391Y-64846452D01*
X37127612Y-64883070D01*
X37079955Y-64887198D01*
X37042459Y-64854661D01*
X37016116Y-64799801D01*
X36928822Y-64705368D01*
X36928820Y-64705366D01*
X36817617Y-64640774D01*
X36692337Y-64611735D01*
X36564055Y-64620818D01*
X36444116Y-64667219D01*
X36343124Y-64746834D01*
X36336168Y-64756899D01*
X36270006Y-64852628D01*
X36231228Y-64975244D01*
X36230218Y-65103842D01*
X33481837Y-65103842D01*
X33490850Y-65049695D01*
X33490903Y-65042902D01*
X33471783Y-64915730D01*
X33451182Y-64872828D01*
X33416116Y-64799801D01*
X33328822Y-64705368D01*
X33328820Y-64705366D01*
X33217617Y-64640774D01*
X33092337Y-64611735D01*
X32964055Y-64620818D01*
X32844116Y-64667219D01*
X32743124Y-64746834D01*
X32736168Y-64756899D01*
X32670006Y-64852628D01*
X32631228Y-64975244D01*
X32630218Y-65103842D01*
X12127500Y-65103842D01*
X12127500Y-63960940D01*
X58545719Y-63960940D01*
X58582566Y-64084150D01*
X58654014Y-64191078D01*
X58753744Y-64272271D01*
X58872939Y-64320550D01*
X59001061Y-64331647D01*
X59126782Y-64304580D01*
X59238986Y-64241742D01*
X59327754Y-64148690D01*
X59385236Y-64033651D01*
X59406351Y-63906792D01*
X59406404Y-63899999D01*
X59387284Y-63772829D01*
X59331617Y-63656899D01*
X59244323Y-63562466D01*
X59244321Y-63562464D01*
X59133118Y-63497872D01*
X59007838Y-63468833D01*
X58879556Y-63477916D01*
X58759617Y-63524317D01*
X58658625Y-63603932D01*
X58622018Y-63656899D01*
X58585507Y-63709726D01*
X58546729Y-63832342D01*
X58545719Y-63960940D01*
X12127500Y-63960940D01*
X12127500Y-61603842D01*
X32630218Y-61603842D01*
X32667065Y-61727052D01*
X32738513Y-61833980D01*
X32838243Y-61915173D01*
X32957438Y-61963452D01*
X33085560Y-61974549D01*
X33211281Y-61947482D01*
X33323485Y-61884644D01*
X33412253Y-61791592D01*
X33469735Y-61676553D01*
X33481837Y-61603842D01*
X36230218Y-61603842D01*
X36267065Y-61727052D01*
X36338513Y-61833980D01*
X36438243Y-61915173D01*
X36557438Y-61963452D01*
X36685560Y-61974549D01*
X36811281Y-61947482D01*
X36923485Y-61884644D01*
X37012253Y-61791592D01*
X37069735Y-61676553D01*
X37088978Y-61560940D01*
X44545719Y-61560940D01*
X44582566Y-61684150D01*
X44654014Y-61791078D01*
X44753744Y-61872271D01*
X44872939Y-61920550D01*
X45001061Y-61931647D01*
X45126782Y-61904580D01*
X45238986Y-61841742D01*
X45327754Y-61748690D01*
X45385236Y-61633651D01*
X45397338Y-61560940D01*
X49945719Y-61560940D01*
X49982566Y-61684150D01*
X50054014Y-61791078D01*
X50153744Y-61872271D01*
X50272939Y-61920550D01*
X50401061Y-61931647D01*
X50526782Y-61904580D01*
X50638986Y-61841742D01*
X50727754Y-61748690D01*
X50785236Y-61633651D01*
X50797338Y-61560940D01*
X52045719Y-61560940D01*
X52082566Y-61684150D01*
X52154014Y-61791078D01*
X52253744Y-61872271D01*
X52372939Y-61920550D01*
X52501061Y-61931647D01*
X52626782Y-61904580D01*
X52738986Y-61841742D01*
X52827754Y-61748690D01*
X52885236Y-61633651D01*
X52906351Y-61506792D01*
X52906404Y-61499999D01*
X52887284Y-61372829D01*
X52831617Y-61256899D01*
X52744323Y-61162466D01*
X52744321Y-61162464D01*
X52633118Y-61097872D01*
X52507838Y-61068833D01*
X52379556Y-61077916D01*
X52259617Y-61124317D01*
X52158625Y-61203932D01*
X52122018Y-61256899D01*
X52085507Y-61309726D01*
X52046729Y-61432342D01*
X52045719Y-61560940D01*
X50797338Y-61560940D01*
X50806351Y-61506792D01*
X50806404Y-61499999D01*
X50787284Y-61372829D01*
X50731617Y-61256899D01*
X50644323Y-61162466D01*
X50644321Y-61162464D01*
X50533118Y-61097872D01*
X50407838Y-61068833D01*
X50279556Y-61077916D01*
X50159617Y-61124317D01*
X50058625Y-61203932D01*
X50022018Y-61256899D01*
X49985507Y-61309726D01*
X49946729Y-61432342D01*
X49945719Y-61560940D01*
X45397338Y-61560940D01*
X45406351Y-61506792D01*
X45406404Y-61499999D01*
X45387284Y-61372829D01*
X45331617Y-61256899D01*
X45244323Y-61162466D01*
X45244321Y-61162464D01*
X45133118Y-61097872D01*
X45007838Y-61068833D01*
X44879556Y-61077916D01*
X44759617Y-61124317D01*
X44658625Y-61203932D01*
X44622018Y-61256899D01*
X44585507Y-61309726D01*
X44546729Y-61432342D01*
X44545719Y-61560940D01*
X37088978Y-61560940D01*
X37090850Y-61549695D01*
X37090903Y-61542902D01*
X37071783Y-61415730D01*
X37041482Y-61352628D01*
X37016116Y-61299801D01*
X36928822Y-61205368D01*
X36928820Y-61205366D01*
X36817617Y-61140774D01*
X36692337Y-61111735D01*
X36564055Y-61120818D01*
X36444116Y-61167219D01*
X36343124Y-61246834D01*
X36336168Y-61256899D01*
X36270006Y-61352628D01*
X36231228Y-61475244D01*
X36230218Y-61603842D01*
X33481837Y-61603842D01*
X33488978Y-61560940D01*
X33490850Y-61549695D01*
X33490903Y-61542902D01*
X33471783Y-61415730D01*
X33441482Y-61352628D01*
X33416116Y-61299801D01*
X33328822Y-61205368D01*
X33328820Y-61205366D01*
X33217617Y-61140774D01*
X33092337Y-61111735D01*
X32964055Y-61120818D01*
X32844116Y-61167219D01*
X32743124Y-61246834D01*
X32736168Y-61256899D01*
X32670006Y-61352628D01*
X32631228Y-61475244D01*
X32630218Y-61603842D01*
X12127500Y-61603842D01*
X12127500Y-60760940D01*
X54645719Y-60760940D01*
X54682566Y-60884150D01*
X54754014Y-60991078D01*
X54853744Y-61072271D01*
X54972939Y-61120550D01*
X55101061Y-61131647D01*
X55226782Y-61104580D01*
X55338986Y-61041742D01*
X55427754Y-60948690D01*
X55485236Y-60833651D01*
X55506351Y-60706792D01*
X55506404Y-60699999D01*
X55487284Y-60572829D01*
X55431617Y-60456899D01*
X55344323Y-60362466D01*
X55344321Y-60362464D01*
X55233118Y-60297872D01*
X55107838Y-60268833D01*
X54979556Y-60277916D01*
X54859617Y-60324317D01*
X54758625Y-60403932D01*
X54703183Y-60484151D01*
X54685507Y-60509726D01*
X54646729Y-60632342D01*
X54645719Y-60760940D01*
X12127500Y-60760940D01*
X12127500Y-60360940D01*
X45445719Y-60360940D01*
X45482566Y-60484150D01*
X45554014Y-60591078D01*
X45653744Y-60672271D01*
X45772939Y-60720550D01*
X45901061Y-60731647D01*
X46026782Y-60704580D01*
X46138986Y-60641742D01*
X46227754Y-60548690D01*
X46285236Y-60433651D01*
X46306351Y-60306792D01*
X46306404Y-60299999D01*
X46287284Y-60172829D01*
X46231617Y-60056899D01*
X46144323Y-59962466D01*
X46144321Y-59962464D01*
X46033118Y-59897872D01*
X45907838Y-59868833D01*
X45779556Y-59877916D01*
X45659617Y-59924317D01*
X45558625Y-60003932D01*
X45522018Y-60056899D01*
X45485507Y-60109726D01*
X45446729Y-60232342D01*
X45445719Y-60360940D01*
X12127500Y-60360940D01*
X12127500Y-58460940D01*
X46971815Y-58460940D01*
X47008662Y-58584150D01*
X47080110Y-58691078D01*
X47179840Y-58772271D01*
X47299035Y-58820550D01*
X47427157Y-58831647D01*
X47552878Y-58804580D01*
X47665082Y-58741742D01*
X47753850Y-58648690D01*
X47811332Y-58533650D01*
X47832447Y-58406793D01*
X47832500Y-58400000D01*
X47813380Y-58272828D01*
X47783079Y-58209726D01*
X47757713Y-58156899D01*
X47670419Y-58062466D01*
X47670417Y-58062464D01*
X47559214Y-57997872D01*
X47433934Y-57968833D01*
X47305652Y-57977916D01*
X47185713Y-58024317D01*
X47084721Y-58103932D01*
X47048114Y-58156899D01*
X47011603Y-58209726D01*
X46972825Y-58332342D01*
X46971815Y-58460940D01*
X12127500Y-58460940D01*
X12127500Y-57460940D01*
X78771815Y-57460940D01*
X78808662Y-57584150D01*
X78880110Y-57691078D01*
X78979840Y-57772271D01*
X79099035Y-57820550D01*
X79227157Y-57831647D01*
X79352878Y-57804580D01*
X79465082Y-57741742D01*
X79553850Y-57648690D01*
X79611332Y-57533650D01*
X79632447Y-57406793D01*
X79632500Y-57400000D01*
X79613380Y-57272828D01*
X79583079Y-57209726D01*
X79557713Y-57156899D01*
X79470419Y-57062466D01*
X79470417Y-57062464D01*
X79359214Y-56997872D01*
X79233934Y-56968833D01*
X79105652Y-56977916D01*
X78985713Y-57024317D01*
X78884721Y-57103932D01*
X78848114Y-57156899D01*
X78811603Y-57209726D01*
X78772825Y-57332342D01*
X78771815Y-57460940D01*
X12127500Y-57460940D01*
X12127500Y-53285940D01*
X34202817Y-53285940D01*
X34239664Y-53409150D01*
X34311112Y-53516078D01*
X34410842Y-53597271D01*
X34530037Y-53645550D01*
X34658159Y-53656647D01*
X34783880Y-53629580D01*
X34896084Y-53566742D01*
X34984852Y-53473690D01*
X35042334Y-53358651D01*
X35054436Y-53285940D01*
X35202817Y-53285940D01*
X35239664Y-53409150D01*
X35311112Y-53516078D01*
X35410842Y-53597271D01*
X35530037Y-53645550D01*
X35658159Y-53656647D01*
X35783880Y-53629580D01*
X35896084Y-53566742D01*
X35984852Y-53473690D01*
X36042334Y-53358651D01*
X36054436Y-53285940D01*
X38702817Y-53285940D01*
X38739664Y-53409150D01*
X38811112Y-53516078D01*
X38910842Y-53597271D01*
X39030037Y-53645550D01*
X39158159Y-53656647D01*
X39283880Y-53629580D01*
X39396084Y-53566742D01*
X39484852Y-53473690D01*
X39542334Y-53358651D01*
X39554436Y-53285940D01*
X42702817Y-53285940D01*
X42739664Y-53409150D01*
X42811112Y-53516078D01*
X42910842Y-53597271D01*
X43030037Y-53645550D01*
X43158159Y-53656647D01*
X43283880Y-53629580D01*
X43396084Y-53566742D01*
X43484852Y-53473690D01*
X43542334Y-53358651D01*
X43554436Y-53285940D01*
X53702817Y-53285940D01*
X53739664Y-53409150D01*
X53811112Y-53516078D01*
X53910842Y-53597271D01*
X54030037Y-53645550D01*
X54158159Y-53656647D01*
X54283880Y-53629580D01*
X54396084Y-53566742D01*
X54484852Y-53473690D01*
X54542334Y-53358651D01*
X54554437Y-53285938D01*
X54563449Y-53231793D01*
X54563502Y-53225000D01*
X54544382Y-53097828D01*
X54513565Y-53033651D01*
X54488715Y-52981899D01*
X54469341Y-52960940D01*
X78771815Y-52960940D01*
X78808662Y-53084150D01*
X78880110Y-53191078D01*
X78979840Y-53272271D01*
X79099035Y-53320550D01*
X79227157Y-53331647D01*
X79352878Y-53304580D01*
X79465082Y-53241742D01*
X79553850Y-53148690D01*
X79611332Y-53033651D01*
X79632447Y-52906792D01*
X79632500Y-52899999D01*
X79613380Y-52772829D01*
X79611325Y-52768548D01*
X79583079Y-52709726D01*
X79557713Y-52656899D01*
X79470419Y-52562466D01*
X79470417Y-52562464D01*
X79359214Y-52497872D01*
X79233934Y-52468833D01*
X79105652Y-52477916D01*
X78985713Y-52524317D01*
X78884721Y-52603932D01*
X78860432Y-52639076D01*
X78811603Y-52709726D01*
X78772825Y-52832342D01*
X78771815Y-52960940D01*
X54469341Y-52960940D01*
X54401421Y-52887466D01*
X54401419Y-52887464D01*
X54290216Y-52822872D01*
X54164936Y-52793833D01*
X54036654Y-52802916D01*
X53916715Y-52849317D01*
X53815723Y-52928932D01*
X53785771Y-52972270D01*
X53742605Y-53034726D01*
X53703827Y-53157342D01*
X53702817Y-53285940D01*
X43554436Y-53285940D01*
X43554437Y-53285938D01*
X43563449Y-53231793D01*
X43563502Y-53225000D01*
X43544382Y-53097828D01*
X43513565Y-53033651D01*
X43488715Y-52981899D01*
X43401421Y-52887466D01*
X43401419Y-52887464D01*
X43290216Y-52822872D01*
X43164936Y-52793833D01*
X43036654Y-52802916D01*
X42916715Y-52849317D01*
X42815723Y-52928932D01*
X42785771Y-52972270D01*
X42742605Y-53034726D01*
X42703827Y-53157342D01*
X42702817Y-53285940D01*
X39554436Y-53285940D01*
X39554437Y-53285938D01*
X39563449Y-53231793D01*
X39563502Y-53225000D01*
X39544382Y-53097828D01*
X39513565Y-53033651D01*
X39488715Y-52981899D01*
X39401421Y-52887466D01*
X39401419Y-52887464D01*
X39290216Y-52822872D01*
X39164936Y-52793833D01*
X39036654Y-52802916D01*
X38916715Y-52849317D01*
X38815723Y-52928932D01*
X38785771Y-52972270D01*
X38742605Y-53034726D01*
X38703827Y-53157342D01*
X38702817Y-53285940D01*
X36054436Y-53285940D01*
X36054437Y-53285938D01*
X36063449Y-53231793D01*
X36063502Y-53225000D01*
X36044382Y-53097828D01*
X36013565Y-53033651D01*
X35988715Y-52981899D01*
X35901421Y-52887466D01*
X35901419Y-52887464D01*
X35790216Y-52822872D01*
X35664936Y-52793833D01*
X35536654Y-52802916D01*
X35416715Y-52849317D01*
X35315723Y-52928932D01*
X35285771Y-52972270D01*
X35242605Y-53034726D01*
X35203827Y-53157342D01*
X35202817Y-53285940D01*
X35054436Y-53285940D01*
X35054437Y-53285938D01*
X35063449Y-53231793D01*
X35063502Y-53225000D01*
X35044382Y-53097828D01*
X35013565Y-53033651D01*
X34988715Y-52981899D01*
X34901421Y-52887466D01*
X34901419Y-52887464D01*
X34790216Y-52822872D01*
X34664936Y-52793833D01*
X34536654Y-52802916D01*
X34416715Y-52849317D01*
X34315723Y-52928932D01*
X34285771Y-52972270D01*
X34242605Y-53034726D01*
X34203827Y-53157342D01*
X34202817Y-53285940D01*
X12127500Y-53285940D01*
X12127500Y-52660940D01*
X44627817Y-52660940D01*
X44664664Y-52784150D01*
X44736112Y-52891078D01*
X44835842Y-52972271D01*
X44955037Y-53020550D01*
X45083159Y-53031647D01*
X45208880Y-53004580D01*
X45321084Y-52941742D01*
X45409852Y-52848690D01*
X45467334Y-52733651D01*
X45483076Y-52639076D01*
X45488449Y-52606793D01*
X45488502Y-52600000D01*
X45471354Y-52485940D01*
X50102817Y-52485940D01*
X50139664Y-52609150D01*
X50211112Y-52716078D01*
X50310842Y-52797271D01*
X50430037Y-52845550D01*
X50558159Y-52856647D01*
X50683880Y-52829580D01*
X50796084Y-52766742D01*
X50884852Y-52673690D01*
X50942334Y-52558651D01*
X50963449Y-52431792D01*
X50963502Y-52424999D01*
X50961088Y-52408938D01*
X54902817Y-52408938D01*
X54939664Y-52532148D01*
X55011112Y-52639076D01*
X55110842Y-52720269D01*
X55230037Y-52768548D01*
X55358159Y-52779645D01*
X55483880Y-52752578D01*
X55596084Y-52689740D01*
X55684852Y-52596688D01*
X55742334Y-52481649D01*
X55763449Y-52354790D01*
X55763502Y-52347997D01*
X55744382Y-52220827D01*
X55727631Y-52185940D01*
X62102817Y-52185940D01*
X62139664Y-52309150D01*
X62211112Y-52416078D01*
X62310842Y-52497271D01*
X62430037Y-52545550D01*
X62558159Y-52556647D01*
X62683880Y-52529580D01*
X62796084Y-52466742D01*
X62884852Y-52373690D01*
X62942334Y-52258651D01*
X62963449Y-52131792D01*
X62963502Y-52124999D01*
X62944382Y-51997829D01*
X62942464Y-51993833D01*
X62911610Y-51929580D01*
X62888715Y-51881899D01*
X62801421Y-51787466D01*
X62801419Y-51787464D01*
X62690216Y-51722872D01*
X62564936Y-51693833D01*
X62436654Y-51702916D01*
X62316715Y-51749317D01*
X62215723Y-51828932D01*
X62160281Y-51909151D01*
X62142605Y-51934726D01*
X62103827Y-52057342D01*
X62102817Y-52185940D01*
X55727631Y-52185940D01*
X55688715Y-52104897D01*
X55618322Y-52028747D01*
X55601765Y-51983868D01*
X55621792Y-51940427D01*
X55687681Y-51928394D01*
X55730036Y-51945550D01*
X55858159Y-51956647D01*
X55983880Y-51929580D01*
X56096084Y-51866742D01*
X56184852Y-51773690D01*
X56242334Y-51658651D01*
X56263449Y-51531792D01*
X56263502Y-51524999D01*
X56253330Y-51457342D01*
X56244382Y-51397828D01*
X56226323Y-51360220D01*
X56188715Y-51281899D01*
X56101421Y-51187466D01*
X56101419Y-51187464D01*
X55990216Y-51122872D01*
X55864936Y-51093833D01*
X55736654Y-51102916D01*
X55616715Y-51149317D01*
X55515723Y-51228932D01*
X55479116Y-51281899D01*
X55442605Y-51334726D01*
X55403827Y-51457342D01*
X55402817Y-51585940D01*
X55439664Y-51709150D01*
X55511112Y-51816078D01*
X55526901Y-51828932D01*
X55533202Y-51834062D01*
X55555917Y-51876160D01*
X55542210Y-51921990D01*
X55479629Y-51943416D01*
X55364936Y-51916831D01*
X55236654Y-51925914D01*
X55116715Y-51972315D01*
X55015723Y-52051930D01*
X54960528Y-52131792D01*
X54942605Y-52157724D01*
X54903827Y-52280340D01*
X54902817Y-52408938D01*
X50961088Y-52408938D01*
X50944382Y-52297829D01*
X50927402Y-52262466D01*
X50907407Y-52220827D01*
X50888715Y-52181899D01*
X50801421Y-52087466D01*
X50801419Y-52087464D01*
X50690216Y-52022872D01*
X50564936Y-51993833D01*
X50436654Y-52002916D01*
X50316715Y-52049317D01*
X50215723Y-52128932D01*
X50179116Y-52181899D01*
X50142605Y-52234726D01*
X50103827Y-52357342D01*
X50102817Y-52485940D01*
X45471354Y-52485940D01*
X45469382Y-52472828D01*
X45449677Y-52431792D01*
X45413715Y-52356899D01*
X45326421Y-52262466D01*
X45326419Y-52262464D01*
X45215216Y-52197872D01*
X45089936Y-52168833D01*
X44961654Y-52177916D01*
X44841715Y-52224317D01*
X44740723Y-52303932D01*
X44692511Y-52373690D01*
X44667605Y-52409726D01*
X44628827Y-52532342D01*
X44627817Y-52660940D01*
X12127500Y-52660940D01*
X12127500Y-51785940D01*
X51202817Y-51785940D01*
X51239664Y-51909150D01*
X51311112Y-52016078D01*
X51410842Y-52097271D01*
X51530037Y-52145550D01*
X51658159Y-52156647D01*
X51783880Y-52129580D01*
X51896084Y-52066742D01*
X51984852Y-51973690D01*
X52042334Y-51858651D01*
X52063449Y-51731792D01*
X52063502Y-51724999D01*
X52044382Y-51597829D01*
X52038673Y-51585938D01*
X52012673Y-51531793D01*
X51988715Y-51481899D01*
X51901421Y-51387466D01*
X51901419Y-51387464D01*
X51790216Y-51322872D01*
X51664936Y-51293833D01*
X51536654Y-51302916D01*
X51416715Y-51349317D01*
X51315723Y-51428932D01*
X51296088Y-51457342D01*
X51242605Y-51534726D01*
X51203827Y-51657342D01*
X51202817Y-51785940D01*
X12127500Y-51785940D01*
X12127500Y-50885940D01*
X49302817Y-50885940D01*
X49339664Y-51009150D01*
X49411112Y-51116078D01*
X49510842Y-51197271D01*
X49630037Y-51245550D01*
X49758159Y-51256647D01*
X49883880Y-51229580D01*
X49996084Y-51166742D01*
X50084852Y-51073690D01*
X50142334Y-50958651D01*
X50157632Y-50866742D01*
X50163449Y-50831793D01*
X50163502Y-50825000D01*
X50144382Y-50697828D01*
X50114081Y-50634726D01*
X50090656Y-50585940D01*
X51802817Y-50585940D01*
X51839664Y-50709150D01*
X51911112Y-50816078D01*
X52010842Y-50897271D01*
X52130037Y-50945550D01*
X52258159Y-50956647D01*
X52383880Y-50929580D01*
X52496084Y-50866742D01*
X52573165Y-50785940D01*
X56702817Y-50785940D01*
X56739664Y-50909150D01*
X56811112Y-51016078D01*
X56910842Y-51097271D01*
X57030037Y-51145550D01*
X57158159Y-51156647D01*
X57283880Y-51129580D01*
X57396084Y-51066742D01*
X57484852Y-50973690D01*
X57542334Y-50858651D01*
X57563449Y-50731792D01*
X57563502Y-50724999D01*
X57553330Y-50657342D01*
X57544382Y-50597828D01*
X57512673Y-50531793D01*
X57488715Y-50481899D01*
X57401421Y-50387466D01*
X57401419Y-50387464D01*
X57290216Y-50322872D01*
X57164936Y-50293833D01*
X57036654Y-50302916D01*
X56916715Y-50349317D01*
X56815723Y-50428932D01*
X56775268Y-50487466D01*
X56742605Y-50534726D01*
X56703827Y-50657342D01*
X56702817Y-50785940D01*
X52573165Y-50785940D01*
X52584852Y-50773690D01*
X52642334Y-50658651D01*
X52663449Y-50531792D01*
X52663502Y-50524999D01*
X52652123Y-50449317D01*
X52644382Y-50397828D01*
X52626323Y-50360220D01*
X52588715Y-50281899D01*
X52501421Y-50187466D01*
X52501419Y-50187464D01*
X52390216Y-50122872D01*
X52264936Y-50093833D01*
X52136654Y-50102916D01*
X52016715Y-50149317D01*
X51915723Y-50228932D01*
X51879116Y-50281899D01*
X51842605Y-50334726D01*
X51803827Y-50457342D01*
X51802817Y-50585940D01*
X50090656Y-50585940D01*
X50088715Y-50581899D01*
X50001421Y-50487466D01*
X50001419Y-50487464D01*
X49890216Y-50422872D01*
X49764936Y-50393833D01*
X49636654Y-50402916D01*
X49516715Y-50449317D01*
X49415723Y-50528932D01*
X49413746Y-50531793D01*
X49342605Y-50634726D01*
X49303827Y-50757342D01*
X49302817Y-50885940D01*
X12127500Y-50885940D01*
X12127500Y-49785940D01*
X34252817Y-49785940D01*
X34289664Y-49909150D01*
X34361112Y-50016078D01*
X34460842Y-50097271D01*
X34580037Y-50145550D01*
X34708159Y-50156647D01*
X34833880Y-50129580D01*
X34946084Y-50066742D01*
X35034852Y-49973690D01*
X35092334Y-49858650D01*
X35104436Y-49785940D01*
X42702817Y-49785940D01*
X42739664Y-49909150D01*
X42811112Y-50016078D01*
X42910842Y-50097271D01*
X43030037Y-50145550D01*
X43158159Y-50156647D01*
X43283880Y-50129580D01*
X43396084Y-50066742D01*
X43484852Y-49973690D01*
X43542334Y-49858650D01*
X43563449Y-49731793D01*
X43563502Y-49725000D01*
X43544382Y-49597828D01*
X43514081Y-49534726D01*
X43488715Y-49481899D01*
X43401421Y-49387466D01*
X43401419Y-49387464D01*
X43290216Y-49322872D01*
X43164936Y-49293833D01*
X43036654Y-49302916D01*
X42916715Y-49349317D01*
X42815723Y-49428932D01*
X42779116Y-49481899D01*
X42742605Y-49534726D01*
X42703827Y-49657342D01*
X42702817Y-49785940D01*
X35104436Y-49785940D01*
X35113449Y-49731793D01*
X35113502Y-49725000D01*
X35094382Y-49597828D01*
X35064081Y-49534726D01*
X35038715Y-49481899D01*
X34951421Y-49387466D01*
X34951419Y-49387464D01*
X34840216Y-49322872D01*
X34714936Y-49293833D01*
X34586654Y-49302916D01*
X34466715Y-49349317D01*
X34365723Y-49428932D01*
X34329116Y-49481899D01*
X34292605Y-49534726D01*
X34253827Y-49657342D01*
X34252817Y-49785940D01*
X12127500Y-49785940D01*
X12127500Y-48885940D01*
X69602817Y-48885940D01*
X69639664Y-49009150D01*
X69711112Y-49116078D01*
X69810842Y-49197271D01*
X69930037Y-49245550D01*
X70058159Y-49256647D01*
X70183880Y-49229580D01*
X70296084Y-49166742D01*
X70384852Y-49073690D01*
X70442334Y-48958650D01*
X70454436Y-48885940D01*
X86452817Y-48885940D01*
X86489664Y-49009150D01*
X86561112Y-49116078D01*
X86660842Y-49197271D01*
X86780037Y-49245550D01*
X86908159Y-49256647D01*
X87033880Y-49229580D01*
X87146084Y-49166742D01*
X87234852Y-49073690D01*
X87292334Y-48958650D01*
X87313449Y-48831793D01*
X87313502Y-48825000D01*
X87294382Y-48697828D01*
X87264081Y-48634726D01*
X87238715Y-48581899D01*
X87151421Y-48487466D01*
X87151419Y-48487464D01*
X87040216Y-48422872D01*
X86914936Y-48393833D01*
X86786654Y-48402916D01*
X86666715Y-48449317D01*
X86565723Y-48528932D01*
X86529116Y-48581899D01*
X86492605Y-48634726D01*
X86453827Y-48757342D01*
X86452817Y-48885940D01*
X70454436Y-48885940D01*
X70463449Y-48831793D01*
X70463502Y-48825000D01*
X70444382Y-48697828D01*
X70414081Y-48634726D01*
X70388715Y-48581899D01*
X70301421Y-48487466D01*
X70301419Y-48487464D01*
X70190216Y-48422872D01*
X70064936Y-48393833D01*
X69936654Y-48402916D01*
X69816715Y-48449317D01*
X69715723Y-48528932D01*
X69679116Y-48581899D01*
X69642605Y-48634726D01*
X69603827Y-48757342D01*
X69602817Y-48885940D01*
X12127500Y-48885940D01*
X12127500Y-47960940D01*
X28371815Y-47960940D01*
X28408662Y-48084150D01*
X28480110Y-48191078D01*
X28579840Y-48272271D01*
X28699035Y-48320550D01*
X28827157Y-48331647D01*
X28952878Y-48304580D01*
X29065082Y-48241742D01*
X29153850Y-48148690D01*
X29167911Y-48120550D01*
X29211332Y-48033651D01*
X29225473Y-47948690D01*
X29232447Y-47906793D01*
X29232500Y-47900000D01*
X29213380Y-47772828D01*
X29207672Y-47760940D01*
X30771815Y-47760940D01*
X30808662Y-47884150D01*
X30880110Y-47991078D01*
X30979840Y-48072271D01*
X31099035Y-48120550D01*
X31227157Y-48131647D01*
X31352878Y-48104580D01*
X31465082Y-48041742D01*
X31553850Y-47948690D01*
X31570145Y-47916078D01*
X31611332Y-47833651D01*
X31619273Y-47785940D01*
X76202817Y-47785940D01*
X76239664Y-47909150D01*
X76311112Y-48016078D01*
X76410842Y-48097271D01*
X76530037Y-48145550D01*
X76658159Y-48156647D01*
X76783880Y-48129580D01*
X76896084Y-48066742D01*
X76984852Y-47973690D01*
X77017101Y-47909150D01*
X77042334Y-47858651D01*
X77056619Y-47772828D01*
X77063449Y-47731793D01*
X77063502Y-47725000D01*
X77060765Y-47706792D01*
X77057630Y-47685940D01*
X83752817Y-47685940D01*
X83789664Y-47809150D01*
X83861112Y-47916078D01*
X83960842Y-47997271D01*
X84080037Y-48045550D01*
X84208159Y-48056647D01*
X84333880Y-48029580D01*
X84446084Y-47966742D01*
X84534852Y-47873690D01*
X84554859Y-47833650D01*
X84578698Y-47785940D01*
X90752817Y-47785940D01*
X90789664Y-47909150D01*
X90861112Y-48016078D01*
X90960842Y-48097271D01*
X91080037Y-48145550D01*
X91208159Y-48156647D01*
X91333880Y-48129580D01*
X91446084Y-48066742D01*
X91534852Y-47973690D01*
X91567101Y-47909150D01*
X91592334Y-47858651D01*
X91606619Y-47772828D01*
X91608597Y-47760940D01*
X94171815Y-47760940D01*
X94208662Y-47884150D01*
X94280110Y-47991078D01*
X94379840Y-48072271D01*
X94499035Y-48120550D01*
X94627157Y-48131647D01*
X94752878Y-48104580D01*
X94865082Y-48041742D01*
X94953850Y-47948690D01*
X95011332Y-47833651D01*
X95032447Y-47706792D01*
X95032500Y-47699999D01*
X95021224Y-47624999D01*
X95013380Y-47572828D01*
X94995084Y-47534726D01*
X94957713Y-47456899D01*
X94870419Y-47362466D01*
X94870417Y-47362464D01*
X94759214Y-47297872D01*
X94633934Y-47268833D01*
X94505652Y-47277916D01*
X94385713Y-47324317D01*
X94284721Y-47403932D01*
X94219796Y-47497872D01*
X94211603Y-47509726D01*
X94172825Y-47632342D01*
X94171815Y-47760940D01*
X91608597Y-47760940D01*
X91613449Y-47731793D01*
X91613502Y-47725000D01*
X91610765Y-47706792D01*
X91599571Y-47632342D01*
X91594382Y-47597828D01*
X91559083Y-47524317D01*
X91538715Y-47481899D01*
X91451421Y-47387466D01*
X91451419Y-47387464D01*
X91340216Y-47322872D01*
X91214936Y-47293833D01*
X91086654Y-47302916D01*
X90966715Y-47349317D01*
X90865723Y-47428932D01*
X90799799Y-47524317D01*
X90792605Y-47534726D01*
X90753827Y-47657342D01*
X90752817Y-47785940D01*
X84578698Y-47785940D01*
X84592334Y-47758651D01*
X84609270Y-47656899D01*
X84613449Y-47631793D01*
X84613502Y-47625000D01*
X84610335Y-47603932D01*
X84603330Y-47557342D01*
X84594382Y-47497828D01*
X84564081Y-47434726D01*
X84538715Y-47381899D01*
X84451421Y-47287466D01*
X84451419Y-47287464D01*
X84340216Y-47222872D01*
X84214936Y-47193833D01*
X84086654Y-47202916D01*
X83966715Y-47249317D01*
X83865723Y-47328932D01*
X83825268Y-47387466D01*
X83792605Y-47434726D01*
X83753827Y-47557342D01*
X83752817Y-47685940D01*
X77057630Y-47685940D01*
X77049571Y-47632342D01*
X77044382Y-47597828D01*
X77009083Y-47524317D01*
X76988715Y-47481899D01*
X76901421Y-47387466D01*
X76901419Y-47387464D01*
X76790216Y-47322872D01*
X76664936Y-47293833D01*
X76536654Y-47302916D01*
X76416715Y-47349317D01*
X76315723Y-47428932D01*
X76249799Y-47524317D01*
X76242605Y-47534726D01*
X76203827Y-47657342D01*
X76202817Y-47785940D01*
X31619273Y-47785940D01*
X31632447Y-47706792D01*
X31632500Y-47699999D01*
X31621224Y-47624999D01*
X31613380Y-47572828D01*
X31595084Y-47534726D01*
X31557713Y-47456899D01*
X31470419Y-47362466D01*
X31470417Y-47362464D01*
X31359214Y-47297872D01*
X31233934Y-47268833D01*
X31105652Y-47277916D01*
X30985713Y-47324317D01*
X30884721Y-47403932D01*
X30819796Y-47497872D01*
X30811603Y-47509726D01*
X30772825Y-47632342D01*
X30771815Y-47760940D01*
X29207672Y-47760940D01*
X29193675Y-47731792D01*
X29157713Y-47656899D01*
X29070419Y-47562466D01*
X29070417Y-47562464D01*
X28959214Y-47497872D01*
X28833934Y-47468833D01*
X28705652Y-47477916D01*
X28585713Y-47524317D01*
X28484721Y-47603932D01*
X28418326Y-47699999D01*
X28411603Y-47709726D01*
X28372825Y-47832342D01*
X28371815Y-47960940D01*
X12127500Y-47960940D01*
X12127500Y-45960940D01*
X33271815Y-45960940D01*
X33308662Y-46084150D01*
X33380110Y-46191078D01*
X33479840Y-46272271D01*
X33599035Y-46320550D01*
X33727157Y-46331647D01*
X33852878Y-46304580D01*
X33886161Y-46285940D01*
X63102817Y-46285940D01*
X63139664Y-46409150D01*
X63211112Y-46516078D01*
X63310842Y-46597271D01*
X63430037Y-46645550D01*
X63558159Y-46656647D01*
X63683880Y-46629580D01*
X63796084Y-46566742D01*
X63884852Y-46473690D01*
X63942334Y-46358650D01*
X63954436Y-46285940D01*
X64252817Y-46285940D01*
X64289664Y-46409150D01*
X64361112Y-46516078D01*
X64460842Y-46597271D01*
X64580037Y-46645550D01*
X64708159Y-46656647D01*
X64833880Y-46629580D01*
X64946084Y-46566742D01*
X65034852Y-46473690D01*
X65092334Y-46358650D01*
X65113449Y-46231793D01*
X65113502Y-46225000D01*
X65094382Y-46097828D01*
X65063565Y-46033651D01*
X65038715Y-45981899D01*
X64951421Y-45887466D01*
X64951419Y-45887464D01*
X64840216Y-45822872D01*
X64714936Y-45793833D01*
X64586654Y-45802916D01*
X64466715Y-45849317D01*
X64365723Y-45928932D01*
X64329116Y-45981899D01*
X64292605Y-46034726D01*
X64253827Y-46157342D01*
X64252817Y-46285940D01*
X63954436Y-46285940D01*
X63963449Y-46231793D01*
X63963502Y-46225000D01*
X63944382Y-46097828D01*
X63913565Y-46033651D01*
X63888715Y-45981899D01*
X63801421Y-45887466D01*
X63801419Y-45887464D01*
X63690216Y-45822872D01*
X63564936Y-45793833D01*
X63436654Y-45802916D01*
X63316715Y-45849317D01*
X63215723Y-45928932D01*
X63179116Y-45981899D01*
X63142605Y-46034726D01*
X63103827Y-46157342D01*
X63102817Y-46285940D01*
X33886161Y-46285940D01*
X33965082Y-46241742D01*
X34053850Y-46148690D01*
X34067911Y-46120550D01*
X34111332Y-46033651D01*
X34132447Y-45906792D01*
X34132500Y-45899999D01*
X34113380Y-45772829D01*
X34107672Y-45760940D01*
X89671815Y-45760940D01*
X89708662Y-45884150D01*
X89780110Y-45991078D01*
X89879840Y-46072271D01*
X89999035Y-46120550D01*
X90127157Y-46131647D01*
X90252878Y-46104580D01*
X90365082Y-46041742D01*
X90453850Y-45948690D01*
X90463722Y-45928933D01*
X90511332Y-45833651D01*
X90532447Y-45706792D01*
X90532500Y-45699999D01*
X90520555Y-45620550D01*
X90513380Y-45572828D01*
X90495321Y-45535220D01*
X90457713Y-45456899D01*
X90370419Y-45362466D01*
X90370417Y-45362464D01*
X90259214Y-45297872D01*
X90133934Y-45268833D01*
X90005652Y-45277916D01*
X89885713Y-45324317D01*
X89784721Y-45403932D01*
X89746903Y-45458651D01*
X89711603Y-45509726D01*
X89672825Y-45632342D01*
X89671815Y-45760940D01*
X34107672Y-45760940D01*
X34107671Y-45760938D01*
X34081671Y-45706793D01*
X34057713Y-45656899D01*
X33970419Y-45562466D01*
X33970417Y-45562464D01*
X33859214Y-45497872D01*
X33733934Y-45468833D01*
X33605652Y-45477916D01*
X33485713Y-45524317D01*
X33384721Y-45603932D01*
X33365086Y-45632342D01*
X33311603Y-45709726D01*
X33272825Y-45832342D01*
X33271815Y-45960940D01*
X12127500Y-45960940D01*
X12127500Y-45260940D01*
X20571815Y-45260940D01*
X20608662Y-45384150D01*
X20680110Y-45491078D01*
X20779840Y-45572271D01*
X20899035Y-45620550D01*
X21027157Y-45631647D01*
X21152878Y-45604580D01*
X21265082Y-45541742D01*
X21353850Y-45448690D01*
X21376214Y-45403932D01*
X21411332Y-45333651D01*
X21423434Y-45260940D01*
X32571815Y-45260940D01*
X32608662Y-45384150D01*
X32680110Y-45491078D01*
X32779840Y-45572271D01*
X32899035Y-45620550D01*
X33027157Y-45631647D01*
X33152878Y-45604580D01*
X33265082Y-45541742D01*
X33353850Y-45448690D01*
X33376214Y-45403932D01*
X33385204Y-45385940D01*
X66102817Y-45385940D01*
X66139664Y-45509150D01*
X66211112Y-45616078D01*
X66310842Y-45697271D01*
X66430037Y-45745550D01*
X66558159Y-45756647D01*
X66683880Y-45729580D01*
X66796084Y-45666742D01*
X66884852Y-45573690D01*
X66890461Y-45562464D01*
X66942334Y-45458651D01*
X66954436Y-45385940D01*
X69602817Y-45385940D01*
X69639664Y-45509150D01*
X69711112Y-45616078D01*
X69810842Y-45697271D01*
X69930037Y-45745550D01*
X70058159Y-45756647D01*
X70183880Y-45729580D01*
X70296084Y-45666742D01*
X70384852Y-45573690D01*
X70390461Y-45562464D01*
X70442334Y-45458651D01*
X70454734Y-45384150D01*
X70463449Y-45331793D01*
X70463502Y-45325000D01*
X70444382Y-45197828D01*
X70414081Y-45134726D01*
X70388715Y-45081899D01*
X70301421Y-44987466D01*
X70301419Y-44987464D01*
X70190216Y-44922872D01*
X70064936Y-44893833D01*
X69936654Y-44902916D01*
X69816715Y-44949317D01*
X69715723Y-45028932D01*
X69679116Y-45081899D01*
X69642605Y-45134726D01*
X69603827Y-45257342D01*
X69602817Y-45385940D01*
X66954436Y-45385940D01*
X66954734Y-45384150D01*
X66963449Y-45331793D01*
X66963502Y-45325000D01*
X66944382Y-45197828D01*
X66914081Y-45134726D01*
X66888715Y-45081899D01*
X66801421Y-44987466D01*
X66801419Y-44987464D01*
X66690216Y-44922872D01*
X66564936Y-44893833D01*
X66436654Y-44902916D01*
X66316715Y-44949317D01*
X66215723Y-45028932D01*
X66179116Y-45081899D01*
X66142605Y-45134726D01*
X66103827Y-45257342D01*
X66102817Y-45385940D01*
X33385204Y-45385940D01*
X33411332Y-45333651D01*
X33432447Y-45206792D01*
X33432500Y-45199999D01*
X33413380Y-45072829D01*
X33413113Y-45072271D01*
X33383079Y-45009726D01*
X33357713Y-44956899D01*
X33270419Y-44862466D01*
X33270417Y-44862464D01*
X33159214Y-44797872D01*
X33033934Y-44768833D01*
X32905652Y-44777916D01*
X32785713Y-44824317D01*
X32684721Y-44903932D01*
X32653354Y-44949317D01*
X32611603Y-45009726D01*
X32572825Y-45132342D01*
X32571815Y-45260940D01*
X21423434Y-45260940D01*
X21432447Y-45206792D01*
X21432500Y-45199999D01*
X21413380Y-45072829D01*
X21413113Y-45072271D01*
X21383079Y-45009726D01*
X21357713Y-44956899D01*
X21270419Y-44862466D01*
X21270417Y-44862464D01*
X21159214Y-44797872D01*
X21033934Y-44768833D01*
X20905652Y-44777916D01*
X20785713Y-44824317D01*
X20684721Y-44903932D01*
X20653354Y-44949317D01*
X20611603Y-45009726D01*
X20572825Y-45132342D01*
X20571815Y-45260940D01*
X12127500Y-45260940D01*
X12127500Y-44760940D01*
X14671815Y-44760940D01*
X14708662Y-44884150D01*
X14780110Y-44991078D01*
X14879840Y-45072271D01*
X14999035Y-45120550D01*
X15127157Y-45131647D01*
X15252878Y-45104580D01*
X15365082Y-45041742D01*
X15453850Y-44948690D01*
X15511332Y-44833651D01*
X15532447Y-44706792D01*
X15532500Y-44699999D01*
X15513380Y-44572829D01*
X15510458Y-44566742D01*
X15483079Y-44509726D01*
X15457713Y-44456899D01*
X15370419Y-44362466D01*
X15370417Y-44362464D01*
X15259214Y-44297872D01*
X15133934Y-44268833D01*
X15005652Y-44277916D01*
X14885713Y-44324317D01*
X14784721Y-44403932D01*
X14748114Y-44456899D01*
X14711603Y-44509726D01*
X14672825Y-44632342D01*
X14671815Y-44760940D01*
X12127500Y-44760940D01*
X12127500Y-44060940D01*
X31371815Y-44060940D01*
X31408662Y-44184150D01*
X31480110Y-44291078D01*
X31579840Y-44372271D01*
X31699035Y-44420550D01*
X31827157Y-44431647D01*
X31952878Y-44404580D01*
X32065082Y-44341742D01*
X32118314Y-44285940D01*
X71752817Y-44285940D01*
X71789664Y-44409150D01*
X71861112Y-44516078D01*
X71960842Y-44597271D01*
X72080037Y-44645550D01*
X72208159Y-44656647D01*
X72333880Y-44629580D01*
X72446084Y-44566742D01*
X72534852Y-44473690D01*
X72555860Y-44431647D01*
X72592334Y-44358651D01*
X72604436Y-44285940D01*
X79702817Y-44285940D01*
X79739664Y-44409150D01*
X79811112Y-44516078D01*
X79910842Y-44597271D01*
X80030037Y-44645550D01*
X80158159Y-44656647D01*
X80283880Y-44629580D01*
X80396084Y-44566742D01*
X80484852Y-44473690D01*
X80542334Y-44358651D01*
X80554436Y-44285940D01*
X82752817Y-44285940D01*
X82789664Y-44409150D01*
X82861112Y-44516078D01*
X82960842Y-44597271D01*
X83080037Y-44645550D01*
X83208159Y-44656647D01*
X83333880Y-44629580D01*
X83446084Y-44566742D01*
X83534852Y-44473690D01*
X83555860Y-44431647D01*
X83592334Y-44358651D01*
X83607284Y-44268833D01*
X83613449Y-44231793D01*
X83613502Y-44225000D01*
X83607361Y-44184151D01*
X83594382Y-44097829D01*
X83538715Y-43981899D01*
X83451421Y-43887466D01*
X83451419Y-43887464D01*
X83340216Y-43822872D01*
X83214936Y-43793833D01*
X83086654Y-43802916D01*
X82966715Y-43849317D01*
X82865723Y-43928932D01*
X82792605Y-44034726D01*
X82753827Y-44157342D01*
X82752817Y-44285940D01*
X80554436Y-44285940D01*
X80557284Y-44268833D01*
X80563449Y-44231793D01*
X80563502Y-44225000D01*
X80557361Y-44184151D01*
X80544382Y-44097829D01*
X80488715Y-43981899D01*
X80401421Y-43887466D01*
X80401419Y-43887464D01*
X80290216Y-43822872D01*
X80164936Y-43793833D01*
X80036654Y-43802916D01*
X79916715Y-43849317D01*
X79815723Y-43928932D01*
X79742605Y-44034726D01*
X79703827Y-44157342D01*
X79702817Y-44285940D01*
X72604436Y-44285940D01*
X72607284Y-44268833D01*
X72613449Y-44231793D01*
X72613502Y-44225000D01*
X72607361Y-44184151D01*
X72594382Y-44097829D01*
X72538715Y-43981899D01*
X72451421Y-43887466D01*
X72451419Y-43887464D01*
X72340216Y-43822872D01*
X72214936Y-43793833D01*
X72086654Y-43802916D01*
X71966715Y-43849317D01*
X71865723Y-43928932D01*
X71792605Y-44034726D01*
X71753827Y-44157342D01*
X71752817Y-44285940D01*
X32118314Y-44285940D01*
X32153850Y-44248690D01*
X32211332Y-44133650D01*
X32217295Y-44097828D01*
X32232447Y-44006792D01*
X32232500Y-43999999D01*
X32213380Y-43872829D01*
X32157713Y-43756899D01*
X32070419Y-43662466D01*
X32070417Y-43662464D01*
X31959214Y-43597872D01*
X31833934Y-43568833D01*
X31705652Y-43577916D01*
X31585713Y-43624317D01*
X31484721Y-43703932D01*
X31448114Y-43756899D01*
X31411603Y-43809726D01*
X31372825Y-43932342D01*
X31371815Y-44060940D01*
X12127500Y-44060940D01*
X12127500Y-42285940D01*
X34202817Y-42285940D01*
X34239664Y-42409150D01*
X34311112Y-42516078D01*
X34410842Y-42597271D01*
X34530037Y-42645550D01*
X34658159Y-42656647D01*
X34783880Y-42629580D01*
X34896084Y-42566742D01*
X34984852Y-42473690D01*
X35042334Y-42358650D01*
X35054436Y-42285940D01*
X35202817Y-42285940D01*
X35239664Y-42409150D01*
X35311112Y-42516078D01*
X35410842Y-42597271D01*
X35530037Y-42645550D01*
X35658159Y-42656647D01*
X35783880Y-42629580D01*
X35896084Y-42566742D01*
X35984852Y-42473690D01*
X36042334Y-42358651D01*
X36054436Y-42285940D01*
X38702817Y-42285940D01*
X38739664Y-42409150D01*
X38811112Y-42516078D01*
X38910842Y-42597271D01*
X39030037Y-42645550D01*
X39158159Y-42656647D01*
X39283880Y-42629580D01*
X39396084Y-42566742D01*
X39484852Y-42473690D01*
X39542334Y-42358650D01*
X39554436Y-42285940D01*
X42702817Y-42285940D01*
X42739664Y-42409150D01*
X42811112Y-42516078D01*
X42910842Y-42597271D01*
X43030037Y-42645550D01*
X43158159Y-42656647D01*
X43283880Y-42629580D01*
X43396084Y-42566742D01*
X43484852Y-42473690D01*
X43542334Y-42358651D01*
X43554436Y-42285940D01*
X52752817Y-42285940D01*
X52789664Y-42409150D01*
X52861112Y-42516078D01*
X52960842Y-42597271D01*
X53080037Y-42645550D01*
X53208159Y-42656647D01*
X53333880Y-42629580D01*
X53446084Y-42566742D01*
X53534852Y-42473690D01*
X53592334Y-42358650D01*
X53595341Y-42340584D01*
X53620655Y-42299995D01*
X53667255Y-42289194D01*
X53716872Y-42332937D01*
X53739664Y-42409150D01*
X53811112Y-42516078D01*
X53910842Y-42597271D01*
X54030037Y-42645550D01*
X54158159Y-42656647D01*
X54283880Y-42629580D01*
X54396084Y-42566742D01*
X54484852Y-42473690D01*
X54542334Y-42358650D01*
X54554436Y-42285940D01*
X97702817Y-42285940D01*
X97739664Y-42409150D01*
X97811112Y-42516078D01*
X97910842Y-42597271D01*
X98030037Y-42645550D01*
X98158159Y-42656647D01*
X98283880Y-42629580D01*
X98396084Y-42566742D01*
X98484852Y-42473690D01*
X98542334Y-42358650D01*
X98563449Y-42231793D01*
X98563502Y-42225000D01*
X98544382Y-42097828D01*
X98507274Y-42020550D01*
X98488715Y-41981899D01*
X98401421Y-41887466D01*
X98401419Y-41887464D01*
X98290216Y-41822872D01*
X98164936Y-41793833D01*
X98036654Y-41802916D01*
X97916715Y-41849317D01*
X97815723Y-41928932D01*
X97806870Y-41941742D01*
X97742605Y-42034726D01*
X97703827Y-42157342D01*
X97702817Y-42285940D01*
X54554436Y-42285940D01*
X54563449Y-42231793D01*
X54563502Y-42225000D01*
X54544382Y-42097828D01*
X54507274Y-42020550D01*
X54488715Y-41981899D01*
X54401421Y-41887466D01*
X54401419Y-41887464D01*
X54290216Y-41822872D01*
X54164936Y-41793833D01*
X54036654Y-41802916D01*
X53916715Y-41849317D01*
X53815723Y-41928932D01*
X53742605Y-42034726D01*
X53717018Y-42115631D01*
X53686238Y-42152248D01*
X53638581Y-42156376D01*
X53595622Y-42106076D01*
X53594382Y-42097829D01*
X53538715Y-41981899D01*
X53451421Y-41887466D01*
X53451419Y-41887464D01*
X53340216Y-41822872D01*
X53214936Y-41793833D01*
X53086654Y-41802916D01*
X52966715Y-41849317D01*
X52865723Y-41928932D01*
X52856870Y-41941742D01*
X52792605Y-42034726D01*
X52753827Y-42157342D01*
X52752817Y-42285940D01*
X43554436Y-42285940D01*
X43563449Y-42231792D01*
X43563502Y-42224999D01*
X43544382Y-42097829D01*
X43488715Y-41981899D01*
X43401421Y-41887466D01*
X43401419Y-41887464D01*
X43290216Y-41822872D01*
X43164936Y-41793833D01*
X43036654Y-41802916D01*
X42916715Y-41849317D01*
X42815723Y-41928932D01*
X42806870Y-41941742D01*
X42742605Y-42034726D01*
X42703827Y-42157342D01*
X42702817Y-42285940D01*
X39554436Y-42285940D01*
X39563449Y-42231793D01*
X39563502Y-42225000D01*
X39544382Y-42097828D01*
X39507274Y-42020550D01*
X39488715Y-41981899D01*
X39401421Y-41887466D01*
X39401419Y-41887464D01*
X39290216Y-41822872D01*
X39164936Y-41793833D01*
X39036654Y-41802916D01*
X38916715Y-41849317D01*
X38815723Y-41928932D01*
X38806870Y-41941742D01*
X38742605Y-42034726D01*
X38703827Y-42157342D01*
X38702817Y-42285940D01*
X36054436Y-42285940D01*
X36063449Y-42231792D01*
X36063502Y-42224999D01*
X36044382Y-42097829D01*
X35988715Y-41981899D01*
X35901421Y-41887466D01*
X35901419Y-41887464D01*
X35790216Y-41822872D01*
X35664936Y-41793833D01*
X35536654Y-41802916D01*
X35416715Y-41849317D01*
X35315723Y-41928932D01*
X35306870Y-41941742D01*
X35242605Y-42034726D01*
X35203827Y-42157342D01*
X35202817Y-42285940D01*
X35054436Y-42285940D01*
X35063449Y-42231793D01*
X35063502Y-42225000D01*
X35044382Y-42097828D01*
X35007274Y-42020550D01*
X34988715Y-41981899D01*
X34901421Y-41887466D01*
X34901419Y-41887464D01*
X34790216Y-41822872D01*
X34664936Y-41793833D01*
X34536654Y-41802916D01*
X34416715Y-41849317D01*
X34315723Y-41928932D01*
X34306870Y-41941742D01*
X34242605Y-42034726D01*
X34203827Y-42157342D01*
X34202817Y-42285940D01*
X12127500Y-42285940D01*
X12127500Y-41460940D01*
X14671815Y-41460940D01*
X14708662Y-41584150D01*
X14780110Y-41691078D01*
X14879840Y-41772271D01*
X14999035Y-41820550D01*
X15127157Y-41831647D01*
X15252878Y-41804580D01*
X15365082Y-41741742D01*
X15442163Y-41660940D01*
X44627817Y-41660940D01*
X44664664Y-41784150D01*
X44736112Y-41891078D01*
X44835842Y-41972271D01*
X44955037Y-42020550D01*
X45083159Y-42031647D01*
X45208880Y-42004580D01*
X45321084Y-41941742D01*
X45409852Y-41848690D01*
X45419401Y-41829580D01*
X45467334Y-41733651D01*
X45483076Y-41639076D01*
X45488449Y-41606793D01*
X45488502Y-41600000D01*
X45471354Y-41485940D01*
X50102817Y-41485940D01*
X50139664Y-41609150D01*
X50211112Y-41716078D01*
X50310842Y-41797271D01*
X50430037Y-41845550D01*
X50558159Y-41856647D01*
X50683880Y-41829580D01*
X50796084Y-41766742D01*
X50884852Y-41673690D01*
X50917101Y-41609150D01*
X50942334Y-41558651D01*
X50957632Y-41466742D01*
X50963449Y-41431793D01*
X50963502Y-41425000D01*
X50961088Y-41408938D01*
X54902817Y-41408938D01*
X54939664Y-41532148D01*
X55011112Y-41639076D01*
X55110842Y-41720269D01*
X55230037Y-41768548D01*
X55358159Y-41779645D01*
X55483880Y-41752578D01*
X55596084Y-41689740D01*
X55684852Y-41596688D01*
X55742334Y-41481649D01*
X55763449Y-41354790D01*
X55763502Y-41347997D01*
X55753330Y-41280340D01*
X55744382Y-41220826D01*
X55727631Y-41185940D01*
X62102817Y-41185940D01*
X62139664Y-41309150D01*
X62211112Y-41416078D01*
X62310842Y-41497271D01*
X62430037Y-41545550D01*
X62558159Y-41556647D01*
X62683880Y-41529580D01*
X62796084Y-41466742D01*
X62884852Y-41373690D01*
X62942334Y-41258651D01*
X62959312Y-41156647D01*
X62963449Y-41131793D01*
X62963502Y-41125000D01*
X62960335Y-41103932D01*
X62957029Y-41081939D01*
X97771815Y-41081939D01*
X97808662Y-41205149D01*
X97880110Y-41312077D01*
X97979840Y-41393270D01*
X98099035Y-41441549D01*
X98227157Y-41452646D01*
X98352878Y-41425579D01*
X98465082Y-41362741D01*
X98553850Y-41269689D01*
X98611332Y-41154650D01*
X98632447Y-41027791D01*
X98632500Y-41020998D01*
X98617614Y-40921990D01*
X98613380Y-40893827D01*
X98595321Y-40856219D01*
X98557713Y-40777898D01*
X98470419Y-40683465D01*
X98470417Y-40683463D01*
X98359214Y-40618871D01*
X98233934Y-40589832D01*
X98105652Y-40598915D01*
X97985713Y-40645316D01*
X97884721Y-40724931D01*
X97867867Y-40749317D01*
X97811603Y-40830725D01*
X97772825Y-40953341D01*
X97771815Y-41081939D01*
X62957029Y-41081939D01*
X62948887Y-41027791D01*
X62944382Y-40997828D01*
X62911610Y-40929580D01*
X62888715Y-40881899D01*
X62801421Y-40787466D01*
X62801419Y-40787464D01*
X62690216Y-40722872D01*
X62564936Y-40693833D01*
X62436654Y-40702916D01*
X62316715Y-40749317D01*
X62215723Y-40828932D01*
X62160281Y-40909151D01*
X62142605Y-40934726D01*
X62103827Y-41057342D01*
X62102817Y-41185940D01*
X55727631Y-41185940D01*
X55723777Y-41177916D01*
X55688715Y-41104897D01*
X55618322Y-41028747D01*
X55601765Y-40983868D01*
X55621792Y-40940427D01*
X55687681Y-40928394D01*
X55730036Y-40945550D01*
X55858159Y-40956647D01*
X55983880Y-40929580D01*
X56096084Y-40866742D01*
X56184852Y-40773690D01*
X56242334Y-40658651D01*
X56263449Y-40531792D01*
X56263502Y-40524999D01*
X56253330Y-40457342D01*
X56244382Y-40397828D01*
X56226323Y-40360220D01*
X56188715Y-40281899D01*
X56101421Y-40187466D01*
X56101419Y-40187464D01*
X55990216Y-40122872D01*
X55864936Y-40093833D01*
X55736654Y-40102916D01*
X55616715Y-40149317D01*
X55515723Y-40228932D01*
X55479116Y-40281899D01*
X55442605Y-40334726D01*
X55403827Y-40457342D01*
X55402817Y-40585940D01*
X55439664Y-40709150D01*
X55511112Y-40816078D01*
X55526901Y-40828932D01*
X55533202Y-40834062D01*
X55555917Y-40876160D01*
X55542210Y-40921990D01*
X55479629Y-40943416D01*
X55364936Y-40916831D01*
X55236654Y-40925914D01*
X55116715Y-40972315D01*
X55015723Y-41051930D01*
X54960528Y-41131792D01*
X54942605Y-41157724D01*
X54903827Y-41280340D01*
X54902817Y-41408938D01*
X50961088Y-41408938D01*
X50960765Y-41406792D01*
X50944382Y-41297829D01*
X50927402Y-41262466D01*
X50907407Y-41220827D01*
X50888715Y-41181899D01*
X50801421Y-41087466D01*
X50801419Y-41087464D01*
X50690216Y-41022872D01*
X50564936Y-40993833D01*
X50436654Y-41002916D01*
X50316715Y-41049317D01*
X50215723Y-41128932D01*
X50152212Y-41220826D01*
X50142605Y-41234726D01*
X50103827Y-41357342D01*
X50102817Y-41485940D01*
X45471354Y-41485940D01*
X45469382Y-41472828D01*
X45449677Y-41431792D01*
X45413715Y-41356899D01*
X45326421Y-41262466D01*
X45326419Y-41262464D01*
X45215216Y-41197872D01*
X45089936Y-41168833D01*
X44961654Y-41177916D01*
X44841715Y-41224317D01*
X44740723Y-41303932D01*
X44700078Y-41362741D01*
X44667605Y-41409726D01*
X44628827Y-41532342D01*
X44627817Y-41660940D01*
X15442163Y-41660940D01*
X15453850Y-41648690D01*
X15458654Y-41639076D01*
X15511332Y-41533651D01*
X15529417Y-41424999D01*
X15532447Y-41406793D01*
X15532500Y-41400000D01*
X15526087Y-41357342D01*
X15518841Y-41309150D01*
X15513380Y-41272828D01*
X15495084Y-41234726D01*
X15457713Y-41156899D01*
X15370419Y-41062466D01*
X15370417Y-41062464D01*
X15259214Y-40997872D01*
X15133934Y-40968833D01*
X15005652Y-40977916D01*
X14885713Y-41024317D01*
X14784721Y-41103932D01*
X14719796Y-41197872D01*
X14711603Y-41209726D01*
X14672825Y-41332342D01*
X14671815Y-41460940D01*
X12127500Y-41460940D01*
X12127500Y-40785940D01*
X51202817Y-40785940D01*
X51239664Y-40909150D01*
X51311112Y-41016078D01*
X51410842Y-41097271D01*
X51530037Y-41145550D01*
X51658159Y-41156647D01*
X51783880Y-41129580D01*
X51896084Y-41066742D01*
X51984852Y-40973690D01*
X52042334Y-40858651D01*
X52063449Y-40731792D01*
X52063502Y-40724999D01*
X52044382Y-40597829D01*
X52038673Y-40585938D01*
X52012673Y-40531793D01*
X51988715Y-40481899D01*
X51901421Y-40387466D01*
X51901419Y-40387464D01*
X51790216Y-40322872D01*
X51664936Y-40293833D01*
X51536654Y-40302916D01*
X51416715Y-40349317D01*
X51315723Y-40428932D01*
X51296088Y-40457342D01*
X51242605Y-40534726D01*
X51203827Y-40657342D01*
X51202817Y-40785940D01*
X12127500Y-40785940D01*
X12127500Y-39885940D01*
X49302817Y-39885940D01*
X49339664Y-40009150D01*
X49411112Y-40116078D01*
X49510842Y-40197271D01*
X49630037Y-40245550D01*
X49758159Y-40256647D01*
X49883880Y-40229580D01*
X49996084Y-40166742D01*
X50084852Y-40073690D01*
X50142334Y-39958651D01*
X50157632Y-39866742D01*
X50163449Y-39831793D01*
X50163502Y-39825000D01*
X50144382Y-39697828D01*
X50114081Y-39634726D01*
X50090656Y-39585940D01*
X51802817Y-39585940D01*
X51839664Y-39709150D01*
X51911112Y-39816078D01*
X52010842Y-39897271D01*
X52130037Y-39945550D01*
X52258159Y-39956647D01*
X52383880Y-39929580D01*
X52496084Y-39866742D01*
X52573165Y-39785940D01*
X56702817Y-39785940D01*
X56739664Y-39909150D01*
X56811112Y-40016078D01*
X56910842Y-40097271D01*
X57030037Y-40145550D01*
X57158159Y-40156647D01*
X57283880Y-40129580D01*
X57396084Y-40066742D01*
X57484852Y-39973690D01*
X57542334Y-39858651D01*
X57556475Y-39773690D01*
X57558597Y-39760940D01*
X64471815Y-39760940D01*
X64508662Y-39884150D01*
X64580110Y-39991078D01*
X64679840Y-40072271D01*
X64799035Y-40120550D01*
X64927157Y-40131647D01*
X65052878Y-40104580D01*
X65165082Y-40041742D01*
X65253850Y-39948690D01*
X65311332Y-39833651D01*
X65329417Y-39724999D01*
X65332447Y-39706793D01*
X65332500Y-39700000D01*
X65332174Y-39697828D01*
X65313380Y-39572829D01*
X65257713Y-39456899D01*
X65170419Y-39362466D01*
X65170417Y-39362464D01*
X65059214Y-39297872D01*
X64933934Y-39268833D01*
X64805652Y-39277916D01*
X64685713Y-39324317D01*
X64584721Y-39403932D01*
X64530835Y-39481899D01*
X64511603Y-39509726D01*
X64472825Y-39632342D01*
X64471815Y-39760940D01*
X57558597Y-39760940D01*
X57563449Y-39731793D01*
X57563502Y-39725000D01*
X57560765Y-39706792D01*
X57553330Y-39657342D01*
X57544382Y-39597828D01*
X57512673Y-39531793D01*
X57488715Y-39481899D01*
X57401421Y-39387466D01*
X57401419Y-39387464D01*
X57290216Y-39322872D01*
X57164936Y-39293833D01*
X57036654Y-39302916D01*
X56916715Y-39349317D01*
X56815723Y-39428932D01*
X56749328Y-39524999D01*
X56742605Y-39534726D01*
X56703827Y-39657342D01*
X56702817Y-39785940D01*
X52573165Y-39785940D01*
X52584852Y-39773690D01*
X52642334Y-39658651D01*
X52663449Y-39531792D01*
X52663502Y-39524999D01*
X52649467Y-39431647D01*
X52644382Y-39397828D01*
X52626323Y-39360220D01*
X52588715Y-39281899D01*
X52501421Y-39187466D01*
X52501419Y-39187464D01*
X52390216Y-39122872D01*
X52264936Y-39093833D01*
X52136654Y-39102916D01*
X52016715Y-39149317D01*
X51915723Y-39228932D01*
X51879116Y-39281899D01*
X51842605Y-39334726D01*
X51803827Y-39457342D01*
X51802817Y-39585940D01*
X50090656Y-39585940D01*
X50088715Y-39581899D01*
X50001421Y-39487466D01*
X50001419Y-39487464D01*
X49890216Y-39422872D01*
X49764936Y-39393833D01*
X49636654Y-39402916D01*
X49516715Y-39449317D01*
X49415723Y-39528932D01*
X49379116Y-39581899D01*
X49342605Y-39634726D01*
X49303827Y-39757342D01*
X49302817Y-39885940D01*
X12127500Y-39885940D01*
X12127500Y-38785940D01*
X34252817Y-38785940D01*
X34289664Y-38909150D01*
X34361112Y-39016078D01*
X34460842Y-39097271D01*
X34580037Y-39145550D01*
X34708159Y-39156647D01*
X34833880Y-39129580D01*
X34946084Y-39066742D01*
X35034852Y-38973690D01*
X35092334Y-38858651D01*
X35104436Y-38785940D01*
X42702817Y-38785940D01*
X42739664Y-38909150D01*
X42811112Y-39016078D01*
X42910842Y-39097271D01*
X43030037Y-39145550D01*
X43158159Y-39156647D01*
X43283880Y-39129580D01*
X43396084Y-39066742D01*
X43401618Y-39060940D01*
X82771815Y-39060940D01*
X82808662Y-39184150D01*
X82880110Y-39291078D01*
X82979840Y-39372271D01*
X83099035Y-39420550D01*
X83227157Y-39431647D01*
X83352878Y-39404580D01*
X83465082Y-39341742D01*
X83553850Y-39248690D01*
X83611332Y-39133651D01*
X83623435Y-39060938D01*
X83632447Y-39006793D01*
X83632500Y-39000000D01*
X83613380Y-38872828D01*
X83583079Y-38809726D01*
X83557713Y-38756899D01*
X83470419Y-38662466D01*
X83470417Y-38662464D01*
X83359214Y-38597872D01*
X83233934Y-38568833D01*
X83105652Y-38577916D01*
X82985713Y-38624317D01*
X82884721Y-38703932D01*
X82811603Y-38809726D01*
X82772825Y-38932342D01*
X82771815Y-39060940D01*
X43401618Y-39060940D01*
X43484852Y-38973690D01*
X43542334Y-38858651D01*
X43563449Y-38731792D01*
X43563502Y-38724999D01*
X43553330Y-38657342D01*
X43544382Y-38597828D01*
X43514081Y-38534726D01*
X43488715Y-38481899D01*
X43401421Y-38387466D01*
X43401419Y-38387464D01*
X43290216Y-38322872D01*
X43164936Y-38293833D01*
X43036654Y-38302916D01*
X42916715Y-38349317D01*
X42815723Y-38428932D01*
X42779116Y-38481899D01*
X42742605Y-38534726D01*
X42703827Y-38657342D01*
X42702817Y-38785940D01*
X35104436Y-38785940D01*
X35113449Y-38731792D01*
X35113502Y-38724999D01*
X35103330Y-38657342D01*
X35094382Y-38597828D01*
X35064081Y-38534726D01*
X35038715Y-38481899D01*
X34951421Y-38387466D01*
X34951419Y-38387464D01*
X34840216Y-38322872D01*
X34714936Y-38293833D01*
X34586654Y-38302916D01*
X34466715Y-38349317D01*
X34365723Y-38428932D01*
X34329116Y-38481899D01*
X34292605Y-38534726D01*
X34253827Y-38657342D01*
X34252817Y-38785940D01*
X12127500Y-38785940D01*
X12127500Y-37460940D01*
X20571815Y-37460940D01*
X20608662Y-37584150D01*
X20680110Y-37691078D01*
X20779840Y-37772271D01*
X20899035Y-37820550D01*
X21027157Y-37831647D01*
X21152878Y-37804580D01*
X21265082Y-37741742D01*
X21353850Y-37648690D01*
X21411332Y-37533651D01*
X21432447Y-37406792D01*
X21432500Y-37399999D01*
X21413380Y-37272829D01*
X21357713Y-37156899D01*
X21270419Y-37062466D01*
X21270417Y-37062464D01*
X21159214Y-36997872D01*
X21033934Y-36968833D01*
X20905652Y-36977916D01*
X20785713Y-37024317D01*
X20684721Y-37103932D01*
X20648114Y-37156899D01*
X20611603Y-37209726D01*
X20572825Y-37332342D01*
X20571815Y-37460940D01*
X12127500Y-37460940D01*
X12127500Y-34860940D01*
X14671815Y-34860940D01*
X14708662Y-34984150D01*
X14780110Y-35091078D01*
X14879840Y-35172271D01*
X14999035Y-35220550D01*
X15127157Y-35231647D01*
X15252878Y-35204580D01*
X15365082Y-35141742D01*
X15442163Y-35060940D01*
X36471815Y-35060940D01*
X36508662Y-35184150D01*
X36580110Y-35291078D01*
X36679840Y-35372271D01*
X36799035Y-35420550D01*
X36927157Y-35431647D01*
X37052878Y-35404580D01*
X37165082Y-35341742D01*
X37253850Y-35248690D01*
X37311332Y-35133651D01*
X37332447Y-35006792D01*
X37332500Y-34999999D01*
X37313380Y-34872829D01*
X37307671Y-34860938D01*
X37281671Y-34806793D01*
X37257713Y-34756899D01*
X37170419Y-34662466D01*
X37170417Y-34662464D01*
X37059214Y-34597872D01*
X36933934Y-34568833D01*
X36805652Y-34577916D01*
X36685713Y-34624317D01*
X36584721Y-34703932D01*
X36565086Y-34732342D01*
X36511603Y-34809726D01*
X36472825Y-34932342D01*
X36471815Y-35060940D01*
X15442163Y-35060940D01*
X15453850Y-35048690D01*
X15478179Y-35000000D01*
X15511332Y-34933651D01*
X15532447Y-34806792D01*
X15532500Y-34799999D01*
X15522328Y-34732342D01*
X15513380Y-34672828D01*
X15495321Y-34635220D01*
X15457713Y-34556899D01*
X15370419Y-34462466D01*
X15370417Y-34462464D01*
X15259214Y-34397872D01*
X15133934Y-34368833D01*
X15005652Y-34377916D01*
X14885713Y-34424317D01*
X14784721Y-34503932D01*
X14748114Y-34556899D01*
X14711603Y-34609726D01*
X14672825Y-34732342D01*
X14671815Y-34860940D01*
X12127500Y-34860940D01*
X12127500Y-31860940D01*
X39671815Y-31860940D01*
X39708662Y-31984150D01*
X39780110Y-32091078D01*
X39879840Y-32172271D01*
X39999035Y-32220550D01*
X40127157Y-32231647D01*
X40252878Y-32204580D01*
X40312926Y-32170951D01*
X82071815Y-32170951D01*
X82108662Y-32294161D01*
X82180110Y-32401089D01*
X82279840Y-32482282D01*
X82399035Y-32530561D01*
X82527157Y-32541658D01*
X82652878Y-32514591D01*
X82765082Y-32451753D01*
X82853850Y-32358701D01*
X82911332Y-32243661D01*
X82932447Y-32116804D01*
X82932500Y-32110011D01*
X82929654Y-32091078D01*
X82913380Y-31982840D01*
X82857713Y-31866910D01*
X82770419Y-31772477D01*
X82770417Y-31772475D01*
X82659214Y-31707883D01*
X82533934Y-31678844D01*
X82405652Y-31687927D01*
X82285713Y-31734328D01*
X82184721Y-31813943D01*
X82168253Y-31837771D01*
X82111603Y-31919737D01*
X82072825Y-32042353D01*
X82071815Y-32170951D01*
X40312926Y-32170951D01*
X40365082Y-32141742D01*
X40453850Y-32048690D01*
X40486099Y-31984150D01*
X40511332Y-31933651D01*
X40532447Y-31806792D01*
X40532500Y-31799999D01*
X40513380Y-31672829D01*
X40513113Y-31672271D01*
X40483079Y-31609726D01*
X40457713Y-31556899D01*
X40370419Y-31462466D01*
X40370417Y-31462464D01*
X40259214Y-31397872D01*
X40225037Y-31389950D01*
X52394676Y-31389950D01*
X52431523Y-31513160D01*
X52502971Y-31620088D01*
X52602701Y-31701281D01*
X52721896Y-31749560D01*
X52850018Y-31760657D01*
X52975739Y-31733590D01*
X53087943Y-31670752D01*
X53176711Y-31577700D01*
X53187105Y-31556899D01*
X53202323Y-31526441D01*
X73371815Y-31526441D01*
X73408662Y-31649651D01*
X73480110Y-31756579D01*
X73579840Y-31837772D01*
X73699035Y-31886051D01*
X73827157Y-31897148D01*
X73952878Y-31870081D01*
X74065082Y-31807243D01*
X74153850Y-31714191D01*
X74171512Y-31678844D01*
X74211332Y-31599152D01*
X74230473Y-31484151D01*
X74232447Y-31472294D01*
X74232500Y-31465501D01*
X74232044Y-31462464D01*
X74217966Y-31368833D01*
X74213380Y-31338329D01*
X74181927Y-31272828D01*
X74157713Y-31222400D01*
X74070419Y-31127967D01*
X74070417Y-31127965D01*
X73959214Y-31063373D01*
X73833934Y-31034334D01*
X73705652Y-31043417D01*
X73585713Y-31089818D01*
X73484721Y-31169433D01*
X73429944Y-31248690D01*
X73411603Y-31275227D01*
X73372825Y-31397843D01*
X73371815Y-31526441D01*
X53202323Y-31526441D01*
X53234193Y-31462661D01*
X53254887Y-31338330D01*
X53255308Y-31335803D01*
X53255361Y-31329010D01*
X53236241Y-31201838D01*
X53205940Y-31138736D01*
X53180574Y-31085909D01*
X53157493Y-31060940D01*
X66771815Y-31060940D01*
X66808662Y-31184150D01*
X66880110Y-31291078D01*
X66979840Y-31372271D01*
X67099035Y-31420550D01*
X67227157Y-31431647D01*
X67352878Y-31404580D01*
X67465082Y-31341742D01*
X67553850Y-31248690D01*
X67586099Y-31184150D01*
X67611332Y-31133651D01*
X67628094Y-31032943D01*
X67632447Y-31006793D01*
X67632500Y-31000000D01*
X67631219Y-30991476D01*
X67621121Y-30924317D01*
X67613380Y-30872828D01*
X67583079Y-30809726D01*
X67557713Y-30756899D01*
X67470419Y-30662466D01*
X67470417Y-30662464D01*
X67359214Y-30597872D01*
X67233934Y-30568833D01*
X67105652Y-30577916D01*
X66985713Y-30624317D01*
X66884721Y-30703932D01*
X66882433Y-30707243D01*
X66811603Y-30809726D01*
X66772825Y-30932342D01*
X66771815Y-31060940D01*
X53157493Y-31060940D01*
X53093280Y-30991476D01*
X53093278Y-30991474D01*
X52982075Y-30926882D01*
X52856795Y-30897843D01*
X52728513Y-30906926D01*
X52608574Y-30953327D01*
X52507582Y-31032942D01*
X52434464Y-31138736D01*
X52395686Y-31261352D01*
X52394771Y-31377916D01*
X52394676Y-31389950D01*
X40225037Y-31389950D01*
X40133934Y-31368833D01*
X40005652Y-31377916D01*
X39885713Y-31424317D01*
X39784721Y-31503932D01*
X39729279Y-31584151D01*
X39711603Y-31609726D01*
X39672825Y-31732342D01*
X39671815Y-31860940D01*
X12127500Y-31860940D01*
X12127500Y-31360940D01*
X14671815Y-31360940D01*
X14708662Y-31484150D01*
X14780110Y-31591078D01*
X14879840Y-31672271D01*
X14999035Y-31720550D01*
X15127157Y-31731647D01*
X15252878Y-31704580D01*
X15365082Y-31641742D01*
X15453850Y-31548690D01*
X15492023Y-31472294D01*
X15497696Y-31460940D01*
X37571815Y-31460940D01*
X37608662Y-31584150D01*
X37680110Y-31691078D01*
X37779840Y-31772271D01*
X37899035Y-31820550D01*
X38027157Y-31831647D01*
X38152878Y-31804580D01*
X38265082Y-31741742D01*
X38353850Y-31648690D01*
X38411332Y-31533651D01*
X38423435Y-31460938D01*
X38432447Y-31406793D01*
X38432500Y-31400000D01*
X38413380Y-31272828D01*
X38379292Y-31201839D01*
X38357713Y-31156899D01*
X38270419Y-31062466D01*
X38270417Y-31062464D01*
X38159214Y-30997872D01*
X38033934Y-30968833D01*
X37905652Y-30977916D01*
X37785713Y-31024317D01*
X37684721Y-31103932D01*
X37629279Y-31184151D01*
X37611603Y-31209726D01*
X37572825Y-31332342D01*
X37571815Y-31460940D01*
X15497696Y-31460940D01*
X15511332Y-31433651D01*
X15527618Y-31335803D01*
X15532447Y-31306793D01*
X15532500Y-31300000D01*
X15528776Y-31275227D01*
X15520833Y-31222400D01*
X15513380Y-31172828D01*
X15483079Y-31109726D01*
X15457713Y-31056899D01*
X15370419Y-30962466D01*
X15370417Y-30962464D01*
X15259214Y-30897872D01*
X15133934Y-30868833D01*
X15005652Y-30877916D01*
X14885713Y-30924317D01*
X14784721Y-31003932D01*
X14728064Y-31085909D01*
X14711603Y-31109726D01*
X14672825Y-31232342D01*
X14671815Y-31360940D01*
X12127500Y-31360940D01*
X12127500Y-30426441D01*
X37621815Y-30426441D01*
X37658662Y-30549651D01*
X37730110Y-30656579D01*
X37829840Y-30737772D01*
X37949035Y-30786051D01*
X38077157Y-30797148D01*
X38202878Y-30770081D01*
X38315082Y-30707243D01*
X38403850Y-30614191D01*
X38461332Y-30499152D01*
X38473434Y-30426441D01*
X41121815Y-30426441D01*
X41158662Y-30549651D01*
X41230110Y-30656579D01*
X41329840Y-30737772D01*
X41449035Y-30786051D01*
X41577157Y-30797148D01*
X41702878Y-30770081D01*
X41815082Y-30707243D01*
X41903850Y-30614191D01*
X41961332Y-30499152D01*
X41973434Y-30426441D01*
X44621815Y-30426441D01*
X44658662Y-30549651D01*
X44730110Y-30656579D01*
X44829840Y-30737772D01*
X44949035Y-30786051D01*
X45077157Y-30797148D01*
X45202878Y-30770081D01*
X45315082Y-30707243D01*
X45403850Y-30614191D01*
X45461332Y-30499152D01*
X45473434Y-30426441D01*
X55621815Y-30426441D01*
X55658662Y-30549651D01*
X55730110Y-30656579D01*
X55829840Y-30737772D01*
X55949035Y-30786051D01*
X56077157Y-30797148D01*
X56202878Y-30770081D01*
X56315082Y-30707243D01*
X56403850Y-30614191D01*
X56461332Y-30499152D01*
X56473434Y-30426441D01*
X63171815Y-30426441D01*
X63208662Y-30549651D01*
X63280110Y-30656579D01*
X63379840Y-30737772D01*
X63499035Y-30786051D01*
X63627157Y-30797148D01*
X63752878Y-30770081D01*
X63865082Y-30707243D01*
X63953850Y-30614191D01*
X64011332Y-30499152D01*
X64023435Y-30426439D01*
X64032447Y-30372294D01*
X64032500Y-30365501D01*
X64026628Y-30326441D01*
X70671815Y-30326441D01*
X70708662Y-30449651D01*
X70780110Y-30556579D01*
X70879840Y-30637772D01*
X70999035Y-30686051D01*
X71127157Y-30697148D01*
X71252878Y-30670081D01*
X71365082Y-30607243D01*
X71453850Y-30514191D01*
X71497696Y-30426441D01*
X77671815Y-30426441D01*
X77708662Y-30549651D01*
X77780110Y-30656579D01*
X77879840Y-30737772D01*
X77999035Y-30786051D01*
X78127157Y-30797148D01*
X78252878Y-30770081D01*
X78365082Y-30707243D01*
X78453850Y-30614191D01*
X78511332Y-30499152D01*
X78523434Y-30426441D01*
X81144813Y-30426441D01*
X81181660Y-30549651D01*
X81253108Y-30656579D01*
X81352838Y-30737772D01*
X81472033Y-30786051D01*
X81600155Y-30797148D01*
X81725876Y-30770081D01*
X81838080Y-30707243D01*
X81926848Y-30614191D01*
X81984330Y-30499152D01*
X81996432Y-30426441D01*
X86337316Y-30426441D01*
X86374163Y-30549651D01*
X86445611Y-30656579D01*
X86545341Y-30737772D01*
X86664536Y-30786051D01*
X86792658Y-30797148D01*
X86918379Y-30770081D01*
X87030583Y-30707243D01*
X87119351Y-30614191D01*
X87176833Y-30499152D01*
X87188936Y-30426439D01*
X87197948Y-30372294D01*
X87198001Y-30365501D01*
X87178881Y-30238329D01*
X87148580Y-30175227D01*
X87123214Y-30122400D01*
X87035920Y-30027967D01*
X87035918Y-30027965D01*
X86924715Y-29963373D01*
X86799435Y-29934334D01*
X86671153Y-29943417D01*
X86551214Y-29989818D01*
X86450222Y-30069433D01*
X86446218Y-30075227D01*
X86377104Y-30175227D01*
X86338326Y-30297843D01*
X86337316Y-30426441D01*
X81996432Y-30426441D01*
X81996433Y-30426439D01*
X82005445Y-30372294D01*
X82005498Y-30365501D01*
X81986378Y-30238329D01*
X81956077Y-30175227D01*
X81930711Y-30122400D01*
X81843417Y-30027967D01*
X81843415Y-30027965D01*
X81732212Y-29963373D01*
X81606932Y-29934334D01*
X81478650Y-29943417D01*
X81358711Y-29989818D01*
X81257719Y-30069433D01*
X81253715Y-30075227D01*
X81184601Y-30175227D01*
X81145823Y-30297843D01*
X81144813Y-30426441D01*
X78523434Y-30426441D01*
X78523435Y-30426439D01*
X78532447Y-30372294D01*
X78532500Y-30365501D01*
X78513380Y-30238329D01*
X78483079Y-30175227D01*
X78457713Y-30122400D01*
X78370419Y-30027967D01*
X78370417Y-30027965D01*
X78259214Y-29963373D01*
X78133934Y-29934334D01*
X78005652Y-29943417D01*
X77885713Y-29989818D01*
X77784721Y-30069433D01*
X77780717Y-30075227D01*
X77711603Y-30175227D01*
X77672825Y-30297843D01*
X77671815Y-30426441D01*
X71497696Y-30426441D01*
X71511332Y-30399152D01*
X71532447Y-30272293D01*
X71532500Y-30265500D01*
X71522328Y-30197843D01*
X71513380Y-30138329D01*
X71483079Y-30075227D01*
X71457713Y-30022400D01*
X71370419Y-29927967D01*
X71370417Y-29927965D01*
X71259214Y-29863373D01*
X71133934Y-29834334D01*
X71005652Y-29843417D01*
X70885713Y-29889818D01*
X70784721Y-29969433D01*
X70744266Y-30027967D01*
X70711603Y-30075227D01*
X70672825Y-30197843D01*
X70671815Y-30326441D01*
X64026628Y-30326441D01*
X64013380Y-30238329D01*
X63983079Y-30175227D01*
X63957713Y-30122400D01*
X63870419Y-30027967D01*
X63870417Y-30027965D01*
X63759214Y-29963373D01*
X63633934Y-29934334D01*
X63505652Y-29943417D01*
X63385713Y-29989818D01*
X63284721Y-30069433D01*
X63280717Y-30075227D01*
X63211603Y-30175227D01*
X63172825Y-30297843D01*
X63171815Y-30426441D01*
X56473434Y-30426441D01*
X56473435Y-30426439D01*
X56482447Y-30372294D01*
X56482500Y-30365501D01*
X56463380Y-30238329D01*
X56433079Y-30175227D01*
X56407713Y-30122400D01*
X56320419Y-30027967D01*
X56320417Y-30027965D01*
X56209214Y-29963373D01*
X56083934Y-29934334D01*
X55955652Y-29943417D01*
X55835713Y-29989818D01*
X55734721Y-30069433D01*
X55730717Y-30075227D01*
X55661603Y-30175227D01*
X55622825Y-30297843D01*
X55621815Y-30426441D01*
X45473434Y-30426441D01*
X45473435Y-30426439D01*
X45482447Y-30372294D01*
X45482500Y-30365501D01*
X45463380Y-30238329D01*
X45433079Y-30175227D01*
X45407713Y-30122400D01*
X45320419Y-30027967D01*
X45320417Y-30027965D01*
X45209214Y-29963373D01*
X45083934Y-29934334D01*
X44955652Y-29943417D01*
X44835713Y-29989818D01*
X44734721Y-30069433D01*
X44730717Y-30075227D01*
X44661603Y-30175227D01*
X44622825Y-30297843D01*
X44621815Y-30426441D01*
X41973434Y-30426441D01*
X41973435Y-30426439D01*
X41982447Y-30372294D01*
X41982500Y-30365501D01*
X41963380Y-30238329D01*
X41933079Y-30175227D01*
X41907713Y-30122400D01*
X41820419Y-30027967D01*
X41820417Y-30027965D01*
X41709214Y-29963373D01*
X41583934Y-29934334D01*
X41455652Y-29943417D01*
X41335713Y-29989818D01*
X41234721Y-30069433D01*
X41230717Y-30075227D01*
X41161603Y-30175227D01*
X41122825Y-30297843D01*
X41121815Y-30426441D01*
X38473434Y-30426441D01*
X38473435Y-30426439D01*
X38482447Y-30372294D01*
X38482500Y-30365501D01*
X38463380Y-30238329D01*
X38433079Y-30175227D01*
X38407713Y-30122400D01*
X38320419Y-30027967D01*
X38320417Y-30027965D01*
X38209214Y-29963373D01*
X38083934Y-29934334D01*
X37955652Y-29943417D01*
X37835713Y-29989818D01*
X37734721Y-30069433D01*
X37730717Y-30075227D01*
X37661603Y-30175227D01*
X37622825Y-30297843D01*
X37621815Y-30426441D01*
X12127500Y-30426441D01*
X12127500Y-29426441D01*
X53021815Y-29426441D01*
X53058662Y-29549651D01*
X53130110Y-29656579D01*
X53229840Y-29737772D01*
X53349035Y-29786051D01*
X53477157Y-29797148D01*
X53602878Y-29770081D01*
X53715082Y-29707243D01*
X53803850Y-29614191D01*
X53861332Y-29499152D01*
X53873435Y-29426439D01*
X53882447Y-29372294D01*
X53882500Y-29365501D01*
X53876628Y-29326441D01*
X82071815Y-29326441D01*
X82108662Y-29449651D01*
X82180110Y-29556579D01*
X82279840Y-29637772D01*
X82399035Y-29686051D01*
X82527157Y-29697148D01*
X82652878Y-29670081D01*
X82765082Y-29607243D01*
X82853850Y-29514191D01*
X82911332Y-29399152D01*
X82932447Y-29272293D01*
X82932500Y-29265500D01*
X82922328Y-29197843D01*
X82913380Y-29138329D01*
X82883079Y-29075227D01*
X82857713Y-29022400D01*
X82770419Y-28927967D01*
X82770417Y-28927965D01*
X82659214Y-28863373D01*
X82533934Y-28834334D01*
X82405652Y-28843417D01*
X82285713Y-28889818D01*
X82184721Y-28969433D01*
X82144266Y-29027967D01*
X82111603Y-29075227D01*
X82072825Y-29197843D01*
X82071815Y-29326441D01*
X53876628Y-29326441D01*
X53863380Y-29238329D01*
X53833079Y-29175227D01*
X53807713Y-29122400D01*
X53720419Y-29027967D01*
X53720417Y-29027965D01*
X53609214Y-28963373D01*
X53483934Y-28934334D01*
X53355652Y-28943417D01*
X53235713Y-28989818D01*
X53134721Y-29069433D01*
X53130717Y-29075227D01*
X53061603Y-29175227D01*
X53022825Y-29297843D01*
X53021815Y-29426441D01*
X12127500Y-29426441D01*
X12127500Y-28060940D01*
X35971815Y-28060940D01*
X36008662Y-28184150D01*
X36080110Y-28291078D01*
X36179840Y-28372271D01*
X36299035Y-28420550D01*
X36427157Y-28431647D01*
X36552878Y-28404580D01*
X36665082Y-28341742D01*
X36753850Y-28248690D01*
X36811332Y-28133651D01*
X36832447Y-28006792D01*
X36832500Y-27999999D01*
X36813380Y-27872829D01*
X36757713Y-27756899D01*
X36670419Y-27662466D01*
X36670417Y-27662464D01*
X36559214Y-27597872D01*
X36433934Y-27568833D01*
X36305652Y-27577916D01*
X36185713Y-27624317D01*
X36084721Y-27703932D01*
X36048114Y-27756899D01*
X36011603Y-27809726D01*
X35972825Y-27932342D01*
X35971815Y-28060940D01*
X12127500Y-28060940D01*
X12127500Y-26926441D01*
X69671815Y-26926441D01*
X69708662Y-27049651D01*
X69780110Y-27156579D01*
X69879840Y-27237772D01*
X69999035Y-27286051D01*
X70127157Y-27297148D01*
X70252878Y-27270081D01*
X70365082Y-27207243D01*
X70453850Y-27114191D01*
X70511332Y-26999152D01*
X70532447Y-26872293D01*
X70532500Y-26865500D01*
X70513380Y-26738330D01*
X70457713Y-26622400D01*
X70370419Y-26527967D01*
X70370417Y-26527965D01*
X70259214Y-26463373D01*
X70133934Y-26434334D01*
X70005652Y-26443417D01*
X69885713Y-26489818D01*
X69784721Y-26569433D01*
X69748114Y-26622400D01*
X69711603Y-26675227D01*
X69672825Y-26797843D01*
X69671815Y-26926441D01*
X12127500Y-26926441D01*
X12127500Y-26126441D01*
X67571815Y-26126441D01*
X67608662Y-26249651D01*
X67680110Y-26356579D01*
X67779840Y-26437772D01*
X67899035Y-26486051D01*
X68027157Y-26497148D01*
X68152878Y-26470081D01*
X68265082Y-26407243D01*
X68353850Y-26314191D01*
X68411332Y-26199152D01*
X68432447Y-26072293D01*
X68432500Y-26065500D01*
X68413380Y-25938330D01*
X68357713Y-25822400D01*
X68270419Y-25727967D01*
X68270417Y-25727965D01*
X68159214Y-25663373D01*
X68033934Y-25634334D01*
X67905652Y-25643417D01*
X67785713Y-25689818D01*
X67684721Y-25769433D01*
X67648114Y-25822400D01*
X67611603Y-25875227D01*
X67572825Y-25997843D01*
X67571815Y-26126441D01*
X12127500Y-26126441D01*
X12127500Y-24760940D01*
X14671815Y-24760940D01*
X14708662Y-24884150D01*
X14780110Y-24991078D01*
X14879840Y-25072271D01*
X14999035Y-25120550D01*
X15127157Y-25131647D01*
X15252878Y-25104580D01*
X15365082Y-25041742D01*
X15453850Y-24948690D01*
X15511332Y-24833651D01*
X15523435Y-24760938D01*
X15532447Y-24706793D01*
X15532500Y-24700000D01*
X15526628Y-24660940D01*
X69671815Y-24660940D01*
X69708662Y-24784150D01*
X69780110Y-24891078D01*
X69879840Y-24972271D01*
X69999035Y-25020550D01*
X70127157Y-25031647D01*
X70252878Y-25004580D01*
X70365082Y-24941742D01*
X70453850Y-24848690D01*
X70511332Y-24733651D01*
X70532447Y-24606792D01*
X70532500Y-24599999D01*
X70522328Y-24532342D01*
X70513380Y-24472828D01*
X70483079Y-24409726D01*
X70457713Y-24356899D01*
X70370419Y-24262466D01*
X70370417Y-24262464D01*
X70259214Y-24197872D01*
X70133934Y-24168833D01*
X70005652Y-24177916D01*
X69885713Y-24224317D01*
X69784721Y-24303932D01*
X69744266Y-24362466D01*
X69711603Y-24409726D01*
X69672825Y-24532342D01*
X69671815Y-24660940D01*
X15526628Y-24660940D01*
X15513380Y-24572828D01*
X15483079Y-24509726D01*
X15457713Y-24456899D01*
X15370419Y-24362466D01*
X15370417Y-24362464D01*
X15259214Y-24297872D01*
X15133934Y-24268833D01*
X15005652Y-24277916D01*
X14885713Y-24324317D01*
X14784721Y-24403932D01*
X14780717Y-24409726D01*
X14711603Y-24509726D01*
X14672825Y-24632342D01*
X14671815Y-24760940D01*
X12127500Y-24760940D01*
X12127500Y-21360940D01*
X14671815Y-21360940D01*
X14708662Y-21484150D01*
X14780110Y-21591078D01*
X14879840Y-21672271D01*
X14999035Y-21720550D01*
X15127157Y-21731647D01*
X15252878Y-21704580D01*
X15365082Y-21641742D01*
X15453850Y-21548690D01*
X15511332Y-21433651D01*
X15532447Y-21306792D01*
X15532500Y-21299999D01*
X15513380Y-21172829D01*
X15457713Y-21056899D01*
X15370419Y-20962466D01*
X15370417Y-20962464D01*
X15259214Y-20897872D01*
X15133934Y-20868833D01*
X15005652Y-20877916D01*
X14885713Y-20924317D01*
X14784721Y-21003932D01*
X14748114Y-21056899D01*
X14711603Y-21109726D01*
X14672825Y-21232342D01*
X14671815Y-21360940D01*
X12127500Y-21360940D01*
X12127500Y-19960940D01*
X36471815Y-19960940D01*
X36508662Y-20084150D01*
X36580110Y-20191078D01*
X36679840Y-20272271D01*
X36799035Y-20320550D01*
X36927157Y-20331647D01*
X37052878Y-20304580D01*
X37165082Y-20241742D01*
X37253850Y-20148690D01*
X37311332Y-20033651D01*
X37332447Y-19906792D01*
X37332500Y-19899999D01*
X37313380Y-19772829D01*
X37257713Y-19656899D01*
X37170419Y-19562466D01*
X37170417Y-19562464D01*
X37059214Y-19497872D01*
X36933934Y-19468833D01*
X36805652Y-19477916D01*
X36685713Y-19524317D01*
X36584721Y-19603932D01*
X36548114Y-19656899D01*
X36511603Y-19709726D01*
X36472825Y-19832342D01*
X36471815Y-19960940D01*
X12127500Y-19960940D01*
X12127500Y-19060940D01*
X32771815Y-19060940D01*
X32808662Y-19184150D01*
X32880110Y-19291078D01*
X32979840Y-19372271D01*
X33099035Y-19420550D01*
X33227157Y-19431647D01*
X33352878Y-19404580D01*
X33465082Y-19341742D01*
X33553850Y-19248690D01*
X33611332Y-19133651D01*
X33632447Y-19006792D01*
X33632500Y-18999999D01*
X33613380Y-18872829D01*
X33557713Y-18756899D01*
X33470419Y-18662466D01*
X33470417Y-18662464D01*
X33359214Y-18597872D01*
X33233934Y-18568833D01*
X33105652Y-18577916D01*
X32985713Y-18624317D01*
X32884721Y-18703932D01*
X32848114Y-18756899D01*
X32811603Y-18809726D01*
X32772825Y-18932342D01*
X32771815Y-19060940D01*
X12127500Y-19060940D01*
X12127500Y-17860940D01*
X22671815Y-17860940D01*
X22708662Y-17984150D01*
X22780110Y-18091078D01*
X22879840Y-18172271D01*
X22999035Y-18220550D01*
X23127157Y-18231647D01*
X23252878Y-18204580D01*
X23365082Y-18141742D01*
X23453850Y-18048690D01*
X23511332Y-17933651D01*
X23532447Y-17806792D01*
X23532500Y-17799999D01*
X23513380Y-17672829D01*
X23457713Y-17556899D01*
X23370419Y-17462466D01*
X23370417Y-17462464D01*
X23259214Y-17397872D01*
X23133934Y-17368833D01*
X23005652Y-17377916D01*
X22885713Y-17424317D01*
X22784721Y-17503932D01*
X22748114Y-17556899D01*
X22711603Y-17609726D01*
X22672825Y-17732342D01*
X22671815Y-17860940D01*
X12127500Y-17860940D01*
X12127500Y-14253999D01*
X13054580Y-14253999D01*
X13061917Y-14290383D01*
X13139469Y-14473084D01*
X13252169Y-14636454D01*
X13395420Y-14773827D01*
X13563367Y-14879588D01*
X13746000Y-14948235D01*
X13746000Y-14943493D01*
X14253999Y-14943493D01*
X14335862Y-14922779D01*
X14514554Y-14836396D01*
X14672225Y-14715847D01*
X14802434Y-14566058D01*
X14899868Y-14393141D01*
X14944542Y-14254000D01*
X14254000Y-14253999D01*
X14253999Y-14943493D01*
X13746000Y-14943493D01*
X13746001Y-14254000D01*
X13054580Y-14253999D01*
X12127500Y-14253999D01*
X12127500Y-14095826D01*
X15562687Y-14095826D01*
X15601917Y-14290385D01*
X15679467Y-14473082D01*
X15792169Y-14636454D01*
X15935420Y-14773827D01*
X16103368Y-14879589D01*
X16289152Y-14949421D01*
X16485183Y-14980469D01*
X16683457Y-14971465D01*
X16875862Y-14922779D01*
X17054554Y-14836396D01*
X17212225Y-14715847D01*
X17342436Y-14566057D01*
X17439868Y-14393143D01*
X17500541Y-14204169D01*
X17500542Y-14204167D01*
X17521975Y-14006864D01*
X17521976Y-14006856D01*
X17522000Y-14000000D01*
X17501943Y-13802541D01*
X17442592Y-13613151D01*
X17391467Y-13520919D01*
X17346369Y-13439559D01*
X17346366Y-13439555D01*
X17217210Y-13288866D01*
X17146027Y-13233651D01*
X17060381Y-13167217D01*
X17047625Y-13160940D01*
X23971815Y-13160940D01*
X24008662Y-13284150D01*
X24080110Y-13391078D01*
X24179840Y-13472271D01*
X24299035Y-13520550D01*
X24427157Y-13531647D01*
X24552878Y-13504580D01*
X24665082Y-13441742D01*
X24753850Y-13348690D01*
X24811332Y-13233650D01*
X24832447Y-13106793D01*
X24832500Y-13100000D01*
X24813380Y-12972828D01*
X24783079Y-12909726D01*
X24757713Y-12856899D01*
X24670419Y-12762466D01*
X24670417Y-12762464D01*
X24559214Y-12697872D01*
X24433934Y-12668833D01*
X24305652Y-12677916D01*
X24185713Y-12724317D01*
X24084721Y-12803932D01*
X24048114Y-12856899D01*
X24011603Y-12909726D01*
X23972825Y-13032342D01*
X23971815Y-13160940D01*
X17047625Y-13160940D01*
X16937582Y-13106792D01*
X16882297Y-13079588D01*
X16764288Y-13048850D01*
X16690232Y-13029560D01*
X16671425Y-13028574D01*
X16492030Y-13019171D01*
X16295789Y-13048850D01*
X16109519Y-13117384D01*
X15940838Y-13221971D01*
X15796629Y-13358342D01*
X15694234Y-13504580D01*
X15682791Y-13520922D01*
X15642881Y-13613149D01*
X15603966Y-13703075D01*
X15583187Y-13802541D01*
X15563379Y-13897353D01*
X15562687Y-14095826D01*
X12127500Y-14095826D01*
X12127500Y-13746000D01*
X13054999Y-13746000D01*
X13746000Y-13746001D01*
X13746000Y-13746000D01*
X14253999Y-13746000D01*
X14944224Y-13746001D01*
X14902592Y-13613151D01*
X14806366Y-13439555D01*
X14677210Y-13288866D01*
X14520380Y-13167217D01*
X14342297Y-13079588D01*
X14254000Y-13056589D01*
X14253999Y-13746000D01*
X13746000Y-13746000D01*
X13746001Y-13052452D01*
X13569519Y-13117384D01*
X13400838Y-13221971D01*
X13256629Y-13358342D01*
X13142793Y-13520919D01*
X13063966Y-13703076D01*
X13054999Y-13746000D01*
X12127500Y-13746000D01*
X12127500Y-12127500D01*
X111872500Y-12127500D01*
X111872501Y-111872500D01*
G37*
%TD.AperFunction*%
%TD*%
M02*
