%TF.GenerationSoftware,KiCad,Pcbnew,(5.99.0-3349-gc9824bbd9)*%
%TF.CreationDate,2020-09-24T16:48:39-07:00*%
%TF.ProjectId,Counter,436f756e-7465-4722-9e6b-696361645f70,rev?*%
%TF.SameCoordinates,Original*%
%TF.FileFunction,Copper,L2,Inr*%
%TF.FilePolarity,Positive*%
%FSLAX46Y46*%
G04 Gerber Fmt 4.6, Leading zero omitted, Abs format (unit mm)*
G04 Created by KiCad (PCBNEW (5.99.0-3349-gc9824bbd9)) date 2020-09-24 16:48:39*
%MOMM*%
%LPD*%
G01*
G04 APERTURE LIST*
%TA.AperFunction,ComponentPad*%
%ADD10O,1.700000X1.700000*%
%TD*%
%TA.AperFunction,ViaPad*%
%ADD11C,0.600000*%
%TD*%
G04 APERTURE END LIST*
D10*
%TO.N,+3V3*%
%TO.C,J1*%
X14000000Y-14000000D03*
%TO.N,GND*%
X16540000Y-14000000D03*
%TD*%
%TO.N,/CLK*%
%TO.C,J2*%
X109220000Y-109500000D03*
%TO.N,/B0*%
X106680000Y-109500000D03*
%TO.N,/B1*%
X104140000Y-109500000D03*
%TO.N,/B2*%
X101600000Y-109500000D03*
%TO.N,/B3*%
X99060000Y-109500000D03*
%TD*%
D11*
%TO.N,GND*%
X101600000Y-99200000D03*
X54131002Y-53225000D03*
X37473904Y-76300000D03*
X54131002Y-42225000D03*
X62531002Y-52125000D03*
X62531002Y-41125000D03*
X46291753Y-97777453D03*
X109200000Y-99200000D03*
X37558403Y-65000000D03*
X55973904Y-65000000D03*
X39131002Y-86816702D03*
X44973904Y-65000000D03*
X43131002Y-49725000D03*
X39131002Y-53225000D03*
X63473904Y-65000000D03*
X15100000Y-21300000D03*
X70973904Y-72225000D03*
X36900000Y-19900000D03*
X55973904Y-76225000D03*
X42631002Y-86816702D03*
X64791753Y-97777453D03*
X42291753Y-97777453D03*
X21000000Y-45200000D03*
X15100000Y-24700000D03*
X23100000Y-17800000D03*
X106700000Y-99200000D03*
X35631002Y-53225000D03*
X43131002Y-53225000D03*
X41023904Y-76275000D03*
X44973904Y-76225000D03*
X84181002Y-47625000D03*
X33200000Y-19000000D03*
X24400000Y-13100000D03*
X63473904Y-76225000D03*
X93023904Y-70225000D03*
X57631002Y-86816702D03*
X43131002Y-38725000D03*
X69131002Y-90659604D03*
X15100000Y-34800000D03*
X57291753Y-97777453D03*
X39131002Y-42225000D03*
X81973904Y-66725000D03*
X46631002Y-83316702D03*
X38791753Y-97777453D03*
X70031002Y-45325000D03*
X53450000Y-29365501D03*
X91181002Y-47725000D03*
X66531002Y-45325000D03*
X46291753Y-94277453D03*
X78473904Y-70225000D03*
X41058403Y-65000000D03*
X38050000Y-30365501D03*
X15100000Y-31300000D03*
X99081002Y-90559604D03*
X44973904Y-61500000D03*
X45050000Y-30365501D03*
X44973904Y-72725000D03*
X78100000Y-30365501D03*
X70031002Y-48825000D03*
X56050000Y-30365501D03*
X94600000Y-47700000D03*
X71100000Y-30265501D03*
X72631002Y-94159604D03*
X43131002Y-42225000D03*
X76631002Y-47725000D03*
X94681002Y-91659604D03*
X86023904Y-70125000D03*
X87681002Y-91559604D03*
X35631002Y-42225000D03*
X80131002Y-91659604D03*
X80131002Y-44225000D03*
X104100000Y-99200000D03*
X83631002Y-88159604D03*
X41550000Y-30365501D03*
X99000000Y-99200000D03*
X15100000Y-44700000D03*
X82500000Y-29265501D03*
X63600000Y-30365501D03*
X73531002Y-89759604D03*
X67473904Y-68725000D03*
X46631002Y-86816702D03*
X97423904Y-69125000D03*
X15100000Y-41400000D03*
X71873904Y-67825000D03*
X68000000Y-26065501D03*
X65131002Y-86816702D03*
%TO.N,/B0*%
X86765501Y-30365501D03*
X34681002Y-38725000D03*
X82500000Y-32110011D03*
X36900000Y-35000000D03*
X34631002Y-42225000D03*
%TO.N,/B1*%
X51631002Y-51725000D03*
X33058403Y-61542902D03*
X55831002Y-40525000D03*
X31181002Y-83316702D03*
X57131002Y-39725000D03*
X52231002Y-50525000D03*
X31181002Y-86816702D03*
X98131002Y-42225000D03*
X98200000Y-41020999D03*
X53181002Y-42225000D03*
X45056002Y-52600000D03*
X33058403Y-65042902D03*
X50531002Y-52425000D03*
X64900000Y-39700000D03*
%TO.N,/B2*%
X42000000Y-77277002D03*
X34681002Y-86816702D03*
X34681002Y-83316702D03*
X44000000Y-73900000D03*
%TO.N,/B3*%
X67500000Y-83300000D03*
X60681002Y-83316702D03*
%TO.N,/CLK*%
X70100000Y-26865501D03*
X83200000Y-39000000D03*
X83181002Y-44225000D03*
X100681002Y-88159604D03*
X70100000Y-24600000D03*
X110115510Y-88184490D03*
X110115510Y-66715510D03*
X99000000Y-66700000D03*
%TO.N,+3V3*%
X58150000Y-46800000D03*
X35600000Y-46850000D03*
X68250000Y-92100000D03*
X67500000Y-62350000D03*
X47600000Y-40200000D03*
X34000000Y-71650000D03*
X50100000Y-80350000D03*
X42300000Y-91350000D03*
X69100000Y-84150000D03*
X66550000Y-70200000D03*
X39100000Y-80350000D03*
X49800000Y-91350000D03*
X60000000Y-69750000D03*
X46600000Y-35800000D03*
X60950000Y-59400000D03*
X94600000Y-41350000D03*
X30400000Y-69850000D03*
X81550000Y-23900000D03*
X41050000Y-58500000D03*
X61700000Y-80350000D03*
X49000000Y-23900000D03*
X78050000Y-23900000D03*
X32131002Y-48650000D03*
X42600000Y-80350000D03*
X80100000Y-85250000D03*
X32100000Y-80350000D03*
X38700000Y-91350000D03*
X98100000Y-85150000D03*
X31800000Y-91350000D03*
X53800000Y-91350000D03*
X52550000Y-23900000D03*
X65650000Y-41650000D03*
X84100000Y-41300000D03*
X61291753Y-91350000D03*
X37473904Y-69850000D03*
X40900000Y-69850000D03*
X35500000Y-80350000D03*
X47600000Y-51150000D03*
X54100000Y-80350000D03*
X46600000Y-46800000D03*
X39100000Y-46750000D03*
X48400000Y-69850000D03*
X50650000Y-35800000D03*
X28300000Y-91250000D03*
X71050000Y-23850000D03*
X58150000Y-35750000D03*
X34050000Y-58550000D03*
X50650000Y-46750000D03*
X49400000Y-59450000D03*
X78500000Y-63850000D03*
X91150000Y-41350000D03*
X39100000Y-35750000D03*
X94600000Y-85250000D03*
X32150000Y-35750000D03*
X45050000Y-23900000D03*
X34350000Y-92300000D03*
X30500000Y-58550000D03*
X64700000Y-47750000D03*
X92900000Y-63750000D03*
X86000000Y-63750000D03*
X52500000Y-69850000D03*
X37500000Y-58500000D03*
X47550000Y-74200000D03*
X38050000Y-23900000D03*
X28600000Y-80350000D03*
X63550000Y-23900000D03*
X87600000Y-85150000D03*
X56050000Y-23900000D03*
X53350000Y-59500000D03*
%TO.N,/UP*%
X33000000Y-45200000D03*
X36658403Y-65042902D03*
X33700000Y-45900000D03*
X38000000Y-31400000D03*
X38181002Y-86816702D03*
X36658403Y-61542902D03*
X38181002Y-83316702D03*
X31800000Y-44000000D03*
X36400000Y-28000000D03*
%TO.N,/!B0*%
X73800000Y-31465501D03*
X31200000Y-47700000D03*
X40100000Y-31800000D03*
X81572998Y-30365501D03*
%TO.N,/DW*%
X34681002Y-49725000D03*
X28800000Y-47900000D03*
X36573904Y-72842902D03*
X36573904Y-76342902D03*
X37841753Y-97777453D03*
X34631002Y-53225000D03*
X37841753Y-94277453D03*
%TO.N,/!B1*%
X39800000Y-66300000D03*
X30841753Y-97777453D03*
X32973904Y-76342902D03*
X90100000Y-45700000D03*
X47400000Y-58400000D03*
X32973904Y-72842902D03*
X30841753Y-94277453D03*
X86881002Y-48825000D03*
%TO.N,/Q_7*%
X66523904Y-68725000D03*
X65442903Y-68725000D03*
%TO.N,/!B2*%
X35600000Y-82600000D03*
X88723904Y-71325000D03*
X34341753Y-94277453D03*
X78090500Y-72700000D03*
X34341753Y-97777453D03*
X96496902Y-70225000D03*
%TO.N,/Q_3*%
X45873904Y-60300000D03*
X55073904Y-60700000D03*
%TO.N,/XOR3/!A*%
X58273903Y-65899999D03*
X50373904Y-61500000D03*
%TO.N,/XOR3/!B*%
X52473904Y-61500000D03*
X58973904Y-63900000D03*
%TO.N,/XOR4/!A*%
X48473904Y-72725000D03*
X61904648Y-73624556D03*
%TO.N,/XOR4/!B*%
X44973904Y-75125000D03*
X58073904Y-77025000D03*
%TO.N,/XOR5/!A*%
X50131002Y-83316702D03*
X63561746Y-84216258D03*
%TO.N,/XOR5/!B*%
X59731002Y-87616702D03*
X46631002Y-85716702D03*
%TO.N,/XOR6/!A*%
X49791753Y-94277453D03*
X63222497Y-95177009D03*
%TO.N,/XOR6/!B*%
X59391753Y-98577453D03*
X46291753Y-96677453D03*
%TO.N,/RST*%
X72181002Y-44225000D03*
X67200000Y-31000000D03*
X21000000Y-37400000D03*
X75681002Y-88159604D03*
X79200000Y-57400000D03*
X79200000Y-52900000D03*
X52822861Y-31329010D03*
X77600000Y-71200000D03*
%TO.N,/Q_11*%
X68181002Y-90659604D03*
X67100001Y-90659604D03*
%TO.N,/Q_13*%
X75923904Y-70225000D03*
X68400000Y-71300000D03*
%TO.N,/Q_17*%
X64681002Y-46225000D03*
X63531002Y-46225000D03*
%TO.N,/XOR1/!B*%
X49731002Y-39825000D03*
X55331002Y-41347998D03*
%TO.N,/XOR2/!B*%
X55331002Y-52347998D03*
X49731002Y-50825000D03*
%TO.N,/Q*%
X45056002Y-41600000D03*
X51631002Y-40725000D03*
X52231002Y-39525000D03*
X50531002Y-41425000D03*
%TO.N,/Q_20*%
X55831002Y-51525000D03*
X57131002Y-50725000D03*
%TD*%
%TA.AperFunction,Conductor*%
%TO.N,GND*%
G36*
X111872501Y-111872500D02*
G01*
X12127500Y-111872500D01*
X12127500Y-109595826D01*
X98082687Y-109595826D01*
X98121917Y-109790385D01*
X98199467Y-109973082D01*
X98312169Y-110136454D01*
X98455420Y-110273827D01*
X98623368Y-110379589D01*
X98809152Y-110449421D01*
X99005183Y-110480469D01*
X99203457Y-110471465D01*
X99395862Y-110422779D01*
X99574554Y-110336396D01*
X99732225Y-110215847D01*
X99862436Y-110066057D01*
X99959868Y-109893143D01*
X100020541Y-109704169D01*
X100020542Y-109704167D01*
X100032311Y-109595826D01*
X100622687Y-109595826D01*
X100661917Y-109790385D01*
X100739467Y-109973082D01*
X100852169Y-110136454D01*
X100995420Y-110273827D01*
X101163368Y-110379589D01*
X101349152Y-110449421D01*
X101545183Y-110480469D01*
X101743457Y-110471465D01*
X101935862Y-110422779D01*
X102114554Y-110336396D01*
X102272225Y-110215847D01*
X102402436Y-110066057D01*
X102499868Y-109893143D01*
X102560541Y-109704169D01*
X102560542Y-109704167D01*
X102572311Y-109595826D01*
X103162687Y-109595826D01*
X103201917Y-109790385D01*
X103279467Y-109973082D01*
X103392169Y-110136454D01*
X103535420Y-110273827D01*
X103703368Y-110379589D01*
X103889152Y-110449421D01*
X104085183Y-110480469D01*
X104283457Y-110471465D01*
X104475862Y-110422779D01*
X104654554Y-110336396D01*
X104812225Y-110215847D01*
X104942436Y-110066057D01*
X105039868Y-109893143D01*
X105100541Y-109704169D01*
X105100542Y-109704167D01*
X105112311Y-109595826D01*
X105702687Y-109595826D01*
X105741917Y-109790385D01*
X105819467Y-109973082D01*
X105932169Y-110136454D01*
X106075420Y-110273827D01*
X106243368Y-110379589D01*
X106429152Y-110449421D01*
X106625183Y-110480469D01*
X106823457Y-110471465D01*
X107015862Y-110422779D01*
X107194554Y-110336396D01*
X107352225Y-110215847D01*
X107482436Y-110066057D01*
X107579868Y-109893143D01*
X107640541Y-109704169D01*
X107640542Y-109704167D01*
X107652311Y-109595826D01*
X108242687Y-109595826D01*
X108281917Y-109790385D01*
X108359467Y-109973082D01*
X108472169Y-110136454D01*
X108615420Y-110273827D01*
X108783368Y-110379589D01*
X108969152Y-110449421D01*
X109165183Y-110480469D01*
X109363457Y-110471465D01*
X109555862Y-110422779D01*
X109734554Y-110336396D01*
X109892225Y-110215847D01*
X110022436Y-110066057D01*
X110119868Y-109893143D01*
X110180541Y-109704169D01*
X110180542Y-109704167D01*
X110201975Y-109506864D01*
X110201976Y-109506856D01*
X110202000Y-109500000D01*
X110181943Y-109302541D01*
X110122591Y-109113149D01*
X110026369Y-108939559D01*
X110026366Y-108939555D01*
X109897210Y-108788866D01*
X109878870Y-108774640D01*
X109740381Y-108667217D01*
X109639107Y-108617384D01*
X109562297Y-108579588D01*
X109444288Y-108548850D01*
X109370232Y-108529560D01*
X109351425Y-108528574D01*
X109172030Y-108519171D01*
X108975789Y-108548850D01*
X108789519Y-108617384D01*
X108620838Y-108721971D01*
X108476629Y-108858342D01*
X108362793Y-109020919D01*
X108362791Y-109020922D01*
X108322881Y-109113149D01*
X108283966Y-109203075D01*
X108263187Y-109302541D01*
X108243379Y-109397353D01*
X108242687Y-109595826D01*
X107652311Y-109595826D01*
X107661975Y-109506864D01*
X107661976Y-109506856D01*
X107662000Y-109500000D01*
X107641943Y-109302541D01*
X107582591Y-109113149D01*
X107486369Y-108939559D01*
X107486366Y-108939555D01*
X107357210Y-108788866D01*
X107338870Y-108774640D01*
X107200381Y-108667217D01*
X107099107Y-108617384D01*
X107022297Y-108579588D01*
X106904288Y-108548850D01*
X106830232Y-108529560D01*
X106811425Y-108528574D01*
X106632030Y-108519171D01*
X106435789Y-108548850D01*
X106249519Y-108617384D01*
X106080838Y-108721971D01*
X105936629Y-108858342D01*
X105822793Y-109020919D01*
X105822791Y-109020922D01*
X105782881Y-109113149D01*
X105743966Y-109203075D01*
X105723187Y-109302541D01*
X105703379Y-109397353D01*
X105702687Y-109595826D01*
X105112311Y-109595826D01*
X105121975Y-109506864D01*
X105121976Y-109506856D01*
X105122000Y-109500000D01*
X105101943Y-109302541D01*
X105042591Y-109113149D01*
X104946369Y-108939559D01*
X104946366Y-108939555D01*
X104817210Y-108788866D01*
X104798870Y-108774640D01*
X104660381Y-108667217D01*
X104559107Y-108617384D01*
X104482297Y-108579588D01*
X104364288Y-108548850D01*
X104290232Y-108529560D01*
X104271425Y-108528574D01*
X104092030Y-108519171D01*
X103895789Y-108548850D01*
X103709519Y-108617384D01*
X103540838Y-108721971D01*
X103396629Y-108858342D01*
X103282793Y-109020919D01*
X103282791Y-109020922D01*
X103242881Y-109113149D01*
X103203966Y-109203075D01*
X103183187Y-109302541D01*
X103163379Y-109397353D01*
X103162687Y-109595826D01*
X102572311Y-109595826D01*
X102581975Y-109506864D01*
X102581976Y-109506856D01*
X102582000Y-109500000D01*
X102561943Y-109302541D01*
X102502591Y-109113149D01*
X102406369Y-108939559D01*
X102406366Y-108939555D01*
X102277210Y-108788866D01*
X102258870Y-108774640D01*
X102120381Y-108667217D01*
X102019107Y-108617384D01*
X101942297Y-108579588D01*
X101824288Y-108548850D01*
X101750232Y-108529560D01*
X101731425Y-108528574D01*
X101552030Y-108519171D01*
X101355789Y-108548850D01*
X101169519Y-108617384D01*
X101000838Y-108721971D01*
X100856629Y-108858342D01*
X100742793Y-109020919D01*
X100742791Y-109020922D01*
X100702881Y-109113149D01*
X100663966Y-109203075D01*
X100643187Y-109302541D01*
X100623379Y-109397353D01*
X100622687Y-109595826D01*
X100032311Y-109595826D01*
X100041975Y-109506864D01*
X100041976Y-109506856D01*
X100042000Y-109500000D01*
X100021943Y-109302541D01*
X99962591Y-109113149D01*
X99866369Y-108939559D01*
X99866366Y-108939555D01*
X99737210Y-108788866D01*
X99718870Y-108774640D01*
X99580381Y-108667217D01*
X99479107Y-108617384D01*
X99402297Y-108579588D01*
X99284288Y-108548850D01*
X99210232Y-108529560D01*
X99191425Y-108528574D01*
X99012030Y-108519171D01*
X98815789Y-108548850D01*
X98629519Y-108617384D01*
X98460838Y-108721971D01*
X98316629Y-108858342D01*
X98202793Y-109020919D01*
X98202791Y-109020922D01*
X98162881Y-109113149D01*
X98123966Y-109203075D01*
X98103187Y-109302541D01*
X98083379Y-109397353D01*
X98082687Y-109595826D01*
X12127500Y-109595826D01*
X12127500Y-98638393D01*
X58963568Y-98638393D01*
X59000415Y-98761603D01*
X59071863Y-98868531D01*
X59171593Y-98949724D01*
X59290788Y-98998003D01*
X59418910Y-99009100D01*
X59544631Y-98982033D01*
X59656835Y-98919195D01*
X59745603Y-98826143D01*
X59803085Y-98711103D01*
X59824200Y-98584246D01*
X59824253Y-98577453D01*
X59805133Y-98450281D01*
X59774832Y-98387179D01*
X59749466Y-98334352D01*
X59662172Y-98239919D01*
X59662170Y-98239917D01*
X59550967Y-98175325D01*
X59425687Y-98146286D01*
X59297405Y-98155369D01*
X59177466Y-98201770D01*
X59076474Y-98281385D01*
X59039867Y-98334352D01*
X59003356Y-98387179D01*
X58964578Y-98509795D01*
X58963568Y-98638393D01*
X12127500Y-98638393D01*
X12127500Y-97838393D01*
X30413568Y-97838393D01*
X30450415Y-97961603D01*
X30521863Y-98068531D01*
X30621593Y-98149724D01*
X30740788Y-98198003D01*
X30868910Y-98209100D01*
X30994631Y-98182033D01*
X31106835Y-98119195D01*
X31195603Y-98026143D01*
X31253085Y-97911104D01*
X31265187Y-97838393D01*
X33913568Y-97838393D01*
X33950415Y-97961603D01*
X34021863Y-98068531D01*
X34121593Y-98149724D01*
X34240788Y-98198003D01*
X34368910Y-98209100D01*
X34494631Y-98182033D01*
X34606835Y-98119195D01*
X34695603Y-98026143D01*
X34753085Y-97911103D01*
X34765187Y-97838393D01*
X37413568Y-97838393D01*
X37450415Y-97961603D01*
X37521863Y-98068531D01*
X37621593Y-98149724D01*
X37740788Y-98198003D01*
X37868910Y-98209100D01*
X37994631Y-98182033D01*
X38106835Y-98119195D01*
X38195603Y-98026143D01*
X38253085Y-97911104D01*
X38274200Y-97784245D01*
X38274253Y-97777452D01*
X38255133Y-97650282D01*
X38199466Y-97534352D01*
X38112172Y-97439919D01*
X38112170Y-97439917D01*
X38000967Y-97375325D01*
X37875687Y-97346286D01*
X37747405Y-97355369D01*
X37627466Y-97401770D01*
X37526474Y-97481385D01*
X37489867Y-97534352D01*
X37453356Y-97587179D01*
X37414578Y-97709795D01*
X37413568Y-97838393D01*
X34765187Y-97838393D01*
X34774200Y-97784246D01*
X34774253Y-97777453D01*
X34755133Y-97650281D01*
X34724832Y-97587179D01*
X34699466Y-97534352D01*
X34612172Y-97439919D01*
X34612170Y-97439917D01*
X34500967Y-97375325D01*
X34375687Y-97346286D01*
X34247405Y-97355369D01*
X34127466Y-97401770D01*
X34026474Y-97481385D01*
X33989867Y-97534352D01*
X33953356Y-97587179D01*
X33914578Y-97709795D01*
X33913568Y-97838393D01*
X31265187Y-97838393D01*
X31274200Y-97784245D01*
X31274253Y-97777452D01*
X31255133Y-97650282D01*
X31199466Y-97534352D01*
X31112172Y-97439919D01*
X31112170Y-97439917D01*
X31000967Y-97375325D01*
X30875687Y-97346286D01*
X30747405Y-97355369D01*
X30627466Y-97401770D01*
X30526474Y-97481385D01*
X30489867Y-97534352D01*
X30453356Y-97587179D01*
X30414578Y-97709795D01*
X30413568Y-97838393D01*
X12127500Y-97838393D01*
X12127500Y-96738393D01*
X45863568Y-96738393D01*
X45900415Y-96861603D01*
X45971863Y-96968531D01*
X46071593Y-97049724D01*
X46190788Y-97098003D01*
X46318910Y-97109100D01*
X46444631Y-97082033D01*
X46556835Y-97019195D01*
X46645603Y-96926143D01*
X46703085Y-96811104D01*
X46724200Y-96684245D01*
X46724253Y-96677452D01*
X46705133Y-96550282D01*
X46649466Y-96434352D01*
X46562172Y-96339919D01*
X46562170Y-96339917D01*
X46450967Y-96275325D01*
X46325687Y-96246286D01*
X46197405Y-96255369D01*
X46077466Y-96301770D01*
X45976474Y-96381385D01*
X45939867Y-96434352D01*
X45903356Y-96487179D01*
X45864578Y-96609795D01*
X45863568Y-96738393D01*
X12127500Y-96738393D01*
X12127500Y-95237949D01*
X62794312Y-95237949D01*
X62831159Y-95361159D01*
X62902607Y-95468087D01*
X63002337Y-95549280D01*
X63121532Y-95597559D01*
X63249654Y-95608656D01*
X63375375Y-95581589D01*
X63487579Y-95518751D01*
X63576347Y-95425699D01*
X63633829Y-95310660D01*
X63654944Y-95183801D01*
X63654997Y-95177008D01*
X63635877Y-95049838D01*
X63580210Y-94933908D01*
X63492916Y-94839475D01*
X63492914Y-94839473D01*
X63381711Y-94774881D01*
X63256431Y-94745842D01*
X63128149Y-94754925D01*
X63008210Y-94801326D01*
X62907218Y-94880941D01*
X62870611Y-94933908D01*
X62834100Y-94986735D01*
X62795322Y-95109351D01*
X62794312Y-95237949D01*
X12127500Y-95237949D01*
X12127500Y-94338393D01*
X30413568Y-94338393D01*
X30450415Y-94461603D01*
X30521863Y-94568531D01*
X30621593Y-94649724D01*
X30740788Y-94698003D01*
X30868910Y-94709100D01*
X30994631Y-94682033D01*
X31106835Y-94619195D01*
X31195603Y-94526143D01*
X31253085Y-94411104D01*
X31265187Y-94338393D01*
X33913568Y-94338393D01*
X33950415Y-94461603D01*
X34021863Y-94568531D01*
X34121593Y-94649724D01*
X34240788Y-94698003D01*
X34368910Y-94709100D01*
X34494631Y-94682033D01*
X34606835Y-94619195D01*
X34695603Y-94526143D01*
X34753085Y-94411103D01*
X34765187Y-94338393D01*
X37413568Y-94338393D01*
X37450415Y-94461603D01*
X37521863Y-94568531D01*
X37621593Y-94649724D01*
X37740788Y-94698003D01*
X37868910Y-94709100D01*
X37994631Y-94682033D01*
X38106835Y-94619195D01*
X38195603Y-94526143D01*
X38253085Y-94411103D01*
X38265187Y-94338393D01*
X49363568Y-94338393D01*
X49400415Y-94461603D01*
X49471863Y-94568531D01*
X49571593Y-94649724D01*
X49690788Y-94698003D01*
X49818910Y-94709100D01*
X49944631Y-94682033D01*
X50056835Y-94619195D01*
X50145603Y-94526143D01*
X50203085Y-94411104D01*
X50224200Y-94284245D01*
X50224253Y-94277452D01*
X50205133Y-94150282D01*
X50149466Y-94034352D01*
X50062172Y-93939919D01*
X50062170Y-93939917D01*
X49950967Y-93875325D01*
X49825687Y-93846286D01*
X49697405Y-93855369D01*
X49577466Y-93901770D01*
X49476474Y-93981385D01*
X49439867Y-94034352D01*
X49403356Y-94087179D01*
X49364578Y-94209795D01*
X49363568Y-94338393D01*
X38265187Y-94338393D01*
X38274200Y-94284246D01*
X38274253Y-94277453D01*
X38255133Y-94150281D01*
X38224832Y-94087179D01*
X38199466Y-94034352D01*
X38112172Y-93939919D01*
X38112170Y-93939917D01*
X38000967Y-93875325D01*
X37875687Y-93846286D01*
X37747405Y-93855369D01*
X37627466Y-93901770D01*
X37526474Y-93981385D01*
X37489867Y-94034352D01*
X37453356Y-94087179D01*
X37414578Y-94209795D01*
X37413568Y-94338393D01*
X34765187Y-94338393D01*
X34774200Y-94284246D01*
X34774253Y-94277453D01*
X34755133Y-94150281D01*
X34724832Y-94087179D01*
X34699466Y-94034352D01*
X34612172Y-93939919D01*
X34612170Y-93939917D01*
X34500967Y-93875325D01*
X34375687Y-93846286D01*
X34247405Y-93855369D01*
X34127466Y-93901770D01*
X34026474Y-93981385D01*
X33989867Y-94034352D01*
X33953356Y-94087179D01*
X33914578Y-94209795D01*
X33913568Y-94338393D01*
X31265187Y-94338393D01*
X31274200Y-94284245D01*
X31274253Y-94277452D01*
X31255133Y-94150282D01*
X31199466Y-94034352D01*
X31112172Y-93939919D01*
X31112170Y-93939917D01*
X31000967Y-93875325D01*
X30875687Y-93846286D01*
X30747405Y-93855369D01*
X30627466Y-93901770D01*
X30526474Y-93981385D01*
X30489867Y-94034352D01*
X30453356Y-94087179D01*
X30414578Y-94209795D01*
X30413568Y-94338393D01*
X12127500Y-94338393D01*
X12127500Y-92360940D01*
X33921815Y-92360940D01*
X33958662Y-92484150D01*
X34030110Y-92591078D01*
X34129840Y-92672271D01*
X34249035Y-92720550D01*
X34377157Y-92731647D01*
X34502878Y-92704580D01*
X34615082Y-92641742D01*
X34703850Y-92548690D01*
X34761332Y-92433651D01*
X34782447Y-92306792D01*
X34782500Y-92299999D01*
X34763380Y-92172829D01*
X34757672Y-92160940D01*
X67821815Y-92160940D01*
X67858662Y-92284150D01*
X67930110Y-92391078D01*
X68029840Y-92472271D01*
X68149035Y-92520550D01*
X68277157Y-92531647D01*
X68402878Y-92504580D01*
X68515082Y-92441742D01*
X68603850Y-92348690D01*
X68661332Y-92233651D01*
X68682447Y-92106792D01*
X68682500Y-92099999D01*
X68672328Y-92032342D01*
X68663380Y-91972828D01*
X68645321Y-91935220D01*
X68607713Y-91856899D01*
X68520419Y-91762466D01*
X68520417Y-91762464D01*
X68409214Y-91697872D01*
X68283934Y-91668833D01*
X68155652Y-91677916D01*
X68035713Y-91724317D01*
X67934721Y-91803932D01*
X67898114Y-91856899D01*
X67861603Y-91909726D01*
X67822825Y-92032342D01*
X67821815Y-92160940D01*
X34757672Y-92160940D01*
X34757671Y-92160938D01*
X34731671Y-92106793D01*
X34707713Y-92056899D01*
X34620419Y-91962466D01*
X34620417Y-91962464D01*
X34509214Y-91897872D01*
X34383934Y-91868833D01*
X34255652Y-91877916D01*
X34135713Y-91924317D01*
X34034721Y-92003932D01*
X34015086Y-92032342D01*
X33961603Y-92109726D01*
X33922825Y-92232342D01*
X33921815Y-92360940D01*
X12127500Y-92360940D01*
X12127500Y-91310940D01*
X27871815Y-91310940D01*
X27908662Y-91434150D01*
X27980110Y-91541078D01*
X28079840Y-91622271D01*
X28199035Y-91670550D01*
X28327157Y-91681647D01*
X28452878Y-91654580D01*
X28565082Y-91591742D01*
X28653850Y-91498690D01*
X28697696Y-91410940D01*
X31371815Y-91410940D01*
X31408662Y-91534150D01*
X31480110Y-91641078D01*
X31579840Y-91722271D01*
X31699035Y-91770550D01*
X31827157Y-91781647D01*
X31952878Y-91754580D01*
X32065082Y-91691742D01*
X32153850Y-91598690D01*
X32211332Y-91483651D01*
X32223434Y-91410940D01*
X38271815Y-91410940D01*
X38308662Y-91534150D01*
X38380110Y-91641078D01*
X38479840Y-91722271D01*
X38599035Y-91770550D01*
X38727157Y-91781647D01*
X38852878Y-91754580D01*
X38965082Y-91691742D01*
X39053850Y-91598690D01*
X39111332Y-91483651D01*
X39123434Y-91410940D01*
X41871815Y-91410940D01*
X41908662Y-91534150D01*
X41980110Y-91641078D01*
X42079840Y-91722271D01*
X42199035Y-91770550D01*
X42327157Y-91781647D01*
X42452878Y-91754580D01*
X42565082Y-91691742D01*
X42653850Y-91598690D01*
X42711332Y-91483651D01*
X42723434Y-91410940D01*
X49371815Y-91410940D01*
X49408662Y-91534150D01*
X49480110Y-91641078D01*
X49579840Y-91722271D01*
X49699035Y-91770550D01*
X49827157Y-91781647D01*
X49952878Y-91754580D01*
X50065082Y-91691742D01*
X50153850Y-91598690D01*
X50211332Y-91483651D01*
X50223434Y-91410940D01*
X53371815Y-91410940D01*
X53408662Y-91534150D01*
X53480110Y-91641078D01*
X53579840Y-91722271D01*
X53699035Y-91770550D01*
X53827157Y-91781647D01*
X53952878Y-91754580D01*
X54065082Y-91691742D01*
X54153850Y-91598690D01*
X54211332Y-91483651D01*
X54223434Y-91410940D01*
X60863568Y-91410940D01*
X60900415Y-91534150D01*
X60971863Y-91641078D01*
X61071593Y-91722271D01*
X61190788Y-91770550D01*
X61318910Y-91781647D01*
X61444631Y-91754580D01*
X61556835Y-91691742D01*
X61645603Y-91598690D01*
X61703085Y-91483651D01*
X61715188Y-91410938D01*
X61724200Y-91356793D01*
X61724253Y-91350000D01*
X61705133Y-91222828D01*
X61674832Y-91159726D01*
X61649466Y-91106899D01*
X61562172Y-91012466D01*
X61562170Y-91012464D01*
X61450967Y-90947872D01*
X61325687Y-90918833D01*
X61197405Y-90927916D01*
X61077466Y-90974317D01*
X60976474Y-91053932D01*
X60950682Y-91091251D01*
X60903356Y-91159726D01*
X60864578Y-91282342D01*
X60863568Y-91410940D01*
X54223434Y-91410940D01*
X54223435Y-91410938D01*
X54232447Y-91356793D01*
X54232500Y-91350000D01*
X54213380Y-91222828D01*
X54183079Y-91159726D01*
X54157713Y-91106899D01*
X54070419Y-91012466D01*
X54070417Y-91012464D01*
X53959214Y-90947872D01*
X53833934Y-90918833D01*
X53705652Y-90927916D01*
X53585713Y-90974317D01*
X53484721Y-91053932D01*
X53458929Y-91091251D01*
X53411603Y-91159726D01*
X53372825Y-91282342D01*
X53371815Y-91410940D01*
X50223434Y-91410940D01*
X50223435Y-91410938D01*
X50232447Y-91356793D01*
X50232500Y-91350000D01*
X50213380Y-91222828D01*
X50183079Y-91159726D01*
X50157713Y-91106899D01*
X50070419Y-91012466D01*
X50070417Y-91012464D01*
X49959214Y-90947872D01*
X49833934Y-90918833D01*
X49705652Y-90927916D01*
X49585713Y-90974317D01*
X49484721Y-91053932D01*
X49458929Y-91091251D01*
X49411603Y-91159726D01*
X49372825Y-91282342D01*
X49371815Y-91410940D01*
X42723434Y-91410940D01*
X42723435Y-91410938D01*
X42732447Y-91356793D01*
X42732500Y-91350000D01*
X42713380Y-91222828D01*
X42683079Y-91159726D01*
X42657713Y-91106899D01*
X42570419Y-91012466D01*
X42570417Y-91012464D01*
X42459214Y-90947872D01*
X42333934Y-90918833D01*
X42205652Y-90927916D01*
X42085713Y-90974317D01*
X41984721Y-91053932D01*
X41958929Y-91091251D01*
X41911603Y-91159726D01*
X41872825Y-91282342D01*
X41871815Y-91410940D01*
X39123434Y-91410940D01*
X39123435Y-91410938D01*
X39132447Y-91356793D01*
X39132500Y-91350000D01*
X39113380Y-91222828D01*
X39083079Y-91159726D01*
X39057713Y-91106899D01*
X38970419Y-91012466D01*
X38970417Y-91012464D01*
X38859214Y-90947872D01*
X38733934Y-90918833D01*
X38605652Y-90927916D01*
X38485713Y-90974317D01*
X38384721Y-91053932D01*
X38358929Y-91091251D01*
X38311603Y-91159726D01*
X38272825Y-91282342D01*
X38271815Y-91410940D01*
X32223434Y-91410940D01*
X32223435Y-91410938D01*
X32232447Y-91356793D01*
X32232500Y-91350000D01*
X32213380Y-91222828D01*
X32183079Y-91159726D01*
X32157713Y-91106899D01*
X32070419Y-91012466D01*
X32070417Y-91012464D01*
X31959214Y-90947872D01*
X31833934Y-90918833D01*
X31705652Y-90927916D01*
X31585713Y-90974317D01*
X31484721Y-91053932D01*
X31458929Y-91091251D01*
X31411603Y-91159726D01*
X31372825Y-91282342D01*
X31371815Y-91410940D01*
X28697696Y-91410940D01*
X28711332Y-91383651D01*
X28732447Y-91256792D01*
X28732500Y-91249999D01*
X28722328Y-91182342D01*
X28713380Y-91122828D01*
X28683079Y-91059726D01*
X28657713Y-91006899D01*
X28570419Y-90912466D01*
X28570417Y-90912464D01*
X28459214Y-90847872D01*
X28333934Y-90818833D01*
X28205652Y-90827916D01*
X28085713Y-90874317D01*
X27984721Y-90953932D01*
X27944266Y-91012466D01*
X27911603Y-91059726D01*
X27872825Y-91182342D01*
X27871815Y-91310940D01*
X12127500Y-91310940D01*
X12127500Y-90720544D01*
X66671816Y-90720544D01*
X66708663Y-90843754D01*
X66780111Y-90950682D01*
X66879841Y-91031875D01*
X66999036Y-91080154D01*
X67127158Y-91091251D01*
X67252879Y-91064184D01*
X67365083Y-91001346D01*
X67453851Y-90908294D01*
X67511333Y-90793255D01*
X67523435Y-90720544D01*
X67752817Y-90720544D01*
X67789664Y-90843754D01*
X67861112Y-90950682D01*
X67960842Y-91031875D01*
X68080037Y-91080154D01*
X68208159Y-91091251D01*
X68333880Y-91064184D01*
X68446084Y-91001346D01*
X68534852Y-90908294D01*
X68592334Y-90793255D01*
X68613449Y-90666396D01*
X68613502Y-90659603D01*
X68594382Y-90532433D01*
X68538715Y-90416503D01*
X68451421Y-90322070D01*
X68451419Y-90322068D01*
X68340216Y-90257476D01*
X68214936Y-90228437D01*
X68086654Y-90237520D01*
X67966715Y-90283921D01*
X67865723Y-90363536D01*
X67829116Y-90416503D01*
X67792605Y-90469330D01*
X67753827Y-90591946D01*
X67752817Y-90720544D01*
X67523435Y-90720544D01*
X67532448Y-90666396D01*
X67532501Y-90659603D01*
X67513381Y-90532433D01*
X67457714Y-90416503D01*
X67370420Y-90322070D01*
X67370418Y-90322068D01*
X67259215Y-90257476D01*
X67133935Y-90228437D01*
X67005653Y-90237520D01*
X66885714Y-90283921D01*
X66784722Y-90363536D01*
X66748115Y-90416503D01*
X66711604Y-90469330D01*
X66672826Y-90591946D01*
X66671816Y-90720544D01*
X12127500Y-90720544D01*
X12127500Y-88220544D01*
X75252817Y-88220544D01*
X75289664Y-88343754D01*
X75361112Y-88450682D01*
X75460842Y-88531875D01*
X75580037Y-88580154D01*
X75708159Y-88591251D01*
X75833880Y-88564184D01*
X75946084Y-88501346D01*
X76034852Y-88408294D01*
X76092334Y-88293255D01*
X76104436Y-88220544D01*
X100252817Y-88220544D01*
X100289664Y-88343754D01*
X100361112Y-88450682D01*
X100460842Y-88531875D01*
X100580037Y-88580154D01*
X100708159Y-88591251D01*
X100833880Y-88564184D01*
X100946084Y-88501346D01*
X101034852Y-88408294D01*
X101092334Y-88293255D01*
X101100294Y-88245430D01*
X109687325Y-88245430D01*
X109724172Y-88368640D01*
X109795620Y-88475568D01*
X109895350Y-88556761D01*
X110014545Y-88605040D01*
X110142667Y-88616137D01*
X110268388Y-88589070D01*
X110380592Y-88526232D01*
X110469360Y-88433180D01*
X110514043Y-88343755D01*
X110526842Y-88318141D01*
X110538945Y-88245428D01*
X110547957Y-88191283D01*
X110548010Y-88184490D01*
X110544269Y-88159604D01*
X110528890Y-88057319D01*
X110473223Y-87941389D01*
X110385929Y-87846956D01*
X110385927Y-87846954D01*
X110274724Y-87782362D01*
X110149444Y-87753323D01*
X110021162Y-87762406D01*
X109901223Y-87808807D01*
X109800231Y-87888422D01*
X109744313Y-87969330D01*
X109727113Y-87994216D01*
X109688335Y-88116832D01*
X109687325Y-88245430D01*
X101100294Y-88245430D01*
X101113449Y-88166396D01*
X101113502Y-88159603D01*
X101098124Y-88057319D01*
X101094382Y-88032432D01*
X101058854Y-87958444D01*
X101038715Y-87916503D01*
X100951421Y-87822070D01*
X100951419Y-87822068D01*
X100840216Y-87757476D01*
X100714936Y-87728437D01*
X100586654Y-87737520D01*
X100466715Y-87783921D01*
X100365723Y-87863536D01*
X100329116Y-87916503D01*
X100292605Y-87969330D01*
X100253827Y-88091946D01*
X100252817Y-88220544D01*
X76104436Y-88220544D01*
X76113449Y-88166396D01*
X76113502Y-88159603D01*
X76098124Y-88057319D01*
X76094382Y-88032432D01*
X76058854Y-87958444D01*
X76038715Y-87916503D01*
X75951421Y-87822070D01*
X75951419Y-87822068D01*
X75840216Y-87757476D01*
X75714936Y-87728437D01*
X75586654Y-87737520D01*
X75466715Y-87783921D01*
X75365723Y-87863536D01*
X75329116Y-87916503D01*
X75292605Y-87969330D01*
X75253827Y-88091946D01*
X75252817Y-88220544D01*
X12127500Y-88220544D01*
X12127500Y-87677642D01*
X59302817Y-87677642D01*
X59339664Y-87800852D01*
X59411112Y-87907780D01*
X59510842Y-87988973D01*
X59630037Y-88037252D01*
X59758159Y-88048349D01*
X59883880Y-88021282D01*
X59996084Y-87958444D01*
X60084852Y-87865392D01*
X60136311Y-87762406D01*
X60142334Y-87750353D01*
X60163449Y-87623494D01*
X60163502Y-87616701D01*
X60144382Y-87489531D01*
X60088715Y-87373601D01*
X60001421Y-87279168D01*
X60001419Y-87279166D01*
X59890216Y-87214574D01*
X59764936Y-87185535D01*
X59636654Y-87194618D01*
X59516715Y-87241019D01*
X59415723Y-87320634D01*
X59379116Y-87373601D01*
X59342605Y-87426428D01*
X59303827Y-87549044D01*
X59302817Y-87677642D01*
X12127500Y-87677642D01*
X12127500Y-86877642D01*
X30752817Y-86877642D01*
X30789664Y-87000852D01*
X30861112Y-87107780D01*
X30960842Y-87188973D01*
X31080037Y-87237252D01*
X31208159Y-87248349D01*
X31333880Y-87221282D01*
X31446084Y-87158444D01*
X31534852Y-87065392D01*
X31592334Y-86950352D01*
X31604436Y-86877642D01*
X34252817Y-86877642D01*
X34289664Y-87000852D01*
X34361112Y-87107780D01*
X34460842Y-87188973D01*
X34580037Y-87237252D01*
X34708159Y-87248349D01*
X34833880Y-87221282D01*
X34946084Y-87158444D01*
X35034852Y-87065392D01*
X35092334Y-86950352D01*
X35104436Y-86877642D01*
X37752817Y-86877642D01*
X37789664Y-87000852D01*
X37861112Y-87107780D01*
X37960842Y-87188973D01*
X38080037Y-87237252D01*
X38208159Y-87248349D01*
X38333880Y-87221282D01*
X38446084Y-87158444D01*
X38534852Y-87065392D01*
X38592334Y-86950352D01*
X38613449Y-86823495D01*
X38613502Y-86816702D01*
X38594382Y-86689530D01*
X38564081Y-86626428D01*
X38538715Y-86573601D01*
X38451421Y-86479168D01*
X38451419Y-86479166D01*
X38340216Y-86414574D01*
X38214936Y-86385535D01*
X38086654Y-86394618D01*
X37966715Y-86441019D01*
X37865723Y-86520634D01*
X37829116Y-86573601D01*
X37792605Y-86626428D01*
X37753827Y-86749044D01*
X37752817Y-86877642D01*
X35104436Y-86877642D01*
X35113449Y-86823495D01*
X35113502Y-86816702D01*
X35094382Y-86689530D01*
X35064081Y-86626428D01*
X35038715Y-86573601D01*
X34951421Y-86479168D01*
X34951419Y-86479166D01*
X34840216Y-86414574D01*
X34714936Y-86385535D01*
X34586654Y-86394618D01*
X34466715Y-86441019D01*
X34365723Y-86520634D01*
X34329116Y-86573601D01*
X34292605Y-86626428D01*
X34253827Y-86749044D01*
X34252817Y-86877642D01*
X31604436Y-86877642D01*
X31613449Y-86823495D01*
X31613502Y-86816702D01*
X31594382Y-86689530D01*
X31564081Y-86626428D01*
X31538715Y-86573601D01*
X31451421Y-86479168D01*
X31451419Y-86479166D01*
X31340216Y-86414574D01*
X31214936Y-86385535D01*
X31086654Y-86394618D01*
X30966715Y-86441019D01*
X30865723Y-86520634D01*
X30829116Y-86573601D01*
X30792605Y-86626428D01*
X30753827Y-86749044D01*
X30752817Y-86877642D01*
X12127500Y-86877642D01*
X12127500Y-85777642D01*
X46202817Y-85777642D01*
X46239664Y-85900852D01*
X46311112Y-86007780D01*
X46410842Y-86088973D01*
X46530037Y-86137252D01*
X46658159Y-86148349D01*
X46783880Y-86121282D01*
X46896084Y-86058444D01*
X46984852Y-85965392D01*
X47042334Y-85850352D01*
X47063449Y-85723495D01*
X47063502Y-85716702D01*
X47044382Y-85589530D01*
X47012085Y-85522271D01*
X46988715Y-85473601D01*
X46901421Y-85379168D01*
X46901419Y-85379166D01*
X46790216Y-85314574D01*
X46774539Y-85310940D01*
X79671815Y-85310940D01*
X79708662Y-85434150D01*
X79780110Y-85541078D01*
X79879840Y-85622271D01*
X79999035Y-85670550D01*
X80127157Y-85681647D01*
X80252878Y-85654580D01*
X80365082Y-85591742D01*
X80453850Y-85498690D01*
X80492852Y-85420635D01*
X80511332Y-85383651D01*
X80521889Y-85320222D01*
X80532447Y-85256793D01*
X80532500Y-85250000D01*
X80526628Y-85210940D01*
X87171815Y-85210940D01*
X87208662Y-85334150D01*
X87280110Y-85441078D01*
X87379840Y-85522271D01*
X87499035Y-85570550D01*
X87627157Y-85581647D01*
X87752878Y-85554580D01*
X87865082Y-85491742D01*
X87953850Y-85398690D01*
X87963606Y-85379166D01*
X87997696Y-85310940D01*
X94171815Y-85310940D01*
X94208662Y-85434150D01*
X94280110Y-85541078D01*
X94379840Y-85622271D01*
X94499035Y-85670550D01*
X94627157Y-85681647D01*
X94752878Y-85654580D01*
X94865082Y-85591742D01*
X94953850Y-85498690D01*
X94992852Y-85420635D01*
X95011332Y-85383651D01*
X95021889Y-85320222D01*
X95032447Y-85256793D01*
X95032500Y-85250000D01*
X95026628Y-85210940D01*
X97671815Y-85210940D01*
X97708662Y-85334150D01*
X97780110Y-85441078D01*
X97879840Y-85522271D01*
X97999035Y-85570550D01*
X98127157Y-85581647D01*
X98252878Y-85554580D01*
X98365082Y-85491742D01*
X98453850Y-85398690D01*
X98463606Y-85379166D01*
X98511332Y-85283651D01*
X98532447Y-85156792D01*
X98532500Y-85149999D01*
X98522328Y-85082342D01*
X98513380Y-85022828D01*
X98483079Y-84959726D01*
X98457713Y-84906899D01*
X98370419Y-84812466D01*
X98370417Y-84812464D01*
X98259214Y-84747872D01*
X98133934Y-84718833D01*
X98005652Y-84727916D01*
X97885713Y-84774317D01*
X97784721Y-84853932D01*
X97744266Y-84912466D01*
X97711603Y-84959726D01*
X97672825Y-85082342D01*
X97671815Y-85210940D01*
X95026628Y-85210940D01*
X95013380Y-85122828D01*
X94983079Y-85059726D01*
X94957713Y-85006899D01*
X94870419Y-84912466D01*
X94870417Y-84912464D01*
X94759214Y-84847872D01*
X94633934Y-84818833D01*
X94505652Y-84827916D01*
X94385713Y-84874317D01*
X94284721Y-84953932D01*
X94280717Y-84959726D01*
X94211603Y-85059726D01*
X94172825Y-85182342D01*
X94171815Y-85310940D01*
X87997696Y-85310940D01*
X88011332Y-85283651D01*
X88032447Y-85156792D01*
X88032500Y-85149999D01*
X88022328Y-85082342D01*
X88013380Y-85022828D01*
X87983079Y-84959726D01*
X87957713Y-84906899D01*
X87870419Y-84812466D01*
X87870417Y-84812464D01*
X87759214Y-84747872D01*
X87633934Y-84718833D01*
X87505652Y-84727916D01*
X87385713Y-84774317D01*
X87284721Y-84853932D01*
X87244266Y-84912466D01*
X87211603Y-84959726D01*
X87172825Y-85082342D01*
X87171815Y-85210940D01*
X80526628Y-85210940D01*
X80513380Y-85122828D01*
X80483079Y-85059726D01*
X80457713Y-85006899D01*
X80370419Y-84912466D01*
X80370417Y-84912464D01*
X80259214Y-84847872D01*
X80133934Y-84818833D01*
X80005652Y-84827916D01*
X79885713Y-84874317D01*
X79784721Y-84953932D01*
X79780717Y-84959726D01*
X79711603Y-85059726D01*
X79672825Y-85182342D01*
X79671815Y-85310940D01*
X46774539Y-85310940D01*
X46664936Y-85285535D01*
X46536654Y-85294618D01*
X46416715Y-85341019D01*
X46315723Y-85420634D01*
X46279116Y-85473601D01*
X46242605Y-85526428D01*
X46203827Y-85649044D01*
X46202817Y-85777642D01*
X12127500Y-85777642D01*
X12127500Y-84277198D01*
X63133561Y-84277198D01*
X63170408Y-84400408D01*
X63241856Y-84507336D01*
X63341586Y-84588529D01*
X63460781Y-84636808D01*
X63588903Y-84647905D01*
X63714624Y-84620838D01*
X63826828Y-84558000D01*
X63915596Y-84464948D01*
X63973078Y-84349909D01*
X63994193Y-84223050D01*
X63994246Y-84216257D01*
X63993447Y-84210940D01*
X68671815Y-84210940D01*
X68708662Y-84334150D01*
X68780110Y-84441078D01*
X68879840Y-84522271D01*
X68999035Y-84570550D01*
X69127157Y-84581647D01*
X69252878Y-84554580D01*
X69365082Y-84491742D01*
X69453850Y-84398690D01*
X69511332Y-84283651D01*
X69532447Y-84156792D01*
X69532500Y-84149999D01*
X69513380Y-84022829D01*
X69457713Y-83906899D01*
X69370419Y-83812466D01*
X69370417Y-83812464D01*
X69259214Y-83747872D01*
X69133934Y-83718833D01*
X69005652Y-83727916D01*
X68885713Y-83774317D01*
X68784721Y-83853932D01*
X68748114Y-83906899D01*
X68711603Y-83959726D01*
X68672825Y-84082342D01*
X68671815Y-84210940D01*
X63993447Y-84210940D01*
X63975126Y-84089087D01*
X63971888Y-84082342D01*
X63943310Y-84022828D01*
X63919459Y-83973157D01*
X63832165Y-83878724D01*
X63832163Y-83878722D01*
X63720960Y-83814130D01*
X63595680Y-83785091D01*
X63467398Y-83794174D01*
X63347459Y-83840575D01*
X63246467Y-83920190D01*
X63209860Y-83973157D01*
X63173349Y-84025984D01*
X63134571Y-84148600D01*
X63133561Y-84277198D01*
X12127500Y-84277198D01*
X12127500Y-83377642D01*
X30752817Y-83377642D01*
X30789664Y-83500852D01*
X30861112Y-83607780D01*
X30960842Y-83688973D01*
X31080037Y-83737252D01*
X31208159Y-83748349D01*
X31333880Y-83721282D01*
X31446084Y-83658444D01*
X31534852Y-83565392D01*
X31592334Y-83450353D01*
X31604436Y-83377642D01*
X34252817Y-83377642D01*
X34289664Y-83500852D01*
X34361112Y-83607780D01*
X34460842Y-83688973D01*
X34580037Y-83737252D01*
X34708159Y-83748349D01*
X34833880Y-83721282D01*
X34946084Y-83658444D01*
X35034852Y-83565392D01*
X35092334Y-83450353D01*
X35104436Y-83377642D01*
X37752817Y-83377642D01*
X37789664Y-83500852D01*
X37861112Y-83607780D01*
X37960842Y-83688973D01*
X38080037Y-83737252D01*
X38208159Y-83748349D01*
X38333880Y-83721282D01*
X38446084Y-83658444D01*
X38534852Y-83565392D01*
X38592334Y-83450353D01*
X38604436Y-83377642D01*
X49702817Y-83377642D01*
X49739664Y-83500852D01*
X49811112Y-83607780D01*
X49910842Y-83688973D01*
X50030037Y-83737252D01*
X50158159Y-83748349D01*
X50283880Y-83721282D01*
X50396084Y-83658444D01*
X50484852Y-83565392D01*
X50542334Y-83450353D01*
X50554436Y-83377642D01*
X60252817Y-83377642D01*
X60289664Y-83500852D01*
X60361112Y-83607780D01*
X60460842Y-83688973D01*
X60580037Y-83737252D01*
X60708159Y-83748349D01*
X60833880Y-83721282D01*
X60946084Y-83658444D01*
X61034852Y-83565392D01*
X61092334Y-83450353D01*
X61107216Y-83360940D01*
X67071815Y-83360940D01*
X67108662Y-83484150D01*
X67180110Y-83591078D01*
X67279840Y-83672271D01*
X67399035Y-83720550D01*
X67527157Y-83731647D01*
X67652878Y-83704580D01*
X67765082Y-83641742D01*
X67853850Y-83548690D01*
X67911332Y-83433651D01*
X67932447Y-83306792D01*
X67932500Y-83299999D01*
X67913380Y-83172829D01*
X67857713Y-83056899D01*
X67770419Y-82962466D01*
X67770417Y-82962464D01*
X67659214Y-82897872D01*
X67533934Y-82868833D01*
X67405652Y-82877916D01*
X67285713Y-82924317D01*
X67184721Y-83003932D01*
X67111603Y-83109726D01*
X67072825Y-83232342D01*
X67071815Y-83360940D01*
X61107216Y-83360940D01*
X61113449Y-83323494D01*
X61113502Y-83316701D01*
X61094382Y-83189531D01*
X61038715Y-83073601D01*
X60951421Y-82979168D01*
X60951419Y-82979166D01*
X60840216Y-82914574D01*
X60714936Y-82885535D01*
X60586654Y-82894618D01*
X60466715Y-82941019D01*
X60365723Y-83020634D01*
X60358112Y-83031647D01*
X60292605Y-83126428D01*
X60253827Y-83249044D01*
X60252817Y-83377642D01*
X50554436Y-83377642D01*
X50563449Y-83323494D01*
X50563502Y-83316701D01*
X50544382Y-83189531D01*
X50488715Y-83073601D01*
X50401421Y-82979168D01*
X50401419Y-82979166D01*
X50290216Y-82914574D01*
X50164936Y-82885535D01*
X50036654Y-82894618D01*
X49916715Y-82941019D01*
X49815723Y-83020634D01*
X49808112Y-83031647D01*
X49742605Y-83126428D01*
X49703827Y-83249044D01*
X49702817Y-83377642D01*
X38604436Y-83377642D01*
X38613449Y-83323494D01*
X38613502Y-83316701D01*
X38594382Y-83189531D01*
X38538715Y-83073601D01*
X38451421Y-82979168D01*
X38451419Y-82979166D01*
X38340216Y-82914574D01*
X38214936Y-82885535D01*
X38086654Y-82894618D01*
X37966715Y-82941019D01*
X37865723Y-83020634D01*
X37858112Y-83031647D01*
X37792605Y-83126428D01*
X37753827Y-83249044D01*
X37752817Y-83377642D01*
X35104436Y-83377642D01*
X35113449Y-83323494D01*
X35113502Y-83316701D01*
X35094382Y-83189531D01*
X35038715Y-83073601D01*
X34951421Y-82979168D01*
X34951419Y-82979166D01*
X34840216Y-82914574D01*
X34714936Y-82885535D01*
X34586654Y-82894618D01*
X34466715Y-82941019D01*
X34365723Y-83020634D01*
X34358112Y-83031647D01*
X34292605Y-83126428D01*
X34253827Y-83249044D01*
X34252817Y-83377642D01*
X31604436Y-83377642D01*
X31613449Y-83323494D01*
X31613502Y-83316701D01*
X31594382Y-83189531D01*
X31538715Y-83073601D01*
X31451421Y-82979168D01*
X31451419Y-82979166D01*
X31340216Y-82914574D01*
X31214936Y-82885535D01*
X31086654Y-82894618D01*
X30966715Y-82941019D01*
X30865723Y-83020634D01*
X30858112Y-83031647D01*
X30792605Y-83126428D01*
X30753827Y-83249044D01*
X30752817Y-83377642D01*
X12127500Y-83377642D01*
X12127500Y-82660940D01*
X35171815Y-82660940D01*
X35208662Y-82784150D01*
X35280110Y-82891078D01*
X35379840Y-82972271D01*
X35499035Y-83020550D01*
X35627157Y-83031647D01*
X35752878Y-83004580D01*
X35865082Y-82941742D01*
X35953850Y-82848690D01*
X36011332Y-82733651D01*
X36032447Y-82606792D01*
X36032500Y-82599999D01*
X36013380Y-82472829D01*
X35957713Y-82356899D01*
X35870419Y-82262466D01*
X35870417Y-82262464D01*
X35759214Y-82197872D01*
X35633934Y-82168833D01*
X35505652Y-82177916D01*
X35385713Y-82224317D01*
X35284721Y-82303932D01*
X35248114Y-82356899D01*
X35211603Y-82409726D01*
X35172825Y-82532342D01*
X35171815Y-82660940D01*
X12127500Y-82660940D01*
X12127500Y-80410940D01*
X28171815Y-80410940D01*
X28208662Y-80534150D01*
X28280110Y-80641078D01*
X28379840Y-80722271D01*
X28499035Y-80770550D01*
X28627157Y-80781647D01*
X28752878Y-80754580D01*
X28865082Y-80691742D01*
X28953850Y-80598690D01*
X29011332Y-80483651D01*
X29023434Y-80410940D01*
X31671815Y-80410940D01*
X31708662Y-80534150D01*
X31780110Y-80641078D01*
X31879840Y-80722271D01*
X31999035Y-80770550D01*
X32127157Y-80781647D01*
X32252878Y-80754580D01*
X32365082Y-80691742D01*
X32453850Y-80598690D01*
X32511332Y-80483650D01*
X32523434Y-80410940D01*
X35071815Y-80410940D01*
X35108662Y-80534150D01*
X35180110Y-80641078D01*
X35279840Y-80722271D01*
X35399035Y-80770550D01*
X35527157Y-80781647D01*
X35652878Y-80754580D01*
X35765082Y-80691742D01*
X35853850Y-80598690D01*
X35911332Y-80483651D01*
X35923434Y-80410940D01*
X38671815Y-80410940D01*
X38708662Y-80534150D01*
X38780110Y-80641078D01*
X38879840Y-80722271D01*
X38999035Y-80770550D01*
X39127157Y-80781647D01*
X39252878Y-80754580D01*
X39365082Y-80691742D01*
X39453850Y-80598690D01*
X39511332Y-80483651D01*
X39523434Y-80410940D01*
X42171815Y-80410940D01*
X42208662Y-80534150D01*
X42280110Y-80641078D01*
X42379840Y-80722271D01*
X42499035Y-80770550D01*
X42627157Y-80781647D01*
X42752878Y-80754580D01*
X42865082Y-80691742D01*
X42953850Y-80598690D01*
X43011332Y-80483651D01*
X43023434Y-80410940D01*
X49671815Y-80410940D01*
X49708662Y-80534150D01*
X49780110Y-80641078D01*
X49879840Y-80722271D01*
X49999035Y-80770550D01*
X50127157Y-80781647D01*
X50252878Y-80754580D01*
X50365082Y-80691742D01*
X50453850Y-80598690D01*
X50511332Y-80483651D01*
X50523434Y-80410940D01*
X53671815Y-80410940D01*
X53708662Y-80534150D01*
X53780110Y-80641078D01*
X53879840Y-80722271D01*
X53999035Y-80770550D01*
X54127157Y-80781647D01*
X54252878Y-80754580D01*
X54365082Y-80691742D01*
X54453850Y-80598690D01*
X54511332Y-80483651D01*
X54523434Y-80410940D01*
X61271815Y-80410940D01*
X61308662Y-80534150D01*
X61380110Y-80641078D01*
X61479840Y-80722271D01*
X61599035Y-80770550D01*
X61727157Y-80781647D01*
X61852878Y-80754580D01*
X61965082Y-80691742D01*
X62053850Y-80598690D01*
X62111332Y-80483651D01*
X62132447Y-80356792D01*
X62132500Y-80349999D01*
X62113380Y-80222829D01*
X62057713Y-80106899D01*
X61970419Y-80012466D01*
X61970417Y-80012464D01*
X61859214Y-79947872D01*
X61733934Y-79918833D01*
X61605652Y-79927916D01*
X61485713Y-79974317D01*
X61384721Y-80053932D01*
X61348114Y-80106899D01*
X61311603Y-80159726D01*
X61272825Y-80282342D01*
X61271815Y-80410940D01*
X54523434Y-80410940D01*
X54532447Y-80356792D01*
X54532500Y-80349999D01*
X54513380Y-80222829D01*
X54457713Y-80106899D01*
X54370419Y-80012466D01*
X54370417Y-80012464D01*
X54259214Y-79947872D01*
X54133934Y-79918833D01*
X54005652Y-79927916D01*
X53885713Y-79974317D01*
X53784721Y-80053932D01*
X53748114Y-80106899D01*
X53711603Y-80159726D01*
X53672825Y-80282342D01*
X53671815Y-80410940D01*
X50523434Y-80410940D01*
X50532447Y-80356792D01*
X50532500Y-80349999D01*
X50513380Y-80222829D01*
X50457713Y-80106899D01*
X50370419Y-80012466D01*
X50370417Y-80012464D01*
X50259214Y-79947872D01*
X50133934Y-79918833D01*
X50005652Y-79927916D01*
X49885713Y-79974317D01*
X49784721Y-80053932D01*
X49748114Y-80106899D01*
X49711603Y-80159726D01*
X49672825Y-80282342D01*
X49671815Y-80410940D01*
X43023434Y-80410940D01*
X43032447Y-80356792D01*
X43032500Y-80349999D01*
X43013380Y-80222829D01*
X42957713Y-80106899D01*
X42870419Y-80012466D01*
X42870417Y-80012464D01*
X42759214Y-79947872D01*
X42633934Y-79918833D01*
X42505652Y-79927916D01*
X42385713Y-79974317D01*
X42284721Y-80053932D01*
X42248114Y-80106899D01*
X42211603Y-80159726D01*
X42172825Y-80282342D01*
X42171815Y-80410940D01*
X39523434Y-80410940D01*
X39532447Y-80356792D01*
X39532500Y-80349999D01*
X39513380Y-80222829D01*
X39457713Y-80106899D01*
X39370419Y-80012466D01*
X39370417Y-80012464D01*
X39259214Y-79947872D01*
X39133934Y-79918833D01*
X39005652Y-79927916D01*
X38885713Y-79974317D01*
X38784721Y-80053932D01*
X38748114Y-80106899D01*
X38711603Y-80159726D01*
X38672825Y-80282342D01*
X38671815Y-80410940D01*
X35923434Y-80410940D01*
X35932447Y-80356792D01*
X35932500Y-80349999D01*
X35913380Y-80222829D01*
X35857713Y-80106899D01*
X35770419Y-80012466D01*
X35770417Y-80012464D01*
X35659214Y-79947872D01*
X35533934Y-79918833D01*
X35405652Y-79927916D01*
X35285713Y-79974317D01*
X35184721Y-80053932D01*
X35148114Y-80106899D01*
X35111603Y-80159726D01*
X35072825Y-80282342D01*
X35071815Y-80410940D01*
X32523434Y-80410940D01*
X32532447Y-80356793D01*
X32532500Y-80350000D01*
X32513380Y-80222828D01*
X32483079Y-80159726D01*
X32457713Y-80106899D01*
X32370419Y-80012466D01*
X32370417Y-80012464D01*
X32259214Y-79947872D01*
X32133934Y-79918833D01*
X32005652Y-79927916D01*
X31885713Y-79974317D01*
X31784721Y-80053932D01*
X31748114Y-80106899D01*
X31711603Y-80159726D01*
X31672825Y-80282342D01*
X31671815Y-80410940D01*
X29023434Y-80410940D01*
X29032447Y-80356792D01*
X29032500Y-80349999D01*
X29013380Y-80222829D01*
X28957713Y-80106899D01*
X28870419Y-80012466D01*
X28870417Y-80012464D01*
X28759214Y-79947872D01*
X28633934Y-79918833D01*
X28505652Y-79927916D01*
X28385713Y-79974317D01*
X28284721Y-80053932D01*
X28248114Y-80106899D01*
X28211603Y-80159726D01*
X28172825Y-80282342D01*
X28171815Y-80410940D01*
X12127500Y-80410940D01*
X12127500Y-77337942D01*
X41571815Y-77337942D01*
X41608662Y-77461152D01*
X41680110Y-77568080D01*
X41779840Y-77649273D01*
X41899035Y-77697552D01*
X42027157Y-77708649D01*
X42152878Y-77681582D01*
X42265082Y-77618744D01*
X42353850Y-77525692D01*
X42411332Y-77410653D01*
X42432447Y-77283794D01*
X42432500Y-77277001D01*
X42413380Y-77149831D01*
X42382701Y-77085940D01*
X57645719Y-77085940D01*
X57682566Y-77209150D01*
X57754014Y-77316078D01*
X57853744Y-77397271D01*
X57972939Y-77445550D01*
X58101061Y-77456647D01*
X58226782Y-77429580D01*
X58338986Y-77366742D01*
X58427754Y-77273690D01*
X58485236Y-77158651D01*
X58506351Y-77031792D01*
X58506404Y-77024999D01*
X58487284Y-76897829D01*
X58431617Y-76781899D01*
X58344323Y-76687466D01*
X58344321Y-76687464D01*
X58233118Y-76622872D01*
X58107838Y-76593833D01*
X57979556Y-76602916D01*
X57859617Y-76649317D01*
X57758625Y-76728932D01*
X57722018Y-76781899D01*
X57685507Y-76834726D01*
X57646729Y-76957342D01*
X57645719Y-77085940D01*
X42382701Y-77085940D01*
X42357713Y-77033901D01*
X42270419Y-76939468D01*
X42270417Y-76939466D01*
X42159214Y-76874874D01*
X42033934Y-76845835D01*
X41905652Y-76854918D01*
X41785713Y-76901319D01*
X41684721Y-76980934D01*
X41649571Y-77031793D01*
X41611603Y-77086728D01*
X41572825Y-77209344D01*
X41571815Y-77337942D01*
X12127500Y-77337942D01*
X12127500Y-76403842D01*
X32545719Y-76403842D01*
X32582566Y-76527052D01*
X32654014Y-76633980D01*
X32753744Y-76715173D01*
X32872939Y-76763452D01*
X33001061Y-76774549D01*
X33126782Y-76747482D01*
X33238986Y-76684644D01*
X33327754Y-76591592D01*
X33385236Y-76476552D01*
X33397338Y-76403842D01*
X36145719Y-76403842D01*
X36182566Y-76527052D01*
X36254014Y-76633980D01*
X36353744Y-76715173D01*
X36472939Y-76763452D01*
X36601061Y-76774549D01*
X36726782Y-76747482D01*
X36838986Y-76684644D01*
X36927754Y-76591592D01*
X36985236Y-76476553D01*
X37006351Y-76349694D01*
X37006404Y-76342901D01*
X36987284Y-76215731D01*
X36931617Y-76099801D01*
X36844323Y-76005368D01*
X36844321Y-76005366D01*
X36733118Y-75940774D01*
X36607838Y-75911735D01*
X36479556Y-75920818D01*
X36359617Y-75967219D01*
X36258625Y-76046834D01*
X36222018Y-76099801D01*
X36185507Y-76152628D01*
X36146729Y-76275244D01*
X36145719Y-76403842D01*
X33397338Y-76403842D01*
X33406351Y-76349695D01*
X33406404Y-76342902D01*
X33387284Y-76215730D01*
X33356983Y-76152628D01*
X33331617Y-76099801D01*
X33244323Y-76005368D01*
X33244321Y-76005366D01*
X33133118Y-75940774D01*
X33007838Y-75911735D01*
X32879556Y-75920818D01*
X32759617Y-75967219D01*
X32658625Y-76046834D01*
X32622018Y-76099801D01*
X32585507Y-76152628D01*
X32546729Y-76275244D01*
X32545719Y-76403842D01*
X12127500Y-76403842D01*
X12127500Y-75185940D01*
X44545719Y-75185940D01*
X44582566Y-75309150D01*
X44654014Y-75416078D01*
X44753744Y-75497271D01*
X44872939Y-75545550D01*
X45001061Y-75556647D01*
X45126782Y-75529580D01*
X45238986Y-75466742D01*
X45327754Y-75373690D01*
X45385236Y-75258651D01*
X45406351Y-75131792D01*
X45406404Y-75124999D01*
X45387284Y-74997829D01*
X45331617Y-74881899D01*
X45244323Y-74787466D01*
X45244321Y-74787464D01*
X45133118Y-74722872D01*
X45007838Y-74693833D01*
X44879556Y-74702916D01*
X44759617Y-74749317D01*
X44658625Y-74828932D01*
X44622018Y-74881899D01*
X44585507Y-74934726D01*
X44546729Y-75057342D01*
X44545719Y-75185940D01*
X12127500Y-75185940D01*
X12127500Y-73960940D01*
X43571815Y-73960940D01*
X43608662Y-74084150D01*
X43680110Y-74191078D01*
X43779840Y-74272271D01*
X43899035Y-74320550D01*
X44027157Y-74331647D01*
X44152878Y-74304580D01*
X44230801Y-74260940D01*
X47121815Y-74260940D01*
X47158662Y-74384150D01*
X47230110Y-74491078D01*
X47329840Y-74572271D01*
X47449035Y-74620550D01*
X47577157Y-74631647D01*
X47702878Y-74604580D01*
X47815082Y-74541742D01*
X47903850Y-74448690D01*
X47961332Y-74333650D01*
X47961666Y-74331647D01*
X47982447Y-74206792D01*
X47982500Y-74199999D01*
X47963380Y-74072829D01*
X47907713Y-73956899D01*
X47820419Y-73862466D01*
X47820417Y-73862464D01*
X47709214Y-73797872D01*
X47583934Y-73768833D01*
X47455652Y-73777916D01*
X47335713Y-73824317D01*
X47234721Y-73903932D01*
X47198114Y-73956899D01*
X47161603Y-74009726D01*
X47122825Y-74132342D01*
X47121815Y-74260940D01*
X44230801Y-74260940D01*
X44265082Y-74241742D01*
X44353850Y-74148690D01*
X44386099Y-74084150D01*
X44411332Y-74033651D01*
X44432447Y-73906792D01*
X44432500Y-73899999D01*
X44413380Y-73772829D01*
X44411462Y-73768833D01*
X44383079Y-73709726D01*
X44371445Y-73685496D01*
X61476463Y-73685496D01*
X61513310Y-73808706D01*
X61584758Y-73915634D01*
X61684488Y-73996827D01*
X61803683Y-74045106D01*
X61931805Y-74056203D01*
X62057526Y-74029136D01*
X62169730Y-73966298D01*
X62258498Y-73873246D01*
X62263885Y-73862464D01*
X62315980Y-73758207D01*
X62337095Y-73631348D01*
X62337148Y-73624555D01*
X62318028Y-73497385D01*
X62308680Y-73477916D01*
X62287727Y-73434282D01*
X62262361Y-73381455D01*
X62175067Y-73287022D01*
X62175065Y-73287020D01*
X62063862Y-73222428D01*
X61938582Y-73193389D01*
X61810300Y-73202472D01*
X61690361Y-73248873D01*
X61589369Y-73328488D01*
X61552762Y-73381455D01*
X61516251Y-73434282D01*
X61477473Y-73556898D01*
X61476463Y-73685496D01*
X44371445Y-73685496D01*
X44357713Y-73656899D01*
X44270419Y-73562466D01*
X44270417Y-73562464D01*
X44159214Y-73497872D01*
X44033934Y-73468833D01*
X43905652Y-73477916D01*
X43785713Y-73524317D01*
X43684721Y-73603932D01*
X43648114Y-73656899D01*
X43611603Y-73709726D01*
X43572825Y-73832342D01*
X43571815Y-73960940D01*
X12127500Y-73960940D01*
X12127500Y-72903842D01*
X32545719Y-72903842D01*
X32582566Y-73027052D01*
X32654014Y-73133980D01*
X32753744Y-73215173D01*
X32872939Y-73263452D01*
X33001061Y-73274549D01*
X33126782Y-73247482D01*
X33238986Y-73184644D01*
X33327754Y-73091592D01*
X33385236Y-72976553D01*
X33397338Y-72903842D01*
X36145719Y-72903842D01*
X36182566Y-73027052D01*
X36254014Y-73133980D01*
X36353744Y-73215173D01*
X36472939Y-73263452D01*
X36601061Y-73274549D01*
X36726782Y-73247482D01*
X36838986Y-73184644D01*
X36927754Y-73091592D01*
X36985236Y-72976552D01*
X36985713Y-72973690D01*
X37006351Y-72849694D01*
X37006404Y-72842901D01*
X36997841Y-72785940D01*
X48045719Y-72785940D01*
X48082566Y-72909150D01*
X48154014Y-73016078D01*
X48253744Y-73097271D01*
X48372939Y-73145550D01*
X48501061Y-73156647D01*
X48626782Y-73129580D01*
X48738986Y-73066742D01*
X48827754Y-72973690D01*
X48872494Y-72884151D01*
X48885236Y-72858651D01*
X48899119Y-72775244D01*
X48901499Y-72760940D01*
X77662315Y-72760940D01*
X77699162Y-72884150D01*
X77770610Y-72991078D01*
X77870340Y-73072271D01*
X77989535Y-73120550D01*
X78117657Y-73131647D01*
X78243378Y-73104580D01*
X78355582Y-73041742D01*
X78444350Y-72948690D01*
X78501832Y-72833651D01*
X78522947Y-72706792D01*
X78523000Y-72699999D01*
X78503880Y-72572829D01*
X78448213Y-72456899D01*
X78360919Y-72362466D01*
X78360917Y-72362464D01*
X78249714Y-72297872D01*
X78124434Y-72268833D01*
X77996152Y-72277916D01*
X77876213Y-72324317D01*
X77775221Y-72403932D01*
X77738614Y-72456899D01*
X77702103Y-72509726D01*
X77663325Y-72632342D01*
X77662315Y-72760940D01*
X48901499Y-72760940D01*
X48906351Y-72731793D01*
X48906404Y-72725000D01*
X48905011Y-72715731D01*
X48892473Y-72632342D01*
X48887284Y-72597828D01*
X48856983Y-72534726D01*
X48831617Y-72481899D01*
X48744323Y-72387466D01*
X48744321Y-72387464D01*
X48633118Y-72322872D01*
X48507838Y-72293833D01*
X48379556Y-72302916D01*
X48259617Y-72349317D01*
X48158625Y-72428932D01*
X48085507Y-72534726D01*
X48046729Y-72657342D01*
X48045719Y-72785940D01*
X36997841Y-72785940D01*
X36988678Y-72725000D01*
X36987284Y-72715730D01*
X36947242Y-72632342D01*
X36931617Y-72599801D01*
X36844323Y-72505368D01*
X36844321Y-72505366D01*
X36733118Y-72440774D01*
X36607838Y-72411735D01*
X36479556Y-72420818D01*
X36359617Y-72467219D01*
X36258625Y-72546834D01*
X36185507Y-72652628D01*
X36146729Y-72775244D01*
X36145719Y-72903842D01*
X33397338Y-72903842D01*
X33406351Y-72849694D01*
X33406404Y-72842901D01*
X33388678Y-72725000D01*
X33387284Y-72715730D01*
X33347242Y-72632342D01*
X33331617Y-72599801D01*
X33244323Y-72505368D01*
X33244321Y-72505366D01*
X33133118Y-72440774D01*
X33007838Y-72411735D01*
X32879556Y-72420818D01*
X32759617Y-72467219D01*
X32658625Y-72546834D01*
X32585507Y-72652628D01*
X32546729Y-72775244D01*
X32545719Y-72903842D01*
X12127500Y-72903842D01*
X12127500Y-71710940D01*
X33571815Y-71710940D01*
X33608662Y-71834150D01*
X33680110Y-71941078D01*
X33779840Y-72022271D01*
X33899035Y-72070550D01*
X34027157Y-72081647D01*
X34152878Y-72054580D01*
X34265082Y-71991742D01*
X34353850Y-71898690D01*
X34411332Y-71783650D01*
X34432447Y-71656793D01*
X34432500Y-71650000D01*
X34431259Y-71641742D01*
X34413380Y-71522829D01*
X34357713Y-71406899D01*
X34315229Y-71360940D01*
X67971815Y-71360940D01*
X68008662Y-71484150D01*
X68080110Y-71591078D01*
X68179840Y-71672271D01*
X68299035Y-71720550D01*
X68427157Y-71731647D01*
X68552878Y-71704580D01*
X68665082Y-71641742D01*
X68753850Y-71548690D01*
X68811332Y-71433651D01*
X68824601Y-71353932D01*
X68832447Y-71306793D01*
X68832500Y-71300000D01*
X68826628Y-71260940D01*
X77171815Y-71260940D01*
X77208662Y-71384150D01*
X77280110Y-71491078D01*
X77379840Y-71572271D01*
X77499035Y-71620550D01*
X77627157Y-71631647D01*
X77752878Y-71604580D01*
X77865082Y-71541742D01*
X77953850Y-71448690D01*
X77974732Y-71406899D01*
X77985204Y-71385940D01*
X88295719Y-71385940D01*
X88332566Y-71509150D01*
X88404014Y-71616078D01*
X88503744Y-71697271D01*
X88622939Y-71745550D01*
X88751061Y-71756647D01*
X88876782Y-71729580D01*
X88988986Y-71666742D01*
X89077754Y-71573690D01*
X89135236Y-71458651D01*
X89147636Y-71384150D01*
X89156351Y-71331793D01*
X89156404Y-71325000D01*
X89153667Y-71306792D01*
X89138632Y-71206792D01*
X89137284Y-71197828D01*
X89106983Y-71134726D01*
X89081617Y-71081899D01*
X88994323Y-70987466D01*
X88994321Y-70987464D01*
X88883118Y-70922872D01*
X88757838Y-70893833D01*
X88629556Y-70902916D01*
X88509617Y-70949317D01*
X88408625Y-71028932D01*
X88337155Y-71132342D01*
X88335507Y-71134726D01*
X88296729Y-71257342D01*
X88295719Y-71385940D01*
X77985204Y-71385940D01*
X78011332Y-71333651D01*
X78024033Y-71257342D01*
X78032447Y-71206793D01*
X78032500Y-71200000D01*
X78032174Y-71197828D01*
X78022328Y-71132342D01*
X78013380Y-71072828D01*
X77983079Y-71009726D01*
X77957713Y-70956899D01*
X77870419Y-70862466D01*
X77870417Y-70862464D01*
X77759214Y-70797872D01*
X77633934Y-70768833D01*
X77505652Y-70777916D01*
X77385713Y-70824317D01*
X77284721Y-70903932D01*
X77244266Y-70962466D01*
X77211603Y-71009726D01*
X77172825Y-71132342D01*
X77171815Y-71260940D01*
X68826628Y-71260940D01*
X68826087Y-71257342D01*
X68820297Y-71218833D01*
X68813380Y-71172828D01*
X68769717Y-71081899D01*
X68757713Y-71056899D01*
X68670419Y-70962466D01*
X68670417Y-70962464D01*
X68559214Y-70897872D01*
X68433934Y-70868833D01*
X68305652Y-70877916D01*
X68185713Y-70924317D01*
X68084721Y-71003932D01*
X68080717Y-71009726D01*
X68011603Y-71109726D01*
X67972825Y-71232342D01*
X67971815Y-71360940D01*
X34315229Y-71360940D01*
X34270419Y-71312466D01*
X34270417Y-71312464D01*
X34159214Y-71247872D01*
X34033934Y-71218833D01*
X33905652Y-71227916D01*
X33785713Y-71274317D01*
X33684721Y-71353932D01*
X33619230Y-71448690D01*
X33611603Y-71459726D01*
X33572825Y-71582342D01*
X33571815Y-71710940D01*
X12127500Y-71710940D01*
X12127500Y-69910940D01*
X29971815Y-69910940D01*
X30008662Y-70034150D01*
X30080110Y-70141078D01*
X30179840Y-70222271D01*
X30299035Y-70270550D01*
X30427157Y-70281647D01*
X30552878Y-70254580D01*
X30665082Y-70191742D01*
X30753850Y-70098690D01*
X30766772Y-70072829D01*
X30811332Y-69983651D01*
X30823434Y-69910940D01*
X37045719Y-69910940D01*
X37082566Y-70034150D01*
X37154014Y-70141078D01*
X37253744Y-70222271D01*
X37372939Y-70270550D01*
X37501061Y-70281647D01*
X37626782Y-70254580D01*
X37738986Y-70191742D01*
X37827754Y-70098690D01*
X37840676Y-70072829D01*
X37885236Y-69983651D01*
X37897338Y-69910940D01*
X40471815Y-69910940D01*
X40508662Y-70034150D01*
X40580110Y-70141078D01*
X40679840Y-70222271D01*
X40799035Y-70270550D01*
X40927157Y-70281647D01*
X41052878Y-70254580D01*
X41165082Y-70191742D01*
X41253850Y-70098690D01*
X41266772Y-70072829D01*
X41311332Y-69983651D01*
X41323434Y-69910940D01*
X47971815Y-69910940D01*
X48008662Y-70034150D01*
X48080110Y-70141078D01*
X48179840Y-70222271D01*
X48299035Y-70270550D01*
X48427157Y-70281647D01*
X48552878Y-70254580D01*
X48665082Y-70191742D01*
X48753850Y-70098690D01*
X48766772Y-70072829D01*
X48811332Y-69983651D01*
X48823434Y-69910940D01*
X52071815Y-69910940D01*
X52108662Y-70034150D01*
X52180110Y-70141078D01*
X52279840Y-70222271D01*
X52399035Y-70270550D01*
X52527157Y-70281647D01*
X52623337Y-70260940D01*
X66121815Y-70260940D01*
X66158662Y-70384150D01*
X66230110Y-70491078D01*
X66329840Y-70572271D01*
X66449035Y-70620550D01*
X66577157Y-70631647D01*
X66702878Y-70604580D01*
X66815082Y-70541742D01*
X66903850Y-70448690D01*
X66961332Y-70333651D01*
X66969273Y-70285940D01*
X75495719Y-70285940D01*
X75532566Y-70409150D01*
X75604014Y-70516078D01*
X75703744Y-70597271D01*
X75822939Y-70645550D01*
X75951061Y-70656647D01*
X76076782Y-70629580D01*
X76188986Y-70566742D01*
X76277754Y-70473690D01*
X76335236Y-70358651D01*
X76347338Y-70285940D01*
X96068717Y-70285940D01*
X96105564Y-70409150D01*
X96177012Y-70516078D01*
X96276742Y-70597271D01*
X96395937Y-70645550D01*
X96524059Y-70656647D01*
X96649780Y-70629580D01*
X96761984Y-70566742D01*
X96850752Y-70473690D01*
X96908234Y-70358651D01*
X96922898Y-70270550D01*
X96929349Y-70231793D01*
X96929402Y-70225000D01*
X96926665Y-70206792D01*
X96918815Y-70154580D01*
X96910282Y-70097828D01*
X96879705Y-70034151D01*
X96854615Y-69981899D01*
X96767321Y-69887466D01*
X96767319Y-69887464D01*
X96656116Y-69822872D01*
X96530836Y-69793833D01*
X96402554Y-69802916D01*
X96282615Y-69849317D01*
X96181623Y-69928932D01*
X96108903Y-70034150D01*
X96108505Y-70034726D01*
X96069727Y-70157342D01*
X96068717Y-70285940D01*
X76347338Y-70285940D01*
X76349900Y-70270550D01*
X76356351Y-70231793D01*
X76356404Y-70225000D01*
X76353667Y-70206792D01*
X76345817Y-70154580D01*
X76337284Y-70097828D01*
X76306707Y-70034151D01*
X76281617Y-69981899D01*
X76194323Y-69887466D01*
X76194321Y-69887464D01*
X76083118Y-69822872D01*
X75957838Y-69793833D01*
X75829556Y-69802916D01*
X75709617Y-69849317D01*
X75608625Y-69928932D01*
X75535905Y-70034150D01*
X75535507Y-70034726D01*
X75496729Y-70157342D01*
X75495719Y-70285940D01*
X66969273Y-70285940D01*
X66982447Y-70206792D01*
X66982500Y-70199999D01*
X66963380Y-70072829D01*
X66907713Y-69956899D01*
X66820419Y-69862466D01*
X66820417Y-69862464D01*
X66709214Y-69797872D01*
X66583934Y-69768833D01*
X66455652Y-69777916D01*
X66335713Y-69824317D01*
X66234721Y-69903932D01*
X66169230Y-69998690D01*
X66161603Y-70009726D01*
X66122825Y-70132342D01*
X66121815Y-70260940D01*
X52623337Y-70260940D01*
X52652878Y-70254580D01*
X52765082Y-70191742D01*
X52853850Y-70098690D01*
X52866772Y-70072829D01*
X52911332Y-69983651D01*
X52924601Y-69903932D01*
X52932447Y-69856793D01*
X52932500Y-69850000D01*
X52926628Y-69810940D01*
X59571815Y-69810940D01*
X59608662Y-69934150D01*
X59680110Y-70041078D01*
X59779840Y-70122271D01*
X59899035Y-70170550D01*
X60027157Y-70181647D01*
X60152878Y-70154580D01*
X60265082Y-70091742D01*
X60353850Y-69998690D01*
X60386099Y-69934150D01*
X60411332Y-69883651D01*
X60424770Y-69802916D01*
X60432447Y-69756793D01*
X60432500Y-69750000D01*
X60413380Y-69622828D01*
X60383079Y-69559726D01*
X60357713Y-69506899D01*
X60270419Y-69412466D01*
X60270417Y-69412464D01*
X60159214Y-69347872D01*
X60033934Y-69318833D01*
X59905652Y-69327916D01*
X59785713Y-69374317D01*
X59684721Y-69453932D01*
X59644266Y-69512466D01*
X59611603Y-69559726D01*
X59572825Y-69682342D01*
X59571815Y-69810940D01*
X52926628Y-69810940D01*
X52913380Y-69722828D01*
X52883079Y-69659726D01*
X52857713Y-69606899D01*
X52770419Y-69512466D01*
X52770417Y-69512464D01*
X52659214Y-69447872D01*
X52533934Y-69418833D01*
X52405652Y-69427916D01*
X52285713Y-69474317D01*
X52184721Y-69553932D01*
X52180717Y-69559726D01*
X52111603Y-69659726D01*
X52072825Y-69782342D01*
X52071815Y-69910940D01*
X48823434Y-69910940D01*
X48824601Y-69903932D01*
X48832447Y-69856793D01*
X48832500Y-69850000D01*
X48813380Y-69722828D01*
X48783079Y-69659726D01*
X48757713Y-69606899D01*
X48670419Y-69512466D01*
X48670417Y-69512464D01*
X48559214Y-69447872D01*
X48433934Y-69418833D01*
X48305652Y-69427916D01*
X48185713Y-69474317D01*
X48084721Y-69553932D01*
X48080717Y-69559726D01*
X48011603Y-69659726D01*
X47972825Y-69782342D01*
X47971815Y-69910940D01*
X41323434Y-69910940D01*
X41324601Y-69903932D01*
X41332447Y-69856793D01*
X41332500Y-69850000D01*
X41313380Y-69722828D01*
X41283079Y-69659726D01*
X41257713Y-69606899D01*
X41170419Y-69512466D01*
X41170417Y-69512464D01*
X41059214Y-69447872D01*
X40933934Y-69418833D01*
X40805652Y-69427916D01*
X40685713Y-69474317D01*
X40584721Y-69553932D01*
X40580717Y-69559726D01*
X40511603Y-69659726D01*
X40472825Y-69782342D01*
X40471815Y-69910940D01*
X37897338Y-69910940D01*
X37898505Y-69903932D01*
X37906351Y-69856793D01*
X37906404Y-69850000D01*
X37887284Y-69722828D01*
X37856983Y-69659726D01*
X37831617Y-69606899D01*
X37744323Y-69512466D01*
X37744321Y-69512464D01*
X37633118Y-69447872D01*
X37507838Y-69418833D01*
X37379556Y-69427916D01*
X37259617Y-69474317D01*
X37158625Y-69553932D01*
X37154621Y-69559726D01*
X37085507Y-69659726D01*
X37046729Y-69782342D01*
X37045719Y-69910940D01*
X30823434Y-69910940D01*
X30824601Y-69903932D01*
X30832447Y-69856793D01*
X30832500Y-69850000D01*
X30813380Y-69722828D01*
X30783079Y-69659726D01*
X30757713Y-69606899D01*
X30670419Y-69512466D01*
X30670417Y-69512464D01*
X30559214Y-69447872D01*
X30433934Y-69418833D01*
X30305652Y-69427916D01*
X30185713Y-69474317D01*
X30084721Y-69553932D01*
X30080717Y-69559726D01*
X30011603Y-69659726D01*
X29972825Y-69782342D01*
X29971815Y-69910940D01*
X12127500Y-69910940D01*
X12127500Y-68785940D01*
X65014718Y-68785940D01*
X65051565Y-68909150D01*
X65123013Y-69016078D01*
X65222743Y-69097271D01*
X65341938Y-69145550D01*
X65470060Y-69156647D01*
X65595781Y-69129580D01*
X65707985Y-69066742D01*
X65796753Y-68973690D01*
X65854235Y-68858650D01*
X65866337Y-68785940D01*
X66095719Y-68785940D01*
X66132566Y-68909150D01*
X66204014Y-69016078D01*
X66303744Y-69097271D01*
X66422939Y-69145550D01*
X66551061Y-69156647D01*
X66676782Y-69129580D01*
X66788986Y-69066742D01*
X66877754Y-68973690D01*
X66935236Y-68858650D01*
X66956351Y-68731793D01*
X66956404Y-68725000D01*
X66937284Y-68597828D01*
X66906983Y-68534726D01*
X66881617Y-68481899D01*
X66794323Y-68387466D01*
X66794321Y-68387464D01*
X66683118Y-68322872D01*
X66557838Y-68293833D01*
X66429556Y-68302916D01*
X66309617Y-68349317D01*
X66208625Y-68428932D01*
X66172018Y-68481899D01*
X66135507Y-68534726D01*
X66096729Y-68657342D01*
X66095719Y-68785940D01*
X65866337Y-68785940D01*
X65875350Y-68731793D01*
X65875403Y-68725000D01*
X65856283Y-68597828D01*
X65825982Y-68534726D01*
X65800616Y-68481899D01*
X65713322Y-68387466D01*
X65713320Y-68387464D01*
X65602117Y-68322872D01*
X65476837Y-68293833D01*
X65348555Y-68302916D01*
X65228616Y-68349317D01*
X65127624Y-68428932D01*
X65091017Y-68481899D01*
X65054506Y-68534726D01*
X65015728Y-68657342D01*
X65014718Y-68785940D01*
X12127500Y-68785940D01*
X12127500Y-66760940D01*
X98571815Y-66760940D01*
X98608662Y-66884150D01*
X98680110Y-66991078D01*
X98779840Y-67072271D01*
X98899035Y-67120550D01*
X99027157Y-67131647D01*
X99152878Y-67104580D01*
X99265082Y-67041742D01*
X99353850Y-66948690D01*
X99411332Y-66833651D01*
X99420852Y-66776450D01*
X109687325Y-66776450D01*
X109724172Y-66899660D01*
X109795620Y-67006588D01*
X109895350Y-67087781D01*
X110014545Y-67136060D01*
X110142667Y-67147157D01*
X110268388Y-67120090D01*
X110380592Y-67057252D01*
X110469360Y-66964200D01*
X110526842Y-66849160D01*
X110529424Y-66833651D01*
X110547957Y-66722302D01*
X110548010Y-66715509D01*
X110528890Y-66588339D01*
X110521443Y-66572829D01*
X110498589Y-66525236D01*
X110473223Y-66472409D01*
X110385929Y-66377976D01*
X110385927Y-66377974D01*
X110274724Y-66313382D01*
X110149444Y-66284343D01*
X110021162Y-66293426D01*
X109901223Y-66339827D01*
X109800231Y-66419442D01*
X109737833Y-66509726D01*
X109727113Y-66525236D01*
X109688335Y-66647852D01*
X109687325Y-66776450D01*
X99420852Y-66776450D01*
X99429865Y-66722303D01*
X99432447Y-66706793D01*
X99432500Y-66700000D01*
X99413380Y-66572828D01*
X99383079Y-66509726D01*
X99357713Y-66456899D01*
X99270419Y-66362466D01*
X99270417Y-66362464D01*
X99159214Y-66297872D01*
X99033934Y-66268833D01*
X98905652Y-66277916D01*
X98785713Y-66324317D01*
X98684721Y-66403932D01*
X98629279Y-66484151D01*
X98611603Y-66509726D01*
X98572825Y-66632342D01*
X98571815Y-66760940D01*
X12127500Y-66760940D01*
X12127500Y-66360940D01*
X39371815Y-66360940D01*
X39408662Y-66484150D01*
X39480110Y-66591078D01*
X39579840Y-66672271D01*
X39699035Y-66720550D01*
X39827157Y-66731647D01*
X39952878Y-66704580D01*
X40065082Y-66641742D01*
X40153850Y-66548690D01*
X40211332Y-66433651D01*
X40232447Y-66306792D01*
X40232500Y-66299999D01*
X40213380Y-66172829D01*
X40157713Y-66056899D01*
X40070419Y-65962466D01*
X40070417Y-65962464D01*
X40067792Y-65960939D01*
X57845718Y-65960939D01*
X57882565Y-66084149D01*
X57954013Y-66191077D01*
X58053743Y-66272270D01*
X58172938Y-66320549D01*
X58301060Y-66331646D01*
X58426781Y-66304579D01*
X58538985Y-66241741D01*
X58627753Y-66148689D01*
X58685235Y-66033649D01*
X58706350Y-65906792D01*
X58706403Y-65899999D01*
X58687283Y-65772827D01*
X58656982Y-65709725D01*
X58631616Y-65656898D01*
X58544322Y-65562465D01*
X58544320Y-65562463D01*
X58433117Y-65497871D01*
X58307837Y-65468832D01*
X58179555Y-65477915D01*
X58059616Y-65524316D01*
X57958624Y-65603931D01*
X57922017Y-65656898D01*
X57885506Y-65709725D01*
X57846728Y-65832341D01*
X57845718Y-65960939D01*
X40067792Y-65960939D01*
X39959214Y-65897872D01*
X39833934Y-65868833D01*
X39705652Y-65877916D01*
X39585713Y-65924317D01*
X39484721Y-66003932D01*
X39411603Y-66109726D01*
X39372825Y-66232342D01*
X39371815Y-66360940D01*
X12127500Y-66360940D01*
X12127500Y-65103842D01*
X32630218Y-65103842D01*
X32667065Y-65227052D01*
X32738513Y-65333980D01*
X32838243Y-65415173D01*
X32957438Y-65463452D01*
X33085560Y-65474549D01*
X33211281Y-65447482D01*
X33323485Y-65384644D01*
X33412253Y-65291592D01*
X33469735Y-65176553D01*
X33481837Y-65103842D01*
X36230218Y-65103842D01*
X36267065Y-65227052D01*
X36338513Y-65333980D01*
X36438243Y-65415173D01*
X36557438Y-65463452D01*
X36685560Y-65474549D01*
X36811281Y-65447482D01*
X36923485Y-65384644D01*
X37012253Y-65291592D01*
X37069735Y-65176553D01*
X37090850Y-65049694D01*
X37090903Y-65042901D01*
X37071783Y-64915731D01*
X37016116Y-64799801D01*
X36928822Y-64705368D01*
X36928820Y-64705366D01*
X36817617Y-64640774D01*
X36692337Y-64611735D01*
X36564055Y-64620818D01*
X36444116Y-64667219D01*
X36343124Y-64746834D01*
X36306517Y-64799801D01*
X36270006Y-64852628D01*
X36231228Y-64975244D01*
X36230218Y-65103842D01*
X33481837Y-65103842D01*
X33490850Y-65049694D01*
X33490903Y-65042901D01*
X33471783Y-64915731D01*
X33416116Y-64799801D01*
X33328822Y-64705368D01*
X33328820Y-64705366D01*
X33217617Y-64640774D01*
X33092337Y-64611735D01*
X32964055Y-64620818D01*
X32844116Y-64667219D01*
X32743124Y-64746834D01*
X32706517Y-64799801D01*
X32670006Y-64852628D01*
X32631228Y-64975244D01*
X32630218Y-65103842D01*
X12127500Y-65103842D01*
X12127500Y-63960940D01*
X58545719Y-63960940D01*
X58582566Y-64084150D01*
X58654014Y-64191078D01*
X58753744Y-64272271D01*
X58872939Y-64320550D01*
X59001061Y-64331647D01*
X59126782Y-64304580D01*
X59238986Y-64241742D01*
X59327754Y-64148690D01*
X59385236Y-64033651D01*
X59401797Y-63934151D01*
X59405660Y-63910940D01*
X78071815Y-63910940D01*
X78108662Y-64034150D01*
X78180110Y-64141078D01*
X78279840Y-64222271D01*
X78399035Y-64270550D01*
X78527157Y-64281647D01*
X78652878Y-64254580D01*
X78765082Y-64191742D01*
X78853850Y-64098690D01*
X78911332Y-63983650D01*
X78932447Y-63856793D01*
X78932500Y-63850000D01*
X78926628Y-63810940D01*
X85571815Y-63810940D01*
X85608662Y-63934150D01*
X85680110Y-64041078D01*
X85779840Y-64122271D01*
X85899035Y-64170550D01*
X86027157Y-64181647D01*
X86152878Y-64154580D01*
X86265082Y-64091742D01*
X86353850Y-63998690D01*
X86397697Y-63910938D01*
X86411332Y-63883651D01*
X86423434Y-63810940D01*
X92471815Y-63810940D01*
X92508662Y-63934150D01*
X92580110Y-64041078D01*
X92679840Y-64122271D01*
X92799035Y-64170550D01*
X92927157Y-64181647D01*
X93052878Y-64154580D01*
X93165082Y-64091742D01*
X93253850Y-63998690D01*
X93311332Y-63883651D01*
X93332447Y-63756792D01*
X93332500Y-63749999D01*
X93322328Y-63682342D01*
X93313380Y-63622828D01*
X93283079Y-63559726D01*
X93257713Y-63506899D01*
X93170419Y-63412466D01*
X93170417Y-63412464D01*
X93059214Y-63347872D01*
X92933934Y-63318833D01*
X92805652Y-63327916D01*
X92685713Y-63374317D01*
X92584721Y-63453932D01*
X92515607Y-63553932D01*
X92511603Y-63559726D01*
X92472825Y-63682342D01*
X92471815Y-63810940D01*
X86423434Y-63810940D01*
X86432447Y-63756792D01*
X86432500Y-63749999D01*
X86422328Y-63682342D01*
X86413380Y-63622828D01*
X86383079Y-63559726D01*
X86357713Y-63506899D01*
X86270419Y-63412466D01*
X86270417Y-63412464D01*
X86159214Y-63347872D01*
X86033934Y-63318833D01*
X85905652Y-63327916D01*
X85785713Y-63374317D01*
X85684721Y-63453932D01*
X85615607Y-63553932D01*
X85611603Y-63559726D01*
X85572825Y-63682342D01*
X85571815Y-63810940D01*
X78926628Y-63810940D01*
X78913380Y-63722828D01*
X78881722Y-63656899D01*
X78857713Y-63606899D01*
X78770419Y-63512466D01*
X78770417Y-63512464D01*
X78659214Y-63447872D01*
X78533934Y-63418833D01*
X78405652Y-63427916D01*
X78285713Y-63474317D01*
X78184721Y-63553932D01*
X78150164Y-63603933D01*
X78111603Y-63659726D01*
X78072825Y-63782342D01*
X78071815Y-63910940D01*
X59405660Y-63910940D01*
X59406351Y-63906793D01*
X59406404Y-63900000D01*
X59398887Y-63849999D01*
X59387284Y-63772829D01*
X59379584Y-63756792D01*
X59363275Y-63722829D01*
X59331617Y-63656899D01*
X59244323Y-63562466D01*
X59244321Y-63562464D01*
X59133118Y-63497872D01*
X59007838Y-63468833D01*
X58879556Y-63477916D01*
X58759617Y-63524317D01*
X58658625Y-63603932D01*
X58645565Y-63622829D01*
X58585507Y-63709726D01*
X58546729Y-63832342D01*
X58545719Y-63960940D01*
X12127500Y-63960940D01*
X12127500Y-62410940D01*
X67071815Y-62410940D01*
X67108662Y-62534150D01*
X67180110Y-62641078D01*
X67279840Y-62722271D01*
X67399035Y-62770550D01*
X67527157Y-62781647D01*
X67652878Y-62754580D01*
X67765082Y-62691742D01*
X67853850Y-62598690D01*
X67911332Y-62483651D01*
X67932447Y-62356792D01*
X67932500Y-62349999D01*
X67913380Y-62222829D01*
X67857713Y-62106899D01*
X67770419Y-62012466D01*
X67770417Y-62012464D01*
X67659214Y-61947872D01*
X67533934Y-61918833D01*
X67405652Y-61927916D01*
X67285713Y-61974317D01*
X67184721Y-62053932D01*
X67148114Y-62106899D01*
X67111603Y-62159726D01*
X67072825Y-62282342D01*
X67071815Y-62410940D01*
X12127500Y-62410940D01*
X12127500Y-61603842D01*
X32630218Y-61603842D01*
X32667065Y-61727052D01*
X32738513Y-61833980D01*
X32838243Y-61915173D01*
X32957438Y-61963452D01*
X33085560Y-61974549D01*
X33211281Y-61947482D01*
X33323485Y-61884644D01*
X33412253Y-61791592D01*
X33469735Y-61676552D01*
X33481837Y-61603842D01*
X36230218Y-61603842D01*
X36267065Y-61727052D01*
X36338513Y-61833980D01*
X36438243Y-61915173D01*
X36557438Y-61963452D01*
X36685560Y-61974549D01*
X36811281Y-61947482D01*
X36923485Y-61884644D01*
X37012253Y-61791592D01*
X37069735Y-61676552D01*
X37088978Y-61560940D01*
X49945719Y-61560940D01*
X49982566Y-61684150D01*
X50054014Y-61791078D01*
X50153744Y-61872271D01*
X50272939Y-61920550D01*
X50401061Y-61931647D01*
X50526782Y-61904580D01*
X50638986Y-61841742D01*
X50727754Y-61748690D01*
X50785236Y-61633651D01*
X50797338Y-61560940D01*
X52045719Y-61560940D01*
X52082566Y-61684150D01*
X52154014Y-61791078D01*
X52253744Y-61872271D01*
X52372939Y-61920550D01*
X52501061Y-61931647D01*
X52626782Y-61904580D01*
X52738986Y-61841742D01*
X52827754Y-61748690D01*
X52885236Y-61633651D01*
X52906351Y-61506792D01*
X52906404Y-61499999D01*
X52887284Y-61372829D01*
X52831617Y-61256899D01*
X52744323Y-61162466D01*
X52744321Y-61162464D01*
X52633118Y-61097872D01*
X52507838Y-61068833D01*
X52379556Y-61077916D01*
X52259617Y-61124317D01*
X52158625Y-61203932D01*
X52122018Y-61256899D01*
X52085507Y-61309726D01*
X52046729Y-61432342D01*
X52045719Y-61560940D01*
X50797338Y-61560940D01*
X50806351Y-61506792D01*
X50806404Y-61499999D01*
X50787284Y-61372829D01*
X50731617Y-61256899D01*
X50644323Y-61162466D01*
X50644321Y-61162464D01*
X50533118Y-61097872D01*
X50407838Y-61068833D01*
X50279556Y-61077916D01*
X50159617Y-61124317D01*
X50058625Y-61203932D01*
X50022018Y-61256899D01*
X49985507Y-61309726D01*
X49946729Y-61432342D01*
X49945719Y-61560940D01*
X37088978Y-61560940D01*
X37090850Y-61549695D01*
X37090903Y-61542902D01*
X37071783Y-61415730D01*
X37041482Y-61352628D01*
X37016116Y-61299801D01*
X36928822Y-61205368D01*
X36928820Y-61205366D01*
X36817617Y-61140774D01*
X36692337Y-61111735D01*
X36564055Y-61120818D01*
X36444116Y-61167219D01*
X36343124Y-61246834D01*
X36336168Y-61256899D01*
X36270006Y-61352628D01*
X36231228Y-61475244D01*
X36230218Y-61603842D01*
X33481837Y-61603842D01*
X33490850Y-61549695D01*
X33490903Y-61542902D01*
X33471783Y-61415730D01*
X33441482Y-61352628D01*
X33416116Y-61299801D01*
X33328822Y-61205368D01*
X33328820Y-61205366D01*
X33217617Y-61140774D01*
X33092337Y-61111735D01*
X32964055Y-61120818D01*
X32844116Y-61167219D01*
X32743124Y-61246834D01*
X32736168Y-61256899D01*
X32670006Y-61352628D01*
X32631228Y-61475244D01*
X32630218Y-61603842D01*
X12127500Y-61603842D01*
X12127500Y-60760940D01*
X54645719Y-60760940D01*
X54682566Y-60884150D01*
X54754014Y-60991078D01*
X54853744Y-61072271D01*
X54972939Y-61120550D01*
X55101061Y-61131647D01*
X55226782Y-61104580D01*
X55338986Y-61041742D01*
X55427754Y-60948690D01*
X55485236Y-60833650D01*
X55506351Y-60706793D01*
X55506404Y-60700000D01*
X55487284Y-60572828D01*
X55456983Y-60509726D01*
X55431617Y-60456899D01*
X55344323Y-60362466D01*
X55344321Y-60362464D01*
X55233118Y-60297872D01*
X55107838Y-60268833D01*
X54979556Y-60277916D01*
X54859617Y-60324317D01*
X54758625Y-60403932D01*
X54703183Y-60484151D01*
X54685507Y-60509726D01*
X54646729Y-60632342D01*
X54645719Y-60760940D01*
X12127500Y-60760940D01*
X12127500Y-60360940D01*
X45445719Y-60360940D01*
X45482566Y-60484150D01*
X45554014Y-60591078D01*
X45653744Y-60672271D01*
X45772939Y-60720550D01*
X45901061Y-60731647D01*
X46026782Y-60704580D01*
X46138986Y-60641742D01*
X46227754Y-60548690D01*
X46260003Y-60484150D01*
X46285236Y-60433651D01*
X46306351Y-60306792D01*
X46306404Y-60299999D01*
X46287284Y-60172829D01*
X46231617Y-60056899D01*
X46144323Y-59962466D01*
X46144321Y-59962464D01*
X46033118Y-59897872D01*
X45907838Y-59868833D01*
X45779556Y-59877916D01*
X45659617Y-59924317D01*
X45558625Y-60003932D01*
X45522018Y-60056899D01*
X45485507Y-60109726D01*
X45446729Y-60232342D01*
X45445719Y-60360940D01*
X12127500Y-60360940D01*
X12127500Y-59510940D01*
X48971815Y-59510940D01*
X49008662Y-59634150D01*
X49080110Y-59741078D01*
X49179840Y-59822271D01*
X49299035Y-59870550D01*
X49427157Y-59881647D01*
X49552878Y-59854580D01*
X49665082Y-59791742D01*
X49753850Y-59698690D01*
X49811332Y-59583651D01*
X49815112Y-59560940D01*
X52921815Y-59560940D01*
X52958662Y-59684150D01*
X53030110Y-59791078D01*
X53129840Y-59872271D01*
X53249035Y-59920550D01*
X53377157Y-59931647D01*
X53502878Y-59904580D01*
X53615082Y-59841742D01*
X53703850Y-59748690D01*
X53707322Y-59741742D01*
X53761332Y-59633651D01*
X53773435Y-59560938D01*
X53782447Y-59506793D01*
X53782500Y-59500000D01*
X53776628Y-59460940D01*
X60521815Y-59460940D01*
X60558662Y-59584150D01*
X60630110Y-59691078D01*
X60729840Y-59772271D01*
X60849035Y-59820550D01*
X60977157Y-59831647D01*
X61102878Y-59804580D01*
X61215082Y-59741742D01*
X61303850Y-59648690D01*
X61361332Y-59533651D01*
X61382447Y-59406792D01*
X61382500Y-59399999D01*
X61372328Y-59332342D01*
X61363380Y-59272828D01*
X61331722Y-59206899D01*
X61307713Y-59156899D01*
X61220419Y-59062466D01*
X61220417Y-59062464D01*
X61109214Y-58997872D01*
X60983934Y-58968833D01*
X60855652Y-58977916D01*
X60735713Y-59024317D01*
X60634721Y-59103932D01*
X60594266Y-59162466D01*
X60561603Y-59209726D01*
X60522825Y-59332342D01*
X60521815Y-59460940D01*
X53776628Y-59460940D01*
X53774983Y-59449999D01*
X53772328Y-59432342D01*
X53763380Y-59372828D01*
X53739371Y-59322829D01*
X53707713Y-59256899D01*
X53620419Y-59162466D01*
X53620417Y-59162464D01*
X53509214Y-59097872D01*
X53383934Y-59068833D01*
X53255652Y-59077916D01*
X53135713Y-59124317D01*
X53034721Y-59203932D01*
X53030717Y-59209726D01*
X52961603Y-59309726D01*
X52922825Y-59432342D01*
X52921815Y-59560940D01*
X49815112Y-59560940D01*
X49832447Y-59456792D01*
X49832500Y-59449999D01*
X49822328Y-59382342D01*
X49813380Y-59322828D01*
X49789371Y-59272829D01*
X49757713Y-59206899D01*
X49670419Y-59112466D01*
X49670417Y-59112464D01*
X49559214Y-59047872D01*
X49433934Y-59018833D01*
X49305652Y-59027916D01*
X49185713Y-59074317D01*
X49084721Y-59153932D01*
X49050164Y-59203933D01*
X49011603Y-59259726D01*
X48972825Y-59382342D01*
X48971815Y-59510940D01*
X12127500Y-59510940D01*
X12127500Y-58610940D01*
X30071815Y-58610940D01*
X30108662Y-58734150D01*
X30180110Y-58841078D01*
X30279840Y-58922271D01*
X30399035Y-58970550D01*
X30527157Y-58981647D01*
X30652878Y-58954580D01*
X30765082Y-58891742D01*
X30853850Y-58798690D01*
X30911332Y-58683651D01*
X30923434Y-58610940D01*
X33621815Y-58610940D01*
X33658662Y-58734150D01*
X33730110Y-58841078D01*
X33829840Y-58922271D01*
X33949035Y-58970550D01*
X34077157Y-58981647D01*
X34202878Y-58954580D01*
X34315082Y-58891742D01*
X34403850Y-58798690D01*
X34461332Y-58683651D01*
X34477893Y-58584151D01*
X34481756Y-58560940D01*
X37071815Y-58560940D01*
X37108662Y-58684150D01*
X37180110Y-58791078D01*
X37279840Y-58872271D01*
X37399035Y-58920550D01*
X37527157Y-58931647D01*
X37652878Y-58904580D01*
X37765082Y-58841742D01*
X37853850Y-58748690D01*
X37911332Y-58633651D01*
X37923433Y-58560940D01*
X40621815Y-58560940D01*
X40658662Y-58684150D01*
X40730110Y-58791078D01*
X40829840Y-58872271D01*
X40949035Y-58920550D01*
X41077157Y-58931647D01*
X41202878Y-58904580D01*
X41315082Y-58841742D01*
X41403850Y-58748690D01*
X41461332Y-58633651D01*
X41475255Y-58549999D01*
X41482447Y-58506793D01*
X41482500Y-58500000D01*
X41476628Y-58460940D01*
X46971815Y-58460940D01*
X47008662Y-58584150D01*
X47080110Y-58691078D01*
X47179840Y-58772271D01*
X47299035Y-58820550D01*
X47427157Y-58831647D01*
X47552878Y-58804580D01*
X47665082Y-58741742D01*
X47753850Y-58648690D01*
X47811332Y-58533651D01*
X47832447Y-58406792D01*
X47832500Y-58399999D01*
X47822328Y-58332342D01*
X47813380Y-58272828D01*
X47783079Y-58209726D01*
X47757713Y-58156899D01*
X47670419Y-58062466D01*
X47670417Y-58062464D01*
X47559214Y-57997872D01*
X47433934Y-57968833D01*
X47305652Y-57977916D01*
X47185713Y-58024317D01*
X47084721Y-58103932D01*
X47015607Y-58203932D01*
X47011603Y-58209726D01*
X46972825Y-58332342D01*
X46971815Y-58460940D01*
X41476628Y-58460940D01*
X41463380Y-58372828D01*
X41431722Y-58306899D01*
X41407713Y-58256899D01*
X41320419Y-58162466D01*
X41320417Y-58162464D01*
X41209214Y-58097872D01*
X41083934Y-58068833D01*
X40955652Y-58077916D01*
X40835713Y-58124317D01*
X40734721Y-58203932D01*
X40700164Y-58253933D01*
X40661603Y-58309726D01*
X40622825Y-58432342D01*
X40621815Y-58560940D01*
X37923433Y-58560940D01*
X37925255Y-58549999D01*
X37932447Y-58506793D01*
X37932500Y-58500000D01*
X37913380Y-58372828D01*
X37881722Y-58306899D01*
X37857713Y-58256899D01*
X37770419Y-58162466D01*
X37770417Y-58162464D01*
X37659214Y-58097872D01*
X37533934Y-58068833D01*
X37405652Y-58077916D01*
X37285713Y-58124317D01*
X37184721Y-58203932D01*
X37150164Y-58253933D01*
X37111603Y-58309726D01*
X37072825Y-58432342D01*
X37071815Y-58560940D01*
X34481756Y-58560940D01*
X34482447Y-58556793D01*
X34482500Y-58550000D01*
X34474983Y-58499999D01*
X34463380Y-58422829D01*
X34455680Y-58406792D01*
X34439371Y-58372829D01*
X34407713Y-58306899D01*
X34320419Y-58212466D01*
X34320417Y-58212464D01*
X34209214Y-58147872D01*
X34083934Y-58118833D01*
X33955652Y-58127916D01*
X33835713Y-58174317D01*
X33734721Y-58253932D01*
X33721661Y-58272829D01*
X33661603Y-58359726D01*
X33622825Y-58482342D01*
X33621815Y-58610940D01*
X30923434Y-58610940D01*
X30927893Y-58584151D01*
X30932447Y-58556793D01*
X30932500Y-58550000D01*
X30924983Y-58499999D01*
X30913380Y-58422829D01*
X30905680Y-58406792D01*
X30889371Y-58372829D01*
X30857713Y-58306899D01*
X30770419Y-58212466D01*
X30770417Y-58212464D01*
X30659214Y-58147872D01*
X30533934Y-58118833D01*
X30405652Y-58127916D01*
X30285713Y-58174317D01*
X30184721Y-58253932D01*
X30171661Y-58272829D01*
X30111603Y-58359726D01*
X30072825Y-58482342D01*
X30071815Y-58610940D01*
X12127500Y-58610940D01*
X12127500Y-57460940D01*
X78771815Y-57460940D01*
X78808662Y-57584150D01*
X78880110Y-57691078D01*
X78979840Y-57772271D01*
X79099035Y-57820550D01*
X79227157Y-57831647D01*
X79352878Y-57804580D01*
X79465082Y-57741742D01*
X79553850Y-57648690D01*
X79611332Y-57533651D01*
X79632447Y-57406792D01*
X79632500Y-57399999D01*
X79613380Y-57272829D01*
X79557713Y-57156899D01*
X79470419Y-57062466D01*
X79470417Y-57062464D01*
X79359214Y-56997872D01*
X79233934Y-56968833D01*
X79105652Y-56977916D01*
X78985713Y-57024317D01*
X78884721Y-57103932D01*
X78848114Y-57156899D01*
X78811603Y-57209726D01*
X78772825Y-57332342D01*
X78771815Y-57460940D01*
X12127500Y-57460940D01*
X12127500Y-53285940D01*
X34202817Y-53285940D01*
X34239664Y-53409150D01*
X34311112Y-53516078D01*
X34410842Y-53597271D01*
X34530037Y-53645550D01*
X34658159Y-53656647D01*
X34783880Y-53629580D01*
X34896084Y-53566742D01*
X34984852Y-53473690D01*
X35042334Y-53358651D01*
X35054437Y-53285938D01*
X35063449Y-53231793D01*
X35063502Y-53225000D01*
X35044382Y-53097828D01*
X35013565Y-53033651D01*
X34988715Y-52981899D01*
X34901421Y-52887466D01*
X34901419Y-52887464D01*
X34790216Y-52822872D01*
X34664936Y-52793833D01*
X34536654Y-52802916D01*
X34416715Y-52849317D01*
X34315723Y-52928932D01*
X34285771Y-52972270D01*
X34242605Y-53034726D01*
X34203827Y-53157342D01*
X34202817Y-53285940D01*
X12127500Y-53285940D01*
X12127500Y-52660940D01*
X44627817Y-52660940D01*
X44664664Y-52784150D01*
X44736112Y-52891078D01*
X44835842Y-52972271D01*
X44955037Y-53020550D01*
X45083159Y-53031647D01*
X45208880Y-53004580D01*
X45286803Y-52960940D01*
X78771815Y-52960940D01*
X78808662Y-53084150D01*
X78880110Y-53191078D01*
X78979840Y-53272271D01*
X79099035Y-53320550D01*
X79227157Y-53331647D01*
X79352878Y-53304580D01*
X79465082Y-53241742D01*
X79553850Y-53148690D01*
X79611332Y-53033651D01*
X79632447Y-52906792D01*
X79632500Y-52899999D01*
X79613380Y-52772829D01*
X79611325Y-52768548D01*
X79583079Y-52709726D01*
X79557713Y-52656899D01*
X79470419Y-52562466D01*
X79470417Y-52562464D01*
X79359214Y-52497872D01*
X79233934Y-52468833D01*
X79105652Y-52477916D01*
X78985713Y-52524317D01*
X78884721Y-52603932D01*
X78860432Y-52639076D01*
X78811603Y-52709726D01*
X78772825Y-52832342D01*
X78771815Y-52960940D01*
X45286803Y-52960940D01*
X45321084Y-52941742D01*
X45409852Y-52848690D01*
X45419401Y-52829580D01*
X45467334Y-52733651D01*
X45483076Y-52639076D01*
X45488449Y-52606793D01*
X45488502Y-52600000D01*
X45471354Y-52485940D01*
X50102817Y-52485940D01*
X50139664Y-52609150D01*
X50211112Y-52716078D01*
X50310842Y-52797271D01*
X50430037Y-52845550D01*
X50558159Y-52856647D01*
X50683880Y-52829580D01*
X50796084Y-52766742D01*
X50884852Y-52673690D01*
X50917101Y-52609150D01*
X50942334Y-52558651D01*
X50963449Y-52431792D01*
X50963502Y-52424999D01*
X50961088Y-52408938D01*
X54902817Y-52408938D01*
X54939664Y-52532148D01*
X55011112Y-52639076D01*
X55110842Y-52720269D01*
X55230037Y-52768548D01*
X55358159Y-52779645D01*
X55483880Y-52752578D01*
X55596084Y-52689740D01*
X55684852Y-52596688D01*
X55742334Y-52481649D01*
X55763449Y-52354790D01*
X55763502Y-52347997D01*
X55744382Y-52220827D01*
X55688715Y-52104897D01*
X55618322Y-52028747D01*
X55601765Y-51983868D01*
X55621792Y-51940427D01*
X55687681Y-51928394D01*
X55730036Y-51945550D01*
X55858159Y-51956647D01*
X55983880Y-51929580D01*
X56096084Y-51866742D01*
X56184852Y-51773690D01*
X56209181Y-51725000D01*
X56242334Y-51658651D01*
X56263449Y-51531792D01*
X56263502Y-51524999D01*
X56253330Y-51457342D01*
X56244382Y-51397828D01*
X56226323Y-51360220D01*
X56188715Y-51281899D01*
X56101421Y-51187466D01*
X56101419Y-51187464D01*
X55990216Y-51122872D01*
X55864936Y-51093833D01*
X55736654Y-51102916D01*
X55616715Y-51149317D01*
X55515723Y-51228932D01*
X55477905Y-51283651D01*
X55442605Y-51334726D01*
X55403827Y-51457342D01*
X55402817Y-51585940D01*
X55439664Y-51709150D01*
X55511112Y-51816078D01*
X55533202Y-51834062D01*
X55555917Y-51876160D01*
X55542210Y-51921990D01*
X55479629Y-51943416D01*
X55364936Y-51916831D01*
X55236654Y-51925914D01*
X55116715Y-51972315D01*
X55015723Y-52051930D01*
X54951019Y-52145550D01*
X54942605Y-52157724D01*
X54903827Y-52280340D01*
X54902817Y-52408938D01*
X50961088Y-52408938D01*
X50944382Y-52297829D01*
X50927402Y-52262466D01*
X50907407Y-52220827D01*
X50888715Y-52181899D01*
X50801421Y-52087466D01*
X50801419Y-52087464D01*
X50690216Y-52022872D01*
X50564936Y-51993833D01*
X50436654Y-52002916D01*
X50316715Y-52049317D01*
X50215723Y-52128932D01*
X50179116Y-52181899D01*
X50142605Y-52234726D01*
X50103827Y-52357342D01*
X50102817Y-52485940D01*
X45471354Y-52485940D01*
X45469382Y-52472828D01*
X45449677Y-52431792D01*
X45413715Y-52356899D01*
X45326421Y-52262466D01*
X45326419Y-52262464D01*
X45215216Y-52197872D01*
X45089936Y-52168833D01*
X44961654Y-52177916D01*
X44841715Y-52224317D01*
X44740723Y-52303932D01*
X44668151Y-52408936D01*
X44667605Y-52409726D01*
X44628827Y-52532342D01*
X44627817Y-52660940D01*
X12127500Y-52660940D01*
X12127500Y-51785940D01*
X51202817Y-51785940D01*
X51239664Y-51909150D01*
X51311112Y-52016078D01*
X51410842Y-52097271D01*
X51530037Y-52145550D01*
X51658159Y-52156647D01*
X51783880Y-52129580D01*
X51896084Y-52066742D01*
X51984852Y-51973690D01*
X52001473Y-51940427D01*
X52042334Y-51858651D01*
X52063449Y-51731792D01*
X52063502Y-51724999D01*
X52044382Y-51597829D01*
X52038673Y-51585938D01*
X52012673Y-51531793D01*
X51988715Y-51481899D01*
X51901421Y-51387466D01*
X51901419Y-51387464D01*
X51790216Y-51322872D01*
X51664936Y-51293833D01*
X51536654Y-51302916D01*
X51416715Y-51349317D01*
X51315723Y-51428932D01*
X51296088Y-51457342D01*
X51242605Y-51534726D01*
X51203827Y-51657342D01*
X51202817Y-51785940D01*
X12127500Y-51785940D01*
X12127500Y-51210940D01*
X47171815Y-51210940D01*
X47208662Y-51334150D01*
X47280110Y-51441078D01*
X47379840Y-51522271D01*
X47499035Y-51570550D01*
X47627157Y-51581647D01*
X47752878Y-51554580D01*
X47865082Y-51491742D01*
X47953850Y-51398690D01*
X47991734Y-51322872D01*
X48011332Y-51283651D01*
X48023435Y-51210938D01*
X48032447Y-51156793D01*
X48032500Y-51150000D01*
X48013380Y-51022828D01*
X47995321Y-50985220D01*
X47957713Y-50906899D01*
X47938339Y-50885940D01*
X49302817Y-50885940D01*
X49339664Y-51009150D01*
X49411112Y-51116078D01*
X49510842Y-51197271D01*
X49630037Y-51245550D01*
X49758159Y-51256647D01*
X49883880Y-51229580D01*
X49996084Y-51166742D01*
X50084852Y-51073690D01*
X50134819Y-50973690D01*
X50142334Y-50958651D01*
X50157632Y-50866742D01*
X50163449Y-50831793D01*
X50163502Y-50825000D01*
X50144382Y-50697828D01*
X50114081Y-50634726D01*
X50090656Y-50585940D01*
X51802817Y-50585940D01*
X51839664Y-50709150D01*
X51911112Y-50816078D01*
X52010842Y-50897271D01*
X52130037Y-50945550D01*
X52258159Y-50956647D01*
X52383880Y-50929580D01*
X52496084Y-50866742D01*
X52573165Y-50785940D01*
X56702817Y-50785940D01*
X56739664Y-50909150D01*
X56811112Y-51016078D01*
X56910842Y-51097271D01*
X57030037Y-51145550D01*
X57158159Y-51156647D01*
X57283880Y-51129580D01*
X57396084Y-51066742D01*
X57484852Y-50973690D01*
X57498913Y-50945550D01*
X57542334Y-50858651D01*
X57563449Y-50731792D01*
X57563502Y-50724999D01*
X57553330Y-50657342D01*
X57544382Y-50597828D01*
X57512673Y-50531793D01*
X57488715Y-50481899D01*
X57401421Y-50387466D01*
X57401419Y-50387464D01*
X57290216Y-50322872D01*
X57164936Y-50293833D01*
X57036654Y-50302916D01*
X56916715Y-50349317D01*
X56815723Y-50428932D01*
X56775268Y-50487466D01*
X56742605Y-50534726D01*
X56703827Y-50657342D01*
X56702817Y-50785940D01*
X52573165Y-50785940D01*
X52584852Y-50773690D01*
X52642334Y-50658651D01*
X52663449Y-50531792D01*
X52663502Y-50524999D01*
X52652123Y-50449317D01*
X52644382Y-50397828D01*
X52626323Y-50360220D01*
X52588715Y-50281899D01*
X52501421Y-50187466D01*
X52501419Y-50187464D01*
X52390216Y-50122872D01*
X52264936Y-50093833D01*
X52136654Y-50102916D01*
X52016715Y-50149317D01*
X51915723Y-50228932D01*
X51879116Y-50281899D01*
X51842605Y-50334726D01*
X51803827Y-50457342D01*
X51802817Y-50585940D01*
X50090656Y-50585940D01*
X50088715Y-50581899D01*
X50001421Y-50487466D01*
X50001419Y-50487464D01*
X49890216Y-50422872D01*
X49764936Y-50393833D01*
X49636654Y-50402916D01*
X49516715Y-50449317D01*
X49415723Y-50528932D01*
X49413746Y-50531793D01*
X49342605Y-50634726D01*
X49303827Y-50757342D01*
X49302817Y-50885940D01*
X47938339Y-50885940D01*
X47870419Y-50812466D01*
X47870417Y-50812464D01*
X47759214Y-50747872D01*
X47633934Y-50718833D01*
X47505652Y-50727916D01*
X47385713Y-50774317D01*
X47284721Y-50853932D01*
X47232438Y-50929580D01*
X47211603Y-50959726D01*
X47172825Y-51082342D01*
X47171815Y-51210940D01*
X12127500Y-51210940D01*
X12127500Y-49785940D01*
X34252817Y-49785940D01*
X34289664Y-49909150D01*
X34361112Y-50016078D01*
X34460842Y-50097271D01*
X34580037Y-50145550D01*
X34708159Y-50156647D01*
X34833880Y-50129580D01*
X34946084Y-50066742D01*
X35034852Y-49973690D01*
X35092334Y-49858650D01*
X35113449Y-49731793D01*
X35113502Y-49725000D01*
X35094382Y-49597828D01*
X35064081Y-49534726D01*
X35038715Y-49481899D01*
X34951421Y-49387466D01*
X34951419Y-49387464D01*
X34840216Y-49322872D01*
X34714936Y-49293833D01*
X34586654Y-49302916D01*
X34466715Y-49349317D01*
X34365723Y-49428932D01*
X34329116Y-49481899D01*
X34292605Y-49534726D01*
X34253827Y-49657342D01*
X34252817Y-49785940D01*
X12127500Y-49785940D01*
X12127500Y-48710940D01*
X31702817Y-48710940D01*
X31739664Y-48834150D01*
X31811112Y-48941078D01*
X31910842Y-49022271D01*
X32030037Y-49070550D01*
X32158159Y-49081647D01*
X32283880Y-49054580D01*
X32396084Y-48991742D01*
X32484852Y-48898690D01*
X32491222Y-48885940D01*
X86452817Y-48885940D01*
X86489664Y-49009150D01*
X86561112Y-49116078D01*
X86660842Y-49197271D01*
X86780037Y-49245550D01*
X86908159Y-49256647D01*
X87033880Y-49229580D01*
X87146084Y-49166742D01*
X87234852Y-49073690D01*
X87292334Y-48958650D01*
X87313449Y-48831793D01*
X87313502Y-48825000D01*
X87294382Y-48697828D01*
X87274677Y-48656792D01*
X87238715Y-48581899D01*
X87151421Y-48487466D01*
X87151419Y-48487464D01*
X87040216Y-48422872D01*
X86914936Y-48393833D01*
X86786654Y-48402916D01*
X86666715Y-48449317D01*
X86565723Y-48528932D01*
X86492605Y-48634726D01*
X86453827Y-48757342D01*
X86452817Y-48885940D01*
X32491222Y-48885940D01*
X32517101Y-48834150D01*
X32542334Y-48783651D01*
X32563449Y-48656792D01*
X32563502Y-48649999D01*
X32544382Y-48522829D01*
X32527402Y-48487466D01*
X32509083Y-48449317D01*
X32488715Y-48406899D01*
X32401421Y-48312466D01*
X32401419Y-48312464D01*
X32290216Y-48247872D01*
X32164936Y-48218833D01*
X32036654Y-48227916D01*
X31916715Y-48274317D01*
X31815723Y-48353932D01*
X31779116Y-48406899D01*
X31742605Y-48459726D01*
X31703827Y-48582342D01*
X31702817Y-48710940D01*
X12127500Y-48710940D01*
X12127500Y-47960940D01*
X28371815Y-47960940D01*
X28408662Y-48084150D01*
X28480110Y-48191078D01*
X28579840Y-48272271D01*
X28699035Y-48320550D01*
X28827157Y-48331647D01*
X28952878Y-48304580D01*
X29065082Y-48241742D01*
X29153850Y-48148690D01*
X29211332Y-48033651D01*
X29227893Y-47934151D01*
X29232447Y-47906793D01*
X29232500Y-47900000D01*
X29213380Y-47772828D01*
X29207672Y-47760940D01*
X30771815Y-47760940D01*
X30808662Y-47884150D01*
X30880110Y-47991078D01*
X30979840Y-48072271D01*
X31099035Y-48120550D01*
X31227157Y-48131647D01*
X31352878Y-48104580D01*
X31465082Y-48041742D01*
X31553850Y-47948690D01*
X31611332Y-47833651D01*
X31615112Y-47810940D01*
X64271815Y-47810940D01*
X64308662Y-47934150D01*
X64380110Y-48041078D01*
X64479840Y-48122271D01*
X64599035Y-48170550D01*
X64727157Y-48181647D01*
X64852878Y-48154580D01*
X64965082Y-48091742D01*
X65053850Y-47998690D01*
X65111332Y-47883651D01*
X65132447Y-47756792D01*
X65132500Y-47749999D01*
X65113380Y-47622829D01*
X65057713Y-47506899D01*
X64970419Y-47412466D01*
X64970417Y-47412464D01*
X64859214Y-47347872D01*
X64733934Y-47318833D01*
X64605652Y-47327916D01*
X64485713Y-47374317D01*
X64384721Y-47453932D01*
X64311603Y-47559726D01*
X64272825Y-47682342D01*
X64271815Y-47810940D01*
X31615112Y-47810940D01*
X31632447Y-47706792D01*
X31632500Y-47699999D01*
X31622328Y-47632342D01*
X31613380Y-47572828D01*
X31595321Y-47535220D01*
X31557713Y-47456899D01*
X31470419Y-47362466D01*
X31470417Y-47362464D01*
X31359214Y-47297872D01*
X31233934Y-47268833D01*
X31105652Y-47277916D01*
X30985713Y-47324317D01*
X30884721Y-47403932D01*
X30850164Y-47453933D01*
X30811603Y-47509726D01*
X30772825Y-47632342D01*
X30771815Y-47760940D01*
X29207672Y-47760940D01*
X29181671Y-47706793D01*
X29157713Y-47656899D01*
X29070419Y-47562466D01*
X29070417Y-47562464D01*
X28959214Y-47497872D01*
X28833934Y-47468833D01*
X28705652Y-47477916D01*
X28585713Y-47524317D01*
X28484721Y-47603932D01*
X28471661Y-47622829D01*
X28411603Y-47709726D01*
X28372825Y-47832342D01*
X28371815Y-47960940D01*
X12127500Y-47960940D01*
X12127500Y-46910940D01*
X35171815Y-46910940D01*
X35208662Y-47034150D01*
X35280110Y-47141078D01*
X35379840Y-47222271D01*
X35499035Y-47270550D01*
X35627157Y-47281647D01*
X35752878Y-47254580D01*
X35865082Y-47191742D01*
X35953850Y-47098690D01*
X35957322Y-47091742D01*
X36011332Y-46983651D01*
X36023435Y-46910938D01*
X36032447Y-46856793D01*
X36032500Y-46850000D01*
X36026628Y-46810940D01*
X38671815Y-46810940D01*
X38708662Y-46934150D01*
X38780110Y-47041078D01*
X38879840Y-47122271D01*
X38999035Y-47170550D01*
X39127157Y-47181647D01*
X39252878Y-47154580D01*
X39365082Y-47091742D01*
X39453850Y-46998690D01*
X39511332Y-46883650D01*
X39515112Y-46860940D01*
X46171815Y-46860940D01*
X46208662Y-46984150D01*
X46280110Y-47091078D01*
X46379840Y-47172271D01*
X46499035Y-47220550D01*
X46627157Y-47231647D01*
X46752878Y-47204580D01*
X46865082Y-47141742D01*
X46953850Y-47048690D01*
X47011332Y-46933651D01*
X47031756Y-46810940D01*
X50221815Y-46810940D01*
X50258662Y-46934150D01*
X50330110Y-47041078D01*
X50429840Y-47122271D01*
X50549035Y-47170550D01*
X50677157Y-47181647D01*
X50802878Y-47154580D01*
X50915082Y-47091742D01*
X51003850Y-46998690D01*
X51061332Y-46883651D01*
X51065112Y-46860940D01*
X57721815Y-46860940D01*
X57758662Y-46984150D01*
X57830110Y-47091078D01*
X57929840Y-47172271D01*
X58049035Y-47220550D01*
X58177157Y-47231647D01*
X58302878Y-47204580D01*
X58415082Y-47141742D01*
X58503850Y-47048690D01*
X58561332Y-46933651D01*
X58582447Y-46806792D01*
X58582500Y-46799999D01*
X58572328Y-46732342D01*
X58563380Y-46672828D01*
X58539371Y-46622829D01*
X58507713Y-46556899D01*
X58420419Y-46462466D01*
X58420417Y-46462464D01*
X58309214Y-46397872D01*
X58183934Y-46368833D01*
X58055652Y-46377916D01*
X57935713Y-46424317D01*
X57834721Y-46503932D01*
X57800164Y-46553933D01*
X57761603Y-46609726D01*
X57722825Y-46732342D01*
X57721815Y-46860940D01*
X51065112Y-46860940D01*
X51082447Y-46756792D01*
X51082500Y-46749999D01*
X51072328Y-46682342D01*
X51063380Y-46622828D01*
X51031722Y-46556899D01*
X51007713Y-46506899D01*
X50920419Y-46412466D01*
X50920417Y-46412464D01*
X50809214Y-46347872D01*
X50683934Y-46318833D01*
X50555652Y-46327916D01*
X50435713Y-46374317D01*
X50334721Y-46453932D01*
X50294266Y-46512466D01*
X50261603Y-46559726D01*
X50222825Y-46682342D01*
X50221815Y-46810940D01*
X47031756Y-46810940D01*
X47032447Y-46806792D01*
X47032500Y-46799999D01*
X47022328Y-46732342D01*
X47013380Y-46672828D01*
X46989371Y-46622829D01*
X46957713Y-46556899D01*
X46870419Y-46462466D01*
X46870417Y-46462464D01*
X46759214Y-46397872D01*
X46633934Y-46368833D01*
X46505652Y-46377916D01*
X46385713Y-46424317D01*
X46284721Y-46503932D01*
X46250164Y-46553933D01*
X46211603Y-46609726D01*
X46172825Y-46732342D01*
X46171815Y-46860940D01*
X39515112Y-46860940D01*
X39515803Y-46856792D01*
X39532447Y-46756792D01*
X39532500Y-46749999D01*
X39522328Y-46682342D01*
X39513380Y-46622828D01*
X39481722Y-46556899D01*
X39457713Y-46506899D01*
X39370419Y-46412466D01*
X39370417Y-46412464D01*
X39259214Y-46347872D01*
X39133934Y-46318833D01*
X39005652Y-46327916D01*
X38885713Y-46374317D01*
X38784721Y-46453932D01*
X38744266Y-46512466D01*
X38711603Y-46559726D01*
X38672825Y-46682342D01*
X38671815Y-46810940D01*
X36026628Y-46810940D01*
X36024983Y-46799999D01*
X36022328Y-46782342D01*
X36013380Y-46722828D01*
X35989371Y-46672829D01*
X35957713Y-46606899D01*
X35870419Y-46512466D01*
X35870417Y-46512464D01*
X35759214Y-46447872D01*
X35633934Y-46418833D01*
X35505652Y-46427916D01*
X35385713Y-46474317D01*
X35284721Y-46553932D01*
X35280717Y-46559726D01*
X35211603Y-46659726D01*
X35172825Y-46782342D01*
X35171815Y-46910940D01*
X12127500Y-46910940D01*
X12127500Y-45960940D01*
X33271815Y-45960940D01*
X33308662Y-46084150D01*
X33380110Y-46191078D01*
X33479840Y-46272271D01*
X33599035Y-46320550D01*
X33727157Y-46331647D01*
X33852878Y-46304580D01*
X33886161Y-46285940D01*
X63102817Y-46285940D01*
X63139664Y-46409150D01*
X63211112Y-46516078D01*
X63310842Y-46597271D01*
X63430037Y-46645550D01*
X63558159Y-46656647D01*
X63683880Y-46629580D01*
X63796084Y-46566742D01*
X63884852Y-46473690D01*
X63894724Y-46453933D01*
X63942334Y-46358651D01*
X63954436Y-46285940D01*
X64252817Y-46285940D01*
X64289664Y-46409150D01*
X64361112Y-46516078D01*
X64460842Y-46597271D01*
X64580037Y-46645550D01*
X64708159Y-46656647D01*
X64833880Y-46629580D01*
X64946084Y-46566742D01*
X65034852Y-46473690D01*
X65044724Y-46453933D01*
X65092334Y-46358651D01*
X65104437Y-46285938D01*
X65113449Y-46231793D01*
X65113502Y-46225000D01*
X65094382Y-46097828D01*
X65063565Y-46033651D01*
X65038715Y-45981899D01*
X64951421Y-45887466D01*
X64951419Y-45887464D01*
X64840216Y-45822872D01*
X64714936Y-45793833D01*
X64586654Y-45802916D01*
X64466715Y-45849317D01*
X64365723Y-45928932D01*
X64329116Y-45981899D01*
X64292605Y-46034726D01*
X64253827Y-46157342D01*
X64252817Y-46285940D01*
X63954436Y-46285940D01*
X63954437Y-46285938D01*
X63963449Y-46231793D01*
X63963502Y-46225000D01*
X63944382Y-46097828D01*
X63913565Y-46033651D01*
X63888715Y-45981899D01*
X63801421Y-45887466D01*
X63801419Y-45887464D01*
X63690216Y-45822872D01*
X63564936Y-45793833D01*
X63436654Y-45802916D01*
X63316715Y-45849317D01*
X63215723Y-45928932D01*
X63179116Y-45981899D01*
X63142605Y-46034726D01*
X63103827Y-46157342D01*
X63102817Y-46285940D01*
X33886161Y-46285940D01*
X33965082Y-46241742D01*
X34053850Y-46148690D01*
X34111332Y-46033651D01*
X34132447Y-45906792D01*
X34132500Y-45899999D01*
X34113380Y-45772829D01*
X34107672Y-45760940D01*
X89671815Y-45760940D01*
X89708662Y-45884150D01*
X89780110Y-45991078D01*
X89879840Y-46072271D01*
X89999035Y-46120550D01*
X90127157Y-46131647D01*
X90252878Y-46104580D01*
X90365082Y-46041742D01*
X90453850Y-45948690D01*
X90463722Y-45928933D01*
X90511332Y-45833651D01*
X90532447Y-45706792D01*
X90532500Y-45699999D01*
X90518154Y-45604580D01*
X90513380Y-45572828D01*
X90495321Y-45535220D01*
X90457713Y-45456899D01*
X90370419Y-45362466D01*
X90370417Y-45362464D01*
X90259214Y-45297872D01*
X90133934Y-45268833D01*
X90005652Y-45277916D01*
X89885713Y-45324317D01*
X89784721Y-45403932D01*
X89748114Y-45456899D01*
X89711603Y-45509726D01*
X89672825Y-45632342D01*
X89671815Y-45760940D01*
X34107672Y-45760940D01*
X34107671Y-45760938D01*
X34081671Y-45706793D01*
X34057713Y-45656899D01*
X33970419Y-45562466D01*
X33970417Y-45562464D01*
X33859214Y-45497872D01*
X33733934Y-45468833D01*
X33605652Y-45477916D01*
X33485713Y-45524317D01*
X33384721Y-45603932D01*
X33365086Y-45632342D01*
X33311603Y-45709726D01*
X33272825Y-45832342D01*
X33271815Y-45960940D01*
X12127500Y-45960940D01*
X12127500Y-45260940D01*
X32571815Y-45260940D01*
X32608662Y-45384150D01*
X32680110Y-45491078D01*
X32779840Y-45572271D01*
X32899035Y-45620550D01*
X33027157Y-45631647D01*
X33152878Y-45604580D01*
X33265082Y-45541742D01*
X33353850Y-45448690D01*
X33411332Y-45333650D01*
X33412886Y-45324317D01*
X33432447Y-45206792D01*
X33432500Y-45199999D01*
X33413380Y-45072829D01*
X33357713Y-44956899D01*
X33270419Y-44862466D01*
X33270417Y-44862464D01*
X33159214Y-44797872D01*
X33033934Y-44768833D01*
X32905652Y-44777916D01*
X32785713Y-44824317D01*
X32684721Y-44903932D01*
X32648114Y-44956899D01*
X32611603Y-45009726D01*
X32572825Y-45132342D01*
X32571815Y-45260940D01*
X12127500Y-45260940D01*
X12127500Y-44060940D01*
X31371815Y-44060940D01*
X31408662Y-44184150D01*
X31480110Y-44291078D01*
X31579840Y-44372271D01*
X31699035Y-44420550D01*
X31827157Y-44431647D01*
X31952878Y-44404580D01*
X32065082Y-44341742D01*
X32118314Y-44285940D01*
X71752817Y-44285940D01*
X71789664Y-44409150D01*
X71861112Y-44516078D01*
X71960842Y-44597271D01*
X72080037Y-44645550D01*
X72208159Y-44656647D01*
X72333880Y-44629580D01*
X72446084Y-44566742D01*
X72534852Y-44473690D01*
X72555860Y-44431647D01*
X72592334Y-44358651D01*
X72604436Y-44285940D01*
X82752817Y-44285940D01*
X82789664Y-44409150D01*
X82861112Y-44516078D01*
X82960842Y-44597271D01*
X83080037Y-44645550D01*
X83208159Y-44656647D01*
X83333880Y-44629580D01*
X83446084Y-44566742D01*
X83534852Y-44473690D01*
X83592334Y-44358651D01*
X83604437Y-44285938D01*
X83613449Y-44231793D01*
X83613502Y-44225000D01*
X83607361Y-44184151D01*
X83594382Y-44097829D01*
X83538715Y-43981899D01*
X83451421Y-43887466D01*
X83451419Y-43887464D01*
X83340216Y-43822872D01*
X83214936Y-43793833D01*
X83086654Y-43802916D01*
X82966715Y-43849317D01*
X82865723Y-43928932D01*
X82792605Y-44034726D01*
X82753827Y-44157342D01*
X82752817Y-44285940D01*
X72604436Y-44285940D01*
X72604437Y-44285938D01*
X72613449Y-44231793D01*
X72613502Y-44225000D01*
X72607361Y-44184151D01*
X72594382Y-44097829D01*
X72538715Y-43981899D01*
X72451421Y-43887466D01*
X72451419Y-43887464D01*
X72340216Y-43822872D01*
X72214936Y-43793833D01*
X72086654Y-43802916D01*
X71966715Y-43849317D01*
X71865723Y-43928932D01*
X71792605Y-44034726D01*
X71753827Y-44157342D01*
X71752817Y-44285940D01*
X32118314Y-44285940D01*
X32153850Y-44248690D01*
X32211332Y-44133651D01*
X32232447Y-44006792D01*
X32232500Y-43999999D01*
X32213380Y-43872829D01*
X32157713Y-43756899D01*
X32070419Y-43662466D01*
X32070417Y-43662464D01*
X31959214Y-43597872D01*
X31833934Y-43568833D01*
X31705652Y-43577916D01*
X31585713Y-43624317D01*
X31484721Y-43703932D01*
X31448114Y-43756899D01*
X31411603Y-43809726D01*
X31372825Y-43932342D01*
X31371815Y-44060940D01*
X12127500Y-44060940D01*
X12127500Y-42285940D01*
X34202817Y-42285940D01*
X34239664Y-42409150D01*
X34311112Y-42516078D01*
X34410842Y-42597271D01*
X34530037Y-42645550D01*
X34658159Y-42656647D01*
X34783880Y-42629580D01*
X34896084Y-42566742D01*
X34984852Y-42473690D01*
X35042334Y-42358650D01*
X35054436Y-42285940D01*
X52752817Y-42285940D01*
X52789664Y-42409150D01*
X52861112Y-42516078D01*
X52960842Y-42597271D01*
X53080037Y-42645550D01*
X53208159Y-42656647D01*
X53333880Y-42629580D01*
X53446084Y-42566742D01*
X53534852Y-42473690D01*
X53592334Y-42358651D01*
X53604436Y-42285940D01*
X97702817Y-42285940D01*
X97739664Y-42409150D01*
X97811112Y-42516078D01*
X97910842Y-42597271D01*
X98030037Y-42645550D01*
X98158159Y-42656647D01*
X98283880Y-42629580D01*
X98396084Y-42566742D01*
X98484852Y-42473690D01*
X98542334Y-42358651D01*
X98563449Y-42231792D01*
X98563502Y-42224999D01*
X98544382Y-42097829D01*
X98488715Y-41981899D01*
X98401421Y-41887466D01*
X98401419Y-41887464D01*
X98290216Y-41822872D01*
X98164936Y-41793833D01*
X98036654Y-41802916D01*
X97916715Y-41849317D01*
X97815723Y-41928932D01*
X97806870Y-41941742D01*
X97742605Y-42034726D01*
X97703827Y-42157342D01*
X97702817Y-42285940D01*
X53604436Y-42285940D01*
X53613449Y-42231792D01*
X53613502Y-42224999D01*
X53594382Y-42097829D01*
X53538715Y-41981899D01*
X53451421Y-41887466D01*
X53451419Y-41887464D01*
X53340216Y-41822872D01*
X53214936Y-41793833D01*
X53086654Y-41802916D01*
X52966715Y-41849317D01*
X52865723Y-41928932D01*
X52856870Y-41941742D01*
X52792605Y-42034726D01*
X52753827Y-42157342D01*
X52752817Y-42285940D01*
X35054436Y-42285940D01*
X35063449Y-42231793D01*
X35063502Y-42225000D01*
X35044382Y-42097828D01*
X35012603Y-42031647D01*
X34988715Y-41981899D01*
X34901421Y-41887466D01*
X34901419Y-41887464D01*
X34790216Y-41822872D01*
X34664936Y-41793833D01*
X34536654Y-41802916D01*
X34416715Y-41849317D01*
X34315723Y-41928932D01*
X34306870Y-41941742D01*
X34242605Y-42034726D01*
X34203827Y-42157342D01*
X34202817Y-42285940D01*
X12127500Y-42285940D01*
X12127500Y-41660940D01*
X44627817Y-41660940D01*
X44664664Y-41784150D01*
X44736112Y-41891078D01*
X44835842Y-41972271D01*
X44955037Y-42020550D01*
X45083159Y-42031647D01*
X45208880Y-42004580D01*
X45321084Y-41941742D01*
X45409852Y-41848690D01*
X45467334Y-41733651D01*
X45483076Y-41639076D01*
X45488449Y-41606793D01*
X45488502Y-41600000D01*
X45471354Y-41485940D01*
X50102817Y-41485940D01*
X50139664Y-41609150D01*
X50211112Y-41716078D01*
X50310842Y-41797271D01*
X50430037Y-41845550D01*
X50558159Y-41856647D01*
X50683880Y-41829580D01*
X50796084Y-41766742D01*
X50884852Y-41673690D01*
X50942334Y-41558651D01*
X50963449Y-41431792D01*
X50963502Y-41424999D01*
X50961088Y-41408938D01*
X54902817Y-41408938D01*
X54939664Y-41532148D01*
X55011112Y-41639076D01*
X55110842Y-41720269D01*
X55230037Y-41768548D01*
X55358159Y-41779645D01*
X55483880Y-41752578D01*
X55558229Y-41710940D01*
X65221815Y-41710940D01*
X65258662Y-41834150D01*
X65330110Y-41941078D01*
X65429840Y-42022271D01*
X65549035Y-42070550D01*
X65677157Y-42081647D01*
X65802878Y-42054580D01*
X65915082Y-41991742D01*
X66003850Y-41898690D01*
X66061332Y-41783651D01*
X66076963Y-41689740D01*
X66082447Y-41656793D01*
X66082500Y-41650000D01*
X66081259Y-41641742D01*
X66063380Y-41522829D01*
X66007713Y-41406899D01*
X65965229Y-41360940D01*
X83671815Y-41360940D01*
X83708662Y-41484150D01*
X83780110Y-41591078D01*
X83879840Y-41672271D01*
X83999035Y-41720550D01*
X84127157Y-41731647D01*
X84252878Y-41704580D01*
X84365082Y-41641742D01*
X84453850Y-41548690D01*
X84511332Y-41433651D01*
X84515112Y-41410940D01*
X90721815Y-41410940D01*
X90758662Y-41534150D01*
X90830110Y-41641078D01*
X90929840Y-41722271D01*
X91049035Y-41770550D01*
X91177157Y-41781647D01*
X91302878Y-41754580D01*
X91415082Y-41691742D01*
X91503850Y-41598690D01*
X91561332Y-41483651D01*
X91573434Y-41410940D01*
X94171815Y-41410940D01*
X94208662Y-41534150D01*
X94280110Y-41641078D01*
X94379840Y-41722271D01*
X94499035Y-41770550D01*
X94627157Y-41781647D01*
X94752878Y-41754580D01*
X94865082Y-41691742D01*
X94953850Y-41598690D01*
X95011332Y-41483651D01*
X95024107Y-41406899D01*
X95032447Y-41356793D01*
X95032500Y-41350000D01*
X95024983Y-41299999D01*
X95013380Y-41222829D01*
X95012419Y-41220826D01*
X94989371Y-41172829D01*
X94957713Y-41106899D01*
X94934640Y-41081939D01*
X97771815Y-41081939D01*
X97808662Y-41205149D01*
X97880110Y-41312077D01*
X97979840Y-41393270D01*
X98099035Y-41441549D01*
X98227157Y-41452646D01*
X98352878Y-41425579D01*
X98465082Y-41362741D01*
X98553850Y-41269689D01*
X98611332Y-41154650D01*
X98632447Y-41027791D01*
X98632500Y-41020998D01*
X98617614Y-40921990D01*
X98613380Y-40893827D01*
X98595321Y-40856219D01*
X98557713Y-40777898D01*
X98470419Y-40683465D01*
X98470417Y-40683463D01*
X98359214Y-40618871D01*
X98233934Y-40589832D01*
X98105652Y-40598915D01*
X97985713Y-40645316D01*
X97884721Y-40724931D01*
X97851022Y-40773690D01*
X97811603Y-40830725D01*
X97772825Y-40953341D01*
X97771815Y-41081939D01*
X94934640Y-41081939D01*
X94870419Y-41012466D01*
X94870417Y-41012464D01*
X94759214Y-40947872D01*
X94633934Y-40918833D01*
X94505652Y-40927916D01*
X94385713Y-40974317D01*
X94284721Y-41053932D01*
X94248114Y-41106899D01*
X94211603Y-41159726D01*
X94172825Y-41282342D01*
X94171815Y-41410940D01*
X91573434Y-41410940D01*
X91574107Y-41406899D01*
X91582447Y-41356793D01*
X91582500Y-41350000D01*
X91574983Y-41299999D01*
X91563380Y-41222829D01*
X91562419Y-41220826D01*
X91539371Y-41172829D01*
X91507713Y-41106899D01*
X91420419Y-41012466D01*
X91420417Y-41012464D01*
X91309214Y-40947872D01*
X91183934Y-40918833D01*
X91055652Y-40927916D01*
X90935713Y-40974317D01*
X90834721Y-41053932D01*
X90798114Y-41106899D01*
X90761603Y-41159726D01*
X90722825Y-41282342D01*
X90721815Y-41410940D01*
X84515112Y-41410940D01*
X84525255Y-41349999D01*
X84532447Y-41306793D01*
X84532500Y-41300000D01*
X84532174Y-41297828D01*
X84521121Y-41224317D01*
X84513380Y-41172828D01*
X84481722Y-41106899D01*
X84457713Y-41056899D01*
X84370419Y-40962466D01*
X84370417Y-40962464D01*
X84259214Y-40897872D01*
X84133934Y-40868833D01*
X84005652Y-40877916D01*
X83885713Y-40924317D01*
X83784721Y-41003932D01*
X83713557Y-41106899D01*
X83711603Y-41109726D01*
X83672825Y-41232342D01*
X83671815Y-41360940D01*
X65965229Y-41360940D01*
X65920419Y-41312466D01*
X65920417Y-41312464D01*
X65809214Y-41247872D01*
X65683934Y-41218833D01*
X65555652Y-41227916D01*
X65435713Y-41274317D01*
X65334721Y-41353932D01*
X65261603Y-41459726D01*
X65222825Y-41582342D01*
X65221982Y-41689740D01*
X65221815Y-41710940D01*
X55558229Y-41710940D01*
X55596084Y-41689740D01*
X55684852Y-41596688D01*
X55742334Y-41481649D01*
X55762126Y-41362741D01*
X55763449Y-41354791D01*
X55763502Y-41347998D01*
X55756286Y-41299999D01*
X55744382Y-41220827D01*
X55736855Y-41205150D01*
X55721334Y-41172828D01*
X55688715Y-41104897D01*
X55618322Y-41028747D01*
X55601765Y-40983868D01*
X55621792Y-40940427D01*
X55687681Y-40928394D01*
X55730036Y-40945550D01*
X55858159Y-40956647D01*
X55983880Y-40929580D01*
X56096084Y-40866742D01*
X56184852Y-40773690D01*
X56209181Y-40725000D01*
X56242334Y-40658651D01*
X56254437Y-40585938D01*
X56263449Y-40531793D01*
X56263502Y-40525000D01*
X56244382Y-40397828D01*
X56226323Y-40360220D01*
X56188715Y-40281899D01*
X56101421Y-40187466D01*
X56101419Y-40187464D01*
X55990216Y-40122872D01*
X55864936Y-40093833D01*
X55736654Y-40102916D01*
X55616715Y-40149317D01*
X55515723Y-40228932D01*
X55479116Y-40281899D01*
X55442605Y-40334726D01*
X55403827Y-40457342D01*
X55402817Y-40585940D01*
X55439664Y-40709150D01*
X55511112Y-40816078D01*
X55529103Y-40830725D01*
X55533202Y-40834062D01*
X55555917Y-40876160D01*
X55542210Y-40921990D01*
X55479629Y-40943416D01*
X55364936Y-40916831D01*
X55236654Y-40925914D01*
X55116715Y-40972315D01*
X55015723Y-41051930D01*
X54951019Y-41145550D01*
X54942605Y-41157724D01*
X54903827Y-41280340D01*
X54902817Y-41408938D01*
X50961088Y-41408938D01*
X50945300Y-41303932D01*
X50944382Y-41297828D01*
X50914081Y-41234726D01*
X50888715Y-41181899D01*
X50801421Y-41087466D01*
X50801419Y-41087464D01*
X50690216Y-41022872D01*
X50564936Y-40993833D01*
X50436654Y-41002916D01*
X50316715Y-41049317D01*
X50215723Y-41128932D01*
X50149799Y-41224317D01*
X50142605Y-41234726D01*
X50103827Y-41357342D01*
X50102817Y-41485940D01*
X45471354Y-41485940D01*
X45469382Y-41472828D01*
X45449677Y-41431792D01*
X45413715Y-41356899D01*
X45326421Y-41262466D01*
X45326419Y-41262464D01*
X45215216Y-41197872D01*
X45089936Y-41168833D01*
X44961654Y-41177916D01*
X44841715Y-41224317D01*
X44740723Y-41303932D01*
X44701324Y-41360938D01*
X44667605Y-41409726D01*
X44628827Y-41532342D01*
X44627817Y-41660940D01*
X12127500Y-41660940D01*
X12127500Y-40785940D01*
X51202817Y-40785940D01*
X51239664Y-40909150D01*
X51311112Y-41016078D01*
X51410842Y-41097271D01*
X51530037Y-41145550D01*
X51658159Y-41156647D01*
X51783880Y-41129580D01*
X51896084Y-41066742D01*
X51984852Y-40973690D01*
X51995020Y-40953341D01*
X52042334Y-40858651D01*
X52063449Y-40731792D01*
X52063502Y-40724999D01*
X52044382Y-40597829D01*
X52038673Y-40585938D01*
X52012673Y-40531793D01*
X51988715Y-40481899D01*
X51901421Y-40387466D01*
X51901419Y-40387464D01*
X51790216Y-40322872D01*
X51664936Y-40293833D01*
X51536654Y-40302916D01*
X51416715Y-40349317D01*
X51315723Y-40428932D01*
X51302068Y-40448690D01*
X51242605Y-40534726D01*
X51203827Y-40657342D01*
X51202817Y-40785940D01*
X12127500Y-40785940D01*
X12127500Y-40260940D01*
X47171815Y-40260940D01*
X47208662Y-40384150D01*
X47280110Y-40491078D01*
X47379840Y-40572271D01*
X47499035Y-40620550D01*
X47627157Y-40631647D01*
X47752878Y-40604580D01*
X47865082Y-40541742D01*
X47953850Y-40448690D01*
X47963722Y-40428933D01*
X48011332Y-40333651D01*
X48032447Y-40206792D01*
X48032500Y-40199999D01*
X48020555Y-40120550D01*
X48013380Y-40072828D01*
X47982803Y-40009151D01*
X47957713Y-39956899D01*
X47892119Y-39885940D01*
X49302817Y-39885940D01*
X49339664Y-40009150D01*
X49411112Y-40116078D01*
X49510842Y-40197271D01*
X49630037Y-40245550D01*
X49758159Y-40256647D01*
X49883880Y-40229580D01*
X49996084Y-40166742D01*
X50084852Y-40073690D01*
X50088324Y-40066742D01*
X50142334Y-39958651D01*
X50157632Y-39866742D01*
X50163449Y-39831793D01*
X50163502Y-39825000D01*
X50144382Y-39697828D01*
X50114081Y-39634726D01*
X50090656Y-39585940D01*
X51802817Y-39585940D01*
X51839664Y-39709150D01*
X51911112Y-39816078D01*
X52010842Y-39897271D01*
X52130037Y-39945550D01*
X52258159Y-39956647D01*
X52383880Y-39929580D01*
X52496084Y-39866742D01*
X52573165Y-39785940D01*
X56702817Y-39785940D01*
X56739664Y-39909150D01*
X56811112Y-40016078D01*
X56910842Y-40097271D01*
X57030037Y-40145550D01*
X57158159Y-40156647D01*
X57283880Y-40129580D01*
X57396084Y-40066742D01*
X57484852Y-39973690D01*
X57498913Y-39945550D01*
X57542334Y-39858651D01*
X57557284Y-39768833D01*
X57558597Y-39760940D01*
X64471815Y-39760940D01*
X64508662Y-39884150D01*
X64580110Y-39991078D01*
X64679840Y-40072271D01*
X64799035Y-40120550D01*
X64927157Y-40131647D01*
X65052878Y-40104580D01*
X65165082Y-40041742D01*
X65253850Y-39948690D01*
X65263399Y-39929580D01*
X65311332Y-39833651D01*
X65329417Y-39724999D01*
X65332447Y-39706793D01*
X65332500Y-39700000D01*
X65332174Y-39697828D01*
X65313380Y-39572829D01*
X65257713Y-39456899D01*
X65170419Y-39362466D01*
X65170417Y-39362464D01*
X65059214Y-39297872D01*
X64933934Y-39268833D01*
X64805652Y-39277916D01*
X64685713Y-39324317D01*
X64584721Y-39403932D01*
X64530835Y-39481899D01*
X64511603Y-39509726D01*
X64472825Y-39632342D01*
X64471815Y-39760940D01*
X57558597Y-39760940D01*
X57563449Y-39731793D01*
X57563502Y-39725000D01*
X57560765Y-39706792D01*
X57553330Y-39657342D01*
X57544382Y-39597828D01*
X57512673Y-39531793D01*
X57488715Y-39481899D01*
X57401421Y-39387466D01*
X57401419Y-39387464D01*
X57290216Y-39322872D01*
X57164936Y-39293833D01*
X57036654Y-39302916D01*
X56916715Y-39349317D01*
X56815723Y-39428932D01*
X56749328Y-39524999D01*
X56742605Y-39534726D01*
X56703827Y-39657342D01*
X56702817Y-39785940D01*
X52573165Y-39785940D01*
X52584852Y-39773690D01*
X52642334Y-39658651D01*
X52663449Y-39531792D01*
X52663502Y-39524999D01*
X52649467Y-39431647D01*
X52644382Y-39397828D01*
X52626323Y-39360220D01*
X52588715Y-39281899D01*
X52501421Y-39187466D01*
X52501419Y-39187464D01*
X52390216Y-39122872D01*
X52264936Y-39093833D01*
X52136654Y-39102916D01*
X52016715Y-39149317D01*
X51915723Y-39228932D01*
X51879116Y-39281899D01*
X51842605Y-39334726D01*
X51803827Y-39457342D01*
X51802817Y-39585940D01*
X50090656Y-39585940D01*
X50088715Y-39581899D01*
X50001421Y-39487466D01*
X50001419Y-39487464D01*
X49890216Y-39422872D01*
X49764936Y-39393833D01*
X49636654Y-39402916D01*
X49516715Y-39449317D01*
X49415723Y-39528932D01*
X49379116Y-39581899D01*
X49342605Y-39634726D01*
X49303827Y-39757342D01*
X49302817Y-39885940D01*
X47892119Y-39885940D01*
X47870419Y-39862466D01*
X47870417Y-39862464D01*
X47759214Y-39797872D01*
X47633934Y-39768833D01*
X47505652Y-39777916D01*
X47385713Y-39824317D01*
X47284721Y-39903932D01*
X47246903Y-39958651D01*
X47211603Y-40009726D01*
X47172825Y-40132342D01*
X47171815Y-40260940D01*
X12127500Y-40260940D01*
X12127500Y-38785940D01*
X34252817Y-38785940D01*
X34289664Y-38909150D01*
X34361112Y-39016078D01*
X34460842Y-39097271D01*
X34580037Y-39145550D01*
X34708159Y-39156647D01*
X34833880Y-39129580D01*
X34946084Y-39066742D01*
X34951618Y-39060940D01*
X82771815Y-39060940D01*
X82808662Y-39184150D01*
X82880110Y-39291078D01*
X82979840Y-39372271D01*
X83099035Y-39420550D01*
X83227157Y-39431647D01*
X83352878Y-39404580D01*
X83465082Y-39341742D01*
X83553850Y-39248690D01*
X83563722Y-39228933D01*
X83611332Y-39133651D01*
X83623435Y-39060938D01*
X83632447Y-39006793D01*
X83632500Y-39000000D01*
X83613380Y-38872828D01*
X83583079Y-38809726D01*
X83557713Y-38756899D01*
X83470419Y-38662466D01*
X83470417Y-38662464D01*
X83359214Y-38597872D01*
X83233934Y-38568833D01*
X83105652Y-38577916D01*
X82985713Y-38624317D01*
X82884721Y-38703932D01*
X82811603Y-38809726D01*
X82772825Y-38932342D01*
X82771815Y-39060940D01*
X34951618Y-39060940D01*
X35034852Y-38973690D01*
X35092334Y-38858651D01*
X35113449Y-38731792D01*
X35113502Y-38724999D01*
X35103330Y-38657342D01*
X35094382Y-38597828D01*
X35064081Y-38534726D01*
X35038715Y-38481899D01*
X34951421Y-38387466D01*
X34951419Y-38387464D01*
X34840216Y-38322872D01*
X34714936Y-38293833D01*
X34586654Y-38302916D01*
X34466715Y-38349317D01*
X34365723Y-38428932D01*
X34329116Y-38481899D01*
X34292605Y-38534726D01*
X34253827Y-38657342D01*
X34252817Y-38785940D01*
X12127500Y-38785940D01*
X12127500Y-37460940D01*
X20571815Y-37460940D01*
X20608662Y-37584150D01*
X20680110Y-37691078D01*
X20779840Y-37772271D01*
X20899035Y-37820550D01*
X21027157Y-37831647D01*
X21152878Y-37804580D01*
X21265082Y-37741742D01*
X21353850Y-37648690D01*
X21411332Y-37533650D01*
X21432447Y-37406793D01*
X21432500Y-37400000D01*
X21413380Y-37272828D01*
X21383079Y-37209726D01*
X21357713Y-37156899D01*
X21270419Y-37062466D01*
X21270417Y-37062464D01*
X21159214Y-36997872D01*
X21033934Y-36968833D01*
X20905652Y-36977916D01*
X20785713Y-37024317D01*
X20684721Y-37103932D01*
X20648114Y-37156899D01*
X20611603Y-37209726D01*
X20572825Y-37332342D01*
X20571815Y-37460940D01*
X12127500Y-37460940D01*
X12127500Y-35810940D01*
X31721815Y-35810940D01*
X31758662Y-35934150D01*
X31830110Y-36041078D01*
X31929840Y-36122271D01*
X32049035Y-36170550D01*
X32177157Y-36181647D01*
X32302878Y-36154580D01*
X32415082Y-36091742D01*
X32503850Y-35998690D01*
X32561332Y-35883651D01*
X32573434Y-35810940D01*
X38671815Y-35810940D01*
X38708662Y-35934150D01*
X38780110Y-36041078D01*
X38879840Y-36122271D01*
X38999035Y-36170550D01*
X39127157Y-36181647D01*
X39252878Y-36154580D01*
X39365082Y-36091742D01*
X39453850Y-35998690D01*
X39511332Y-35883651D01*
X39515112Y-35860940D01*
X46171815Y-35860940D01*
X46208662Y-35984150D01*
X46280110Y-36091078D01*
X46379840Y-36172271D01*
X46499035Y-36220550D01*
X46627157Y-36231647D01*
X46752878Y-36204580D01*
X46865082Y-36141742D01*
X46953850Y-36048690D01*
X47011332Y-35933651D01*
X47023434Y-35860940D01*
X50221815Y-35860940D01*
X50258662Y-35984150D01*
X50330110Y-36091078D01*
X50429840Y-36172271D01*
X50549035Y-36220550D01*
X50677157Y-36231647D01*
X50802878Y-36204580D01*
X50915082Y-36141742D01*
X51003850Y-36048690D01*
X51061332Y-35933651D01*
X51081756Y-35810940D01*
X57721815Y-35810940D01*
X57758662Y-35934150D01*
X57830110Y-36041078D01*
X57929840Y-36122271D01*
X58049035Y-36170550D01*
X58177157Y-36181647D01*
X58302878Y-36154580D01*
X58415082Y-36091742D01*
X58503850Y-35998690D01*
X58561332Y-35883651D01*
X58582447Y-35756792D01*
X58582500Y-35749999D01*
X58572328Y-35682342D01*
X58563380Y-35622828D01*
X58531722Y-35556899D01*
X58507713Y-35506899D01*
X58420419Y-35412466D01*
X58420417Y-35412464D01*
X58309214Y-35347872D01*
X58183934Y-35318833D01*
X58055652Y-35327916D01*
X57935713Y-35374317D01*
X57834721Y-35453932D01*
X57800164Y-35503933D01*
X57761603Y-35559726D01*
X57722825Y-35682342D01*
X57721815Y-35810940D01*
X51081756Y-35810940D01*
X51082447Y-35806792D01*
X51082500Y-35799999D01*
X51063380Y-35672829D01*
X51007713Y-35556899D01*
X50920419Y-35462466D01*
X50920417Y-35462464D01*
X50809214Y-35397872D01*
X50683934Y-35368833D01*
X50555652Y-35377916D01*
X50435713Y-35424317D01*
X50334721Y-35503932D01*
X50298114Y-35556899D01*
X50261603Y-35609726D01*
X50222825Y-35732342D01*
X50221815Y-35860940D01*
X47023434Y-35860940D01*
X47032447Y-35806792D01*
X47032500Y-35799999D01*
X47013380Y-35672829D01*
X46957713Y-35556899D01*
X46870419Y-35462466D01*
X46870417Y-35462464D01*
X46759214Y-35397872D01*
X46633934Y-35368833D01*
X46505652Y-35377916D01*
X46385713Y-35424317D01*
X46284721Y-35503932D01*
X46248114Y-35556899D01*
X46211603Y-35609726D01*
X46172825Y-35732342D01*
X46171815Y-35860940D01*
X39515112Y-35860940D01*
X39532447Y-35756792D01*
X39532500Y-35749999D01*
X39522328Y-35682342D01*
X39513380Y-35622828D01*
X39481722Y-35556899D01*
X39457713Y-35506899D01*
X39370419Y-35412466D01*
X39370417Y-35412464D01*
X39259214Y-35347872D01*
X39133934Y-35318833D01*
X39005652Y-35327916D01*
X38885713Y-35374317D01*
X38784721Y-35453932D01*
X38750164Y-35503933D01*
X38711603Y-35559726D01*
X38672825Y-35682342D01*
X38671815Y-35810940D01*
X32573434Y-35810940D01*
X32582447Y-35756792D01*
X32582500Y-35749999D01*
X32572328Y-35682342D01*
X32563380Y-35622828D01*
X32531722Y-35556899D01*
X32507713Y-35506899D01*
X32420419Y-35412466D01*
X32420417Y-35412464D01*
X32309214Y-35347872D01*
X32183934Y-35318833D01*
X32055652Y-35327916D01*
X31935713Y-35374317D01*
X31834721Y-35453932D01*
X31800164Y-35503933D01*
X31761603Y-35559726D01*
X31722825Y-35682342D01*
X31721815Y-35810940D01*
X12127500Y-35810940D01*
X12127500Y-35060940D01*
X36471815Y-35060940D01*
X36508662Y-35184150D01*
X36580110Y-35291078D01*
X36679840Y-35372271D01*
X36799035Y-35420550D01*
X36927157Y-35431647D01*
X37052878Y-35404580D01*
X37165082Y-35341742D01*
X37253850Y-35248690D01*
X37311332Y-35133651D01*
X37332447Y-35006792D01*
X37332500Y-34999999D01*
X37313380Y-34872829D01*
X37257713Y-34756899D01*
X37170419Y-34662466D01*
X37170417Y-34662464D01*
X37059214Y-34597872D01*
X36933934Y-34568833D01*
X36805652Y-34577916D01*
X36685713Y-34624317D01*
X36584721Y-34703932D01*
X36548114Y-34756899D01*
X36511603Y-34809726D01*
X36472825Y-34932342D01*
X36471815Y-35060940D01*
X12127500Y-35060940D01*
X12127500Y-31860940D01*
X39671815Y-31860940D01*
X39708662Y-31984150D01*
X39780110Y-32091078D01*
X39879840Y-32172271D01*
X39999035Y-32220550D01*
X40127157Y-32231647D01*
X40252878Y-32204580D01*
X40312926Y-32170951D01*
X82071815Y-32170951D01*
X82108662Y-32294161D01*
X82180110Y-32401089D01*
X82279840Y-32482282D01*
X82399035Y-32530561D01*
X82527157Y-32541658D01*
X82652878Y-32514591D01*
X82765082Y-32451753D01*
X82853850Y-32358701D01*
X82911332Y-32243662D01*
X82932447Y-32116803D01*
X82932500Y-32110010D01*
X82913380Y-31982840D01*
X82857713Y-31866910D01*
X82770419Y-31772477D01*
X82770417Y-31772475D01*
X82659214Y-31707883D01*
X82533934Y-31678844D01*
X82405652Y-31687927D01*
X82285713Y-31734328D01*
X82184721Y-31813943D01*
X82168253Y-31837771D01*
X82111603Y-31919737D01*
X82072825Y-32042353D01*
X82071815Y-32170951D01*
X40312926Y-32170951D01*
X40365082Y-32141742D01*
X40453850Y-32048690D01*
X40511332Y-31933651D01*
X40532447Y-31806792D01*
X40532500Y-31799999D01*
X40513380Y-31672829D01*
X40502251Y-31649651D01*
X40483079Y-31609726D01*
X40457713Y-31556899D01*
X40370419Y-31462466D01*
X40370417Y-31462464D01*
X40259214Y-31397872D01*
X40225037Y-31389950D01*
X52394676Y-31389950D01*
X52431523Y-31513160D01*
X52502971Y-31620088D01*
X52602701Y-31701281D01*
X52721896Y-31749560D01*
X52850018Y-31760657D01*
X52975739Y-31733590D01*
X53087943Y-31670752D01*
X53176711Y-31577700D01*
X53202323Y-31526441D01*
X73371815Y-31526441D01*
X73408662Y-31649651D01*
X73480110Y-31756579D01*
X73579840Y-31837772D01*
X73699035Y-31886051D01*
X73827157Y-31897148D01*
X73952878Y-31870081D01*
X74065082Y-31807243D01*
X74153850Y-31714191D01*
X74211332Y-31599152D01*
X74232447Y-31472293D01*
X74232500Y-31465500D01*
X74213380Y-31338330D01*
X74212167Y-31335802D01*
X74181927Y-31272828D01*
X74157713Y-31222400D01*
X74070419Y-31127967D01*
X74070417Y-31127965D01*
X73959214Y-31063373D01*
X73833934Y-31034334D01*
X73705652Y-31043417D01*
X73585713Y-31089818D01*
X73484721Y-31169433D01*
X73448114Y-31222400D01*
X73411603Y-31275227D01*
X73372825Y-31397843D01*
X73371815Y-31526441D01*
X53202323Y-31526441D01*
X53234193Y-31462661D01*
X53254887Y-31338330D01*
X53255308Y-31335803D01*
X53255361Y-31329010D01*
X53236241Y-31201838D01*
X53205940Y-31138736D01*
X53180574Y-31085909D01*
X53157493Y-31060940D01*
X66771815Y-31060940D01*
X66808662Y-31184150D01*
X66880110Y-31291078D01*
X66979840Y-31372271D01*
X67099035Y-31420550D01*
X67227157Y-31431647D01*
X67352878Y-31404580D01*
X67465082Y-31341742D01*
X67553850Y-31248690D01*
X67611332Y-31133651D01*
X67628094Y-31032943D01*
X67632447Y-31006793D01*
X67632500Y-31000000D01*
X67631219Y-30991476D01*
X67621507Y-30926882D01*
X67613380Y-30872828D01*
X67583079Y-30809726D01*
X67557713Y-30756899D01*
X67470419Y-30662466D01*
X67470417Y-30662464D01*
X67359214Y-30597872D01*
X67233934Y-30568833D01*
X67105652Y-30577916D01*
X66985713Y-30624317D01*
X66884721Y-30703932D01*
X66882433Y-30707243D01*
X66811603Y-30809726D01*
X66772825Y-30932342D01*
X66771815Y-31060940D01*
X53157493Y-31060940D01*
X53093280Y-30991476D01*
X53093278Y-30991474D01*
X52982075Y-30926882D01*
X52856795Y-30897843D01*
X52728513Y-30906926D01*
X52608574Y-30953327D01*
X52507582Y-31032942D01*
X52434464Y-31138736D01*
X52395686Y-31261352D01*
X52394771Y-31377916D01*
X52394676Y-31389950D01*
X40225037Y-31389950D01*
X40133934Y-31368833D01*
X40005652Y-31377916D01*
X39885713Y-31424317D01*
X39784721Y-31503932D01*
X39729279Y-31584151D01*
X39711603Y-31609726D01*
X39672825Y-31732342D01*
X39671815Y-31860940D01*
X12127500Y-31860940D01*
X12127500Y-31460940D01*
X37571815Y-31460940D01*
X37608662Y-31584150D01*
X37680110Y-31691078D01*
X37779840Y-31772271D01*
X37899035Y-31820550D01*
X38027157Y-31831647D01*
X38152878Y-31804580D01*
X38265082Y-31741742D01*
X38353850Y-31648690D01*
X38411332Y-31533651D01*
X38432447Y-31406792D01*
X38432500Y-31399999D01*
X38413380Y-31272829D01*
X38357713Y-31156899D01*
X38270419Y-31062466D01*
X38270417Y-31062464D01*
X38159214Y-30997872D01*
X38033934Y-30968833D01*
X37905652Y-30977916D01*
X37785713Y-31024317D01*
X37684721Y-31103932D01*
X37629279Y-31184151D01*
X37611603Y-31209726D01*
X37572825Y-31332342D01*
X37571815Y-31460940D01*
X12127500Y-31460940D01*
X12127500Y-30426441D01*
X81144813Y-30426441D01*
X81181660Y-30549651D01*
X81253108Y-30656579D01*
X81352838Y-30737772D01*
X81472033Y-30786051D01*
X81600155Y-30797148D01*
X81725876Y-30770081D01*
X81838080Y-30707243D01*
X81926848Y-30614191D01*
X81984330Y-30499152D01*
X81996432Y-30426441D01*
X86337316Y-30426441D01*
X86374163Y-30549651D01*
X86445611Y-30656579D01*
X86545341Y-30737772D01*
X86664536Y-30786051D01*
X86792658Y-30797148D01*
X86918379Y-30770081D01*
X87030583Y-30707243D01*
X87119351Y-30614191D01*
X87176833Y-30499152D01*
X87197948Y-30372293D01*
X87198001Y-30365500D01*
X87178881Y-30238330D01*
X87123214Y-30122400D01*
X87035920Y-30027967D01*
X87035918Y-30027965D01*
X86924715Y-29963373D01*
X86799435Y-29934334D01*
X86671153Y-29943417D01*
X86551214Y-29989818D01*
X86450222Y-30069433D01*
X86413615Y-30122400D01*
X86377104Y-30175227D01*
X86338326Y-30297843D01*
X86337316Y-30426441D01*
X81996432Y-30426441D01*
X82005445Y-30372293D01*
X82005498Y-30365500D01*
X81986378Y-30238330D01*
X81930711Y-30122400D01*
X81843417Y-30027967D01*
X81843415Y-30027965D01*
X81732212Y-29963373D01*
X81606932Y-29934334D01*
X81478650Y-29943417D01*
X81358711Y-29989818D01*
X81257719Y-30069433D01*
X81221112Y-30122400D01*
X81184601Y-30175227D01*
X81145823Y-30297843D01*
X81144813Y-30426441D01*
X12127500Y-30426441D01*
X12127500Y-28060940D01*
X35971815Y-28060940D01*
X36008662Y-28184150D01*
X36080110Y-28291078D01*
X36179840Y-28372271D01*
X36299035Y-28420550D01*
X36427157Y-28431647D01*
X36552878Y-28404580D01*
X36665082Y-28341742D01*
X36753850Y-28248690D01*
X36811332Y-28133650D01*
X36832447Y-28006793D01*
X36832500Y-28000000D01*
X36813380Y-27872828D01*
X36783079Y-27809726D01*
X36757713Y-27756899D01*
X36670419Y-27662466D01*
X36670417Y-27662464D01*
X36559214Y-27597872D01*
X36433934Y-27568833D01*
X36305652Y-27577916D01*
X36185713Y-27624317D01*
X36084721Y-27703932D01*
X36048114Y-27756899D01*
X36011603Y-27809726D01*
X35972825Y-27932342D01*
X35971815Y-28060940D01*
X12127500Y-28060940D01*
X12127500Y-26926441D01*
X69671815Y-26926441D01*
X69708662Y-27049651D01*
X69780110Y-27156579D01*
X69879840Y-27237772D01*
X69999035Y-27286051D01*
X70127157Y-27297148D01*
X70252878Y-27270081D01*
X70365082Y-27207243D01*
X70453850Y-27114191D01*
X70511332Y-26999151D01*
X70532447Y-26872294D01*
X70532500Y-26865501D01*
X70513380Y-26738329D01*
X70483079Y-26675227D01*
X70457713Y-26622400D01*
X70370419Y-26527967D01*
X70370417Y-26527965D01*
X70259214Y-26463373D01*
X70133934Y-26434334D01*
X70005652Y-26443417D01*
X69885713Y-26489818D01*
X69784721Y-26569433D01*
X69748114Y-26622400D01*
X69711603Y-26675227D01*
X69672825Y-26797843D01*
X69671815Y-26926441D01*
X12127500Y-26926441D01*
X12127500Y-24660940D01*
X69671815Y-24660940D01*
X69708662Y-24784150D01*
X69780110Y-24891078D01*
X69879840Y-24972271D01*
X69999035Y-25020550D01*
X70127157Y-25031647D01*
X70252878Y-25004580D01*
X70365082Y-24941742D01*
X70453850Y-24848690D01*
X70511332Y-24733650D01*
X70532447Y-24606793D01*
X70532500Y-24600000D01*
X70513380Y-24472828D01*
X70483079Y-24409726D01*
X70457713Y-24356899D01*
X70370419Y-24262466D01*
X70370417Y-24262464D01*
X70259214Y-24197872D01*
X70133934Y-24168833D01*
X70005652Y-24177916D01*
X69885713Y-24224317D01*
X69784721Y-24303932D01*
X69748114Y-24356899D01*
X69711603Y-24409726D01*
X69672825Y-24532342D01*
X69671815Y-24660940D01*
X12127500Y-24660940D01*
X12127500Y-23960940D01*
X37621815Y-23960940D01*
X37658662Y-24084150D01*
X37730110Y-24191078D01*
X37829840Y-24272271D01*
X37949035Y-24320550D01*
X38077157Y-24331647D01*
X38202878Y-24304580D01*
X38315082Y-24241742D01*
X38403850Y-24148690D01*
X38461332Y-24033651D01*
X38473434Y-23960940D01*
X44621815Y-23960940D01*
X44658662Y-24084150D01*
X44730110Y-24191078D01*
X44829840Y-24272271D01*
X44949035Y-24320550D01*
X45077157Y-24331647D01*
X45202878Y-24304580D01*
X45315082Y-24241742D01*
X45403850Y-24148690D01*
X45461332Y-24033651D01*
X45473434Y-23960940D01*
X48571815Y-23960940D01*
X48608662Y-24084150D01*
X48680110Y-24191078D01*
X48779840Y-24272271D01*
X48899035Y-24320550D01*
X49027157Y-24331647D01*
X49152878Y-24304580D01*
X49265082Y-24241742D01*
X49353850Y-24148690D01*
X49411332Y-24033651D01*
X49423434Y-23960940D01*
X52121815Y-23960940D01*
X52158662Y-24084150D01*
X52230110Y-24191078D01*
X52329840Y-24272271D01*
X52449035Y-24320550D01*
X52577157Y-24331647D01*
X52702878Y-24304580D01*
X52815082Y-24241742D01*
X52903850Y-24148690D01*
X52961332Y-24033651D01*
X52973434Y-23960940D01*
X55621815Y-23960940D01*
X55658662Y-24084150D01*
X55730110Y-24191078D01*
X55829840Y-24272271D01*
X55949035Y-24320550D01*
X56077157Y-24331647D01*
X56202878Y-24304580D01*
X56315082Y-24241742D01*
X56403850Y-24148690D01*
X56461332Y-24033651D01*
X56473434Y-23960940D01*
X63121815Y-23960940D01*
X63158662Y-24084150D01*
X63230110Y-24191078D01*
X63329840Y-24272271D01*
X63449035Y-24320550D01*
X63577157Y-24331647D01*
X63702878Y-24304580D01*
X63815082Y-24241742D01*
X63903850Y-24148690D01*
X63961332Y-24033651D01*
X63981756Y-23910940D01*
X70621815Y-23910940D01*
X70658662Y-24034150D01*
X70730110Y-24141078D01*
X70829840Y-24222271D01*
X70949035Y-24270550D01*
X71077157Y-24281647D01*
X71202878Y-24254580D01*
X71315082Y-24191742D01*
X71403850Y-24098690D01*
X71461332Y-23983650D01*
X71465112Y-23960940D01*
X77621815Y-23960940D01*
X77658662Y-24084150D01*
X77730110Y-24191078D01*
X77829840Y-24272271D01*
X77949035Y-24320550D01*
X78077157Y-24331647D01*
X78202878Y-24304580D01*
X78315082Y-24241742D01*
X78403850Y-24148690D01*
X78461332Y-24033651D01*
X78473434Y-23960940D01*
X81121815Y-23960940D01*
X81158662Y-24084150D01*
X81230110Y-24191078D01*
X81329840Y-24272271D01*
X81449035Y-24320550D01*
X81577157Y-24331647D01*
X81702878Y-24304580D01*
X81815082Y-24241742D01*
X81903850Y-24148690D01*
X81961332Y-24033651D01*
X81982447Y-23906792D01*
X81982500Y-23899999D01*
X81963380Y-23772829D01*
X81907713Y-23656899D01*
X81820419Y-23562466D01*
X81820417Y-23562464D01*
X81709214Y-23497872D01*
X81583934Y-23468833D01*
X81455652Y-23477916D01*
X81335713Y-23524317D01*
X81234721Y-23603932D01*
X81198114Y-23656899D01*
X81161603Y-23709726D01*
X81122825Y-23832342D01*
X81121815Y-23960940D01*
X78473434Y-23960940D01*
X78482447Y-23906792D01*
X78482500Y-23899999D01*
X78463380Y-23772829D01*
X78407713Y-23656899D01*
X78320419Y-23562466D01*
X78320417Y-23562464D01*
X78209214Y-23497872D01*
X78083934Y-23468833D01*
X77955652Y-23477916D01*
X77835713Y-23524317D01*
X77734721Y-23603932D01*
X77698114Y-23656899D01*
X77661603Y-23709726D01*
X77622825Y-23832342D01*
X77621815Y-23960940D01*
X71465112Y-23960940D01*
X71482447Y-23856793D01*
X71482500Y-23850000D01*
X71463380Y-23722828D01*
X71431722Y-23656899D01*
X71407713Y-23606899D01*
X71320419Y-23512466D01*
X71320417Y-23512464D01*
X71209214Y-23447872D01*
X71083934Y-23418833D01*
X70955652Y-23427916D01*
X70835713Y-23474317D01*
X70734721Y-23553932D01*
X70700164Y-23603933D01*
X70661603Y-23659726D01*
X70622825Y-23782342D01*
X70621815Y-23910940D01*
X63981756Y-23910940D01*
X63982447Y-23906792D01*
X63982500Y-23899999D01*
X63963380Y-23772829D01*
X63907713Y-23656899D01*
X63820419Y-23562466D01*
X63820417Y-23562464D01*
X63709214Y-23497872D01*
X63583934Y-23468833D01*
X63455652Y-23477916D01*
X63335713Y-23524317D01*
X63234721Y-23603932D01*
X63198114Y-23656899D01*
X63161603Y-23709726D01*
X63122825Y-23832342D01*
X63121815Y-23960940D01*
X56473434Y-23960940D01*
X56482447Y-23906792D01*
X56482500Y-23899999D01*
X56463380Y-23772829D01*
X56407713Y-23656899D01*
X56320419Y-23562466D01*
X56320417Y-23562464D01*
X56209214Y-23497872D01*
X56083934Y-23468833D01*
X55955652Y-23477916D01*
X55835713Y-23524317D01*
X55734721Y-23603932D01*
X55698114Y-23656899D01*
X55661603Y-23709726D01*
X55622825Y-23832342D01*
X55621815Y-23960940D01*
X52973434Y-23960940D01*
X52982447Y-23906792D01*
X52982500Y-23899999D01*
X52963380Y-23772829D01*
X52907713Y-23656899D01*
X52820419Y-23562466D01*
X52820417Y-23562464D01*
X52709214Y-23497872D01*
X52583934Y-23468833D01*
X52455652Y-23477916D01*
X52335713Y-23524317D01*
X52234721Y-23603932D01*
X52198114Y-23656899D01*
X52161603Y-23709726D01*
X52122825Y-23832342D01*
X52121815Y-23960940D01*
X49423434Y-23960940D01*
X49432447Y-23906792D01*
X49432500Y-23899999D01*
X49413380Y-23772829D01*
X49357713Y-23656899D01*
X49270419Y-23562466D01*
X49270417Y-23562464D01*
X49159214Y-23497872D01*
X49033934Y-23468833D01*
X48905652Y-23477916D01*
X48785713Y-23524317D01*
X48684721Y-23603932D01*
X48648114Y-23656899D01*
X48611603Y-23709726D01*
X48572825Y-23832342D01*
X48571815Y-23960940D01*
X45473434Y-23960940D01*
X45482447Y-23906792D01*
X45482500Y-23899999D01*
X45463380Y-23772829D01*
X45407713Y-23656899D01*
X45320419Y-23562466D01*
X45320417Y-23562464D01*
X45209214Y-23497872D01*
X45083934Y-23468833D01*
X44955652Y-23477916D01*
X44835713Y-23524317D01*
X44734721Y-23603932D01*
X44698114Y-23656899D01*
X44661603Y-23709726D01*
X44622825Y-23832342D01*
X44621815Y-23960940D01*
X38473434Y-23960940D01*
X38482447Y-23906792D01*
X38482500Y-23899999D01*
X38463380Y-23772829D01*
X38407713Y-23656899D01*
X38320419Y-23562466D01*
X38320417Y-23562464D01*
X38209214Y-23497872D01*
X38083934Y-23468833D01*
X37955652Y-23477916D01*
X37835713Y-23524317D01*
X37734721Y-23603932D01*
X37698114Y-23656899D01*
X37661603Y-23709726D01*
X37622825Y-23832342D01*
X37621815Y-23960940D01*
X12127500Y-23960940D01*
X12127500Y-14095826D01*
X13022687Y-14095826D01*
X13061917Y-14290385D01*
X13139467Y-14473082D01*
X13252169Y-14636454D01*
X13395420Y-14773827D01*
X13563368Y-14879589D01*
X13749152Y-14949421D01*
X13945183Y-14980469D01*
X14143457Y-14971465D01*
X14335862Y-14922779D01*
X14514554Y-14836396D01*
X14672225Y-14715847D01*
X14802436Y-14566057D01*
X14899868Y-14393143D01*
X14944542Y-14253999D01*
X15594580Y-14253999D01*
X15601917Y-14290383D01*
X15679469Y-14473084D01*
X15792169Y-14636454D01*
X15935420Y-14773827D01*
X16103367Y-14879588D01*
X16286000Y-14948235D01*
X16286000Y-14943493D01*
X16793999Y-14943493D01*
X16875862Y-14922779D01*
X17054554Y-14836396D01*
X17212225Y-14715847D01*
X17342434Y-14566058D01*
X17439868Y-14393141D01*
X17484542Y-14254000D01*
X16794000Y-14253999D01*
X16793999Y-14943493D01*
X16286000Y-14943493D01*
X16286001Y-14254000D01*
X15594580Y-14253999D01*
X14944542Y-14253999D01*
X14960541Y-14204169D01*
X14960542Y-14204167D01*
X14981975Y-14006864D01*
X14981976Y-14006856D01*
X14982000Y-14000000D01*
X14961943Y-13802541D01*
X14944225Y-13746000D01*
X15594999Y-13746000D01*
X16286000Y-13746001D01*
X16286000Y-13746000D01*
X16793999Y-13746000D01*
X17484224Y-13746001D01*
X17442592Y-13613151D01*
X17346366Y-13439555D01*
X17217210Y-13288866D01*
X17060380Y-13167217D01*
X16882297Y-13079588D01*
X16794000Y-13056589D01*
X16793999Y-13746000D01*
X16286000Y-13746000D01*
X16286001Y-13052452D01*
X16109519Y-13117384D01*
X15940838Y-13221971D01*
X15796629Y-13358342D01*
X15682793Y-13520919D01*
X15603966Y-13703076D01*
X15594999Y-13746000D01*
X14944225Y-13746000D01*
X14902592Y-13613151D01*
X14851467Y-13520919D01*
X14806369Y-13439559D01*
X14806366Y-13439555D01*
X14677210Y-13288866D01*
X14658870Y-13274640D01*
X14520381Y-13167217D01*
X14419107Y-13117384D01*
X14342297Y-13079588D01*
X14224288Y-13048850D01*
X14150232Y-13029560D01*
X14131425Y-13028574D01*
X13952030Y-13019171D01*
X13755789Y-13048850D01*
X13569519Y-13117384D01*
X13400838Y-13221971D01*
X13256629Y-13358342D01*
X13142793Y-13520919D01*
X13142791Y-13520922D01*
X13102881Y-13613149D01*
X13063966Y-13703075D01*
X13043187Y-13802541D01*
X13023379Y-13897353D01*
X13022687Y-14095826D01*
X12127500Y-14095826D01*
X12127500Y-12127500D01*
X111872500Y-12127500D01*
X111872501Y-111872500D01*
G37*
%TD.AperFunction*%
%TD*%
M02*
